<svg xmlns="http://www.w3.org/2000/svg" version="1.1" viewBox="0 0 1920 1204">
  <path
   d="M1001.6,343.8v-17.2c0,0-5,0-5,0v17.2h5ZM1057.8,367.4h5.1v-40.8h-5.1v40.8ZM992.6,344.4h-38.6v-17.8h-5v40.9h5v-17.4h42.8v17.3h5v-12.6l-9.2-10.4h0ZM1029.6,363.6c-8.5,0-15.3-7.4-15.3-16.6s6.9-16.6,15.3-16.6,15.3,7.4,15.3,16.6-6.9,16.6-15.3,16.6ZM1029.6,325c-11.2,0-20.4,9.9-20.4,22s9.1,22,20.4,22,20.3-9.9,20.3-22-9.1-22-20.3-22ZM1089.6,326.6l16.2,40.8h5.1l-16.2-40.8h-5.1ZM1084,365.6l-15.4-38.9h-5.1l16.2,40.8h9.5v-40.8h-5.1v38.9ZM1115.9,367.4h5.1v-40.8h-5.1v40.8ZM1152.8,326.6h-5.1l16.2,40.8h5.1l-16.2-40.8ZM1142.1,365.6l-15.4-38.9h-5.1l16.2,40.8h9.5v-40.8h-5.1v38.9ZM1008.1,385.1h-4.4l-.9,2.3h-1.2l3.8-9h1.2l3.8,9h-1.2l-.9-2.3ZM1007.7,384.1l-1.8-4.4-1.8,4.4h3.6,0ZM1018.6,378.4v9h-1l-5-6.7v6.7h-1.2v-9h1l5,6.7v-6.7h1.2ZM1026.8,379.2c.6.6.9,1.3.9,2.3s-.3,1.8-.9,2.3c-.6.6-1.5.8-2.6.8h-2v2.7h-1.2v-9h3.2c1.1,0,1.9.3,2.6.8h0ZM1025.9,383c.4-.3.6-.9.6-1.5s-.2-1.2-.6-1.5-1-.5-1.7-.5h-2v4h2c.8,0,1.3-.2,1.7-.5ZM1029.5,378.4h1.2v9h-1.2v-9ZM1040.2,378.4v9h-1l-5-6.7v6.7h-1.2v-9h1l5,6.7v-6.7h1.2ZM1048.4,382.8h1.1v3.5c-.4.4-.9.7-1.4.9-.5.2-1.1.3-1.7.3-.8,0-1.6-.2-2.3-.6-.7-.4-1.2-1-1.6-1.6s-.6-1.5-.6-2.4.2-1.7.6-2.4c.4-.7.9-1.3,1.6-1.6.7-.4,1.4-.6,2.3-.6s1.3.1,1.8.4c.5.2,1,.6,1.4,1l-.7.8c-.7-.7-1.5-1-2.4-1s-1.2.2-1.7.4c-.5.3-.9.7-1.2,1.2-.3.5-.4,1.1-.4,1.8s.1,1.2.4,1.8c.3.5.7.9,1.2,1.2.5.3,1.1.5,1.7.5s1.4-.2,1.9-.6v-2.9ZM1061.9,378.4v9h-1.2v-4h-4.8v4h-1.2v-9h1.2v3.9h4.8v-3.9h1.2ZM1069.6,385.1h-4.4l-.9,2.3h-1.2l3.8-9h1.2l3.8,9h-1.2l-.9-2.3ZM1069.2,384.1l-1.8-4.4-1.8,4.4h3.6,0ZM1078.5,387.4l-1.8-2.8c-.2,0-.4,0-.5,0h-2.1v2.7h-1.2v-9h3.2c1.1,0,1.9.3,2.6.8.6.6.9,1.3.9,2.3s-.2,1.3-.5,1.8c-.3.5-.8.9-1.4,1.1l2,3h-1.3ZM1077.9,383c.4-.4.6-.9.6-1.5s-.2-1.2-.6-1.5-1-.5-1.7-.5h-2v4.1h2c.8,0,1.3-.2,1.7-.5ZM1088.2,383.5c.3.4.4.9.4,1.4s-.3,1.4-.8,1.8c-.5.4-1.3.6-2.4.6h-4v-9h3.7c1,0,1.7.2,2.2.6.5.4.8,1,.8,1.7s0,.9-.3,1.2c-.2.3-.5.6-.8.8.5.1.9.4,1.1.8h0ZM1082.7,379.4v2.9h2.4c.6,0,1.1-.1,1.4-.4.3-.2.5-.6.5-1.1s-.2-.8-.5-1.1c-.3-.2-.8-.4-1.4-.4h-2.4ZM1086.9,386c.3-.2.5-.6.5-1.1,0-1-.7-1.5-2-1.5h-2.7v3h2.7c.7,0,1.2-.1,1.5-.4ZM1091.9,386.9c-.7-.4-1.2-1-1.6-1.7-.4-.7-.6-1.5-.6-2.4s.2-1.7.6-2.4c.4-.7.9-1.3,1.6-1.7.7-.4,1.4-.6,2.3-.6s1.6.2,2.3.6c.7.4,1.2.9,1.6,1.6.4.7.6,1.5.6,2.4s-.2,1.7-.6,2.4c-.4.7-.9,1.3-1.6,1.6-.7.4-1.4.6-2.3.6s-1.6-.2-2.3-.6ZM1095.8,385.9c.5-.3.9-.7,1.2-1.2.3-.5.4-1.1.4-1.8s-.1-1.2-.4-1.8c-.3-.5-.7-.9-1.2-1.2-.5-.3-1-.5-1.7-.5s-1.2.2-1.7.5c-.5.3-.9.7-1.2,1.2-.3.5-.4,1.1-.4,1.8s.1,1.2.4,1.8c.3.5.7.9,1.2,1.2.5.3,1.1.5,1.7.5s1.2-.2,1.7-.5ZM1101.1,386.5c-.6-.7-.9-1.7-.9-3v-5.1h1.2v5.1c0,1.9.8,2.9,2.3,2.9s1.3-.2,1.7-.7c.4-.5.6-1.2.6-2.2v-5.1h1.2v5.1c0,1.3-.3,2.3-.9,3-.6.7-1.5,1-2.6,1s-2-.3-2.6-1ZM1115.2,387.4l-1.8-2.8c-.2,0-.4,0-.5,0h-2.1v2.7h-1.2v-9h3.3c1.1,0,1.9.3,2.6.8.6.6.9,1.3.9,2.3s-.2,1.3-.5,1.8c-.3.5-.8.9-1.3,1.1l2,3h-1.3ZM1114.5,383c.4-.4.6-.9.6-1.5s-.2-1.2-.6-1.5-1-.5-1.7-.5h-2v4.1h2c.8,0,1.3-.2,1.7-.5ZM1026,402.1c-.4,1.2-1,2.2-1.7,2.9,1.5.7,2.8,1.4,3.7,2l-.7.8c-.9-.6-2.2-1.4-3.7-2.1-1.3,1.1-2.9,1.7-4.8,2.2-.1-.2-.4-.7-.6-.9,1.8-.3,3.3-.9,4.4-1.7-1.1-.5-2.2-.9-3.1-1.2h0c.4-.6.8-1.3,1.3-2h-2.7v-.9h3.2c.3-.7.7-1.4.9-2.1l.9.2c-.2.6-.5,1.2-.8,1.9h6v.9h-2.3ZM1019.2,400.2h-.9v-2.6h4.3c-.2-.4-.4-.9-.6-1.3l.9-.2c.2.5.5,1.1.7,1.5h4.2v2.6h-.9v-1.7h-7.8v1.7ZM1021.8,402.1c-.3.6-.6,1.1-.9,1.6.8.3,1.7.6,2.6,1,.7-.7,1.2-1.5,1.6-2.6h-3.2ZM1042.7,403.4h-4.9v4.5h-.9v-4.5h-4.8v-.9h4.8v-4.5h-4.2v-.9h9.3v.9h-4.2v4.5h4.9v.9ZM1034.3,398.6c.5.9,1,2.1,1.1,2.9l-.8.3c-.2-.8-.6-2-1.1-3l.8-.3h0ZM1039.1,401.6c.4-.8,1-2.1,1.3-3l.9.3c-.4,1-1,2.3-1.5,3l-.8-.3h0ZM1048.1,401.9c-.4-.4-1.3-.9-2-1.3l.5-.7c.7.3,1.5.8,2,1.2l-.5.8ZM1048.8,403.7c-.4,1.3-1,2.7-1.5,3.9l-.8-.6c.5-1,1.1-2.5,1.6-3.9l.7.6ZM1048.7,398.5c-.4-.4-1.2-1-1.8-1.4l.5-.7c.6.3,1.4.9,1.8,1.3l-.5.7ZM1051.6,405.2v1.3c0,.4.1.5.9.5h2.7c.6,0,.7-.2.8-1.5.2.2.5.3.7.3-.1,1.5-.4,1.9-1.4,1.9h-2.7c-1.3,0-1.6-.3-1.6-1.3v-3.5c-.4.6-.9,1.1-1.4,1.5-.2-.2-.4-.6-.6-.7.8-.6,1.7-1.7,2.2-2.9h-2.1v-.9h2.1v-1.5h-1.6v-.9h1.6v-1.4h.9v1.4h2.3v-1.4h.9v1.4h1.8v.9h-1.8v1.5h2.1v.9h-2.1c.5,1.1,1.3,2,2.2,2.5-.2.2-.5.5-.6.7-.5-.3-.9-.8-1.4-1.4v2.4h-3.7ZM1051.9,400.9c-.2.5-.4,1-.7,1.4h3.7c-.3-.5-.6-.9-.8-1.4h-2.2ZM1054.5,403h-2.9v1.4h2.9v-1.4ZM1051.9,400h2.3v-1.5h-2.3v1.5ZM1062.3,401.7c-.4-.4-1.2-1-1.9-1.4l.5-.7c.7.3,1.5.9,1.9,1.3l-.5.8h0ZM1063.2,403.7c-.5,1.3-1.1,2.9-1.6,4.1l-.8-.5c.5-1,1.2-2.6,1.7-4.1l.7.5h0ZM1062.8,398.4c-.3-.4-1.1-1-1.8-1.4l.5-.7c.7.3,1.4.9,1.8,1.4l-.5.7h0ZM1066.2,404.2c-1,.4-2,.8-2.8,1.1l-.3-.9c.3-.1.7-.2,1.2-.4v-5.2h-1v-.9h2.8v.9h-1v4.9c.3-.1.7-.2,1-.4v.8c.1,0,.1,0,.1,0ZM1064.6,407.3c.6-.6,1-1.6,1.1-2.6l.6.2c-.2,1.1-.4,2.2-1.1,2.8l-.6-.4h0ZM1067.1,402.7v.7h4.1s0,.3,0,.4c-.2,2.5-.3,3.4-.6,3.8-.2.2-.4.3-.7.3-.2,0-.7,0-1.2,0,0-.2,0-.5-.2-.7.5,0,.9,0,1.1,0s.3,0,.3-.1c.2-.2.4-1,.5-3h-4.1v-6.8h1.4c.2-.4.3-.9.4-1.2l.9.2c-.2.3-.3.7-.4,1h2.2v3.8h-3.6v.8h4.3v.8h-4.3ZM1067.4,404.9c0,.7.2,1.6,0,2.1h-.6c0-.5,0-1.4,0-2.1h.6c0,0,0,0,0,0ZM1067.1,398.1v.9h2.8v-.9h-2.8ZM1069.9,400.4v-.9h-2.8v.9h2.8ZM1068.4,404.8c.2.6.4,1.3.5,1.8l-.6.2c0-.5-.3-1.2-.5-1.8h.5c0-.1,0-.1,0-.1ZM1069.6,406.1c-.1-.3-.4-.9-.7-1.3l.5-.2c.3.4.6.9.7,1.3l-.5.2h0ZM1081.6,402.3v1.5h3v4.1h-.9v-.4h-5v.5h-.8v-4.1h2.9v-1.5h-3.8c0,1.9-.4,4.1-1.4,5.7-.2-.2-.5-.4-.8-.5,1.2-2,1.3-4.8,1.3-6.9v-3.7h8.7v3.1h-3.2v1.4h3.8v.9h-3.8ZM1080.7,401.4v-1.4h-3.8v.6c0,.3,0,.5,0,.8h3.8ZM1076.9,397.7v1.4h6.9v-1.4h-6.9ZM1083.6,404.6h-5v2h5v-2ZM1094.1,400.3l.5.2c-.5,4.5-2.3,6.6-4.9,7.5,0-.3-.3-.7-.4-.9,1.3-.5,2.4-1.2,3.2-2.5-.4-.4-1.1-.9-1.7-1.2l.5-.6c.5.3,1.1.7,1.5,1.1.3-.7.6-1.6.8-2.7h-2c-.6,1.3-1.3,2.4-2.1,3.2-.1-.2-.4-.6-.6-.7,1.1-1,2-2.5,2.5-4.4l.6.2v-1.1h-2.7v-.9h2.7v-1.2h.9v1.2h3.2v-1.2h.9v1.2h2.7v.9h-2.7v1.2h-.9v-1.2h-3.2v1.2h-.6c0,.3-.2.6-.3.9h2.1ZM1098.6,406.8c.5,0,.5-.2.6-1.4.2.1.5.3.8.4-.1,1.5-.4,2-1.3,2h-2.1c-1.1,0-1.4-.3-1.4-1.5v-6.1h3.9v3.6c0,.5,0,.7-.4.9-.3.2-.9.2-1.7.2,0-.3-.2-.6-.3-.9.6,0,1.1,0,1.3,0,.2,0,.2,0,.2-.2v-2.8h-2.2v5.3c0,.5,0,.6.7.6h2ZM1491.7,777.6h11.1v2.7h-11.1v-2.7ZM1495.7,772.6h2.9v22.5h-2.9v-22.5ZM1495.6,778.9l2.1.7c-.3,1.1-.7,2.3-1.1,3.4-.4,1.2-.9,2.3-1.4,3.4-.5,1.1-1.1,2.1-1.7,3-.6.9-1.3,1.7-1.9,2.4-.2-.4-.4-.9-.8-1.4-.3-.5-.6-.9-.9-1.3.6-.6,1.2-1.3,1.8-2.1.6-.8,1.1-1.6,1.6-2.5.5-.9,1-1.8,1.3-2.8.4-1,.7-1.9,1-2.9ZM1498.7,778.9c.3,1.2.8,2.5,1.2,3.8.5,1.2,1.1,2.4,1.7,3.5.6,1.1,1.3,2,1.9,2.8-.3.3-.7.6-1.2,1-.4.4-.8.8-1,1.2-.6-.9-1.2-2-1.8-3.3-.6-1.3-1.1-2.7-1.6-4.1s-.9-2.9-1.2-4.3l1.9-.6ZM1481.2,777.6h9.8v2.7h-9.8v-2.7ZM1485,772.6h2.8v22.5h-2.8v-22.5ZM1484.8,779.4l1.8.7c-.2,1-.5,2-.8,3-.3,1-.7,2-1.1,3s-.8,1.9-1.3,2.8c-.5.8-1,1.6-1.5,2.2-.1-.4-.3-.9-.7-1.4-.3-.5-.6-1-.8-1.4.5-.5.9-1.1,1.4-1.8.4-.7.8-1.5,1.2-2.3.4-.8.7-1.6,1-2.4.3-.8.5-1.6.7-2.4ZM1487.8,780.7c.2.1.3.3.6.6.3.3.5.6.8.9.3.3.6.7.9,1,.3.4.6.7.8.9.2.3.4.5.5.6l-1.8,2.5c-.2-.4-.4-.8-.7-1.2-.3-.5-.6-1-.9-1.4-.3-.5-.7-1-1-1.4-.3-.4-.6-.8-.8-1.1l1.5-1.5ZM1522.5,781.1c.3,1.6.6,3.1,1,4.5.4,1.4,1,2.7,1.6,3.9.7,1.1,1.5,2.1,2.4,2.8-.2.2-.4.4-.7.7-.2.3-.4.6-.7,1s-.4.6-.5.9c-1-.9-1.9-2-2.6-3.4-.7-1.3-1.3-2.9-1.7-4.5-.5-1.7-.8-3.5-1.2-5.4l2.2-.5ZM1516.6,779.3h10.2v2.7h-10.2v-2.7ZM1522.2,774.5l1.9-.9c.3.4.6.9.9,1.4.3.5.6,1,.9,1.4.3.5.5.9.7,1.2l-2.1,1.1c-.1-.4-.4-.8-.6-1.2-.3-.5-.5-1-.8-1.5-.3-.5-.6-1-.8-1.5ZM1519.8,772.6h2.6v6.1c0,1.3,0,2.6-.2,4.1-.1,1.4-.3,2.8-.7,4.3-.3,1.4-.8,2.9-1.4,4.2-.6,1.4-1.4,2.7-2.4,4-.2-.4-.6-.7-1-1.1-.4-.4-.8-.7-1.2-.9.9-1.2,1.7-2.4,2.2-3.6.6-1.3,1-2.5,1.3-3.8.3-1.3.5-2.5.6-3.7,0-1.2.1-2.3.1-3.4v-6.1ZM1508,775.3v5.3h5.7v-5.3h-5.7ZM1506,773.3h9.9v9.3h-9.9v-9.3ZM1508,776.3l1.2-.3c.2.6.3,1.2.5,1.8.1.7.2,1.2.3,1.7l-1.2.4c0-.5,0-1.1-.2-1.7-.1-.7-.3-1.3-.5-1.8ZM1508.7,790.4l1.7-.2c.1.7.2,1.4.3,2.1,0,.8,0,1.4,0,2l-1.8.2c0-.5,0-1.2,0-2,0-.8-.1-1.5-.2-2.2ZM1511,790.3l1.7-.3c.2.6.4,1.2.5,1.8.2.7.3,1.2.4,1.7l-1.8.4c0-.5-.1-1.1-.3-1.8-.1-.7-.3-1.3-.5-1.9ZM1513.3,790.1l1.7-.6c.2.4.5.9.7,1.4.2.5.4,1,.4,1.3l-1.8.7c0-.4-.2-.8-.4-1.4-.2-.5-.4-1-.6-1.4ZM1506.6,789.9l1.8.9c-.1.4-.3.9-.4,1.4-.2.5-.3,1-.5,1.5-.2.5-.3,1-.5,1.4l-2-.9c.2-.4.4-.9.6-1.4.2-.5.4-1,.5-1.6.2-.5.3-1,.5-1.5ZM1512.6,776l1.4.5c-.2.6-.4,1.2-.7,1.9-.2.6-.4,1.2-.6,1.6l-1-.4c.1-.3.2-.7.3-1.2l.4-1.3c.1-.4.2-.8.2-1.2ZM1506,783.7h9.8v2.2h-9.8v-2.2ZM1510.1,774.3h1.7v7.4h.4v6.4h-2.5v-6.4h.4v-7.4ZM1505.4,787.1h10.8v2.2h-10.8v-2.2ZM1529,785.9l1.5-1.8c.6.6,1.2,1.2,1.8,1.8.7.6,1.3,1.3,1.9,1.9.7.6,1.3,1.3,1.8,1.8.6.6,1,1.1,1.4,1.6l-1.7,2.2c-.3-.5-.8-1.1-1.3-1.7-.5-.6-1.1-1.3-1.8-1.9-.6-.7-1.3-1.4-1.9-2-.6-.7-1.2-1.3-1.8-1.9ZM1529,785.9c.2-.8.4-1.8.7-2.9.2-1.1.4-2.2.6-3.4.2-1.2.4-2.4.5-3.6.1-1.2.2-2.3.3-3.4h2.5c0,1.2-.2,2.4-.4,3.6s-.3,2.5-.6,3.7c-.2,1.2-.4,2.4-.6,3.6-.2,1.1-.4,2.1-.6,3l-2.3-.8ZM1534.3,776h2.4v2.9c0,1.2,0,2.4-.2,3.8-.1,1.3-.4,2.7-.8,4.2-.4,1.4-1.1,2.8-1.9,4.2-.8,1.4-2,2.7-3.4,3.9-.1-.2-.3-.4-.5-.6-.2-.2-.4-.4-.7-.6-.2-.2-.4-.4-.6-.5,1.3-1.1,2.4-2.2,3.1-3.4.8-1.2,1.3-2.5,1.7-3.8.4-1.3.6-2.5.7-3.7.1-1.2.2-2.3.2-3.3v-2.9ZM1528.7,777.8c1.2,0,2.5-.1,4.1-.2,1.6,0,3.2-.2,4.8-.3v2.5c-1.5.1-3,.2-4.6.3-1.5,0-2.9.2-4.1.3l-.3-2.6ZM1539.5,775.1h10.2v10.8h-10.2v-2.5h7.4v-5.9h-7.4v-2.5ZM1539.7,779.2h8.5v2.4h-8.5v-2.4ZM1544.7,784.9c.6,1.6,1.4,3.1,2.6,4.4,1.2,1.3,2.5,2.3,4.1,3-.2.2-.4.4-.7.7-.2.3-.5.6-.7.8-.2.3-.4.6-.5.8-1.7-.9-3.2-2.1-4.4-3.6-1.2-1.6-2.2-3.4-2.9-5.4l2.5-.7ZM1549.1,786.1l1.8,1.9c-.6.5-1.3,1-2.1,1.5-.8.5-1.5.9-2.1,1.2l-1.6-1.8c.4-.2.8-.5,1.3-.8.5-.3,1-.7,1.4-1,.5-.4.9-.7,1.2-1ZM1541.8,773.1l2.5-.7c.3.5.6,1,.8,1.7.3.6.5,1.1.6,1.6l-2.7.8c0-.4-.3-1-.5-1.6-.2-.6-.5-1.2-.7-1.7ZM1538.2,795.2l-.3-2.4,1-.9,5-1.4c0,.4,0,.8,0,1.3,0,.5.1.8.2,1.1-1.2.4-2.1.7-2.9.9-.7.3-1.3.5-1.7.6-.4.2-.7.3-1,.4-.2.1-.4.2-.5.3ZM1538.2,795.2c0-.2-.2-.4-.4-.7-.2-.3-.3-.5-.5-.8-.2-.2-.4-.4-.5-.6.3-.2.6-.5.9-1,.3-.4.5-1,.5-1.6v-15.5h2.8v17.1s0,0-.3.2c-.2.1-.4.3-.6.6-.3.2-.5.5-.8.7-.3.3-.5.6-.7.8-.2.3-.3.5-.3.7ZM1506.2,816.5l2.8-1.3c.7.9,1.3,1.8,2,2.8.7,1,1.3,2,1.9,2.9.6,1,1.1,1.8,1.4,2.6l-3,1.6c-.3-.8-.8-1.6-1.4-2.6-.6-1-1.2-2-1.9-3.1-.7-1.1-1.3-2-2-2.9ZM1499.1,803.2l3.2,1c-.6,1.3-1.3,2.6-2.1,3.9-.8,1.3-1.6,2.5-2.5,3.7-.9,1.1-1.7,2.1-2.6,3-.2-.2-.4-.5-.8-.8-.3-.3-.6-.6-1-.9-.3-.3-.6-.6-.8-.7.8-.7,1.7-1.6,2.5-2.5.8-1,1.6-2,2.3-3.2.7-1.1,1.3-2.3,1.8-3.4ZM1495.7,824.3c0-.2-.2-.5-.3-.9-.1-.4-.3-.8-.4-1.2-.1-.4-.3-.8-.4-1.1.4-.1.8-.3,1.1-.6s.8-.7,1.2-1.3c.2-.3.6-.7,1.1-1.3.5-.6,1-1.3,1.6-2.2.6-.8,1.1-1.8,1.7-2.7.6-1,1.1-2,1.6-3l3.4,1.4c-.8,1.4-1.6,2.7-2.6,4.1-.9,1.3-1.9,2.6-2.9,3.8-1,1.2-2,2.2-2.9,3.2h0c0,0-.1.1-.3.2-.2.1-.5.3-.8.4-.3.2-.5.4-.8.5-.2.2-.3.3-.3.5ZM1495.7,824.3v-2.4c0,0,1.8-1.1,1.8-1.1l13.8-.9c0,.4.2.9.3,1.5.2.5.3,1,.3,1.3-2.2.2-4.1.3-5.7.5-1.6.1-3,.3-4.1.3-1.1,0-2,.2-2.8.2-.7,0-1.3.2-1.8.2-.4,0-.8.1-1.1.2-.3,0-.5.1-.7.2ZM1506.1,803.2h3.4c.4,1.1.8,2.2,1.4,3.3.6,1.1,1.3,2.1,2.1,3,.8.9,1.7,1.7,2.7,2.3-.2.2-.4.5-.7.8-.3.4-.6.7-.8,1.1-.2.4-.5.7-.6,1-1.1-.8-2-1.8-2.9-2.9-.9-1.1-1.6-2.2-2.3-3.4-.7-1.2-1.2-2.4-1.6-3.6h-.6v-1.6ZM1503.4,803.2h5v3h-5v-3ZM1521.2,809.9h13.4v1.6h-13.4v-1.6ZM1522.4,807.4h11.3v1.6h-11.3v-1.6ZM1526.6,806.4h2.6v4.4h-2.6v-4.4ZM1526.8,814.7l1.9.7c-.5.5-1.1.9-1.9,1.3-.8.4-1.6.8-2.4,1.1-.8.3-1.6.6-2.4.8,0-.1-.2-.3-.4-.5-.2-.2-.3-.4-.5-.6-.2-.2-.3-.4-.5-.5.8-.2,1.5-.4,2.3-.6.8-.2,1.5-.5,2.2-.8.7-.3,1.2-.6,1.7-1ZM1533.2,815.9l1.7,1.1c-.5.4-1.1.7-1.6,1.1-.6.3-1.1.6-1.6.8l-1.4-1c.3-.2.7-.4,1-.6.4-.2.7-.5,1.1-.7.4-.3.7-.5.9-.7ZM1524.9,813.4v1h6.2v-1h-6.2ZM1522.5,812.2h11.1v3.5h-11.1v-3.5ZM1517.7,803.5h20.6v21.6h-2.8v-19.1h-15v19.1h-2.7v-21.6ZM1519.4,821.7h17.5v2.6h-17.5v-2.6ZM1527.4,816.8l1.7-.9c.6.4,1.3.8,2.1,1.3.7.5,1.4,1,2.1,1.4.7.5,1.2.9,1.7,1.3l-1.8,1.1c-.4-.4-.9-.8-1.6-1.3-.7-.5-1.4-1-2.1-1.5-.7-.5-1.4-1-2.1-1.4ZM1523.8,821.7v-1.6c-.1,0,.7-.6.7-.6l4.5-1c0,.3,0,.6,0,.9s0,.6,0,.8c-1,.3-1.9.5-2.5.6-.6.2-1.1.3-1.5.4-.3,0-.6.2-.8.3-.2,0-.3.1-.4.2ZM1523.8,821.7c0-.2-.1-.5-.3-.8-.1-.3-.2-.6-.4-.7.2,0,.4-.2.5-.4.2-.2.3-.5.3-.9v-2.5h2.1v3.8s-.1,0-.3.1c-.2,0-.5.2-.8.4-.3.1-.5.3-.8.5-.2.2-.3.3-.3.5ZM1356.3,653.7h14.3v2.1h-14.3v-2.1ZM1355.4,657.4h16v2.2h-16v-2.2ZM1358.4,656.1l2.4-.5c.2.3.3.6.5.9.2.3.3.6.3.8l-2.6.5c0-.3-.1-.5-.3-.9-.1-.3-.3-.6-.4-.9ZM1365.7,655.5l2.9.6c-.3.5-.6,1-.9,1.5-.3.5-.5.9-.8,1.2l-2.2-.6c.2-.4.4-.9.5-1.4.2-.5.3-1,.4-1.4ZM1359.9,664.7v1h6.9v-1h-6.9ZM1359.9,662.2v1h6.9v-1h-6.9ZM1357.2,660.5h12.5v7h-12.5v-7ZM1356.3,668.4l2.2,1c-.2.7-.5,1.4-.8,2.2-.3.8-.7,1.5-1,2.1l-2.3-1.2c.2-.4.5-.8.7-1.2.2-.5.5-1,.7-1.5.2-.5.4-1,.5-1.4ZM1358.8,668.5h2.6v2.7c0,.3,0,.5.2.6.1,0,.4,0,.8,0h2.5c.2,0,.4,0,.5-.1.1,0,.2-.2.2-.5,0-.2,0-.6.1-1,.3.2.6.4,1.1.5.4.2.8.3,1.2.4,0,.8-.2,1.4-.5,1.8-.2.4-.5.7-.9.9-.4.2-.9.3-1.5.3h-3.1c-.9,0-1.6,0-2-.3-.5-.2-.8-.5-1-.9-.2-.4-.2-1-.2-1.7v-2.7ZM1361,668.1l1.8-1.4c.3.3.7.5,1.1.9.4.3.8.6,1.1,1,.4.3.7.6.9.8l-1.8,1.5c-.2-.3-.5-.5-.8-.9-.3-.3-.7-.6-1.1-1-.4-.4-.8-.7-1.1-.9ZM1366.8,669l2.2-.9c.3.4.6.9.9,1.5.3.5.7,1.1.9,1.6.3.5.5,1,.7,1.3l-2.4,1.1c-.2-.4-.4-.9-.7-1.4-.2-.5-.5-1.1-.9-1.6-.3-.6-.6-1.1-.9-1.5ZM1361.3,652l2.7-.4c.2.4.4.8.6,1.2.2.4.3.8.4,1.2l-2.8.5c0-.3-.2-.7-.3-1.2-.2-.5-.3-.9-.5-1.3ZM1353.8,651.7l2.7.9c-.5,1.3-1.1,2.7-1.8,4.1-.7,1.4-1.4,2.6-2.2,3.9-.8,1.2-1.6,2.3-2.5,3.2,0-.2-.2-.5-.4-.9-.2-.4-.4-.8-.6-1.2-.2-.4-.4-.7-.6-.9.7-.7,1.4-1.6,2-2.5.7-1,1.3-2,1.8-3.1.6-1.1,1.1-2.2,1.4-3.4ZM1351.4,658.3l2.7-2.7h0v18.5h-2.7v-15.8ZM1389.5,653.1l2.1-1.4c.6.5,1.1,1.1,1.7,1.7.6.6,1.1,1.2,1.4,1.6l-2.2,1.6c-.2-.3-.4-.7-.8-1.1-.3-.4-.7-.8-1.1-1.2-.4-.4-.7-.8-1.1-1.1ZM1373.1,656.7h21.9v2.4h-21.9v-2.4ZM1374.2,653.2h10.5v2.2h-10.5v-2.2ZM1373.8,660.1h11.3v2h-11.3v-2ZM1373.4,669.9h11.6v2.1h-11.6v-2.1ZM1378.1,651.6h2.7v7.3h-2.7v-7.3ZM1376.2,666.7v.9h6.4v-.9h-6.4ZM1376.2,664.5v.9h6.4v-.9h-6.4ZM1374.2,663.1h10.6v6h-10.6v-6ZM1378.4,664h2.1v4.6h.2v5.7h-2.5v-5.7h.2v-4.6ZM1378.1,658.9h2.6v4.7h-2.6v-4.7ZM1385.8,651.6h2.9c0,2.1,0,4.1,0,6,0,1.9.2,3.7.4,5.4.2,1.6.4,3.1.7,4.3.3,1.2.7,2.2,1,2.9.4.7.8,1.1,1.3,1.1s.4-.3.6-.9c.1-.6.2-1.6.3-3,.3.3.7.6,1.1.9.4.3.8.5,1.2.6-.1,1.4-.3,2.5-.6,3.2-.3.8-.6,1.3-1.1,1.6-.5.3-1,.5-1.8.5s-1.6-.3-2.2-.9c-.6-.6-1.2-1.4-1.6-2.4-.4-1-.8-2.3-1.1-3.7-.3-1.4-.5-3-.7-4.6-.2-1.7-.3-3.4-.4-5.3,0-1.9,0-3.7,0-5.7ZM1391.7,660.1l2.5.8c-.6,1.9-1.4,3.7-2.3,5.4-.9,1.6-1.9,3.1-3.1,4.5-1.2,1.3-2.5,2.5-4,3.5-.2-.4-.5-.8-.9-1.2-.4-.4-.7-.7-1-1,1.4-.8,2.6-1.8,3.7-3,1.1-1.2,2.1-2.5,2.9-4,.8-1.5,1.6-3.1,2.1-4.9ZM1353.5,688.6h12.8v2.6h-12.8v-2.6ZM1350.7,693.7h18.5v2.6h-18.5v-2.6ZM1349.6,701h20.9v2.6h-20.9v-2.6ZM1358.4,689.8h3.1v12.4h-3.1v-12.4ZM1352.3,697.1l2.3-1c.3.4.6.9.9,1.3.3.5.5,1,.8,1.4.2.4.4.9.6,1.2l-2.5,1.1c-.1-.4-.3-.8-.5-1.3-.2-.5-.5-1-.7-1.5-.3-.5-.6-1-.8-1.4ZM1365.1,696.2l2.8,1c-.5.8-.9,1.5-1.4,2.2-.5.7-.9,1.3-1.3,1.8l-2.2-.9c.2-.4.5-.8.8-1.3.3-.5.5-1,.8-1.5.2-.5.4-1,.6-1.4ZM1361.1,682.9c.6.6,1.2,1.2,2,1.8.8.6,1.7,1.1,2.6,1.6.9.5,1.9,1,2.9,1.4,1,.4,2,.8,3,1-.2.2-.4.4-.7.7s-.5.6-.7.9c-.2.3-.4.6-.6.8-1-.3-2-.8-3-1.2-1-.5-2-1.1-3-1.7-1-.6-1.9-1.3-2.7-2-.8-.7-1.6-1.4-2.3-2.2l2.4-1.2ZM1359.7,681.3l2.7,1.2c-.9,1.4-2,2.7-3.2,3.8s-2.6,2.1-4.1,2.9c-1.5.8-3,1.5-4.6,2.1-.2-.4-.5-.9-.8-1.4-.3-.5-.7-.9-1.1-1.3,1.5-.4,3-1,4.4-1.7,1.4-.7,2.7-1.5,3.9-2.4,1.2-.9,2.1-2,2.9-3.2ZM1373.1,687.3h6.7v2.6h-6.7v-2.6ZM1375.2,681.9h2.6v16.1h-2.6v-16.1ZM1372.7,698.4c.9-.3,2-.6,3.2-1.1s2.5-.9,3.8-1.3l.5,2.5c-1.1.5-2.3,1-3.4,1.4-1.2.5-2.2.9-3.2,1.3l-.9-2.9ZM1381.6,684.9h13.4v2.6h-13.4v-2.6ZM1382,690.1h4v2.3h-4v-2.3ZM1380.4,684.9h2.7v8c0,.9,0,1.8-.1,2.8,0,1-.2,2-.5,3-.2,1-.5,2-.9,2.9-.4.9-.9,1.7-1.6,2.5-.1-.2-.3-.4-.6-.6-.2-.2-.5-.4-.8-.7-.3-.2-.5-.4-.7-.5.8-.9,1.3-1.9,1.7-2.9.4-1.1.6-2.2.7-3.3,0-1.2.1-2.2.1-3.3v-8ZM1385,690.1h2.4v.4c0,.2,0,.4,0,.6,0,1.8,0,3.3,0,4.4,0,1.1,0,2-.2,2.6,0,.6-.2,1-.4,1.2-.2.3-.4.4-.6.6-.2.1-.5.2-.8.3-.2,0-.5,0-.9,0h-1.2c0-.4,0-.8-.2-1.2,0-.4-.2-.8-.4-1.1.3,0,.6,0,.8,0h.6c.3,0,.4,0,.6-.3,0-.1.2-.4.2-.9,0-.5,0-1.2.1-2.2,0-1,0-2.3,0-4v-.4ZM1387.7,681.6h2.7c0,1.6,0,3.2,0,4.8,0,1.6.1,3.1.2,4.6.1,1.5.2,2.8.4,4,.2,1.2.3,2.3.5,3.2.2.9.4,1.6.6,2.2.2.5.5.8.7.8s.3-.3.4-.9c.1-.6.2-1.5.2-2.7.3.3.6.6,1,.9.4.3.7.5,1.1.6-.1,1.2-.3,2.2-.5,2.9-.2.7-.5,1.2-.9,1.5-.4.3-.9.4-1.5.4s-1.3-.3-1.8-.9c-.5-.6-.9-1.4-1.3-2.5-.3-1.1-.7-2.3-.9-3.7-.2-1.4-.4-3-.6-4.6-.1-1.7-.2-3.4-.3-5.2,0-1.8-.1-3.6-.1-5.4ZM1390.4,682.7l2-1.2c.4.4.9.9,1.3,1.4.5.5.8,1,1,1.4l-2.1,1.3c-.2-.4-.5-.9-.9-1.4-.4-.6-.9-1.1-1.3-1.5ZM1392.4,690l2.6.5c-.7,3.1-1.8,5.8-3.2,8.2-1.4,2.3-3.2,4.2-5.3,5.6-.1-.2-.3-.4-.6-.6-.2-.2-.5-.5-.8-.7-.2-.2-.5-.4-.7-.6,2.1-1.2,3.8-2.9,5.1-5,1.3-2.1,2.2-4.5,2.9-7.3ZM1173.9,513.7h8.1v2.4h-8.1v-2.4ZM1177.1,517.9h3.3v2.3h-3.3v-2.3ZM1179.5,517.9h2.4s0,.1,0,.4v.6c0,1.6,0,3-.2,4.1,0,1.1-.1,2.1-.2,2.8,0,.7-.1,1.3-.2,1.8,0,.4-.2.7-.4.9-.2.3-.4.5-.7.6-.2.1-.5.2-.8.3-.2,0-.5,0-.9,0h-1.1c0-.4,0-.7-.2-1.2-.1-.4-.2-.8-.4-1.1.3,0,.6,0,.8,0h.6c.1,0,.2,0,.3,0,0,0,.2-.1.3-.3.1-.2.2-.5.3-1.1,0-.6.2-1.5.2-2.6,0-1.2.1-2.8.2-4.8v-.4ZM1183.1,513h7.1v2.4h-7.1v-2.4ZM1182.3,521.5h7.9v2.3h-7.9v-2.3ZM1182.9,516.8h5.3v2.1h-5.3v-2.1ZM1183.9,510.5l2.4.7c-.2.8-.5,1.6-.9,2.4-.3.8-.7,1.6-1.1,2.3-.4.7-.8,1.4-1.1,1.9-.2-.1-.3-.3-.6-.5-.2-.2-.5-.4-.8-.6-.2-.2-.4-.3-.6-.5.5-.7,1-1.6,1.5-2.6.5-1,.9-2.1,1.1-3.1ZM1184.9,520.1h2.5v6.6c0,.5,0,1-.2,1.4-.1.4-.4.6-.8.8-.3.2-.8.3-1.3.4-.5,0-1.1,0-1.8,0,0-.3-.2-.7-.3-1.2-.2-.4-.3-.8-.5-1.2.4,0,.8,0,1.2,0s.7,0,.8,0c.2,0,.4,0,.4-.3v-6.5ZM1187.5,516.8h1c0-.1,1.5,1,1.5,1-.5.7-1.1,1.4-1.8,2-.7.7-1.3,1.3-2,1.8-.2-.2-.4-.5-.7-.8-.3-.3-.5-.5-.7-.7.5-.4,1-.8,1.4-1.4.5-.6.8-1.1,1.1-1.5v-.4ZM1175.8,514.8h2.3v3.3c0,.8,0,1.6,0,2.5,0,.9-.2,1.9-.4,2.8-.2,1-.4,1.9-.8,2.8-.4.9-.8,1.8-1.5,2.5-.1-.2-.3-.3-.5-.5-.2-.2-.4-.4-.6-.6-.2-.2-.4-.4-.6-.5.5-.7.9-1.4,1.2-2.2.3-.8.5-1.6.7-2.4.1-.8.2-1.6.3-2.4,0-.8,0-1.5,0-2.1v-3.3ZM1176.4,511l2.5-.5c.2.5.4,1,.6,1.6.2.6.3,1.1.4,1.5l-2.6.5c0-.4-.2-.9-.4-1.5-.2-.6-.3-1.2-.5-1.7ZM1168.5,511.8l2.2-1.2c.5.6,1,1.2,1.5,1.9.5.7.9,1.3,1.2,1.8l-2.3,1.4c-.2-.4-.4-.8-.7-1.2-.3-.4-.6-.9-.9-1.4-.3-.5-.7-.9-1-1.3ZM1168,516.2h5.1v2.3h-5.1v-2.3ZM1172.9,526.6c.4,1.1,1.1,1.9,1.8,2.4.8.5,1.7.8,2.8,1,1.1.1,2.4.2,3.9.2.8,0,1.8,0,2.9,0,1.1,0,2.2,0,3.3-.1,1.1,0,2.1-.1,3-.2-.1.2-.2.4-.4.8-.1.3-.2.6-.3,1,0,.3-.2.6-.2.9-.8,0-1.7,0-2.7,0-.9,0-1.9,0-2.9,0-1,0-1.9,0-2.9,0-1.4,0-2.7,0-3.7-.2-1.1-.1-2.1-.4-2.9-.7-.8-.4-1.5-.9-2.1-1.6-.6-.7-1.1-1.6-1.6-2.8l1.9-.8ZM1171.7,522h1.3c0,0,1.2.4,1.2.4-.3,2.6-.9,4.8-1.8,6.6-.8,1.8-1.9,3.2-3.1,4.1-.1-.2-.3-.4-.5-.7-.2-.3-.5-.5-.7-.7-.2-.2-.4-.4-.6-.5,1.2-.8,2.1-2,2.8-3.5.7-1.5,1.2-3.3,1.5-5.4v-.4ZM1168.6,524.6v-2.1l1-.5h3.6v2.2h-3.1c-.3,0-.6,0-.9,0-.3,0-.5.2-.6.3ZM1168.6,524.6c0-.2-.1-.5-.3-.8-.1-.3-.2-.6-.4-.9-.1-.3-.2-.5-.3-.7.2,0,.4-.1.6-.2.2-.1.4-.3.6-.5.2-.2.4-.4.7-.9.3-.4.6-.9,1-1.4s.7-1,1-1.5c.3-.5.6-.9.8-1.2h0c0,0,.7-.4.7-.4l1.8.7c-.3.4-.6.9-.9,1.5-.3.5-.7,1.1-1.1,1.7-.4.6-.8,1.2-1.1,1.7-.4.5-.7,1-1.1,1.4,0,0,0,0-.3.2-.2,0-.4.2-.7.4-.2.2-.5.3-.7.5-.2.2-.3.3-.3.5ZM1193.9,513.5h4.5v2.2h-4.5v-2.2ZM1197.9,513.5h2v16.8c0,.6,0,1-.2,1.4-.1.4-.3.6-.6.8-.3.2-.7.3-1.2.3-.5,0-1,0-1.7,0,0-.3-.1-.7-.2-1.2s-.3-.8-.4-1.1c.4,0,.8,0,1.2,0h.8c.2,0,.3-.2.3-.4v-16.7ZM1193,513.5h2v9c0,.8,0,1.7,0,2.7,0,.9,0,1.9-.2,2.9,0,.9-.3,1.9-.5,2.7-.2.9-.5,1.6-.9,2.4-.2-.2-.5-.4-.9-.6-.4-.2-.7-.4-1-.5.5-.9.8-1.9,1-3s.3-2.2.4-3.3c0-1.1,0-2.2,0-3.2v-9ZM1195.5,510.6l2.7.5c-.2.7-.5,1.4-.7,2.1-.2.7-.5,1.2-.7,1.7l-2-.5c.1-.5.3-1.2.4-1.9.1-.7.2-1.3.3-1.9ZM1195,517l1.6-.6c.2.5.5,1.1.7,1.7.2.6.4,1.1.5,1.6l-1.7.7c0-.4-.2-1-.4-1.6-.2-.6-.4-1.2-.6-1.7ZM1194.9,524.4l1.6-.6c.2.5.5,1.1.7,1.8.2.6.4,1.2.6,1.7l-1.7.7c-.1-.5-.3-1.1-.5-1.7-.2-.7-.4-1.3-.7-1.8ZM1191.6,521.6c.8,0,1.6-.2,2.6-.3s2.1-.3,3.2-.4c1.1-.2,2.2-.3,3.3-.5l.2,2.2c-1.6.2-3.1.5-4.7.7-1.6.2-3,.5-4.3.7l-.3-2.4ZM1200.6,511.8h3.7v2.5h-3.7v-2.5ZM1206.2,525.9h7.9v2.5h-7.9v-2.5ZM1206.6,518.5h7.1v2.6h-7.1v-2.6ZM1201.7,518.5h3.1v2.2h-3.1v-2.2ZM1208.9,513.2h2.5v14.5h-2.5v-14.5ZM1203.9,518.5h.8s1.4.1,1.4.1c-.1,2.5-.3,4.7-.7,6.6-.4,1.9-.9,3.4-1.5,4.8-.7,1.3-1.5,2.4-2.6,3.2-.2-.3-.4-.6-.7-1-.3-.4-.5-.7-.8-.9.9-.6,1.6-1.5,2.2-2.7.6-1.2,1-2.6,1.3-4.2.3-1.6.5-3.5.6-5.5v-.4ZM1202.6,522.3c.3,1.7.7,3.1,1.2,4.1.5,1,1.1,1.8,1.8,2.4.7.5,1.4.9,2.2,1.1.8.2,1.6.3,2.5.3h4.3c-.1.2-.2.4-.3.7-.1.3-.2.6-.3.9,0,.3-.1.6-.2.8h-3.7c-1.1,0-2.2-.1-3.2-.4-1-.3-1.8-.7-2.6-1.4-.8-.7-1.5-1.7-2.1-3-.6-1.3-1.1-3-1.5-5l1.9-.6ZM1212.1,511l1.9,1.9c-.7.3-1.4.6-2.3.8-.8.2-1.7.4-2.5.6-.9.2-1.7.3-2.5.4,0-.3-.2-.6-.3-1-.1-.4-.3-.7-.4-1,.8-.1,1.5-.3,2.3-.5.8-.2,1.5-.4,2.2-.6.7-.2,1.3-.4,1.8-.6ZM1201.3,521.4c0-.2-.2-.4-.3-.6-.1-.2-.3-.5-.4-.7-.1-.2-.3-.4-.4-.6.2,0,.5-.3.8-.6.3-.3.5-.7.7-1,.1-.2.3-.7.5-1.3.2-.6.5-1.3.8-2.1.3-.8.5-1.6.7-2.5h0c0,0,.9-.5.9-.5l1.5,1c-.4,1.4-.8,2.7-1.4,4.1-.5,1.3-1.1,2.5-1.6,3.4h0s0,0-.3.2c-.2,0-.4.2-.6.3-.2.1-.4.3-.6.4-.2.1-.2.3-.2.4ZM1168.3,547.1h21.4v3h-21.4v-3ZM1180.7,548.3c.5,1.8,1.1,3.5,2,5.1.8,1.6,1.9,3,3.1,4.2,1.3,1.2,2.7,2.1,4.4,2.8-.2.2-.5.5-.8.8-.2.3-.5.6-.8,1-.2.4-.4.7-.6.9-1.8-.9-3.4-2-4.8-3.3-1.3-1.4-2.4-2.9-3.3-4.8-.9-1.8-1.7-3.8-2.2-6l2.9-.7ZM1177.4,540.6h3.1c0,1.2,0,2.5-.1,3.9,0,1.3-.2,2.7-.4,4.1-.2,1.4-.5,2.8-.9,4.2-.4,1.4-1,2.7-1.8,3.9-.8,1.2-1.7,2.4-2.9,3.5-1.2,1.1-2.6,2-4.3,2.9-.2-.4-.5-.8-.9-1.3s-.8-.8-1.2-1.2c1.6-.7,3-1.6,4.1-2.5,1.1-1,2-2,2.7-3.1.7-1.1,1.2-2.3,1.6-3.5.4-1.2.6-2.5.7-3.7.2-1.2.2-2.5.3-3.7,0-1.2,0-2.3,0-3.4ZM1198.7,543.3h8.2v2.4h-8.2v-2.4ZM1207.8,541.9h6v2.5h-6v-2.5ZM1207.6,548.3h6.6v2.6h-6.6v-2.6ZM1198.2,548h9v2.5h-9v-2.5ZM1201.4,540.6h2.7v8.8h-2.7v-8.8ZM1198.4,553.3h8.7v2.4h-8.7v-2.4ZM1201.4,550.9h2.7v8.5l-2.7.4v-9ZM1197.7,558.9c.8,0,1.8-.2,2.9-.3,1.1,0,2.2-.2,3.4-.3,1.2-.1,2.4-.2,3.5-.4v2.5c-1.6.2-3.3.4-4.9.6-1.7.2-3.2.4-4.5.5l-.3-2.6ZM1209.6,549.4h2.8v10.6c0,.7,0,1.2-.2,1.7-.2.4-.4.8-.9,1-.4.2-.9.4-1.5.4-.6,0-1.3,0-2.2,0,0-.4-.1-.9-.3-1.4-.1-.5-.3-1-.5-1.4.5,0,1,0,1.4,0,.4,0,.8,0,.9,0,.2,0,.3,0,.3,0,0,0,0-.1,0-.3v-10.5ZM1195.6,540.6l2.6,1c-.4.7-.9,1.4-1.5,2.1-.6.7-1.2,1.4-1.8,2-.6.6-1.2,1.2-1.9,1.7-.1-.2-.3-.4-.5-.7-.2-.3-.4-.5-.5-.8-.2-.3-.3-.5-.5-.6.5-.4,1-.9,1.5-1.4.5-.5,1-1.1,1.4-1.6.4-.6.8-1.1,1.1-1.6ZM1194.3,550.9l2.2-2.3h.4v14.5h-2.6v-12.3ZM1196.2,545.7l2.5.9c-.4,1-1,2.1-1.6,3.1-.6,1-1.3,2-2,2.9-.7.9-1.5,1.7-2.2,2.4,0-.2-.2-.5-.4-.8-.2-.4-.4-.7-.6-1-.2-.3-.4-.6-.5-.8.9-.8,1.8-1.8,2.7-3,.9-1.2,1.6-2.4,2.2-3.6ZM331.1,574.8h19.8v12h-3v-9.2h-13.9v9.3h-2.9v-12.2ZM332.6,582.8h17v2.8h-17v-2.8ZM339.4,570.6h3v22.5h-3v-22.5ZM363.5,570.8h3v19h-3v-19ZM371.9,575.7h3v17.4h-3v-17.4ZM355.2,575.8h3v12.6h15.1v3h-18v-15.6ZM395.6,580.3v1.5h1.6v-1.5h-1.6ZM391.9,580.3v1.5h1.6v-1.5h-1.6ZM388.3,580.3v1.5h1.6v-1.5h-1.6ZM385.9,578.7h13.8v4.9h-13.8v-4.9ZM385.6,584.3h11.8v2.3h-11.8v-2.3ZM396.6,584.3h1c0,0,1.8.7,1.8.7-.6,1.3-1.3,2.4-2.2,3.3-.9.9-2,1.7-3.2,2.4-1.2.6-2.5,1.2-3.9,1.6-1.4.4-2.9.7-4.5.9,0-.4-.3-.8-.5-1.2-.2-.5-.5-.9-.7-1.2,1.4-.1,2.8-.4,4.1-.7,1.3-.3,2.5-.7,3.5-1.2,1.1-.5,2-1.1,2.8-1.8.8-.7,1.4-1.5,1.8-2.5v-.4ZM389.6,586.4c.7.7,1.6,1.4,2.8,2,1.1.6,2.4,1.1,3.8,1.5,1.4.4,2.9.7,4.5.8-.2.2-.4.5-.6.7-.2.3-.4.6-.6.9-.2.3-.4.6-.5.8-1.6-.3-3.2-.7-4.7-1.2-1.5-.5-2.8-1.2-4-1.9-1.2-.8-2.3-1.7-3.1-2.7l2.4-1ZM389.8,573.9h5.8v1.5h-5.8v-1.5ZM389.8,576.1h5.8v1.5h-5.8v-1.5ZM386.7,571.3h12.1v6.8h-2.6v-5h-7v5h-2.5v-6.8ZM380.7,570.6h2.7v22.5h-2.7v-22.5ZM378.6,575.4l1.8.2c0,.8,0,1.6-.1,2.4,0,.8-.2,1.6-.4,2.4-.2.8-.4,1.4-.7,2l-1.8-.8c.2-.5.4-1.1.6-1.8.2-.7.3-1.4.4-2.2,0-.8.1-1.5.1-2.3ZM382.9,575.3l1.7-.6c.2.5.5,1,.7,1.6.2.6.4,1.2.6,1.7.2.5.3,1,.3,1.4l-1.8.7c0-.4-.1-.9-.3-1.5-.1-.6-.3-1.2-.5-1.8-.2-.6-.4-1.1-.6-1.7ZM412.4,578.6v2.1h7.8v-2.1h-7.8ZM409.8,576.4h13.3v6.5h-13.3v-6.5ZM409,572.7h14.7v2.4h-14.7v-2.4ZM414.9,570.6h2.8v18.6h-2.8v-18.6ZM414.2,582.1l2.1.7c-.4.8-1,1.6-1.7,2.4-.7.8-1.4,1.4-2.1,2.1-.8.6-1.6,1.1-2.4,1.5-.1-.2-.3-.5-.5-.7-.2-.3-.4-.5-.7-.8-.2-.3-.4-.5-.6-.6.8-.3,1.6-.7,2.3-1.2.8-.5,1.4-1,2.1-1.6.6-.6,1.2-1.2,1.6-1.8ZM415.6,583.9l1.7-1.8c.8.4,1.6.9,2.4,1.4.9.5,1.7,1,2.4,1.6.8.5,1.4,1,1.9,1.5l-1.8,2.1c-.4-.5-1-1-1.8-1.5-.7-.6-1.5-1.1-2.4-1.7-.8-.6-1.7-1-2.4-1.5ZM402.6,571.9l2.2-1.3c.5.6,1.1,1.2,1.7,1.9.6.7,1,1.3,1.3,1.8l-2.3,1.5c-.2-.3-.5-.7-.8-1.2-.3-.5-.7-.9-1-1.4-.4-.5-.7-.9-1.1-1.3ZM402,576.2h5v2.3h-5v-2.3ZM406.9,586.6c.4,1.1,1,1.9,1.8,2.4.8.5,1.7.8,2.8,1,1.1.1,2.4.2,3.9.2.8,0,1.8,0,2.9,0,1.1,0,2.2,0,3.3-.1,1.1,0,2.1-.1,3-.2-.1.2-.3.4-.4.8-.1.3-.2.6-.3,1s-.2.6-.2.9c-.8,0-1.7,0-2.7,0-.9,0-1.9,0-2.9,0-1,0-1.9,0-2.9,0-1.4,0-2.7,0-3.7-.2-1.1-.1-2-.4-2.9-.7-.8-.4-1.5-.9-2.1-1.6s-1.1-1.6-1.6-2.8l1.9-.8ZM405.9,582h1.3c0,0,1.2.4,1.2.4-.4,2.6-1,4.9-1.8,6.7-.9,1.8-1.9,3.2-3.2,4.1-.1-.2-.3-.4-.5-.7-.2-.3-.5-.5-.7-.7-.2-.2-.5-.4-.6-.5,1.2-.8,2.2-2,2.9-3.5.8-1.5,1.3-3.3,1.5-5.4v-.4ZM402.5,584.6v-2.1l1-.5h3.6v2.2h-3.1c-.3,0-.6,0-.9,0-.3,0-.5.2-.6.3ZM402.5,584.6c0-.2-.1-.4-.2-.7-.1-.3-.2-.6-.4-.9-.1-.3-.2-.5-.3-.7.2,0,.4-.1.6-.2.2-.1.4-.3.6-.6.2-.2.4-.4.7-.9.3-.4.7-.9,1-1.4s.7-1,1-1.5c.3-.5.6-.9.8-1.2h0c0,0,.7-.4.7-.4l1.7.8c-.3.4-.6.9-1,1.4-.4.5-.8,1.1-1.2,1.7-.4.6-.8,1.1-1.2,1.7-.4.5-.8,1-1.1,1.4,0,0,0,0-.3.2-.2,0-.4.2-.7.4-.3.2-.5.3-.7.5-.2.2-.3.3-.3.5ZM351.5,602h2.8v5.3h-2.8v-5.3ZM346.6,609.8h1.8v5.1h-1.8v-5.1ZM357.5,609.8h1.9v5.1h-1.9v-5.1ZM351.5,615.8h2.9v6h-2.9v-6ZM348.3,605.5v.9h9.3v-.9h-9.3ZM348.3,603v1h9.3v-1h-9.3ZM345.6,601.3h14.8v6.9h-14.8v-6.9ZM344.9,613.1v1h5.2v-1h-5.2ZM344.9,610.6v.9h5.2v-.9h-5.2ZM342.8,608.9h9.6v6.8h-9.6v-6.8ZM355.8,613.1v1h5.3v-1h-5.3ZM355.8,610.6v.9h5.3v-.9h-5.3ZM353.7,608.9h9.6v6.8h-9.6v-6.8ZM342.1,620.4h22v2.2h-22v-2.2ZM344.4,617h17.3v2.2h-17.3v-2.2ZM374,604.5h14.2v2.6h-14.2v-2.6ZM379.5,600.6h2.8v19.3c0,.7,0,1.3-.3,1.7-.2.4-.4.7-.9,1-.4.2-.9.4-1.6.5-.6,0-1.4.1-2.3.1,0-.3-.1-.6-.2-.9-.1-.3-.2-.6-.4-1-.1-.3-.3-.6-.4-.9.6,0,1.1,0,1.6,0,.5,0,.9,0,1,0,.2,0,.3,0,.4,0,0,0,.1-.2.1-.4v-19.3ZM372.9,618.1c.6-.4,1.2-.9,2-1.5.8-.6,1.6-1.2,2.5-1.9.9-.7,1.7-1.4,2.6-2.1l1,2c-1,1.1-2.1,2.1-3.2,3.2-1.1,1.1-2.1,2-3.1,2.9l-1.7-2.6ZM374.1,609.2l2.2-1c.3.4.6.9.9,1.4.3.5.6,1,.8,1.5.3.5.4.9.6,1.3l-2.4,1.1c0-.4-.3-.8-.5-1.3-.2-.5-.5-1-.8-1.5-.3-.5-.6-1-.9-1.5ZM385.6,608.1l2.5,1.3c-.4.6-.9,1.2-1.4,1.8-.5.6-1,1.2-1.4,1.7-.5.5-.9,1-1.3,1.4l-2-1.2c.4-.4.8-.9,1.3-1.5.4-.6.9-1.2,1.3-1.8.4-.6.8-1.2,1.1-1.7ZM383,602.2l1.6-1.5c.5.3,1,.7,1.6,1.2.6.4,1,.8,1.3,1.2l-1.7,1.7c-.3-.4-.7-.8-1.2-1.3-.5-.5-1-.9-1.6-1.3ZM382.2,607.6c.3,1.5.6,2.8.9,3.9.4,1.1.8,2.2,1.3,3.1.5.9,1.1,1.7,1.8,2.4.7.7,1.5,1.4,2.5,2.1-.3.3-.7.6-1,1-.3.4-.6.8-.8,1.2-1-.8-1.9-1.6-2.7-2.5-.8-.9-1.4-1.8-1.9-2.9-.5-1.1-1-2.2-1.4-3.5-.4-1.3-.7-2.8-1-4.4l2.4-.4ZM365.9,602h7.6v2.7h-7.6v-2.7ZM366,608.9h7.2v2.6h-7.2v-2.6ZM365.5,618.1c.7-.2,1.5-.4,2.3-.6.9-.3,1.8-.5,2.8-.8,1-.3,1.9-.6,2.9-.9l.4,2.6c-1.3.4-2.7.9-4.1,1.3s-2.6.8-3.8,1.2l-.6-2.8ZM368.4,603.1h2.7v14.7l-2.7.5v-15.2ZM397.1,610.3h15.2v2.4h-15.2v-2.4ZM399.7,613.8h9.9v2.3h-9.9v-2.3ZM400.6,611.2l2.5.6c-.6,1.4-1.4,2.6-2.4,3.8-1,1.2-2.1,2.1-3.2,2.9-.1-.2-.3-.4-.6-.6-.2-.2-.5-.5-.7-.7-.2-.2-.5-.4-.6-.5,1.1-.6,2.1-1.4,3-2.4.9-1,1.6-2,2.1-3.2ZM409.1,613.8h2.7v.4c0,.2,0,.4,0,.6,0,1.6-.2,2.8-.4,3.8-.1,1-.3,1.8-.4,2.3-.2.6-.4,1-.6,1.2-.2.3-.5.5-.7.6-.3.1-.5.2-.9.2-.3,0-.6,0-1.1,0-.4,0-.9,0-1.4,0,0-.3,0-.7-.2-1.2-.1-.4-.3-.8-.5-1.1.4,0,.7,0,1,0h.7c.2,0,.3,0,.4,0,.1,0,.2-.1.3-.2.1-.2.3-.5.4-.9.1-.5.2-1.1.3-2,.1-.9.2-2,.3-3.4v-.4ZM401.8,606.2v1.2h6.2v-1.2h-6.2ZM401.8,603.2v1.1h6.2v-1.1h-6.2ZM399.2,601.2h11.4v8.2h-11.4v-8.2ZM390.1,605.7h7.3v2.7h-7.3v-2.7ZM392.5,600.9h2.7v14.9h-2.7v-14.9ZM389.5,616.3c.6-.2,1.3-.5,2.2-.8.8-.3,1.7-.7,2.6-1.1.9-.4,1.8-.8,2.8-1.2l.6,2.5c-1.2.6-2.4,1.2-3.7,1.9-1.2.6-2.4,1.2-3.4,1.7l-1.1-2.9ZM406.4,614.3l1.9,1.1c-.3,1-.7,1.9-1.2,3-.5,1-1.1,1.9-1.8,2.8s-1.3,1.6-2.1,2.1c-.2-.3-.6-.6-.9-.9-.4-.3-.8-.6-1.1-.7.8-.5,1.5-1.1,2.2-1.9.7-.8,1.3-1.6,1.8-2.6.5-.9.9-1.9,1.2-2.8ZM402.8,614.4l1.9,1.1c-.4.8-.9,1.7-1.6,2.5-.6.8-1.3,1.6-2.1,2.4-.8.7-1.5,1.3-2.3,1.8-.2-.3-.5-.6-.9-.9-.3-.3-.7-.6-1-.8.8-.4,1.6-.9,2.3-1.6.8-.7,1.5-1.4,2.1-2.2.6-.8,1.2-1.6,1.5-2.4ZM175.6,609.4h11.4v2.7h-11.4v-2.7ZM175.9,614l2.3-.9c.3.5.6,1,.9,1.5.3.5.6,1,.8,1.6.3.5.5,1,.6,1.4l-2.4,1.1c-.1-.4-.3-.9-.6-1.4-.3-.5-.5-1.1-.8-1.7-.3-.6-.6-1.1-.9-1.6ZM181.9,606.2h2.9v13.8c0,.7,0,1.3-.3,1.7-.2.4-.5.8-1,1-.5.2-1,.4-1.8.4-.7,0-1.5,0-2.4,0,0-.4-.2-.9-.3-1.4s-.4-1-.6-1.4c.6,0,1.2,0,1.8,0h1.2c.2,0,.3,0,.4-.1,0,0,.1-.2.1-.3v-13.7ZM173.5,605.8l2.8.8c-.4,1.1-.9,2.2-1.5,3.3-.6,1.1-1.2,2.2-1.9,3.2-.7,1-1.5,1.9-2.3,2.6,0-.3-.2-.6-.3-.9l-.4-1c-.1-.3-.3-.6-.4-.8.6-.6,1.2-1.3,1.7-2.1.5-.8,1-1.7,1.4-2.5.4-.9.7-1.7.9-2.5ZM168,602.9h19v2.7h-19v-2.7ZM166.5,602.9h2.9v7.4c0,.9,0,2,0,3.1,0,1.1-.2,2.3-.3,3.5-.2,1.2-.4,2.3-.7,3.4s-.7,2.1-1.2,3c-.2-.2-.4-.4-.7-.6-.3-.2-.6-.4-1-.6-.3-.2-.6-.3-.8-.4.4-.8.8-1.7,1.1-2.6.3-1,.4-2,.6-3,.1-1,.2-2,.2-3,0-1,0-1.9,0-2.8v-7.4ZM171.9,611.3l2.5-2.5h.2v14.4h-2.7v-11.9ZM174.8,601.1l2.9-.7c.3.5.5,1.1.8,1.7.3.6.5,1.1.6,1.6l-3,.9c-.1-.5-.3-1-.6-1.7-.2-.7-.5-1.3-.7-1.8ZM190.4,602.1h19.2v2.9h-19.2v-2.9ZM189.1,612.3h21.9v2.9h-21.9v-2.9ZM191.8,606.5l2.6-.8c.3.5.5,1.1.8,1.7.3.6.5,1.2.7,1.7.2.6.4,1.1.5,1.5l-2.8.9c0-.4-.2-1-.4-1.5-.2-.6-.4-1.2-.6-1.8-.2-.6-.5-1.2-.8-1.7ZM205.5,605.6l3.1.8c-.3.6-.6,1.2-.9,1.8-.3.6-.6,1.2-.9,1.8-.3.5-.6,1-.8,1.4l-2.5-.7c.3-.5.5-1,.8-1.6.3-.6.5-1.2.7-1.8.2-.6.4-1.2.6-1.7ZM198.5,603.3h3v19.8h-3v-19.8ZM178.2,644.5l2.8-1.3c.7.9,1.3,1.8,2,2.8s1.3,2,1.9,2.9c.6,1,1.1,1.8,1.4,2.6l-3,1.6c-.4-.8-.8-1.6-1.4-2.6-.6-1-1.2-2-1.9-3.1-.7-1.1-1.3-2-1.9-2.9ZM171.1,631.2l3.2,1c-.6,1.3-1.3,2.6-2.1,3.9-.8,1.3-1.6,2.5-2.5,3.7-.9,1.1-1.7,2.1-2.6,3-.2-.2-.4-.5-.8-.8-.3-.3-.6-.6-1-.9-.3-.3-.6-.6-.8-.7.8-.7,1.7-1.6,2.5-2.5.8-1,1.6-2,2.3-3.2.7-1.1,1.3-2.3,1.8-3.4ZM167.7,652.3c0-.2-.2-.5-.3-.9-.1-.4-.3-.8-.4-1.2-.1-.4-.3-.8-.4-1.1.4-.1.8-.3,1.1-.6.4-.3.8-.7,1.2-1.3.3-.3.6-.7,1.1-1.3.5-.6,1-1.3,1.6-2.2.6-.8,1.1-1.8,1.7-2.7.6-1,1.1-2,1.6-3l3.4,1.4c-.8,1.4-1.6,2.7-2.6,4.1-.9,1.3-1.9,2.6-2.9,3.8-1,1.2-2,2.2-2.9,3.2h0c0,0-.1.1-.3.2-.2.1-.5.3-.8.4-.3.2-.5.4-.8.5-.2.2-.3.3-.3.5ZM167.7,652.3v-2.4c0,0,1.8-1.1,1.8-1.1l13.8-.9c0,.4.2.9.3,1.5s.3,1,.3,1.3c-2.2.2-4.1.3-5.7.5-1.6.1-3,.3-4.1.3-1.1,0-2.1.2-2.8.2-.7,0-1.3.2-1.8.2-.4,0-.8.1-1.1.2-.3,0-.5.1-.7.2ZM178.1,631.2h3.4c.4,1.1.8,2.2,1.4,3.3.6,1.1,1.3,2.1,2.1,3,.8.9,1.7,1.7,2.7,2.3-.2.2-.5.5-.7.8-.3.4-.6.7-.8,1.1-.3.4-.5.7-.6,1-1.1-.8-2-1.8-2.9-2.9-.9-1.1-1.6-2.2-2.3-3.4-.7-1.2-1.2-2.4-1.6-3.6h-.6v-1.6ZM175.4,631.2h5v3h-5v-3ZM193.2,637.9h13.4v1.6h-13.4v-1.6ZM194.4,635.4h11.3v1.6h-11.3v-1.6ZM198.6,634.4h2.6v4.4h-2.6v-4.4ZM198.8,642.7l1.9.7c-.5.5-1.1.9-1.9,1.3-.8.4-1.5.8-2.4,1.1-.8.3-1.6.6-2.4.8,0-.1-.2-.3-.4-.5-.2-.2-.3-.4-.5-.6-.2-.2-.3-.4-.5-.5.8-.2,1.5-.4,2.3-.6.8-.2,1.5-.5,2.2-.8.7-.3,1.2-.6,1.7-1ZM205.2,643.9l1.7,1.1c-.5.4-1.1.7-1.6,1.1-.6.3-1.1.6-1.6.8l-1.4-1c.3-.2.7-.4,1-.6.4-.2.7-.5,1.1-.7.4-.3.6-.5.9-.7ZM196.9,641.4v1h6.2v-1h-6.2ZM194.5,640.2h11.1v3.5h-11.1v-3.5ZM189.7,631.5h20.6v21.6h-2.8v-19.1h-15v19.1h-2.7v-21.6ZM191.4,649.7h17.5v2.6h-17.5v-2.6ZM199.4,644.8l1.7-.9c.6.4,1.3.8,2.1,1.3.7.5,1.4,1,2.1,1.4.7.5,1.2.9,1.7,1.3l-1.8,1.1c-.4-.4-.9-.8-1.6-1.3-.7-.5-1.4-1-2.1-1.5-.7-.5-1.4-1-2.1-1.4ZM195.8,649.7v-1.6c-.1,0,.7-.6.7-.6l4.5-1c0,.3,0,.6,0,.9s0,.6,0,.8c-1,.3-1.9.5-2.5.6-.6.2-1.1.3-1.5.4-.4,0-.6.2-.8.3-.2,0-.3.1-.4.2ZM195.8,649.7c0-.2-.1-.5-.3-.8-.1-.3-.2-.6-.4-.7.2,0,.4-.2.5-.4.2-.2.3-.5.3-.9v-2.5h2.1v3.8s-.1,0-.3.1c-.2,0-.5.2-.8.4-.3.1-.5.3-.8.5-.2.2-.3.3-.3.5ZM1292.2,487.9h6.2v2.4h-6.2v-2.4ZM1294.9,493.2h2.6v7.4h-2.6v-7.4ZM1292.6,485.7l2.8.9c-.5,1.1-1.1,2.2-1.8,3.3-.7,1.1-1.4,2.1-2.2,3.1-.8.9-1.6,1.8-2.4,2.5-.1-.2-.3-.5-.6-.7-.2-.3-.5-.6-.8-.9-.3-.3-.5-.5-.7-.7.8-.6,1.5-1.3,2.2-2.1.7-.8,1.4-1.7,2-2.6.6-.9,1.1-1.9,1.5-2.8ZM1297.2,487.9h1.3c0-.1,1.8,1.2,1.8,1.2-.3.6-.6,1.2-1,1.8-.4.6-.8,1.2-1.2,1.8-.4.6-.8,1.1-1.2,1.5-.1-.2-.3-.4-.5-.6-.2-.2-.4-.4-.6-.6-.2-.2-.4-.4-.6-.5.3-.4.5-.8.8-1.2.2-.5.5-1,.7-1.4.2-.5.4-.9.5-1.2v-.6ZM1292.6,502.9l2.3-.4c.2.8.4,1.6.5,2.5.1.9.2,1.7.2,2.4l-2.5.4c0-.4,0-.9,0-1.5s-.1-1.2-.2-1.8c0-.6-.2-1.1-.3-1.7ZM1295.8,503l2.2-.6c.4.7.8,1.6,1.1,2.4.3.9.6,1.7.7,2.3l-2.3.7c0-.4-.2-.9-.4-1.5-.2-.6-.4-1.1-.6-1.7-.2-.6-.5-1.1-.7-1.6ZM1299.3,503.2l2.2-1.2c.4.5.8,1,1.2,1.6.4.6.7,1.1,1.1,1.7.3.5.6,1,.7,1.5l-2.4,1.3c-.2-.5-.4-1-.7-1.6-.3-.6-.6-1.2-1-1.7-.4-.6-.7-1.1-1.1-1.6ZM1292.2,497.8v1.6h8v-1.6h-8ZM1292.2,494.1v1.6h8v-1.6h-8ZM1289.7,491.8h13.3v9.9h-13.3v-9.9ZM1289.8,502.3l2.3.8c-.2.9-.6,1.8-1,2.8-.4.9-1,1.7-1.7,2.3l-2.1-1.6c.6-.5,1.1-1.2,1.5-1.9.4-.8.7-1.6,1-2.4ZM1282.9,487.9l1.6-2.2c.5.2,1,.4,1.5.7.5.3,1.1.5,1.5.8.5.3.9.6,1.2.8l-1.7,2.4c-.3-.3-.6-.6-1.1-.9-.5-.3-1-.6-1.5-.9-.5-.3-1-.6-1.5-.7ZM1281.7,494.3l1.6-2.2c.5.2,1,.4,1.5.6.5.2,1,.5,1.5.8.5.3.9.5,1.2.8l-1.7,2.4c-.3-.3-.7-.5-1.1-.8-.5-.3-1-.6-1.5-.9-.5-.3-1-.5-1.5-.7ZM1282.3,506.2c.4-.6.8-1.4,1.2-2.2.4-.8.9-1.7,1.4-2.7.5-1,.9-1.9,1.3-2.8l2.3,1.7c-.3.8-.7,1.7-1.1,2.6-.4.9-.8,1.8-1.2,2.6-.4.9-.8,1.7-1.2,2.5l-2.6-1.7ZM1318.6,496.6h2.9v7.8c0,.4,0,.7.2.8.1.1.4.2.8.2h2.2c.3,0,.5,0,.6-.3.1-.2.2-.6.3-1.1,0-.5.1-1.4.2-2.4.2.2.5.3.8.5.3.1.6.3,1,.4.3.1.6.2.9.3,0,1.4-.3,2.5-.5,3.3-.2.8-.6,1.3-1,1.6-.4.3-1.1.5-1.9.5h-2.9c-.9,0-1.6-.1-2.1-.3-.5-.2-.8-.6-1-1.2-.2-.5-.3-1.3-.3-2.2v-7.8ZM1312.1,496.7h3.1c-.1,1.3-.3,2.6-.5,3.7-.2,1.2-.6,2.2-1.2,3.2-.5,1-1.3,1.8-2.3,2.6-1,.8-2.3,1.4-3.9,2,0-.3-.2-.5-.4-.9-.2-.3-.4-.6-.7-.9-.2-.3-.4-.5-.7-.7,1.4-.4,2.6-.9,3.4-1.5.9-.6,1.5-1.3,1.9-2,.4-.8.7-1.6.9-2.5.2-.9.3-1.9.4-2.9ZM1307.9,487.6l2.6-1c.4.6.7,1.2,1.1,1.9.4.7.7,1.4,1,2.1.3.7.5,1.3.6,1.8l-2.8,1.1c-.1-.5-.3-1.1-.6-1.8-.3-.7-.6-1.4-.9-2.1-.3-.7-.7-1.4-1-2ZM1323.5,486.5l3,1c-.3.7-.7,1.4-1.1,2.2s-.8,1.4-1.1,2.1-.7,1.2-1.1,1.7l-2.5-1c.3-.5.6-1.2,1-1.8.3-.7.7-1.4,1-2.1.3-.7.6-1.4.8-2.1ZM1306.2,494.4h21.7v2.7h-21.7v-2.7ZM1315.4,485.6h2.9v9.9h-2.9v-9.9ZM1282.3,522.1h21.4v3h-21.4v-3ZM1294.7,523.3c.5,1.8,1.1,3.5,2,5.1.8,1.6,1.9,3,3.1,4.2,1.3,1.2,2.7,2.1,4.4,2.8-.2.2-.5.5-.8.8-.2.3-.5.6-.8,1-.2.4-.4.7-.6.9-1.8-.9-3.4-2-4.8-3.3-1.3-1.4-2.4-2.9-3.3-4.8-.9-1.8-1.7-3.8-2.2-6l2.9-.7ZM1291.4,515.6h3.1c0,1.2,0,2.5-.1,3.9,0,1.3-.2,2.7-.4,4.1-.2,1.4-.5,2.8-.9,4.2-.4,1.4-1,2.7-1.8,3.9-.8,1.2-1.7,2.4-2.9,3.5-1.2,1.1-2.6,2-4.3,2.9-.2-.4-.5-.8-.9-1.3s-.8-.8-1.2-1.2c1.6-.7,3-1.6,4.1-2.5,1.1-1,2-2,2.7-3.1.7-1.1,1.2-2.3,1.6-3.5.4-1.2.6-2.5.7-3.7.2-1.2.2-2.5.3-3.7,0-1.2,0-2.3,0-3.4ZM1314.1,519.5h13.9v2.2h-13.9v-2.2ZM1319.3,524.5v1.3h3.2v-1.3h-3.2ZM1316.9,522.8h8v4.7h-8v-4.7ZM1314.3,528.3h12v2.1h-9.4v7.8h-2.6v-9.9ZM1325,528.3h2.7v7.2c0,.6,0,1-.2,1.4s-.4.6-.8.8c-.4.2-.9.3-1.4.3-.5,0-1.2,0-1.9,0,0-.4-.2-.8-.3-1.2-.2-.4-.3-.8-.5-1.2.4,0,.9,0,1.3,0h.8c.2,0,.3,0,.3,0,0,0,0-.1,0-.3v-7.2ZM1325.1,515.7l1.6,1.8c-.8.2-1.7.3-2.6.5-.9.1-1.9.2-3,.3-1,0-2,.1-3.1.2-1,0-2,0-3,0,0-.3-.1-.6-.2-.9-.1-.4-.2-.7-.3-.9.9,0,1.9,0,2.9-.1,1,0,2-.1,2.9-.2,1,0,1.8-.2,2.7-.3.8-.1,1.6-.2,2.2-.4ZM1323.7,520.3c.3.6.7,1.2,1.2,1.7s1.1,1.1,1.7,1.5c.6.4,1.3.8,2,1.1-.3.2-.6.5-1,1-.3.4-.6.8-.8,1.1-.7-.4-1.4-.9-2.1-1.5-.7-.6-1.3-1.3-1.8-2-.6-.7-1-1.5-1.4-2.3l2.1-.7ZM1318.7,518l2.6.3c-.3,1.1-.8,2.1-1.3,3.1s-1.2,2-2.1,2.8c-.8.9-1.8,1.7-3.1,2.4-.1-.2-.3-.4-.5-.7-.2-.3-.4-.5-.6-.7-.2-.2-.4-.4-.6-.5,1.1-.6,2-1.2,2.8-2,.7-.7,1.3-1.5,1.8-2.4.5-.8.8-1.7,1-2.5ZM1319.2,531.3h4.8v4.7h-4.8v-1.7h2.7v-1.4h-2.7v-1.6ZM1317.9,531.3h2v5.6h-2v-5.6ZM1306.1,520.6h7.7v2.7h-7.7v-2.7ZM1308.8,515.6h2.6v22.5h-2.6v-22.5ZM1308.8,522.4l1.6.5c-.2.9-.4,1.9-.6,3s-.5,2-.8,3c-.3,1-.6,1.9-1,2.8-.4.8-.8,1.6-1.2,2.2-.1-.4-.3-.8-.6-1.3-.3-.5-.5-.9-.7-1.2.4-.5.7-1.1,1.1-1.8.3-.7.6-1.5.9-2.3.3-.8.6-1.6.8-2.4.2-.8.4-1.6.5-2.4ZM1311.3,524.3c.1.2.3.4.6.9.3.4.6.8.9,1.3.3.5.6.9.8,1.3.3.4.4.7.6.9l-1.4,2c-.1-.4-.3-.8-.5-1.2-.2-.5-.4-1-.7-1.5-.2-.5-.5-1-.7-1.5-.2-.4-.4-.8-.6-1.1l1.1-1.1ZM1588.5,412.8h12v2.8h-12v-2.8ZM1588.5,418.5h12.1v2.7h-12.1v-2.7ZM1588.4,424.2h12.1v2.8h-12.1v-2.8ZM1586.5,412.8h3v7.9c0,1,0,2.2-.2,3.4-.1,1.2-.3,2.4-.7,3.6-.3,1.2-.8,2.4-1.4,3.5-.6,1.1-1.4,2.1-2.5,3-.2-.2-.4-.4-.6-.7-.2-.3-.5-.5-.8-.8-.3-.3-.5-.4-.8-.6.9-.8,1.6-1.6,2.2-2.5.5-.9.9-1.9,1.2-2.9.3-1,.4-2,.5-3,0-1,.1-2,.1-2.9v-7.9ZM1599.1,412.8h3.1v17.7c0,.9-.1,1.5-.4,2-.2.5-.6.8-1.2,1.1-.6.3-1.3.4-2.2.5-.9,0-1.9,0-3.2,0,0-.3-.2-.6-.3-1-.1-.4-.3-.7-.4-1.1s-.3-.7-.5-.9c.6,0,1.1,0,1.7,0h2.6c.3,0,.5,0,.6-.1.1-.1.2-.3.2-.6v-17.7ZM1611,421h17.7v2.8h-17.7v-2.8ZM1608.8,412.6h18.7v2.8h-18.7v-2.8ZM1620.8,413.7h3.1v16.9c0,.8-.1,1.5-.3,1.9-.2.4-.5.8-1.1,1-.5.2-1.1.4-1.9.5-.8,0-1.7.1-2.7.1,0-.3-.1-.6-.3-1-.1-.4-.2-.7-.4-1.1-.2-.4-.3-.7-.4-.9.7,0,1.4,0,2,0,.7,0,1.1,0,1.3,0,.2,0,.4,0,.5,0,0,0,.1-.2.1-.4v-16.9ZM1619.1,422l2.6,1.2c-.8,1.1-1.6,2.1-2.6,3-1,1-2,1.9-3.1,2.7-1.1.8-2.2,1.6-3.4,2.3-1.2.7-2.4,1.3-3.6,1.8-.1-.3-.3-.5-.6-.9-.2-.3-.5-.6-.8-.9-.2-.3-.5-.6-.7-.7,1.2-.4,2.4-.9,3.5-1.5,1.2-.6,2.3-1.3,3.4-2,1.1-.8,2.1-1.5,3-2.4.9-.8,1.7-1.7,2.3-2.6ZM1611,414.4l3.1.3c-.2,1-.4,2.1-.7,3.2s-.5,2.2-.7,3.2c-.2,1-.4,1.9-.7,2.6h-3.1c.2-.8.5-1.7.7-2.8.2-1.1.5-2.2.7-3.3.2-1.1.4-2.2.6-3.2ZM1642.1,416.1h4.6v1.3h-4.6v-1.3ZM1642.1,418h4.6v1.3h-4.6v-1.3ZM1638.7,429h11.9v1.8h-11.9v-1.8ZM1641.3,414h5.8v1.5h-5.8v-1.5ZM1643.7,421.2v1.1h1.2v-1.1h-1.2ZM1642,420h4.6v3.6h-4.6v-3.6ZM1639,426.6h9.5v-.8h-11v-1.6h13.7v4h-12.2v-1.6ZM1638.2,426.6h2.6c-.2.7-.3,1.4-.5,2.2-.2.7-.4,1.4-.5,1.9h-2.7c.2-.6.4-1.3.6-2,.2-.8.4-1.5.5-2.1ZM1649.6,429h2.7s0,.1,0,.4c0,.3,0,.5-.1.6-.2,1-.4,1.7-.6,2.3-.2.6-.5,1-.8,1.2-.3.2-.6.4-1,.5-.3,0-.8.1-1.2.2-.4,0-.9,0-1.6,0-.7,0-1.4,0-2.2,0,0-.3,0-.7-.2-1.1-.1-.4-.3-.7-.5-1,.7,0,1.4.1,2.1.1.7,0,1.2,0,1.5,0s.4,0,.6,0c.2,0,.3,0,.4-.1.2-.1.4-.4.5-.9.2-.4.3-1,.5-1.8v-.3ZM1631.1,413.9l1.6-1.9c.4.2.9.5,1.3.7.5.3.9.6,1.2.9.4.3.7.6,1,.8l-1.7,2.2c-.2-.3-.5-.6-.9-.9-.4-.3-.8-.6-1.2-.9-.4-.3-.8-.6-1.2-.8ZM1630.6,420.2l1.6-2c.4.2.8.4,1.3.7.4.3.9.5,1.3.8.4.3.8.5,1,.8l-1.7,2.2c-.2-.3-.5-.5-.9-.8-.4-.3-.8-.6-1.3-.9-.4-.3-.8-.6-1.3-.8ZM1631.1,432.4c.3-.6.6-1.4,1-2.2.4-.8.7-1.7,1.1-2.7.4-1,.7-1.9,1-2.9l2.3,1.5c-.2.8-.5,1.7-.8,2.6-.3.9-.6,1.8-.9,2.6-.3.9-.6,1.7-.9,2.5l-2.6-1.4ZM1639.5,417.3l1.2-.4c.2.4.4.8.6,1.3.2.5.4.9.4,1.2l-1.2.5c0-.4-.2-.8-.4-1.3-.2-.5-.4-.9-.6-1.3ZM1639.7,420.6l1.1-.4c.2.4.3.8.5,1.3.1.5.2.9.3,1.2l-1.2.5c0-.3-.1-.7-.3-1.2-.1-.5-.2-.9-.4-1.3ZM1636.1,420.6l1.4.4c-.1.6-.2,1.2-.4,1.8-.2.6-.3,1.1-.6,1.5-.1-.1-.3-.3-.6-.5-.2-.2-.4-.3-.6-.4.2-.4.4-.8.5-1.3.1-.5.2-1,.3-1.4ZM1636.1,416.7c0-.1-.1-.3-.2-.5-.1-.3-.2-.5-.3-.6.2,0,.3-.1.4-.2s.2-.3.4-.5c0,0,.2-.3.4-.6.2-.3.4-.7.6-1.2.2-.4.4-.9.5-1.3l1.6.6c-.3.6-.6,1.3-1.1,1.9-.4.7-.9,1.2-1.3,1.7h0s0,0-.2.1c-.1,0-.3.1-.4.2s-.2.2-.2.3ZM1636.1,416.7v-1.2c0,0,.9-.5.9-.5h2.7c0,.1-.1.3-.2.6,0,.3,0,.5,0,.7-.8,0-1.4,0-1.8.1-.4,0-.8,0-1,.1-.2,0-.4,0-.5.1ZM1636.2,420c0-.1-.1-.3-.2-.6-.1-.3-.2-.5-.3-.6.2,0,.4-.1.6-.3.2-.2.4-.4.6-.6.2-.2.4-.4.7-.9.3-.4.7-.9,1-1.5.4-.6.7-1.1,1-1.7l1.5.7c-.5.8-1.1,1.7-1.7,2.5-.7.8-1.3,1.5-2,2.2h0s0,0-.3.2c-.2,0-.3.1-.5.2-.2,0-.3.2-.3.3ZM1636.2,420v-1.2c-.1,0,.7-.5.7-.5l3.6-.4c0,.2,0,.4.1.6,0,.3.2.5.2.6-1.2.1-2.1.3-2.7.4-.6,0-1,.2-1.3.2-.3,0-.5.1-.6.2ZM1637.8,420.9l1.2-.3c.1.4.2.9.3,1.4,0,.5.2.9.2,1.3l-1.3.4c0-.4,0-.8-.1-1.3,0-.5-.2-1-.3-1.5ZM1642.9,412.3l1.8-.4c.2.3.3.6.5,1,.2.4.3.7.4.9l-2,.5c0-.3-.2-.6-.4-1-.1-.4-.3-.7-.4-1ZM1650.9,417.3l1.2-.4c.2.4.5.8.7,1.3.2.5.4.9.4,1.2l-1.2.5c0-.4-.2-.8-.4-1.3-.2-.5-.4-1-.6-1.4ZM1651,420.6l1.2-.4c.2.5.4,1,.5,1.5s.3,1,.3,1.4l-1.2.5c0-.4-.1-.9-.3-1.4-.1-.6-.3-1.1-.5-1.6ZM1647.5,420.5l1.4.4c0,.6-.2,1.1-.4,1.7-.2.6-.4,1.1-.6,1.5-.1-.1-.3-.3-.6-.5-.2-.2-.4-.3-.6-.4.2-.4.4-.8.5-1.3.1-.5.2-1,.3-1.4ZM1647.5,416.7c0-.1,0-.3-.2-.5-.1-.3-.2-.5-.3-.6.1,0,.2,0,.4-.2.1-.1.3-.3.4-.5,0-.1.2-.3.4-.6.2-.3.4-.7.6-1.1.2-.4.4-.9.5-1.3l1.6.6c-.3.6-.6,1.3-1,1.9-.4.7-.9,1.2-1.3,1.7h0s0,0-.2.1c-.1,0-.3.2-.4.3-.2,0-.2.2-.2.2ZM1647.5,416.7v-1.2c0,0,.9-.5.9-.5h2.7c0,0,0,.3-.2.6,0,.3,0,.5,0,.6-.8,0-1.4,0-1.8.1-.4,0-.8,0-1,.1-.2,0-.4,0-.5.1ZM1647.6,420c0-.1-.1-.3-.2-.6-.1-.3-.2-.5-.3-.6.2,0,.4-.1.6-.3.2-.1.4-.3.6-.6.2-.2.4-.4.7-.9.3-.4.7-.9,1-1.5.4-.6.7-1.1.9-1.7l1.5.7c-.5.8-1.1,1.7-1.7,2.5-.7.8-1.3,1.6-2,2.2h0s0,0-.3.1c-.2,0-.3.2-.5.3-.2,0-.2.2-.2.3ZM1647.6,420v-1.2c-.1,0,.7-.5.7-.5l3.6-.4c0,.2,0,.4.1.7,0,.2.1.4.2.6-1.2.2-2.1.3-2.7.4-.6,0-1.1.2-1.3.2-.3,0-.5.1-.6.2ZM1649.1,420.9l1.2-.3c.2.5.3,1,.4,1.6.1.5.2,1,.2,1.4l-1.3.4c0-.4,0-.9-.1-1.4,0-.6-.2-1.1-.3-1.6ZM1471.2,428.9h6.2v2.4h-6.2v-2.4ZM1473.9,434.2h2.6v7.4h-2.6v-7.4ZM1471.6,426.7l2.8.9c-.5,1.1-1.1,2.2-1.8,3.3-.7,1.1-1.4,2.1-2.2,3.1-.8.9-1.6,1.8-2.4,2.5-.1-.2-.3-.5-.6-.7-.2-.3-.5-.6-.8-.9-.3-.3-.5-.5-.7-.7.8-.6,1.5-1.3,2.2-2.1.7-.8,1.4-1.7,2-2.6.6-.9,1.1-1.9,1.5-2.8ZM1476.2,428.9h1.3c0-.1,1.8,1.2,1.8,1.2-.3.6-.6,1.2-1,1.8-.4.6-.8,1.2-1.2,1.8-.4.6-.8,1.1-1.2,1.5-.1-.2-.3-.4-.5-.6-.2-.2-.4-.4-.6-.6-.2-.2-.4-.4-.6-.5.3-.4.5-.8.8-1.2.2-.5.5-1,.7-1.4.2-.5.4-.9.5-1.2v-.6ZM1471.6,443.9l2.3-.4c.2.8.4,1.6.5,2.5.1.9.2,1.7.2,2.4l-2.5.4c0-.4,0-.9,0-1.5s-.1-1.2-.2-1.8c0-.6-.2-1.1-.3-1.7ZM1474.8,444l2.2-.6c.4.7.8,1.6,1.1,2.4.3.9.6,1.7.7,2.3l-2.3.7c0-.4-.2-.9-.4-1.5-.2-.6-.4-1.1-.6-1.7-.2-.6-.5-1.1-.7-1.6ZM1478.3,444.2l2.2-1.2c.4.5.8,1,1.2,1.6.4.6.7,1.1,1.1,1.7.3.5.6,1,.7,1.5l-2.4,1.3c-.2-.5-.4-1-.7-1.6-.3-.6-.6-1.2-1-1.7-.4-.6-.7-1.1-1.1-1.6ZM1471.2,438.8v1.6h8v-1.6h-8ZM1471.2,435.1v1.6h8v-1.6h-8ZM1468.7,432.8h13.3v9.9h-13.3v-9.9ZM1468.8,443.3l2.3.8c-.2.9-.6,1.8-1,2.8-.4.9-1,1.7-1.7,2.3l-2.1-1.6c.6-.5,1.1-1.2,1.5-1.9.4-.8.7-1.6,1-2.4ZM1461.9,428.9l1.6-2.2c.5.2,1,.4,1.5.7.5.3,1.1.5,1.5.8.5.3.9.6,1.2.8l-1.7,2.4c-.3-.3-.6-.6-1.1-.9-.5-.3-1-.6-1.5-.9-.5-.3-1-.6-1.5-.7ZM1460.7,435.3l1.6-2.2c.5.2,1,.4,1.5.6.5.2,1,.5,1.5.8.5.3.9.5,1.2.8l-1.7,2.4c-.3-.3-.7-.5-1.1-.8-.5-.3-1-.6-1.5-.9-.5-.3-1-.5-1.5-.7ZM1461.3,447.2c.4-.6.8-1.4,1.2-2.2.4-.8.9-1.7,1.4-2.7.5-1,.9-1.9,1.3-2.8l2.3,1.7c-.3.8-.7,1.7-1.1,2.6-.4.9-.8,1.8-1.2,2.6-.4.9-.8,1.7-1.2,2.5l-2.6-1.7ZM1497.6,437.6h2.9v7.8c0,.4,0,.7.2.8.1.1.4.2.8.2h2.2c.3,0,.5,0,.6-.3.1-.2.2-.6.3-1.1,0-.5.1-1.4.2-2.4.2.2.5.3.8.5.3.1.6.3,1,.4.3.1.6.2.9.3,0,1.4-.3,2.5-.5,3.3-.2.8-.6,1.3-1,1.6-.4.3-1.1.5-1.9.5h-2.9c-.9,0-1.6-.1-2.1-.3-.5-.2-.8-.6-1-1.2-.2-.5-.3-1.3-.3-2.2v-7.8ZM1491.1,437.7h3.1c-.1,1.3-.3,2.6-.5,3.7-.2,1.2-.6,2.2-1.2,3.2-.5,1-1.3,1.8-2.3,2.6-1,.8-2.3,1.4-3.9,2,0-.3-.2-.5-.4-.9-.2-.3-.4-.6-.7-.9-.2-.3-.4-.5-.7-.7,1.4-.4,2.6-.9,3.4-1.5.9-.6,1.5-1.3,1.9-2,.4-.8.7-1.6.9-2.5.2-.9.3-1.9.4-2.9ZM1486.9,428.6l2.6-1c.4.6.7,1.2,1.1,1.9.4.7.7,1.4,1,2.1.3.7.5,1.3.6,1.8l-2.8,1.1c-.1-.5-.3-1.1-.6-1.8-.3-.7-.6-1.4-.9-2.1-.3-.7-.7-1.4-1-2ZM1502.5,427.5l3,1c-.3.7-.7,1.4-1.1,2.2s-.8,1.4-1.1,2.1-.7,1.2-1.1,1.7l-2.5-1c.3-.5.6-1.2,1-1.8.3-.7.7-1.4,1-2.1.3-.7.6-1.4.8-2.1ZM1485.2,435.4h21.7v2.7h-21.7v-2.7ZM1494.4,426.6h2.9v9.9h-2.9v-9.9ZM1512.1,440.6h16.3v2.1h-16.3v-2.1ZM1513.6,437.4h17.3v2.1h-17.3v-2.1ZM1513.6,431.5h11.6v1.8h-11.6v-1.8ZM1527.3,440.6h2.8s0,.1,0,.4c0,.2,0,.5,0,.6-.1,1.4-.2,2.5-.4,3.4-.1.9-.2,1.6-.4,2.1-.2.5-.3.9-.6,1.1-.2.3-.5.5-.8.6-.2.1-.5.2-.9.2-.3,0-.6,0-1.1,0-.4,0-.9,0-1.5,0,0-.4,0-.8-.2-1.3-.1-.5-.3-.9-.5-1.2.4,0,.8,0,1.1,0,.3,0,.6,0,.8,0s.3,0,.4,0c.1,0,.2-.1.3-.2.1-.1.2-.4.3-.8.1-.4.2-1,.3-1.8.1-.8.2-1.8.3-3v-.4ZM1518,426.5l3.4.3c-.2.6-.5,1.2-.8,1.7-.3.5-.6,1-.8,1.4l-2.5-.4c.1-.4.3-.9.4-1.4.2-.5.3-1,.3-1.4ZM1513.8,428.4h13.6v7.9h-13.6v-2h10.7v-3.9h-10.7v-2ZM1512.1,428.4h2.9v13h-2.9v-13ZM1515.4,443h2.6v4h-2.6v-4ZM1520.8,443.4h2.6v5h-2.6v-5ZM1510,443.5h2.6v2.1h10.2v2.2h-12.8v-4.3ZM548.9,523.2h20.3v5.4h-3.1v-2.7h-14.4v2.7h-2.9v-5.4ZM562.7,528l3.6.2c-.4,2.5-.9,4.7-1.7,6.4-.8,1.7-1.8,3.2-3.1,4.3-1.3,1.1-2.8,2-4.7,2.7-1.8.7-4,1.2-6.6,1.5,0-.3-.2-.6-.4-.9-.2-.4-.4-.7-.7-1.1-.2-.4-.5-.6-.6-.9,2.4-.2,4.5-.6,6.2-1.1,1.7-.5,3.2-1.2,4.3-2.2,1.1-.9,2-2.1,2.6-3.6.6-1.5,1-3.3,1.2-5.5ZM548.4,530.2h21.2v2.7h-21.2v-2.7ZM556.6,521.1l3.3-.7c.3.5.5,1.1.8,1.8.3.6.5,1.2.6,1.6l-3.4.9c-.1-.5-.3-1-.6-1.7-.2-.7-.5-1.3-.7-1.8ZM551.2,535.9l1.9-2.1c1.3.4,2.7.9,4.2,1.4,1.5.5,3,1.1,4.6,1.7,1.5.6,2.9,1.3,4.3,1.9,1.3.6,2.5,1.2,3.5,1.8l-2.1,2.5c-.9-.6-1.9-1.2-3.2-1.9-1.3-.7-2.7-1.3-4.2-2-1.5-.7-3-1.3-4.5-1.9-1.5-.6-3-1.1-4.4-1.5ZM551.2,535.9c.4-.6.9-1.3,1.3-2.1.5-.8.9-1.6,1.4-2.4.5-.8.9-1.7,1.3-2.5.4-.8.7-1.7,1-2.5l3.3.6c-.3.8-.6,1.6-1,2.4-.4.8-.8,1.7-1.2,2.5-.4.8-.9,1.6-1.3,2.3-.4.7-.8,1.3-1.2,1.9l-3.6-.2ZM573.4,522.1h19.2v2.9h-19.2v-2.9ZM572.1,532.3h21.9v2.9h-21.9v-2.9ZM574.8,526.5l2.6-.8c.3.5.5,1.1.8,1.7.3.6.5,1.2.7,1.7.2.6.4,1.1.5,1.5l-2.8.9c0-.4-.2-1-.4-1.5-.2-.6-.4-1.2-.6-1.8-.2-.6-.5-1.2-.8-1.7ZM588.5,525.6l3.1.8c-.3.6-.6,1.2-.9,1.8-.3.6-.6,1.2-.9,1.8-.3.5-.6,1-.8,1.4l-2.5-.7c.3-.5.5-1,.8-1.6.3-.6.5-1.2.7-1.8.2-.6.4-1.2.6-1.7ZM581.5,523.3h3v19.8h-3v-19.8ZM605.2,532h2.6v7.5c0,.4,0,.7.3.9s.6.2,1.3.2h4.2c.4,0,.7,0,.8-.2.2-.1.3-.4.4-.7s.1-.9.2-1.6c.3.2.7.4,1.2.6s.9.3,1.3.4c-.1,1-.3,1.8-.6,2.4-.2.6-.6,1-1.1,1.2-.5.2-1.2.4-2,.4h-4.7c-1,0-1.8-.1-2.4-.3-.6-.2-1-.5-1.2-1.1-.2-.5-.3-1.2-.3-2.1v-7.5ZM596.9,522.9l1.6-2.2c.5.2,1,.4,1.5.7.5.3,1,.5,1.5.8.5.3.9.6,1.2.8l-1.7,2.4c-.3-.3-.6-.6-1.1-.9-.5-.3-1-.6-1.5-.9-.5-.3-1-.6-1.5-.7ZM595.6,529.3l1.6-2.2c.5.2,1,.4,1.5.6.5.2,1,.5,1.5.8.5.3.9.5,1.2.8l-1.7,2.4c-.3-.3-.7-.6-1.1-.8-.4-.3-.9-.6-1.5-.9-.5-.3-1-.5-1.5-.7ZM596.2,541.2c.4-.6.8-1.4,1.2-2.2.4-.8.9-1.7,1.4-2.7.5-1,.9-1.9,1.3-2.9l2.3,1.7c-.4.9-.7,1.7-1.1,2.6-.4.9-.8,1.8-1.2,2.6-.4.8-.8,1.7-1.2,2.4l-2.6-1.7ZM606.4,532h7.8v5.9h-7.8v-2.2h5.3v-1.6h-5.3v-2.1ZM602.6,523.1h15v2.6h-15v-2.6ZM601.6,527.5h16.7v2.6h-16.7v-2.6ZM605.5,520.6h2.8v8.7h-2.8v-8.7ZM611.7,520.6h2.8v8.7h-2.8v-8.7ZM605.7,529.2l2.5.8c-.4.9-.8,1.8-1.4,2.6-.5.9-1.1,1.7-1.8,2.4-.6.7-1.3,1.3-2,1.8-.1-.2-.3-.5-.6-.7-.2-.3-.5-.5-.7-.8s-.5-.5-.7-.6c.6-.4,1.3-.9,1.8-1.5.6-.6,1.1-1.2,1.6-1.9.5-.7.9-1.4,1.2-2.1ZM614.2,529.1c.3.7.7,1.3,1.2,2,.5.7,1,1.3,1.6,1.8.6.5,1.2,1,1.8,1.4-.2.2-.4.4-.7.6-.3.3-.5.5-.7.8-.2.3-.4.5-.6.8-.7-.5-1.3-1.1-2-1.8-.6-.7-1.2-1.5-1.7-2.3-.5-.8-1-1.7-1.3-2.5l2.4-.8Z"
   fill="#fff"
   style="filter: drop-shadow(0 0 9px rgba(0, 0, 0, 0.8))" />
  <path d="M1059.5,434v318M1516.5,843v166M1372.5,722v166M1191.5,581v166M377.5,641v166M188.5,671v166M1305.5,556v166M1618.5,452v166M1496.5,467v166M583.5,561v35" fill="none" stroke="#fff"/>
</svg>