<svg width="450" height="228" viewBox="0 0 450 228" fill="none" xmlns="http://www.w3.org/2000/svg">
<g filter="url(#filter0_d_382_182)">
<path d="M164.153 137.299L160.81 132.142C160.392 132.18 160.062 132.199 159.835 132.199H156.005V137.299H153.794V120.51H159.853C161.872 120.51 163.439 121.037 164.606 122.072C165.755 123.108 166.329 124.538 166.329 126.364C166.329 127.662 166.033 128.754 165.441 129.676C164.849 130.58 164.014 131.258 162.917 131.672L166.608 137.299H164.188H164.153ZM162.969 129.168C163.7 128.509 164.083 127.568 164.083 126.364C164.083 125.159 163.718 124.218 162.969 123.578C162.22 122.938 161.158 122.599 159.748 122.599H155.97V130.147H159.748C161.158 130.147 162.22 129.827 162.969 129.168ZM180.953 135.229V137.318H169.689V120.529H180.64V122.618H171.9V127.775H179.682V129.808H171.9V135.229H180.953ZM185.497 136.904C184.418 136.509 183.547 136.001 182.938 135.38L183.756 133.516C184.348 134.1 185.097 134.551 186.037 134.928C186.96 135.285 187.917 135.474 188.892 135.474C190.18 135.474 191.138 135.229 191.782 134.758C192.409 134.288 192.74 133.667 192.74 132.876C192.74 132.293 192.566 131.841 192.217 131.465C191.869 131.107 191.434 130.825 190.929 130.636C190.424 130.448 189.693 130.222 188.77 129.996C187.604 129.695 186.664 129.394 185.95 129.093C185.236 128.792 184.627 128.321 184.104 127.681C183.6 127.041 183.338 126.194 183.338 125.122C183.338 124.218 183.565 123.428 184 122.693C184.435 121.978 185.097 121.395 185.985 120.962C186.873 120.529 187.969 120.322 189.293 120.322C190.215 120.322 191.103 120.454 191.991 120.698C192.879 120.943 193.645 121.319 194.272 121.809L193.541 123.729C192.896 123.277 192.2 122.938 191.451 122.712C190.703 122.486 189.989 122.373 189.275 122.373C188.022 122.373 187.082 122.618 186.455 123.126C185.828 123.616 185.515 124.256 185.515 125.046C185.515 125.63 185.689 126.081 186.054 126.458C186.403 126.816 186.855 127.098 187.378 127.305C187.9 127.512 188.614 127.719 189.519 127.945C190.685 128.246 191.625 128.547 192.339 128.848C193.053 129.149 193.662 129.62 194.167 130.241C194.672 130.862 194.933 131.709 194.933 132.763C194.933 133.648 194.707 134.438 194.272 135.173C193.837 135.907 193.158 136.471 192.252 136.904C191.347 137.337 190.233 137.544 188.927 137.544C187.761 137.544 186.629 137.356 185.549 136.961L185.497 136.904ZM197.928 120.51H200.139V137.299H197.928V120.51ZM204.613 120.51H211.159C212.796 120.51 214.258 120.868 215.529 121.564C216.8 122.261 217.792 123.258 218.489 124.519C219.185 125.799 219.551 127.248 219.551 128.905C219.551 130.561 219.203 132.01 218.489 133.29C217.792 134.57 216.8 135.549 215.529 136.245C214.258 136.942 212.796 137.299 211.159 137.299H204.613V120.51ZM211.02 135.229C212.273 135.229 213.388 134.965 214.345 134.438C215.303 133.911 216.034 133.177 216.556 132.217C217.079 131.258 217.34 130.166 217.34 128.924C217.34 127.681 217.079 126.571 216.556 125.63C216.034 124.67 215.303 123.936 214.345 123.409C213.388 122.882 212.291 122.618 211.02 122.618H206.824V135.229H211.02ZM234.001 135.229V137.318H222.737V120.529H233.687V122.618H224.948V127.775H232.73V129.808H224.948V135.229H234.001ZM250.749 120.51V137.299H248.938L239.624 124.783V137.299H237.413V120.51H239.224L248.538 133.027V120.51H250.749ZM257.939 136.377C256.686 135.624 255.711 134.608 254.997 133.309C254.283 132.01 253.935 130.542 253.935 128.905C253.935 127.267 254.283 125.799 254.997 124.5C255.711 123.202 256.686 122.166 257.939 121.432C259.193 120.679 260.603 120.322 262.152 120.322C263.371 120.322 264.468 120.548 265.478 120.981C266.487 121.414 267.341 122.072 268.054 122.938L266.609 124.444C265.443 123.108 263.98 122.449 262.24 122.449C261.09 122.449 260.046 122.731 259.106 123.296C258.166 123.86 257.452 124.632 256.93 125.611C256.407 126.59 256.146 127.7 256.146 128.905C256.146 130.109 256.407 131.22 256.93 132.199C257.452 133.177 258.183 133.949 259.106 134.514C260.028 135.078 261.073 135.361 262.24 135.361C263.963 135.361 265.425 134.683 266.609 133.347L268.054 134.853C267.341 135.718 266.487 136.377 265.478 136.81C264.468 137.262 263.354 137.488 262.135 137.488C260.586 137.488 259.175 137.111 257.939 136.377ZM282.313 135.229V137.318H271.049V120.529H282V122.618H273.26V127.775H281.042V129.808H273.26V135.229H282.313ZM286.857 136.904C285.777 136.509 284.907 136.001 284.298 135.38L285.116 133.516C285.708 134.1 286.456 134.551 287.397 134.928C288.319 135.285 289.277 135.474 290.252 135.474C291.54 135.474 292.498 135.229 293.142 134.758C293.769 134.288 294.099 133.667 294.099 132.876C294.099 132.293 293.925 131.841 293.577 131.465C293.229 131.107 292.794 130.825 292.289 130.636C291.784 130.448 291.053 130.222 290.13 129.996C288.964 129.695 288.023 129.394 287.31 129.093C286.596 128.792 285.986 128.321 285.464 127.681C284.959 127.041 284.698 126.194 284.698 125.122C284.698 124.218 284.924 123.428 285.36 122.693C285.795 121.978 286.456 121.395 287.344 120.962C288.232 120.529 289.329 120.322 290.652 120.322C291.575 120.322 292.463 120.454 293.351 120.698C294.239 120.943 295.005 121.319 295.631 121.809L294.9 123.729C294.256 123.277 293.56 122.938 292.811 122.712C292.062 122.486 291.349 122.373 290.635 122.373C289.381 122.373 288.441 122.618 287.814 123.126C287.188 123.616 286.874 124.256 286.874 125.046C286.874 125.63 287.048 126.081 287.414 126.458C287.762 126.816 288.215 127.098 288.737 127.305C289.259 127.512 289.973 127.719 290.879 127.945C292.045 128.246 292.985 128.547 293.699 128.848C294.413 129.149 295.022 129.62 295.527 130.241C296.032 130.862 296.293 131.709 296.293 132.763C296.293 133.648 296.067 134.438 295.631 135.173C295.196 135.907 294.517 136.471 293.612 136.904C292.707 137.337 291.592 137.544 290.287 137.544C289.12 137.544 287.989 137.356 286.909 136.961L286.857 136.904ZM118.087 54.8962L118.191 22.9174H108.755V54.8962H118.069H118.087ZM222.841 98.9776H232.417V23.0115H222.841V98.9776ZM101.286 56.1008H29.3316V22.9174H20V98.9588H29.3316V66.5659H109.121V98.7141H118.452V75.3558L101.304 56.082L101.286 56.1008ZM170.281 91.8817C154.525 91.8817 141.712 78.0286 141.712 60.9946C141.712 43.9606 154.525 30.1075 170.281 30.1075C186.037 30.1075 198.851 43.9606 198.851 60.9946C198.851 78.0286 186.037 91.8817 170.281 91.8817ZM170.281 20C149.337 20 132.363 38.3516 132.363 60.9946C132.363 83.6376 149.337 102.008 170.281 102.008C191.225 102.008 208.2 83.6564 208.2 60.9946C208.2 38.3327 191.225 20 170.281 20ZM282 23.0115L312.153 98.9776H321.729L291.575 23.0115H282ZM271.589 95.4579L242.828 23.0115H233.252L263.406 98.9776H281.164V23.0115H271.589V95.4579ZM331.113 98.9776H340.688V23.0115H331.113V98.9776ZM399.846 23.0115H390.271L420.425 98.9776H430L399.846 23.0115ZM379.86 95.4579L351.099 23.0115H341.524L371.677 98.9776H389.435V23.0115H379.86V95.4579ZM130.169 165.401H121.917L120.211 169.598H117.93L124.963 152.809H127.157L134.208 169.598H131.875L130.169 165.401ZM129.403 163.481L126.06 155.256L122.718 163.481H129.42H129.403ZM149.668 152.809V169.598H147.857L138.543 157.081V169.598H136.332V152.809H138.143L147.457 165.326V152.809H149.668ZM164.936 154.371C166.085 155.406 166.66 156.837 166.66 158.663C166.66 160.488 166.085 161.919 164.936 162.954C163.787 163.989 162.203 164.516 160.183 164.516H156.353V169.598H154.142V152.809H160.201C162.22 152.809 163.787 153.336 164.954 154.371H164.936ZM163.335 161.448C164.066 160.808 164.449 159.867 164.449 158.663C164.449 157.458 164.083 156.517 163.335 155.877C162.586 155.237 161.524 154.898 160.114 154.898H156.336V162.427H160.114C161.524 162.427 162.586 162.107 163.335 161.448ZM169.95 152.809H172.161V169.598H169.95V152.809ZM189.972 152.809V169.598H188.161L178.847 157.081V169.598H176.636V152.809H178.446L187.761 165.326V152.809H189.972ZM205.205 161.109H207.329V167.659C206.563 168.356 205.658 168.883 204.648 169.241C203.638 169.598 202.559 169.786 201.462 169.786C199.895 169.786 198.485 169.41 197.231 168.676C195.978 167.942 194.986 166.907 194.272 165.608C193.558 164.309 193.192 162.841 193.192 161.204C193.192 159.566 193.558 158.098 194.272 156.799C194.986 155.482 195.978 154.465 197.249 153.731C198.52 152.997 199.93 152.621 201.514 152.621C202.75 152.621 203.882 152.846 204.892 153.279C205.901 153.712 206.772 154.371 207.468 155.218L206.093 156.705C204.857 155.406 203.342 154.766 201.584 154.766C200.4 154.766 199.338 155.049 198.398 155.595C197.458 156.14 196.727 156.912 196.187 157.891C195.647 158.87 195.386 159.98 195.386 161.204C195.386 162.427 195.647 163.519 196.187 164.497C196.727 165.476 197.458 166.248 198.398 166.812C199.338 167.377 200.383 167.659 201.566 167.659C202.959 167.659 204.161 167.302 205.205 166.587V161.109ZM230.484 152.809V169.598H228.273V162.107H219.359V169.598H217.148V152.809H219.359V160.037H228.273V152.809H230.484ZM244.83 165.401H236.577L234.871 169.598H232.591L239.624 152.809H241.818L248.869 169.598H246.536L244.83 165.401ZM244.064 163.481L240.721 155.256L237.378 163.481H244.081H244.064ZM261.369 169.598L258.026 164.441C257.609 164.479 257.278 164.497 257.051 164.497H253.221V169.598H251.01V152.809H257.069C259.088 152.809 260.655 153.336 261.822 154.371C262.971 155.406 263.545 156.837 263.545 158.663C263.545 159.961 263.249 161.053 262.657 161.975C262.065 162.879 261.23 163.556 260.133 163.97L263.824 169.598H261.404H261.369ZM260.185 161.467C260.916 160.808 261.299 159.867 261.299 158.663C261.299 157.458 260.934 156.517 260.185 155.877C259.437 155.237 258.375 154.898 256.964 154.898H253.186V162.446H256.964C258.375 162.446 259.437 162.126 260.185 161.467ZM279.493 162.352C280.015 163.067 280.276 163.97 280.276 165.043C280.276 166.493 279.771 167.622 278.761 168.394C277.752 169.165 276.272 169.561 274.339 169.561H266.923V152.771H273.887C275.662 152.771 277.038 153.148 277.995 153.919C278.97 154.691 279.44 155.745 279.44 157.1C279.44 157.985 279.249 158.738 278.866 159.378C278.483 160.018 277.978 160.507 277.351 160.846C278.257 161.109 278.97 161.618 279.475 162.314L279.493 162.352ZM269.134 154.748V160.112H273.678C274.809 160.112 275.697 159.886 276.307 159.434C276.916 158.982 277.229 158.305 277.229 157.439C277.229 156.573 276.916 155.896 276.307 155.444C275.697 154.992 274.809 154.766 273.678 154.766H269.134V154.748ZM277.073 166.982C277.699 166.53 278.03 165.834 278.03 164.874C278.03 163.01 276.759 162.069 274.235 162.069H269.134V167.659H274.235C275.488 167.659 276.446 167.434 277.073 166.982ZM286.282 168.676C285.029 167.923 284.037 166.907 283.323 165.589C282.609 164.272 282.243 162.822 282.243 161.204C282.243 159.585 282.609 158.117 283.323 156.818C284.037 155.5 285.029 154.484 286.282 153.731C287.536 152.978 288.946 152.621 290.513 152.621C292.08 152.621 293.473 152.997 294.726 153.731C295.98 154.484 296.972 155.5 297.668 156.799C298.365 158.098 298.73 159.566 298.73 161.204C298.73 162.841 298.382 164.309 297.668 165.608C296.955 166.907 295.98 167.942 294.726 168.676C293.473 169.429 292.062 169.786 290.513 169.786C288.964 169.786 287.536 169.41 286.282 168.676ZM293.577 166.812C294.482 166.248 295.196 165.476 295.736 164.497C296.258 163.519 296.519 162.408 296.519 161.204C296.519 159.999 296.258 158.888 295.736 157.91C295.214 156.931 294.5 156.159 293.577 155.595C292.672 155.03 291.645 154.748 290.513 154.748C289.381 154.748 288.337 155.03 287.414 155.595C286.491 156.159 285.76 156.931 285.238 157.91C284.716 158.888 284.454 159.999 284.454 161.204C284.454 162.408 284.716 163.519 285.238 164.497C285.76 165.476 286.491 166.248 287.414 166.812C288.337 167.377 289.364 167.659 290.513 167.659C291.662 167.659 292.672 167.377 293.577 166.812ZM303.535 167.867C302.386 166.587 301.812 164.742 301.812 162.352V152.809H304.023V162.258C304.023 165.853 305.485 167.659 308.393 167.659C309.82 167.659 310.9 167.208 311.648 166.323C312.397 165.438 312.78 164.083 312.78 162.258V152.809H314.939V162.352C314.939 164.761 314.364 166.605 313.215 167.885C312.066 169.165 310.447 169.786 308.375 169.786C306.304 169.786 304.685 169.146 303.535 167.867ZM329.668 169.598L326.325 164.441C325.907 164.479 325.576 164.497 325.35 164.497H321.52V169.598H319.309V152.809H325.367C327.387 152.809 328.954 153.336 330.12 154.371C331.269 155.406 331.844 156.837 331.844 158.663C331.844 159.961 331.548 161.053 330.956 161.975C330.364 162.879 329.528 163.556 328.431 163.97L332.122 169.598H329.702H329.668ZM328.484 161.467C329.215 160.808 329.598 159.867 329.598 158.663C329.598 157.458 329.232 156.517 328.484 155.877C327.735 155.237 326.673 154.898 325.263 154.898H321.485V162.446H325.263C326.673 162.446 327.735 162.126 328.484 161.467ZM163.491 196.89C162.708 199.13 161.646 200.918 160.323 202.349C163.056 203.591 165.563 204.908 167.252 206.094L165.894 207.638C164.275 206.433 161.716 205.021 158.93 203.704C156.58 205.661 153.603 206.866 149.999 207.732C149.825 207.28 149.32 206.508 148.954 206.094C152.297 205.473 155.082 204.494 157.224 202.913C155.222 202.048 153.202 201.238 151.374 200.617H151.392C152.123 199.582 152.941 198.283 153.742 196.909H148.641V195.215H154.682C155.344 193.898 155.988 192.561 156.44 191.357L158.216 191.771C157.781 192.843 157.224 194.048 156.614 195.215H167.722V196.909H163.509L163.491 196.89ZM150.817 193.446H149.18V188.646H157.293C156.98 187.893 156.58 186.99 156.249 186.275L157.938 185.842C158.373 186.726 158.895 187.837 159.226 188.646H167.095V193.446H165.389V190.303H150.817V193.446ZM155.692 196.89C155.1 197.944 154.49 198.961 153.933 199.808C155.465 200.335 157.102 200.975 158.704 201.652C159.94 200.372 160.949 198.791 161.611 196.871H155.692V196.89ZM194.637 199.375H185.549V207.769H183.861V199.375H174.895V197.624H183.861V189.248H176.061V187.498H193.401V189.248H185.549V197.624H194.637V199.375ZM179.038 190.434C179.944 192.166 180.849 194.406 181.145 195.836L179.595 196.42C179.282 195.008 178.446 192.674 177.593 190.924L179.038 190.453V190.434ZM187.952 195.968C188.77 194.481 189.797 192.034 190.355 190.303L192.078 190.83C191.277 192.749 190.215 195.027 189.345 196.457L187.952 195.949V195.968ZM204.752 196.514C203.952 195.799 202.402 194.763 201.131 194.142L202.071 192.843C203.29 193.446 204.892 194.349 205.71 195.046L204.752 196.514ZM205.971 199.921C205.188 202.255 204.108 205.021 203.168 207.129L201.688 206.094C202.576 204.325 203.795 201.389 204.7 198.885L205.971 199.921ZM205.727 190.152C204.996 189.38 203.551 188.307 202.385 187.63L203.36 186.406C204.509 187.009 206.006 188.006 206.755 188.759L205.727 190.152ZM211.142 202.631V204.984C211.142 205.774 211.386 205.963 212.778 205.963H217.74C218.854 205.963 219.046 205.548 219.168 203.233C219.516 203.516 220.125 203.76 220.543 203.854C220.317 206.715 219.864 207.449 217.845 207.449H212.744C210.393 207.449 209.697 206.979 209.697 204.984V198.49C208.896 199.619 208.008 200.598 207.138 201.295C206.842 200.881 206.337 200.259 205.989 199.958C207.555 198.848 209.227 196.777 210.184 194.632H206.232V192.994H210.132V190.208H207.155V188.609H210.132V185.917H211.734V188.609H216.017V185.917H217.636V188.609H220.944V190.208H217.636V192.994H221.57V194.632H217.601C218.541 196.589 220.09 198.415 221.71 199.375C221.309 199.695 220.769 200.316 220.526 200.768C219.62 200.128 218.75 199.205 217.966 198.17V202.631H211.142ZM211.821 194.632C211.49 195.535 211.02 196.457 210.498 197.286H217.357C216.817 196.439 216.33 195.535 215.964 194.632H211.838H211.821ZM216.626 198.66H211.142V201.276H216.626V198.66ZM211.734 192.994H216.017V190.208H211.734V192.994ZM231.215 196.288C230.536 195.516 229.022 194.462 227.751 193.766L228.691 192.486C229.927 193.107 231.459 194.086 232.19 194.857L231.215 196.269V196.288ZM232.8 199.883C231.929 202.367 230.763 205.304 229.735 207.506L228.273 206.49C229.231 204.645 230.554 201.558 231.511 198.885L232.8 199.864V199.883ZM232.034 190.039C231.372 189.248 229.91 188.119 228.691 187.404L229.666 186.162C230.867 186.802 232.33 187.856 233.043 188.703L232.051 190.039H232.034ZM238.406 200.843C236.56 201.615 234.68 202.349 233.13 202.932L232.591 201.351C233.217 201.163 233.949 200.918 234.749 200.655V191.037H232.817V189.399H238.057V191.037H236.282V200.128C236.908 199.883 237.552 199.676 238.197 199.431L238.423 200.843H238.406ZM235.498 206.602C236.682 205.548 237.274 203.685 237.518 201.784L238.719 202.142C238.423 204.099 237.883 206.188 236.595 207.374L235.516 206.602H235.498ZM240.094 197.982V199.375H247.755C247.755 199.375 247.737 199.845 247.702 200.09C247.389 204.758 247.11 206.508 246.518 207.186C246.17 207.562 245.822 207.713 245.282 207.769C244.812 207.788 243.907 207.788 242.949 207.713C242.932 207.337 242.793 206.753 242.601 206.339C243.507 206.452 244.325 206.452 244.656 206.452C244.986 206.452 245.143 206.433 245.317 206.245C245.665 205.831 245.979 204.381 246.205 200.73H238.58V188.119H241.139C241.435 187.366 241.696 186.482 241.835 185.86L243.594 186.275C243.298 186.915 243.037 187.573 242.775 188.119H246.814V195.14H240.112V196.551H248.172V197.963H240.112L240.094 197.982ZM240.599 202.142C240.791 203.422 240.895 205.097 240.791 206.113L239.676 206.226C239.763 205.172 239.729 203.516 239.52 202.217L240.582 202.123L240.599 202.142ZM240.094 189.418V191.018H245.248V189.418H240.094ZM245.23 193.86V192.279H240.077V193.86H245.23ZM242.566 201.897C242.984 202.932 243.402 204.287 243.559 205.153L242.514 205.435C242.358 204.551 241.957 203.177 241.574 202.142L242.549 201.878L242.566 201.897ZM244.812 204.363C244.586 203.741 244.029 202.706 243.541 201.972L244.429 201.596C244.986 202.311 245.491 203.271 245.752 203.93L244.795 204.381L244.812 204.363ZM267.027 197.267V200.071H272.546V207.751H270.927V206.96H261.63V207.807H260.063V200.09H265.408V197.286H258.27C258.079 200.843 257.469 204.89 255.693 207.845C255.38 207.562 254.666 207.092 254.248 206.904C256.512 203.196 256.703 197.925 256.703 194.123V187.197H272.946V193.032H267.027V195.686H274.2V197.286H267.027V197.267ZM265.408 195.667V193.013H258.357V194.123C258.357 194.632 258.357 195.14 258.34 195.686H265.408V195.667ZM258.34 188.778V191.394H271.293V188.778H258.34ZM270.927 201.652H261.63V205.379H270.927V201.652ZM290.426 193.578L291.401 193.898C290.426 202.179 287.17 206.132 282.278 207.92C282.104 207.449 281.704 206.678 281.442 206.339C283.967 205.454 286.004 204.043 287.449 201.671C286.613 200.975 285.36 200.034 284.385 199.375L285.377 198.245C286.248 198.829 287.379 199.582 288.232 200.203C288.824 198.81 289.312 197.154 289.625 195.196H285.847C284.82 197.568 283.445 199.601 281.86 201.069C281.634 200.711 281.112 199.996 280.781 199.676C282.905 197.831 284.559 194.933 285.395 191.545L286.526 191.827V189.813H281.477V188.157H286.526V185.955H288.145V188.157H294.186V185.955H295.806V188.157H300.82V189.813H295.806V192.091H294.186V189.813H288.145V191.996H286.944C286.787 192.542 286.631 193.069 286.456 193.596H290.409L290.426 193.578ZM298.765 205.737C299.601 205.737 299.758 205.285 299.879 203.102C300.262 203.365 300.907 203.647 301.394 203.779C301.15 206.584 300.68 207.431 298.887 207.431H294.935C292.898 207.431 292.271 206.885 292.271 204.664V193.258H299.618V200.015C299.618 200.918 299.479 201.408 298.87 201.671C298.243 201.953 297.268 201.953 295.806 201.953C295.718 201.483 295.492 200.824 295.301 200.372C296.45 200.391 297.355 200.391 297.668 200.372C297.964 200.354 298.017 200.278 298.017 200.015V194.876H293.89V204.683C293.89 205.567 294.065 205.737 295.109 205.737H298.765Z" fill="white"/>
</g>
<defs>
<filter id="filter0_d_382_182" x="0" y="0" width="450" height="227.92" filterUnits="userSpaceOnUse" color-interpolation-filters="sRGB">
<feFlood flood-opacity="0" result="BackgroundImageFix"/>
<feColorMatrix in="SourceAlpha" type="matrix" values="0 0 0 0 0 0 0 0 0 0 0 0 0 0 0 0 0 0 127 0" result="hardAlpha"/>
<feOffset/>
<feGaussianBlur stdDeviation="10"/>
<feComposite in2="hardAlpha" operator="out"/>
<feColorMatrix type="matrix" values="0 0 0 0 0 0 0 0 0 0 0 0 0 0 0 0 0 0 0.55 0"/>
<feBlend mode="normal" in2="BackgroundImageFix" result="effect1_dropShadow_382_182"/>
<feBlend mode="normal" in="SourceGraphic" in2="effect1_dropShadow_382_182" result="shape"/>
</filter>
</defs>
</svg>
