<?xml version="1.0" encoding="UTF-8"?>
<svg id="_圖層_1" data-name="圖層_1" xmlns="http://www.w3.org/2000/svg" version="1.1" viewBox="0 0 380 161">
  <!-- Generator: Adobe Illustrator 29.3.1, SVG Export Plug-In . SVG Version: 2.1.0 Build 151)  -->
  <defs>
    <style>
      .st0 {
        fill: #fff;
      }
    </style>
  </defs>
  <path class="st0" d="M133.3,100.4l-3.1-4.4c-.7,0-3.7,0-4.4,0v4.4h-2v-14.4h5.6c7.6,0,7.4,8.1,2.8,9.6l3.4,4.8h-2.3ZM129.2,87.8h-3.5v6.5h3.5c2.8,0,4-1.5,4-3.1s-1.1-3.4-4-3.4ZM223.2,128l-3.1-4.4c-.7,0-3.7,0-4.4,0v4.4h-2v-14.4h5.6c7.6,0,7.4,8.1,2.8,9.6l3.4,4.8h-2.3ZM219.2,115.4h-3.5v6.5h3.5c2.8,0,4-1.5,4-3.1s-1.1-3.4-4-3.4ZM286.4,128l-3.1-4.4c-.7,0-3.7,0-4.4,0v4.4h-2v-14.4h5.6c7.6,0,7.4,8.1,2.8,9.6l3.4,4.8h-2.3ZM282.3,115.4h-3.5v6.5h3.5c2.8,0,4-1.5,4-3.1s-1.1-3.4-4-3.4ZM148.8,98.6v1.8h-10.4v-14.4h10.1v1.8h-8.1v4.4h7.2v1.7h-7.2v4.6h8.4ZM164.5,86h2v14.4h-2v-14.4ZM170.7,86h6.1c4.2-.1,7.9,2.9,7.8,7.2.1,4.3-3.6,7.3-7.8,7.2h-6.1v-14.4ZM176.7,98.6c3.2.1,5.9-2.1,5.8-5.4,0-3.3-2.6-5.5-5.8-5.4h-3.9v10.8h3.9ZM197.9,98.6v1.8h-10.4v-14.4h10.1v1.8h-8.1v4.4h7.2v1.7h-7.2v4.6h8.4ZM213.4,86v14.4h-1.7l-8.6-10.7v10.7h-2v-14.4h1.7l8.6,10.7v-10.7h2ZM220,99.6c-2.4-1.3-3.7-3.7-3.7-6.4-.4-6.6,8.8-9.8,13.1-5.1l-1.3,1.3c-3.2-3.6-9.9-1.1-9.7,3.8-.2,5,6.5,7.4,9.7,3.8l1.3,1.3c-2.2,2.6-6.5,2.9-9.4,1.3ZM242.6,98.6v1.8h-10.4v-14.4h10.1v1.8h-8.1v4.4h7.2v1.7h-7.2v4.6h8.4ZM244.4,98.8l.8-1.6c2.2,2.2,8.3,2.6,8.3-.4s-8.7-1.4-8.7-6.8,5.8-5.3,10.1-2.8l-.7,1.6c-3.3-2-7.4-1.4-7.4,1.3s8.7,1.2,8.7,6.6-7.3,5.3-11.1,2.1ZM150.7,98.8l.8-1.6c2.2,2.2,8.3,2.6,8.3-.4s-8.7-1.4-8.7-6.8,5.8-5.3,10.1-2.8l-.7,1.6c-3.3-2-7.4-1.4-7.4,1.3s8.7,1.2,8.7,6.6-7.3,5.3-11.1,2.1ZM90.7,29.9V2.5c.1,0-8.6,0-8.6,0v27.4h8.6ZM196.4,2.6h-8.9v65h8.9V2.6ZM75.2,30.9H8.6V2.5H0v65.1h8.6v-27.7s73.8,0,73.8,0v27.5h8.6v-20l-15.9-16.5ZM139,61.5c-14.6,0-26.4-11.9-26.4-26.4s11.8-26.4,26.4-26.4,26.4,11.9,26.4,26.4-11.9,26.4-26.4,26.4ZM139,0c-19.4,0-35.1,15.7-35.1,35.1s15.7,35.1,35.1,35.1,35.1-15.7,35.1-35.1S158.3,0,139,0ZM242.3,2.6l27.9,65h8.9L251.1,2.6h-8.9ZM241.5,67.6V2.6h-8.9v62L206.1,2.6h-8.9l27.9,65h16.4ZM287.7,67.6h8.9V2.6h-8.9v65ZM351.3,2.6h-8.9l27.9,65h8.9L351.3,2.6ZM332.8,64.6l-26.6-62h-8.9l27.9,65h16.4V2.6h-8.9v62ZM101.9,124.4h-7.6l-1.6,3.6h-2.1l6.5-14.4h2l6.5,14.4h-2.2l-1.6-3.6ZM98.1,115.8l-3.1,7h6.2l-3.1-7ZM207.9,124.4h-7.6l-1.6,3.6h-2.1l6.5-14.4h2l6.5,14.4h-2.2l-1.6-3.6ZM204.1,115.8l-3.1,7h6.2l-3.1-7ZM119.9,113.7v14.4h-1.7l-8.6-10.7v10.7h-2v-14.4h1.7l8.6,10.7v-10.7h2ZM135.6,118.7c0,3.4-2.6,5-6,5h-3.5v4.3h-2v-14.4h5.6c4.9,0,6,3.1,6,5ZM133.6,118.7c0-2.3-1.7-3.2-4-3.2h-3.5v6.4h3.5c2.1,0,4-.8,4-3.2ZM138.7,113.7h2v14.4h-2v-14.4ZM157.2,113.7v14.4h-1.7l-8.6-10.7v10.7h-2v-14.4h1.7l8.6,10.7v-10.7h2ZM171.3,120.8h2v5.6c-4.7,4-13.3,1.1-13.1-5.5-.3-6.7,8.9-9.8,13.2-5.1l-1.3,1.3c-3.3-3.5-10.1-1.2-9.9,3.9-.2,4.6,5.5,7,9.1,4.6v-4.7ZM194.7,113.7v14.4h-2v-6.4h-8.2v6.4h-2v-14.4h2v6.2h8.2v-6.2h2ZM240,121.9c1.2,1.4.9,4.2-.7,5.2-.9.7-2.3,1-4.1,1h-6.9v-14.4h6.4c2.7,0,5.1,1,5.1,3.7,0,1.4-.7,2.6-1.9,3.2.8.2,1.5.7,2,1.3h0ZM230.4,115.3v4.6h4.2c1.8,0,3.2-.5,3.3-2.3,0-1.8-1.5-2.3-3.3-2.3h-4.2ZM237.7,125.8c.6-.4.9-1,.9-1.8,0-1.6-1.2-2.4-3.5-2.4h-4.7v4.8h4.7c1.2,0,2-.2,2.6-.6ZM242.5,120.9c0-4.2,3.5-7.5,7.6-7.3,4.1-.1,7.7,3.2,7.6,7.3.1,4.2-3.5,7.3-7.6,7.3s-7.6-3-7.6-7.3ZM255.7,120.9c0-3.1-2.5-5.6-5.6-5.5-3.1,0-5.7,2.4-5.6,5.5,0,3.1,2.5,5.5,5.6,5.5s5.6-2.4,5.6-5.5ZM260.6,121.8v-8.2h2v8.1c0,3.1,1.4,4.6,4,4.6,2.9,0,4.1-1.7,4.1-4.6v-8.1h2v8.2c0,4-2.1,6.4-6.1,6.4s-6.1-2.4-6.1-6.4ZM132.7,151.4c-.7,1.9-1.7,3.4-2.9,4.7,2.5,1.1,4.8,2.2,6.4,3.2l-1.3,1.3c-1.5-1-3.9-2.2-6.4-3.4-2.2,1.7-4.9,2.7-8.3,3.4-.2-.4-.6-1-1-1.4,3.1-.5,5.7-1.4,7.6-2.7-1.9-.7-3.7-1.4-5.4-2h0c.7-.9,1.4-2,2.2-3.2h-4.7v-1.4h5.6c.6-1.1,1.2-2.3,1.6-3.3l1.6.4c-.4.9-.9,1.9-1.5,2.9h10.3v1.4h-3.9ZM121,148.5h-1.5v-4.1h7.5c-.3-.6-.7-1.4-1-2l1.6-.4c.4.8.9,1.7,1.2,2.4h7.3v4.1h-1.6v-2.7h-13.5v2.7ZM125.5,151.4c-.5.9-1.1,1.8-1.6,2.5,1.4.5,2.9,1,4.4,1.6,1.1-1.1,2.1-2.4,2.7-4.1h-5.5ZM161.5,153.5h-8.4v7.2h-1.6v-7.2h-8.3v-1.5h8.3v-7.2h-7.2v-1.5h16v1.5h-7.3v7.2h8.4v1.5ZM147.1,145.9c.8,1.5,1.7,3.4,1.9,4.6l-1.4.5c-.3-1.2-1.1-3.2-1.9-4.7l1.3-.4h0ZM155.3,150.6c.8-1.3,1.7-3.4,2.2-4.8l1.6.5c-.7,1.6-1.7,3.6-2.5,4.8l-1.3-.4h0ZM170.9,151.1c-.7-.6-2.2-1.5-3.3-2l.9-1.1c1.1.5,2.6,1.3,3.4,1.9l-.9,1.3ZM172,154c-.7,2-1.7,4.4-2.6,6.2l-1.4-.9c.8-1.5,1.9-4,2.8-6.2l1.2.9ZM171.8,145.6c-.7-.7-2-1.6-3.1-2.2l.9-1c1.1.5,2.4,1.4,3.1,2l-.9,1.2ZM176.8,156.3v2c0,.7.2.8,1.5.8h4.6c1,0,1.2-.4,1.3-2.3.3.2.9.5,1.3.5-.2,2.4-.6,3.1-2.5,3.1h-4.7c-2.2,0-2.8-.4-2.8-2.1v-5.6c-.7,1-1.6,1.8-2.4,2.4-.3-.4-.7-.9-1.1-1.1,1.4-1,3-2.7,3.9-4.6h-3.7v-1.4h3.6v-2.4h-2.8v-1.4h2.8v-2.3h1.5v2.3h4v-2.3h1.5v2.3h3.1v1.4h-3.1v2.4h3.6v1.4h-3.7c.9,1.7,2.3,3.2,3.8,4.1-.4.3-.9.8-1.1,1.2-.8-.5-1.6-1.3-2.4-2.2v3.8h-6.3ZM177.4,149.5c-.3.8-.7,1.6-1.2,2.3h6.3c-.5-.7-1-1.5-1.3-2.3h-3.8ZM181.8,152.9h-5.1v2.2h5.1v-2.2ZM177.3,148.1h4v-2.4h-4v2.4ZM195.3,150.9c-.6-.7-2-1.6-3.2-2.2l.9-1.1c1.1.5,2.6,1.4,3.2,2l-.9,1.2h0ZM196.8,154c-.8,2.1-1.9,4.6-2.8,6.5l-1.4-.9c.9-1.6,2.1-4.2,3-6.5l1.2.8h0ZM196.1,145.6c-.6-.7-2-1.6-3.1-2.3l.9-1.1c1.1.5,2.5,1.5,3.1,2.2l-.9,1.1h0ZM202,154.8c-1.7.7-3.4,1.3-4.9,1.8l-.5-1.4c.6-.2,1.3-.4,2-.6v-8.2h-1.8v-1.4h4.8v1.4h-1.6v7.8c.6-.2,1.2-.4,1.8-.6l.2,1.2h0ZM199.3,159.7c1.1-.9,1.6-2.5,1.9-4.1l1.1.3c-.3,1.7-.8,3.5-2,4.5l-1-.7h0ZM203.5,152.3v1.2h7.1s0,.4,0,.6c-.3,4-.5,5.5-1.1,6.1-.3.3-.6.5-1.1.5-.4,0-1.3,0-2.2,0,0-.3-.1-.8-.3-1.2.8,0,1.6,0,1.9,0s.5,0,.6-.2c.3-.4.6-1.6.8-4.7h-7.1v-10.8h2.4c.3-.6.5-1.4.6-1.9l1.6.4c-.3.5-.5,1.1-.8,1.6h3.7v6h-6.2v1.2h7.5v1.2h-7.5ZM204,155.9c.2,1.1.3,2.5.2,3.4h-1c0-.8,0-2.2-.1-3.3h1c0,0,0,0,0,0ZM203.5,145v1.4h4.8v-1.4h-4.8ZM208.3,148.8v-1.4h-4.8v1.4h4.8ZM205.8,155.7c.4.9.8,2,.9,2.8l-1,.2c-.1-.8-.5-1.9-.9-2.8l.9-.2h0ZM207.9,157.8c-.2-.5-.7-1.4-1.2-2l.8-.3c.5.6,1,1.4,1.2,2l-.9.4h0ZM228.4,151.7v2.4h5.1v6.6h-1.5v-.7h-8.6v.7h-1.4v-6.6h4.9v-2.4h-6.6c-.2,3-.7,6.5-2.4,9-.3-.2-.9-.6-1.3-.8,2.1-3.2,2.3-7.7,2.3-10.9v-5.9h15v5h-5.5v2.3h6.6v1.4h-6.6ZM226.9,150.4v-2.3h-6.5v.9c0,.4,0,.9,0,1.3h6.5ZM220.4,144.5v2.2h12v-2.2h-12ZM232.1,155.5h-8.6v3.2h8.6v-3.2ZM250.1,148.6l.9.3c-.9,7.1-3.9,10.5-8.4,12-.2-.4-.5-1.1-.8-1.4,2.3-.8,4.2-2,5.6-4-.8-.6-1.9-1.4-2.8-2l.9-1c.8.5,1.9,1.1,2.6,1.7.5-1.2,1-2.6,1.3-4.3h-3.5c-.9,2-2.2,3.8-3.7,5-.2-.3-.7-.9-1-1.2,2-1.6,3.5-4.1,4.3-7l1,.2v-1.7h-4.7v-1.4h4.7v-1.9h1.5v1.9h5.6v-1.9h1.5v1.9h4.6v1.4h-4.6v1.9h-1.5v-1.9h-5.6v1.9h-1.1c-.1.5-.3.9-.5,1.4h3.7ZM257.8,159c.8,0,.9-.4,1-2.3.4.2,1,.5,1.4.6-.2,2.4-.7,3.1-2.3,3.1h-3.7c-1.9,0-2.5-.5-2.5-2.4v-9.8h6.8v5.8c0,.8-.1,1.2-.7,1.4-.6.2-1.5.2-2.8.2,0-.4-.3-1-.5-1.4,1.1,0,1.9,0,2.2,0,.3,0,.3,0,.3-.3v-4.4h-3.8v8.4c0,.8.2.9,1.1.9h3.4Z"/>
</svg>