<svg width="360" height="74" viewBox="0 0 360 74" fill="none" xmlns="http://www.w3.org/2000/svg">
<g filter="url(#filter0_d_382_181)">
<path d="M24.932 29.072H45.56V31.556H24.932V29.072ZM39.692 26.588L41.24 25.004C41.888 25.316 42.572 25.7 43.292 26.156C44.012 26.588 44.564 26.996 44.948 27.38L43.328 29.108C42.944 28.7 42.404 28.256 41.708 27.776C41.012 27.296 40.34 26.9 39.692 26.588ZM41.708 32.924L44.372 33.464C43.484 36.776 42.164 39.668 40.412 42.14C38.684 44.588 36.608 46.604 34.184 48.188C34.064 47.996 33.884 47.768 33.644 47.504C33.404 47.24 33.164 46.976 32.924 46.712C32.684 46.448 32.456 46.244 32.24 46.1C34.616 44.732 36.596 42.932 38.18 40.7C39.764 38.468 40.94 35.876 41.708 32.924ZM24.536 43.364C25.904 43.172 27.512 42.944 29.36 42.68C31.232 42.392 33.152 42.08 35.12 41.744L35.192 44.084C33.392 44.396 31.592 44.72 29.792 45.056C28.016 45.368 26.396 45.656 24.932 45.92L24.536 43.364ZM28.352 35.444V38.54H31.7V35.444H28.352ZM26.048 33.536H34.112V40.448H26.048V33.536ZM35.156 25.58H38C38.096 27.98 38.252 30.308 38.468 32.564C38.708 34.796 39.02 36.812 39.404 38.612C39.812 40.388 40.292 41.828 40.844 42.932C41.42 44.036 42.08 44.66 42.824 44.804C43.064 44.876 43.256 44.576 43.4 43.904C43.568 43.232 43.7 42.332 43.796 41.204C43.988 41.396 44.216 41.6 44.48 41.816C44.744 42.032 45.008 42.224 45.272 42.392C45.56 42.56 45.8 42.704 45.992 42.824C45.728 44.888 45.224 46.304 44.48 47.072C43.76 47.816 42.872 47.972 41.816 47.54C40.616 47.228 39.62 46.424 38.828 45.128C38.036 43.808 37.4 42.14 36.92 40.124C36.44 38.108 36.056 35.852 35.768 33.356C35.504 30.86 35.3 28.268 35.156 25.58ZM20 21.764H50.456V53.66H47.072V24.824H23.24V53.66H20V21.764ZM22.052 48.98H48.908V52.076H22.052V48.98ZM55.82 21.584H64.1V24.644H58.772V53.444H55.82V21.584ZM63.092 21.584H63.632L64.1 21.44L66.224 22.664C65.744 24.152 65.216 25.748 64.64 27.452C64.088 29.132 63.536 30.704 62.984 32.168C64.16 33.632 64.928 35.012 65.288 36.308C65.648 37.58 65.828 38.768 65.828 39.872C65.828 40.904 65.708 41.804 65.468 42.572C65.252 43.316 64.892 43.892 64.388 44.3C64.124 44.492 63.836 44.648 63.524 44.768C63.212 44.864 62.876 44.948 62.516 45.02C62.18 45.044 61.808 45.068 61.4 45.092C61.016 45.092 60.62 45.08 60.212 45.056C60.188 44.672 60.116 44.204 59.996 43.652C59.876 43.1 59.696 42.62 59.456 42.212C59.816 42.236 60.14 42.26 60.428 42.284C60.716 42.284 60.98 42.272 61.22 42.248C61.652 42.224 61.988 42.116 62.228 41.924C62.492 41.732 62.672 41.42 62.768 40.988C62.864 40.556 62.912 40.076 62.912 39.548C62.912 38.588 62.732 37.52 62.372 36.344C62.012 35.144 61.268 33.86 60.14 32.492C60.428 31.676 60.704 30.812 60.968 29.9C61.256 28.988 61.532 28.076 61.796 27.164C62.084 26.252 62.336 25.4 62.552 24.608C62.768 23.792 62.948 23.084 63.092 22.484V21.584ZM71.12 34.364H82.028V37.1H71.12V34.364ZM67.7 40.088H85.7V42.86H67.7V40.088ZM69.572 22.844H75.224V25.148H69.572V22.844ZM68.204 27.2L69.68 25.652C70.4 26.156 71.156 26.744 71.948 27.416C72.764 28.064 73.4 28.628 73.856 29.108L72.308 30.908C71.9 30.404 71.3 29.804 70.508 29.108C69.716 28.388 68.948 27.752 68.204 27.2ZM80.516 45.596L83.036 44.12C83.612 44.744 84.224 45.428 84.872 46.172C85.52 46.892 86.132 47.6 86.708 48.296C87.308 48.992 87.788 49.604 88.148 50.132L85.52 51.824C85.16 51.296 84.692 50.672 84.116 49.952C83.564 49.232 82.964 48.488 82.316 47.72C81.692 46.952 81.092 46.244 80.516 45.596ZM74.468 22.844H74.9L75.404 22.736L77.132 23.384C76.604 25.784 75.848 27.968 74.864 29.936C73.904 31.904 72.788 33.632 71.516 35.12C70.244 36.584 68.852 37.808 67.34 38.792C67.172 38.456 66.908 38.084 66.548 37.676C66.212 37.244 65.9 36.908 65.612 36.668C66.956 35.876 68.216 34.82 69.392 33.5C70.592 32.156 71.624 30.62 72.488 28.892C73.376 27.14 74.036 25.292 74.468 23.348V22.844ZM78.752 22.052H85.448V24.428H78.752V22.052ZM69.824 20.144L72.452 20.756C71.78 22.676 70.904 24.5 69.824 26.228C68.768 27.932 67.628 29.36 66.404 30.512C66.188 30.296 65.852 30.008 65.396 29.648C64.94 29.288 64.568 29.012 64.28 28.82C65.504 27.764 66.596 26.48 67.556 24.968C68.516 23.456 69.272 21.848 69.824 20.144ZM84.44 22.052H85.088L85.628 21.908L87.536 22.988C86.96 24.596 86.228 26.192 85.34 27.776C84.452 29.336 83.528 30.644 82.568 31.7C82.352 31.388 82.052 31.052 81.668 30.692C81.308 30.308 80.984 30.008 80.696 29.792C81.224 29.168 81.728 28.448 82.208 27.632C82.712 26.816 83.156 25.964 83.54 25.076C83.924 24.188 84.224 23.372 84.44 22.628V22.052ZM69.644 44.444L72.704 45.452C72.248 46.196 71.732 46.976 71.156 47.792C70.604 48.608 70.028 49.388 69.428 50.132C68.828 50.852 68.264 51.5 67.736 52.076C67.52 51.908 67.244 51.704 66.908 51.464C66.596 51.248 66.26 51.032 65.9 50.816C65.564 50.6 65.276 50.432 65.036 50.312C65.852 49.544 66.68 48.632 67.52 47.576C68.36 46.496 69.068 45.452 69.644 44.444ZM79.364 23.564C79.868 25.364 80.552 27.104 81.416 28.784C82.28 30.464 83.276 31.964 84.404 33.284C85.556 34.604 86.828 35.66 88.22 36.452C87.884 36.716 87.524 37.088 87.14 37.568C86.756 38.024 86.456 38.444 86.24 38.828C84.752 37.868 83.408 36.644 82.208 35.156C81.008 33.668 79.952 31.988 79.04 30.116C78.128 28.244 77.372 26.264 76.772 24.176L79.364 23.564ZM75.116 41.276H78.32V53.516H75.116V41.276ZM65.036 31.268C65.804 31.22 66.62 31.148 67.484 31.052C68.348 30.956 69.308 30.848 70.364 30.728L70.436 32.636C69.524 32.804 68.66 32.96 67.844 33.104C67.052 33.248 66.236 33.38 65.396 33.5L65.036 31.268ZM100.208 34.58L102.584 33.752C102.992 34.52 103.364 35.348 103.7 36.236C104.06 37.124 104.372 37.988 104.636 38.828C104.924 39.644 105.116 40.376 105.212 41.024L102.656 42.032C102.56 41.384 102.38 40.64 102.116 39.8C101.876 38.936 101.588 38.048 101.252 37.136C100.916 36.224 100.568 35.372 100.208 34.58ZM96.428 43.904L98.84 43.364C99.056 44.516 99.26 45.764 99.452 47.108C99.644 48.452 99.764 49.616 99.812 50.6L97.256 51.212C97.208 50.228 97.1 49.052 96.932 47.684C96.788 46.316 96.62 45.056 96.428 43.904ZM92.432 43.58L95.132 44.012C94.964 45.596 94.724 47.18 94.412 48.764C94.124 50.348 93.788 51.692 93.404 52.796C93.116 52.652 92.696 52.484 92.144 52.292C91.616 52.1 91.172 51.956 90.812 51.86C91.22 50.78 91.544 49.496 91.784 48.008C92.048 46.52 92.264 45.044 92.432 43.58ZM91.892 33.968C91.844 33.728 91.748 33.428 91.604 33.068C91.484 32.684 91.352 32.3 91.208 31.916C91.088 31.508 90.956 31.16 90.812 30.872C91.172 30.776 91.508 30.572 91.82 30.26C92.156 29.924 92.504 29.48 92.864 28.928C93.056 28.664 93.332 28.232 93.692 27.632C94.052 27.032 94.448 26.324 94.88 25.508C95.336 24.668 95.78 23.78 96.212 22.844C96.668 21.908 97.064 20.96 97.4 20L100.568 21.296C99.992 22.616 99.332 23.936 98.588 25.256C97.868 26.552 97.112 27.8 96.32 29C95.528 30.2 94.724 31.28 93.908 32.24V32.276C93.908 32.276 93.8 32.336 93.584 32.456C93.392 32.576 93.164 32.72 92.9 32.888C92.636 33.056 92.396 33.236 92.18 33.428C91.988 33.62 91.892 33.8 91.892 33.968ZM91.892 33.932L91.82 31.52L93.296 30.584L99.56 30.08C99.488 30.488 99.416 30.956 99.344 31.484C99.296 32.012 99.26 32.456 99.236 32.816C97.844 32.96 96.704 33.092 95.816 33.212C94.928 33.308 94.22 33.404 93.692 33.5C93.188 33.572 92.804 33.644 92.54 33.716C92.276 33.788 92.06 33.86 91.892 33.932ZM92.144 42.14C92.096 41.924 92 41.636 91.856 41.276C91.736 40.892 91.604 40.496 91.46 40.088C91.34 39.68 91.208 39.332 91.064 39.044C91.496 38.972 91.928 38.732 92.36 38.324C92.816 37.892 93.32 37.34 93.872 36.668C94.184 36.332 94.628 35.792 95.204 35.048C95.804 34.28 96.452 33.38 97.148 32.348C97.868 31.292 98.588 30.164 99.308 28.964C100.028 27.764 100.676 26.552 101.252 25.328L104.132 27.092C103.22 28.724 102.224 30.344 101.144 31.952C100.064 33.536 98.936 35.048 97.76 36.488C96.584 37.928 95.396 39.248 94.196 40.448V40.52C94.196 40.52 94.088 40.58 93.872 40.7C93.68 40.796 93.44 40.928 93.152 41.096C92.888 41.264 92.648 41.444 92.432 41.636C92.24 41.828 92.144 41.996 92.144 42.14ZM92.144 42.14L92 39.656L93.476 38.648L103.052 37.28C102.98 37.688 102.932 38.156 102.908 38.684C102.908 39.212 102.92 39.644 102.944 39.98C100.76 40.34 98.996 40.64 97.652 40.88C96.332 41.096 95.3 41.288 94.556 41.456C93.836 41.6 93.308 41.732 92.972 41.852C92.636 41.948 92.36 42.044 92.144 42.14ZM100.316 43.22L102.656 42.464C103.016 43.376 103.364 44.372 103.7 45.452C104.06 46.532 104.324 47.468 104.492 48.26L102.008 49.124C101.888 48.332 101.66 47.384 101.324 46.28C100.988 45.176 100.652 44.156 100.316 43.22ZM104.564 21.764H117.596V24.968H104.564V21.764ZM116.768 21.764H117.128L117.668 21.62L120.008 21.944C119.864 23.072 119.684 24.284 119.468 25.58C119.276 26.876 119.072 28.172 118.856 29.468C118.64 30.764 118.412 31.976 118.172 33.104L115.004 32.78C115.244 31.628 115.472 30.392 115.688 29.072C115.928 27.728 116.144 26.444 116.336 25.22C116.528 23.996 116.672 22.976 116.768 22.16V21.764ZM109.28 32.024H120.692V35.048H108.74L109.28 32.024ZM119.756 32.024H120.368L120.944 31.88L123.104 32.636C122.504 36.092 121.592 39.164 120.368 41.852C119.144 44.516 117.668 46.832 115.94 48.8C114.212 50.744 112.292 52.34 110.18 53.588C109.94 53.18 109.616 52.724 109.208 52.22C108.8 51.716 108.404 51.32 108.02 51.032C109.916 50 111.656 48.596 113.24 46.82C114.824 45.044 116.18 42.956 117.308 40.556C118.436 38.156 119.252 35.528 119.756 32.672V32.024ZM107.876 23.024H111.224C111.176 26.36 111.068 29.492 110.9 32.42C110.756 35.348 110.492 38.084 110.108 40.628C109.724 43.148 109.16 45.476 108.416 47.612C107.696 49.724 106.748 51.644 105.572 53.372C105.38 53.18 105.104 52.94 104.744 52.652C104.384 52.388 104 52.112 103.592 51.824C103.208 51.56 102.884 51.356 102.62 51.212C104.18 49.196 105.332 46.784 106.076 43.976C106.82 41.144 107.3 37.964 107.516 34.436C107.756 30.908 107.876 27.104 107.876 23.024ZM112.52 34.004C113.096 36.476 113.9 38.804 114.932 40.988C115.964 43.172 117.236 45.092 118.748 46.748C120.26 48.38 122.048 49.64 124.112 50.528C123.848 50.744 123.572 51.02 123.284 51.356C122.996 51.692 122.72 52.04 122.456 52.4C122.192 52.76 121.976 53.084 121.808 53.372C119.672 52.268 117.824 50.792 116.264 48.944C114.704 47.096 113.396 44.96 112.34 42.536C111.284 40.112 110.42 37.46 109.748 34.58L112.52 34.004ZM140.06 30.08H143.264C143.096 31.568 142.916 33.14 142.724 34.796C142.532 36.428 142.316 38.06 142.076 39.692C141.86 41.324 141.644 42.872 141.428 44.336C141.236 45.8 141.044 47.096 140.852 48.224H137.54C137.78 47.048 138.02 45.716 138.26 44.228C138.5 42.74 138.728 41.18 138.944 39.548C139.16 37.916 139.364 36.296 139.556 34.688C139.772 33.056 139.94 31.52 140.06 30.08ZM145.424 33.932L147.224 32.744C147.92 33.272 148.628 33.896 149.348 34.616C150.092 35.312 150.656 35.924 151.04 36.452L149.132 37.784C148.772 37.232 148.232 36.596 147.512 35.876C146.816 35.132 146.12 34.484 145.424 33.932ZM144.488 41.456L146.36 40.268C147.104 40.82 147.872 41.48 148.664 42.248C149.48 43.016 150.116 43.7 150.572 44.3L148.556 45.668C148.148 45.068 147.548 44.372 146.756 43.58C145.988 42.788 145.232 42.08 144.488 41.456ZM140.528 24.032H159.14V27.092H140.528V24.032ZM141.464 30.08H155.432V33.032H141.464V30.08ZM135.524 37.388H160.076V40.484H135.524V37.388ZM139.232 45.272H159.104V48.224H139.232V45.272ZM140.96 20.108L144.236 20.936C143.756 22.448 143.168 23.936 142.472 25.4C141.8 26.864 141.08 28.244 140.312 29.54C139.544 30.836 138.752 31.976 137.936 32.96C137.72 32.768 137.432 32.552 137.072 32.312C136.712 32.072 136.34 31.844 135.956 31.628C135.596 31.388 135.284 31.196 135.02 31.052C135.86 30.164 136.652 29.132 137.396 27.956C138.14 26.78 138.812 25.52 139.412 24.176C140.012 22.832 140.528 21.476 140.96 20.108ZM154.46 30.08H157.628C157.628 30.08 157.628 30.176 157.628 30.368C157.628 30.56 157.628 30.776 157.628 31.016C157.628 31.256 157.616 31.448 157.592 31.592C157.448 35.048 157.304 37.976 157.16 40.376C157.016 42.776 156.848 44.744 156.656 46.28C156.464 47.792 156.248 48.98 156.008 49.844C155.792 50.708 155.528 51.332 155.216 51.716C154.832 52.22 154.424 52.568 153.992 52.76C153.56 52.976 153.068 53.12 152.516 53.192C151.988 53.24 151.316 53.264 150.5 53.264C149.684 53.264 148.844 53.24 147.98 53.192C147.956 52.76 147.86 52.268 147.692 51.716C147.548 51.188 147.344 50.732 147.08 50.348C147.944 50.42 148.736 50.468 149.456 50.492C150.2 50.492 150.74 50.492 151.076 50.492C151.388 50.492 151.64 50.456 151.832 50.384C152.048 50.312 152.24 50.168 152.408 49.952C152.648 49.688 152.864 49.16 153.056 48.368C153.272 47.552 153.464 46.4 153.632 44.912C153.8 43.424 153.944 41.516 154.064 39.188C154.208 36.86 154.34 34.052 154.46 30.764V30.08ZM128.612 22.952L130.52 20.648C131.24 20.96 131.996 21.332 132.788 21.764C133.58 22.196 134.336 22.64 135.056 23.096C135.776 23.528 136.376 23.936 136.856 24.32L134.84 26.912C134.408 26.528 133.832 26.096 133.112 25.616C132.416 25.136 131.66 24.668 130.844 24.212C130.052 23.732 129.308 23.312 128.612 22.952ZM126.632 33.356L128.504 31.016C129.2 31.328 129.92 31.7 130.664 32.132C131.432 32.54 132.152 32.96 132.824 33.392C133.496 33.824 134.048 34.232 134.48 34.616L132.5 37.208C132.092 36.824 131.552 36.404 130.88 35.948C130.232 35.468 129.524 35 128.756 34.544C128.012 34.088 127.304 33.692 126.632 33.356ZM127.676 51.104C128.156 50.168 128.684 49.052 129.26 47.756C129.836 46.46 130.424 45.092 131.024 43.652C131.624 42.212 132.164 40.796 132.644 39.404L135.272 41.276C134.84 42.548 134.36 43.868 133.832 45.236C133.304 46.604 132.764 47.948 132.212 49.268C131.684 50.588 131.156 51.812 130.628 52.94L127.676 51.104ZM170.408 27.596V29.54H187.832V27.596H170.408ZM170.408 23.564V25.472H187.832V23.564H170.408ZM167.132 21.332H191.252V31.772H167.132V21.332ZM163.208 33.716H195.068V36.452H163.208V33.716ZM171.236 40.52V43.328H187.22V40.52H171.236ZM167.996 38.108H190.64V45.74H167.996V38.108ZM177.536 44.408H180.956V50.492C180.956 51.26 180.848 51.836 180.632 52.22C180.416 52.628 179.996 52.928 179.372 53.12C178.772 53.312 178.016 53.42 177.104 53.444C176.216 53.492 175.136 53.516 173.864 53.516C173.792 53.108 173.66 52.652 173.468 52.148C173.276 51.668 173.084 51.236 172.892 50.852C173.444 50.876 173.996 50.888 174.548 50.888C175.124 50.912 175.616 50.924 176.024 50.924C176.456 50.924 176.756 50.924 176.924 50.924C177.164 50.9 177.32 50.84 177.392 50.744C177.488 50.672 177.536 50.54 177.536 50.348V44.408ZM183.368 48.44L185.564 46.532C186.62 46.892 187.736 47.324 188.912 47.828C190.112 48.332 191.264 48.86 192.368 49.412C193.472 49.94 194.384 50.444 195.104 50.924L192.764 53.084C192.092 52.628 191.228 52.112 190.172 51.536C189.116 50.984 187.988 50.432 186.788 49.88C185.588 49.328 184.448 48.848 183.368 48.44ZM171.344 46.424L174.476 47.648C173.66 48.344 172.712 49.028 171.632 49.7C170.576 50.348 169.484 50.96 168.356 51.536C167.228 52.112 166.136 52.604 165.08 53.012C164.912 52.796 164.672 52.532 164.36 52.22C164.048 51.908 163.736 51.596 163.424 51.284C163.112 50.996 162.836 50.768 162.596 50.6C163.652 50.264 164.72 49.88 165.8 49.448C166.88 49.016 167.9 48.536 168.86 48.008C169.844 47.48 170.672 46.952 171.344 46.424ZM176.6 32.384L179.588 31.412C179.972 31.868 180.344 32.396 180.704 32.996C181.088 33.596 181.352 34.136 181.496 34.616L178.364 35.732C178.22 35.276 177.98 34.724 177.644 34.076C177.332 33.428 176.984 32.864 176.6 32.384ZM207.704 21.8H231.644V25.076H207.704V21.8ZM213.968 42.572H225.56V45.452H213.968V42.572ZM210.548 48.944H228.62V51.896H210.548V48.944ZM208.856 29.396H230.528V53.444H227.108V32.384H212.132V53.516H208.856V29.396ZM199.568 23.24L201.512 20.756C202.136 21.092 202.82 21.464 203.564 21.872C204.308 22.28 205.028 22.688 205.724 23.096C206.42 23.504 206.996 23.864 207.452 24.176L205.4 26.984C204.968 26.624 204.416 26.228 203.744 25.796C203.072 25.364 202.364 24.92 201.62 24.464C200.876 24.008 200.192 23.6 199.568 23.24ZM198.308 32.852L200.216 30.368C200.864 30.656 201.56 31.004 202.304 31.412C203.072 31.796 203.816 32.18 204.536 32.564C205.256 32.948 205.856 33.296 206.336 33.608L204.356 36.416C203.924 36.104 203.348 35.744 202.628 35.336C201.932 34.928 201.2 34.508 200.432 34.076C199.688 33.62 198.98 33.212 198.308 32.852ZM198.956 51.068C199.508 50.108 200.108 48.992 200.756 47.72C201.428 46.424 202.1 45.056 202.772 43.616C203.468 42.176 204.104 40.76 204.68 39.368L207.38 41.312C206.876 42.608 206.312 43.94 205.688 45.308C205.088 46.676 204.464 48.02 203.816 49.34C203.192 50.636 202.592 51.86 202.016 53.012L198.956 51.068ZM214.94 23.708H217.964V31.412H214.94V23.708ZM220.88 23.672H223.94V31.412H220.88V23.672ZM215.372 31.16H218.108V33.536C218.108 34.376 217.988 35.252 217.748 36.164C217.508 37.076 217.064 37.964 216.416 38.828C215.792 39.668 214.88 40.436 213.68 41.132C213.56 40.94 213.368 40.724 213.104 40.484C212.84 40.22 212.564 39.968 212.276 39.728C211.988 39.488 211.748 39.308 211.556 39.188C212.636 38.612 213.44 38.012 213.968 37.388C214.52 36.74 214.892 36.08 215.084 35.408C215.276 34.736 215.372 34.1 215.372 33.5V31.16ZM220.772 31.196H223.436V36.128C223.436 36.44 223.484 36.644 223.58 36.74C223.7 36.812 223.94 36.848 224.3 36.848C224.396 36.848 224.54 36.848 224.732 36.848C224.948 36.848 225.176 36.848 225.416 36.848C225.68 36.848 225.92 36.848 226.136 36.848C226.376 36.848 226.544 36.848 226.64 36.848C226.904 36.848 227.084 36.836 227.18 36.812C227.276 36.788 227.336 36.752 227.36 36.704C227.624 36.92 227.996 37.124 228.476 37.316C228.98 37.508 229.436 37.664 229.844 37.784C229.676 38.48 229.364 38.972 228.908 39.26C228.476 39.524 227.852 39.656 227.036 39.656C226.916 39.656 226.712 39.656 226.424 39.656C226.136 39.656 225.824 39.656 225.488 39.656C225.152 39.656 224.84 39.656 224.552 39.656C224.264 39.656 224.048 39.656 223.904 39.656C223.064 39.656 222.416 39.56 221.96 39.368C221.504 39.152 221.192 38.792 221.024 38.288C220.856 37.784 220.772 37.088 220.772 36.2V31.196ZM253.1 32.672H266.384V35.768H253.1V32.672ZM245.54 48.656H263V51.68H245.54V48.656ZM251.444 28.784H254.972V42.032H251.444V28.784ZM243.74 39.944H264.692V53.048H261.2V43.112H247.052V53.12H243.74V39.944ZM239.096 24.356H267.428V27.596H239.096V24.356ZM237.548 24.356H241.04V33.68C241.04 35.12 240.992 36.704 240.896 38.432C240.8 40.136 240.62 41.888 240.356 43.688C240.092 45.488 239.696 47.24 239.168 48.944C238.664 50.648 238.004 52.184 237.188 53.552C236.972 53.36 236.672 53.132 236.288 52.868C235.928 52.604 235.556 52.352 235.172 52.112C234.788 51.872 234.452 51.704 234.164 51.608C234.932 50.312 235.544 48.896 236 47.36C236.456 45.824 236.792 44.264 237.008 42.68C237.224 41.072 237.368 39.5 237.44 37.964C237.512 36.404 237.548 34.976 237.548 33.68V24.356ZM249.788 20.936L253.172 20.18C253.7 20.948 254.18 21.8 254.612 22.736C255.044 23.672 255.344 24.5 255.512 25.22L251.912 26.084C251.792 25.364 251.528 24.524 251.12 23.564C250.712 22.58 250.268 21.704 249.788 20.936ZM274.304 22.016H277.724V32.528C277.724 34.088 277.664 35.78 277.544 37.604C277.448 39.428 277.244 41.288 276.932 43.184C276.644 45.08 276.2 46.928 275.6 48.728C275.024 50.528 274.244 52.16 273.26 53.624C273.068 53.432 272.78 53.216 272.396 52.976C272.036 52.76 271.664 52.544 271.28 52.328C270.896 52.112 270.548 51.956 270.236 51.86C271.172 50.468 271.904 48.956 272.432 47.324C272.984 45.668 273.392 43.988 273.656 42.284C273.92 40.556 274.088 38.864 274.16 37.208C274.256 35.528 274.304 33.968 274.304 32.528V22.016ZM276.572 22.016H301.16V31.34H276.572V28.352H297.74V25.004H276.572V22.016ZM276.536 34.904H303.14V38H276.536V34.904ZM281.72 49.376H298.928V52.364H281.72V49.376ZM288.524 31.124H291.908V42.824H288.524V31.124ZM280.028 41.672H300.584V53.516H297.2V44.66H283.304V53.552H280.028V41.672ZM325.856 32.276H339.896V35.552H325.856V32.276ZM332.696 34.58H336.08V53.408H332.696V34.58ZM308.576 23.564H311.924V36.38C311.924 37.676 311.888 39.092 311.816 40.628C311.744 42.14 311.6 43.676 311.384 45.236C311.192 46.796 310.88 48.308 310.448 49.772C310.04 51.212 309.5 52.52 308.828 53.696C308.66 53.456 308.396 53.192 308.036 52.904C307.7 52.64 307.352 52.376 306.992 52.112C306.632 51.848 306.32 51.656 306.056 51.536C306.848 50.096 307.412 48.5 307.748 46.748C308.108 44.996 308.336 43.22 308.432 41.42C308.528 39.62 308.576 37.94 308.576 36.38V23.564ZM337.052 20.576L339.32 23.492C338.072 23.972 336.656 24.404 335.072 24.788C333.488 25.172 331.868 25.508 330.212 25.796C328.556 26.06 326.96 26.3 325.424 26.516C325.376 26.108 325.244 25.628 325.028 25.076C324.836 24.5 324.632 24.02 324.416 23.636C325.904 23.396 327.428 23.132 328.988 22.844C330.548 22.532 332.024 22.184 333.416 21.8C334.832 21.416 336.044 21.008 337.052 20.576ZM310.448 29.18H321.464V40.484H310.448V37.424H318.152V32.24H310.448V29.18ZM320.888 20.864L323.048 23.744C321.824 24.2 320.444 24.596 318.908 24.932C317.372 25.268 315.788 25.556 314.156 25.796C312.548 26.012 311 26.204 309.512 26.372C309.464 25.964 309.344 25.496 309.152 24.968C308.96 24.416 308.768 23.948 308.576 23.564C310.016 23.372 311.492 23.144 313.004 22.88C314.516 22.616 315.956 22.316 317.324 21.98C318.716 21.62 319.904 21.248 320.888 20.864ZM324.416 23.636H327.908V35.336C327.908 36.728 327.836 38.24 327.692 39.872C327.548 41.504 327.272 43.148 326.864 44.804C326.48 46.46 325.892 48.056 325.1 49.592C324.332 51.104 323.324 52.46 322.076 53.66C321.908 53.444 321.656 53.18 321.32 52.868C320.984 52.58 320.636 52.292 320.276 52.004C319.94 51.716 319.652 51.5 319.412 51.356C320.564 50.228 321.476 49.004 322.148 47.684C322.82 46.364 323.312 44.996 323.624 43.58C323.96 42.14 324.176 40.724 324.272 39.332C324.368 37.916 324.416 36.572 324.416 35.3V23.636Z" fill="white"/>
</g>
<defs>
<filter id="filter0_d_382_181" x="0" y="0" width="359.896" height="73.696" filterUnits="userSpaceOnUse" color-interpolation-filters="sRGB">
<feFlood flood-opacity="0" result="BackgroundImageFix"/>
<feColorMatrix in="SourceAlpha" type="matrix" values="0 0 0 0 0 0 0 0 0 0 0 0 0 0 0 0 0 0 127 0" result="hardAlpha"/>
<feOffset/>
<feGaussianBlur stdDeviation="10"/>
<feComposite in2="hardAlpha" operator="out"/>
<feColorMatrix type="matrix" values="0 0 0 0 0 0 0 0 0 0 0 0 0 0 0 0 0 0 0.65 0"/>
<feBlend mode="normal" in2="BackgroundImageFix" result="effect1_dropShadow_382_181"/>
<feBlend mode="normal" in="SourceGraphic" in2="effect1_dropShadow_382_181" result="shape"/>
</filter>
</defs>
</svg>
