<?xml version="1.0" encoding="UTF-8"?>
<svg id="_圖層_1" data-name="圖層_1" xmlns="http://www.w3.org/2000/svg" version="1.1" viewBox="0 0 274 66">
  <!-- Generator: Adobe Illustrator 29.3.1, SVG Export Plug-In . SVG Version: 2.1.0 Build 151)  -->
  <defs>
    <style>
      .st0 {
        fill: #fff;
      }
    </style>
  </defs>
  <path class="st0" d="M157.4,58.3l2.3-.8c1.5,3.2,4.1,5.5,9,5.5,7.9,0,9.3-5,9.3-10,0-1.1,0-2.7,0-3.8h-.1c-1.4,3.3-4.8,5.9-9.4,5.9-7,0-11.8-5.4-11.8-12.5s4.9-12.5,11.8-12.5,7.8,2.4,9.4,5.4h.1c0-1.7,0-3.2,0-4.8h2.3c-.1.5,0,21.2,0,22.3,0,9.4-5.3,12.1-11.6,12.1s-9.8-3.1-11.3-6.8h0ZM178.1,42.5c0-5.8-3.7-10.3-9.5-10.3-12.6-.2-12.4,20.9,0,20.7,5.7,0,9.5-4.2,9.5-10.4ZM186,33.9c0-1.5,0-2.4,0-3.1h2.3c0,1.4,0,3.7,0,4.9h0c1.1-3.4,4.5-5.5,8.2-5v2.3c-5.8-.7-8.3,3.6-8.2,10,0,0,0,12.7,0,12.7h-2.4v-21.9ZM196.7,43.2c0-7.6,4.4-13.2,12.1-13.2,16.2-.4,16.2,26.7,0,26.2-7.8,0-12.1-5.6-12.1-13.1ZM218.3,43.2c0-6.3-3.2-11-9.5-11s-9.6,4.8-9.6,11,3.2,11,9.6,11,9.5-4.7,9.5-11ZM224.9,45.9v-15.2h2.4v14.9c0,5.6,2,8.5,6.7,8.5s7.9-3.8,7.9-9.4v-14.1h2.4c0,2.2,0,23.4,0,25h-2.4v-4.7h0c-1.1,2.5-3.5,5.3-8.1,5.3-6.7,0-8.8-4.4-8.8-10.4ZM250,33.4c0-1.3,0-1.9,0-2.7h2.4c0,1.4,0,3.7,0,5.1h0c1.5-3.2,4.9-5.8,9.5-5.8,7.2,0,11.8,5.6,11.8,13.2s-4.8,13-11.8,13-7.7-2.2-9.4-5.7h0c0,3.4.1,10.2,0,14h-2.4v-31.2ZM271.2,43.2c0-6.3-3.3-11-9.4-11-13-.3-12.9,22.3,0,22,6,0,9.4-4.6,9.4-11ZM6.4,52.6h0c0,1,.1,2.2,0,3.2H0c.1-.5,0-33,0-34.7h6.6c0,3.4,0,9.3,0,12.7,1.5-2,4-3.7,7.8-3.7,6.7,0,11.4,5.6,11.4,13.2s-4.7,13.1-11.5,13.1-6.2-1.4-7.9-3.8h0ZM19.1,43.3c0-4.6-2.4-7.7-6.3-7.7-8.5-.2-8.5,15.6,0,15.4,3.9,0,6.3-3.1,6.3-7.7ZM27.5,48.7c-.3-6.5,7.1-7.3,13.8-8.6,1.9-.4,2.5-.4,2.5-1.7,0-2.1-1.7-3.4-4.5-3.4s-4.6,1.6-4.7,4l-6.3-.4c.4-5,4.5-8.5,11.1-8.5s10.7,3,10.7,9.7c0,.4,0,16,0,15.8h-5.7c0-.6,0-1.6,0-2.2h0c-4.8,4.7-17.3,3.5-17-4.8ZM43.9,46c0-.6,0-1.4,0-1.9-1.2.3-1.9.4-3.5.7-4.3.9-6.4,1.2-6.4,3.8s1.5,3.2,4.1,3.2,5.7-2,5.7-5.8h0ZM80.3,64.7l-.6-5c3.3.1,6.2.4,7.5-3.8l-9.6-25.1h7.2c1.8,5.6,4.1,12.7,5.7,18.3h.2c1.6-5.8,3.7-12.6,5.6-18.3h7l-10.1,26.8c-2.4,6.7-7,7.6-12.9,7.2h0ZM102.6,48.7c-.3-6.5,7.1-7.3,13.8-8.6,1.9-.4,2.5-.4,2.5-1.7,0-2.1-1.7-3.4-4.5-3.4s-4.6,1.6-4.7,4l-6.3-.4c.4-5,4.5-8.5,11.1-8.5s10.7,3,10.7,9.7c0,.4,0,16,0,15.8h-5.7c0-.6,0-1.6,0-2.2h0c-4.8,4.7-17.3,3.5-17-4.8ZM119,46c0-.6,0-1.4,0-1.9-1.2.3-1.9.4-3.5.7-4.3.9-6.4,1.2-6.4,3.8s1.5,3.2,4.1,3.2,5.7-2,5.7-5.8h0ZM145.5,47.8v-4.2c0-5.5-1.1-8-4.7-8s-5.3,2.4-5.3,7.6c0,6,0,10.1,3.9,11.4v1.1h-7.9c-2-1.2-2.7-3.2-2.7-7.9,0-3.5,0-13.8,0-17.1h6.4c0,.9,0,2.1,0,3h0c1.5-2.2,4.2-3.7,7.8-3.7,5.6,0,9.1,3.4,9.1,10.3v5.5c0,6.3,1.4,7.7,3.9,8.7v1.1h-7.9c-2-1.2-2.7-3.2-2.7-7.9h0ZM70.5,47.8v-4.2c0-5.5-1.1-8-4.7-8s-5.3,2.4-5.3,7.6c0,6,0,10.1,3.9,11.4v1.1h-7.9c-2-1.2-2.7-3.2-2.7-7.9,0-3.5,0-13.8,0-17.1h6.4c0,.9,0,2.1,0,3h0c1.5-2.2,4.2-3.7,7.8-3.7,5.6,0,9.1,3.4,9.1,10.3v5.5c0,6.3,1.4,7.7,3.9,8.7v1.1h-7.9c-2-1.2-2.7-3.2-2.7-7.9h0ZM0,0h5.6c4.2,0,6,1.5,6,4.7s-2.7,4.8-6.2,4.8H1.9v7.2H0V0h0ZM5.5,7.9c2.4,0,4.2-.6,4.2-3.1s-1.7-3.2-4.2-3.2H1.9v6.3h3.6ZM11.7,13.4c-.2-3.2,4.3-3.5,7.1-4.1.8-.2,1.1-.1,1.1-1,.1-3.5-5.9-3.2-6.2,0l-1.7-.2c.3-2.4,2.4-3.8,5-3.8s4.7,1.5,4.7,4.6v7.4c0,0,0,.2,0,.3h-1.7c0-.5,0-1.2,0-1.5h0c-1.9,2.8-8.6,2.3-8.4-1.8h0ZM20,12c0-.4,0-1,0-1.5-.1,0-.4,0-1,.2-1.5.3-2.1.4-2.5.5-2.3.5-3,.9-3,2.2s1.1,2.2,2.7,2.2,3.7-1.5,3.7-3.6h0ZM23.2,6.7c0-1,0-1.3,0-2h1.8c0,.6,0,1.5,0,2.1h0c.6-1.4,2.4-2.6,4.2-2.3v1.7c-2.5-.4-4.3,1.1-4.2,4,0,0,0,6.5,0,6.5h-1.8V6.7h0ZM31.8,13.3v-7.2h-2v-1.4h2V1.4h1.8v3.3h2.4v1.4h-2.4v7.2c0,2.2.9,2.8,2.1,2.9v.4h-2.4c-1.2-.5-1.5-1.5-1.5-3.4h0ZM42.2,10.8c0-3.8,2.4-6.3,6.1-6.3,8-.2,8.1,12.8,0,12.6-3.7,0-6.1-2.4-6.1-6.2ZM52.3,10.8c.2-6.5-8.4-6.5-8.2,0-.2,6.4,8.5,6.4,8.2,0ZM56.4,6.1h-2v-1.4h2c-.2-3.9.8-5.1,4.6-4.7v1.5c-3-.4-2.8.9-2.8,3.2h2.6v1.4h-2.6v10.6h-1.8V6.1Z"/>
</svg>