<svg width="1723" height="124" viewBox="0 0 1723 124" fill="none" xmlns="http://www.w3.org/2000/svg">
<g clip-path="url(#clip0_2_454)">
<g opacity="0.52">
<path d="M62.18 0C97.69 0 124.2 22.41 124.2 59.18C124.2 95.95 99.26 123.73 61.23 123.73C17.99 123.73 0 90.12 0 61.71C0 36.14 18.62 0 62.18 0ZM65.5 117.73C79.7 117.73 109.06 109.52 109.06 63.6C109.06 25.72 86.02 5.36 61.08 5.36C34.72 5.36 15 22.72 15 57.28C15 94.05 37.09 117.73 65.5 117.73Z" fill="white"/>
<path d="M197.43 100.06C197.75 113 199.32 117.1 203.58 118.37C206.58 119.16 210.05 119.32 211.47 119.32C212.26 119.32 212.73 119.64 212.73 120.27C212.73 121.22 211.78 121.53 209.89 121.53C200.89 121.53 194.58 121.06 193.16 121.06C191.74 121.06 185.11 121.53 178.01 121.53C176.43 121.53 175.48 121.37 175.48 120.27C175.48 119.64 175.95 119.32 176.74 119.32C178 119.32 180.84 119.16 183.21 118.37C187.16 117.26 187.94 112.69 187.94 98.33L188.1 7.90001C188.1 1.74001 188.57 0.0100098 189.84 0.0100098C191.11 0.0100098 193.79 3.48001 195.36 5.06001C197.73 7.74001 221.24 33.15 245.55 59.19C261.17 75.92 278.38 95.17 283.43 100.38L281.69 20.21C281.53 9.95001 280.43 6.48001 275.53 5.22001C272.69 4.59001 269.06 4.43001 267.8 4.43001C266.7 4.43001 266.54 3.96001 266.54 3.32001C266.54 2.37001 267.8 2.22001 269.7 2.22001C276.8 2.22001 284.38 2.69001 286.11 2.69001C287.84 2.69001 293.05 2.22001 299.52 2.22001C301.26 2.22001 302.36 2.38001 302.36 3.32001C302.36 3.95001 301.73 4.43001 300.62 4.43001C299.83 4.43001 298.73 4.43001 296.83 4.90001C291.62 6.01001 290.99 9.48001 290.99 18.95L290.67 111.43C290.67 121.85 290.35 122.64 289.25 122.64C287.99 122.64 286.09 120.9 277.73 112.54C275.99 110.96 253.27 87.76 236.54 69.77C218.23 50.04 200.4 30.16 195.35 24.48L197.4 100.08L197.43 100.06Z" fill="white"/>
<path d="M373.4 47.9799C373.4 23.3599 373.4 18.94 373.08 13.89C372.76 8.51995 371.5 5.99995 366.29 4.88995C365.03 4.56995 362.34 4.41995 360.92 4.41995C360.29 4.41995 359.66 4.09995 359.66 3.46995C359.66 2.51995 360.45 2.20995 362.18 2.20995C365.81 2.20995 370.07 2.20995 373.54 2.36995L380.01 2.68995C381.11 2.68995 412.52 2.68995 416.15 2.52995C419.15 2.36995 421.67 2.05995 422.94 1.73995C423.73 1.57995 424.36 0.949951 425.15 0.949951C425.62 0.949951 425.78 1.57995 425.78 2.36995C425.78 3.46995 424.99 5.36995 424.52 9.78995C424.36 11.37 424.05 18.3099 423.73 20.2099C423.57 21 423.26 21.95 422.63 21.95C421.68 21.95 421.37 21.16 421.37 19.9C421.37 18.7999 421.21 16.11 420.42 14.22C419.32 11.7 417.74 9.79995 409.21 8.84995C406.53 8.52995 389.32 8.37995 387.59 8.37995C386.96 8.37995 386.64 8.84995 386.64 9.95995V53.52C386.64 54.6199 386.8 55.0999 387.59 55.0999C389.64 55.0999 409.05 55.0999 412.68 54.7799C416.47 54.4599 418.68 54.15 420.1 52.57C421.2 51.31 421.84 50.52 422.47 50.52C422.94 50.52 423.26 50.84 423.26 51.7799C423.26 52.7199 422.47 55.41 422 60.6199C421.68 63.7799 421.37 69.62 421.37 70.72C421.37 71.98 421.37 73.72 420.27 73.72C419.48 73.72 419.17 73.09 419.17 72.3C419.17 70.72 419.17 69.14 418.54 67.09C417.91 64.88 416.49 62.2 410.33 61.57C406.07 61.0999 390.44 60.7799 387.76 60.7799C386.97 60.7799 386.66 61.25 386.66 61.88V75.77C386.66 81.14 386.5 99.44 386.66 102.76C387.13 113.65 389.5 115.7 404.97 115.7C409.07 115.7 416.02 115.7 420.12 113.96C424.22 112.22 426.12 109.07 427.22 102.6C427.54 100.86 427.85 100.23 428.64 100.23C429.59 100.23 429.59 101.49 429.59 102.6C429.59 103.86 428.33 114.59 427.54 117.91C426.44 122.01 425.17 122.01 419.02 122.01C407.18 122.01 398.5 121.69 392.35 121.54C386.2 121.22 382.41 121.07 380.04 121.07C379.72 121.07 377.04 121.07 373.73 121.23C370.57 121.23 366.94 121.55 364.58 121.55C362.84 121.55 362.05 121.23 362.05 120.29C362.05 119.82 362.37 119.34 363.31 119.34C364.73 119.34 366.62 119.02 368.04 118.71C371.2 118.08 371.99 114.61 372.62 110.03C373.41 103.4 373.41 90.93 373.41 75.78V48L373.4 47.9799Z" fill="white"/>
<path d="M605.24 6.15C607.13 0.94 607.77 0 608.71 0C609.65 0 610.29 0.79 612.18 5.68C614.55 11.68 639.33 76.86 648.95 100.85C654.63 114.9 659.21 117.42 662.52 118.37C664.89 119.16 667.25 119.32 668.83 119.32C669.78 119.32 670.41 119.48 670.41 120.27C670.41 121.22 668.99 121.53 667.25 121.53C664.88 121.53 653.36 121.53 642.47 121.21C639.47 121.05 637.74 121.05 637.74 120.1C637.74 119.47 638.21 119.15 638.84 119C639.79 118.68 640.73 117.26 639.79 114.74L625.11 75.92C624.79 75.29 624.48 74.97 623.69 74.97H589.76C588.97 74.97 588.5 75.44 588.18 76.23L578.71 104.16C577.29 108.11 576.5 111.89 576.5 114.73C576.5 117.89 579.81 119.31 582.5 119.31H584.08C585.18 119.31 585.66 119.63 585.66 120.26C585.66 121.21 584.71 121.52 583.29 121.52C579.5 121.52 572.72 121.05 570.98 121.05C569.24 121.05 560.56 121.52 553.15 121.52C551.1 121.52 550.15 121.2 550.15 120.26C550.15 119.63 550.78 119.31 551.57 119.31C552.67 119.31 554.88 119.15 556.15 118.99C563.41 118.04 566.57 112.05 569.41 104.16L605.24 6.15ZM621.65 69.28C622.44 69.28 622.44 68.81 622.28 68.18L607.29 25.57C606.5 23.2 605.71 23.2 604.92 25.57L591.03 68.18C590.71 68.97 591.03 69.28 591.5 69.28H621.64H621.65Z" fill="white"/>
<path d="M728.03 100.06C728.35 113 729.92 117.1 734.18 118.37C737.18 119.16 740.65 119.32 742.07 119.32C742.86 119.32 743.33 119.64 743.33 120.27C743.33 121.22 742.38 121.53 740.49 121.53C731.49 121.53 725.18 121.06 723.76 121.06C722.34 121.06 715.71 121.53 708.61 121.53C707.03 121.53 706.08 121.37 706.08 120.27C706.08 119.64 706.55 119.32 707.34 119.32C708.6 119.32 711.44 119.16 713.81 118.37C717.76 117.26 718.54 112.69 718.54 98.33L718.7 7.90001C718.7 1.74001 719.17 0.0100098 720.44 0.0100098C721.71 0.0100098 724.39 3.48001 725.96 5.06001C728.33 7.74001 751.84 33.15 776.15 59.19C791.77 75.92 808.98 95.17 814.03 100.38L812.29 20.21C812.13 9.95001 811.03 6.48001 806.13 5.22001C803.29 4.59001 799.66 4.43001 798.4 4.43001C797.3 4.43001 797.14 3.96001 797.14 3.32001C797.14 2.37001 798.4 2.22001 800.3 2.22001C807.4 2.22001 814.98 2.69001 816.71 2.69001C818.44 2.69001 823.65 2.22001 830.12 2.22001C831.86 2.22001 832.96 2.38001 832.96 3.32001C832.96 3.95001 832.33 4.43001 831.22 4.43001C830.43 4.43001 829.33 4.43001 827.43 4.90001C822.22 6.01001 821.59 9.48001 821.59 18.95L821.27 111.43C821.27 121.85 820.95 122.64 819.85 122.64C818.59 122.64 816.69 120.9 808.33 112.54C806.59 110.96 783.87 87.76 767.14 69.77C748.83 50.04 731 30.16 725.95 24.48L728 100.08L728.03 100.06Z" fill="white"/>
<path d="M904 47.98C904 23.36 904 18.94 903.68 13.89C903.36 8.52003 902.1 6.00002 896.89 4.89002C895.63 4.57002 892.94 4.42002 891.52 4.42002C890.89 4.42002 890.26 4.10002 890.26 3.47002C890.26 2.52002 891.05 2.21002 892.79 2.21002C899.89 2.21002 909.83 2.68002 910.62 2.68002C912.51 2.68002 922.46 2.21002 931.93 2.21002C947.55 2.21002 976.44 0.790026 995.22 20.2C1003.11 28.41 1010.53 41.51 1010.53 60.29C1010.53 80.18 1002.32 95.48 993.49 104.8C986.7 111.9 972.5 122.95 945.67 122.95C938.88 122.95 930.52 122.48 923.73 122C916.79 121.53 911.42 121.05 910.63 121.05C910.31 121.05 907.63 121.05 904.32 121.21C901.16 121.21 897.53 121.53 895.17 121.53C893.43 121.53 892.65 121.21 892.65 120.27C892.65 119.8 892.97 119.32 893.91 119.32C895.33 119.32 897.22 119 898.65 118.69C901.81 118.06 902.6 114.59 903.23 110.01C904.02 103.38 904.02 90.91 904.02 75.76V47.98H904ZM917.25 65.02C917.25 81.75 917.41 96.27 917.57 99.27C917.73 103.22 918.04 109.53 919.31 111.26C921.36 114.26 927.52 117.57 946.14 117.57C960.82 117.57 974.39 112.2 983.7 102.89C991.91 94.84 996.33 79.69 996.33 65.17C996.33 45.13 987.65 32.19 981.18 25.4C966.35 9.78002 948.35 7.57002 929.57 7.57002C926.41 7.57002 920.57 8.04002 919.31 8.67002C917.89 9.30002 917.42 10.09 917.42 11.83C917.26 17.2 917.26 33.29 917.26 45.45V65.02H917.25Z" fill="white"/>
<path d="M1205.75 0C1241.26 0 1267.77 22.41 1267.77 59.18C1267.77 95.95 1242.83 123.73 1204.8 123.73C1161.56 123.73 1143.57 90.11 1143.57 61.71C1143.57 36.14 1162.19 0 1205.75 0ZM1209.06 117.73C1223.26 117.73 1252.62 109.52 1252.62 63.6C1252.62 25.72 1229.58 5.36 1204.64 5.36C1178.28 5.36 1158.56 22.72 1158.56 57.28C1158.56 94.05 1180.65 117.73 1209.06 117.73Z" fill="white"/>
<path d="M1341 100.06C1341.32 113 1342.89 117.1 1347.16 118.37C1350.16 119.16 1353.63 119.32 1355.05 119.32C1355.84 119.32 1356.31 119.64 1356.31 120.27C1356.31 121.22 1355.36 121.53 1353.47 121.53C1344.47 121.53 1338.16 121.06 1336.74 121.06C1335.32 121.06 1328.69 121.53 1321.59 121.53C1320.01 121.53 1319.06 121.37 1319.06 120.27C1319.06 119.64 1319.53 119.32 1320.32 119.32C1321.58 119.32 1324.42 119.16 1326.79 118.37C1330.74 117.26 1331.52 112.69 1331.52 98.33L1331.68 7.90001C1331.68 1.74001 1332.15 0.0100098 1333.42 0.0100098C1334.69 0.0100098 1337.37 3.48001 1338.94 5.06001C1341.31 7.74001 1364.82 33.15 1389.13 59.19C1404.75 75.92 1421.96 95.17 1427.01 100.38L1425.27 20.21C1425.11 9.95001 1424.01 6.48001 1419.12 5.22001C1416.28 4.59001 1412.65 4.43001 1411.39 4.43001C1410.28 4.43001 1410.13 3.96001 1410.13 3.32001C1410.13 2.37001 1411.39 2.22001 1413.29 2.22001C1420.39 2.22001 1427.97 2.69001 1429.7 2.69001C1431.43 2.69001 1436.64 2.22001 1443.11 2.22001C1444.85 2.22001 1445.95 2.38001 1445.95 3.32001C1445.95 3.95001 1445.32 4.43001 1444.21 4.43001C1443.42 4.43001 1442.32 4.43001 1440.42 4.90001C1435.21 6.01001 1434.58 9.48001 1434.58 18.95L1434.26 111.43C1434.26 121.85 1433.94 122.64 1432.84 122.64C1431.58 122.64 1429.68 120.9 1421.32 112.54C1419.58 110.96 1396.86 87.76 1380.13 69.77C1361.82 50.04 1343.99 30.16 1338.94 24.48L1340.99 100.08L1341 100.06Z" fill="white"/>
<path d="M1530.23 76.07C1530.23 99.27 1530.86 109.37 1533.7 112.21C1536.23 114.74 1540.33 115.84 1552.64 115.84C1561 115.84 1567.95 115.68 1571.74 111.11C1573.79 108.58 1575.37 104.64 1575.84 101.64C1576 100.38 1576.31 99.59 1577.26 99.59C1578.05 99.59 1578.21 100.22 1578.21 101.96C1578.21 103.7 1577.11 113.17 1575.84 117.74C1574.73 121.37 1574.26 122 1565.9 122C1554.54 122 1546.33 121.68 1539.7 121.53C1533.07 121.21 1528.18 121.06 1523.6 121.06C1522.97 121.06 1520.29 121.22 1517.13 121.22C1513.97 121.38 1510.5 121.54 1508.13 121.54C1506.39 121.54 1505.61 121.22 1505.61 120.28C1505.61 119.81 1505.93 119.33 1506.87 119.33C1508.29 119.33 1510.18 119.01 1511.61 118.7C1514.77 118.07 1515.56 114.6 1516.19 110.02C1516.98 103.39 1516.98 90.92 1516.98 75.77V47.99C1516.98 23.37 1516.98 18.95 1516.66 13.9C1516.34 8.52997 1515.08 6.00997 1509.87 4.89997C1508.61 4.57997 1505.92 4.42997 1504.5 4.42997C1503.87 4.42997 1503.24 4.10997 1503.24 3.47997C1503.24 2.52997 1504.03 2.21997 1505.77 2.21997C1512.87 2.21997 1522.82 2.68997 1523.6 2.68997C1524.38 2.68997 1535.91 2.21997 1540.65 2.21997C1542.39 2.21997 1543.18 2.53997 1543.18 3.47997C1543.18 4.10997 1542.55 4.42997 1541.92 4.42997C1540.81 4.42997 1538.61 4.58997 1536.71 4.89997C1532.13 5.68997 1530.87 8.36997 1530.55 13.9C1530.23 18.95 1530.23 23.37 1530.23 47.99V76.08V76.07Z" fill="white"/>
<path d="M1658.69 80.65C1658.69 72.13 1657.11 68.66 1655.06 64.08C1653.96 61.55 1632.81 26.83 1627.28 18.63C1623.33 12.79 1619.39 8.83996 1616.55 6.94996C1614.18 5.36996 1611.18 4.42996 1609.76 4.42996C1608.97 4.42996 1608.18 4.10996 1608.18 3.31996C1608.18 2.68996 1608.81 2.21996 1610.23 2.21996C1613.23 2.21996 1625.06 2.68996 1625.85 2.68996C1626.96 2.68996 1632.95 2.21996 1639.11 2.21996C1640.85 2.21996 1641.16 2.68996 1641.16 3.31996C1641.16 3.94996 1640.21 4.10996 1638.79 4.73996C1637.53 5.36996 1636.74 6.31996 1636.74 7.57996C1636.74 9.46996 1637.53 11.37 1638.79 13.74C1641.32 18.32 1664.99 59.04 1667.83 63.61C1670.83 56.98 1690.87 22.42 1694.03 17.21C1696.08 13.9 1696.71 11.21 1696.71 9.15996C1696.71 6.94996 1696.08 5.20996 1694.18 4.73996C1692.76 4.26996 1691.81 3.94996 1691.81 3.15996C1691.81 2.52996 1692.76 2.20996 1694.34 2.20996C1698.44 2.20996 1703.49 2.67996 1704.76 2.67996C1705.71 2.67996 1717.07 2.20996 1720.07 2.20996C1721.18 2.20996 1722.12 2.52996 1722.12 3.15996C1722.12 3.94996 1721.33 4.41996 1720.07 4.41996C1718.33 4.41996 1715.34 5.04996 1712.81 6.62996C1709.65 8.51996 1707.92 10.42 1704.45 14.68C1699.24 20.99 1677.15 58.08 1674.31 64.87C1671.94 70.55 1671.94 75.44 1671.94 80.65V94.22C1671.94 96.75 1671.94 103.37 1672.41 110C1672.73 114.58 1674.15 118.05 1678.88 118.68C1681.09 119 1684.56 119.31 1685.98 119.31C1686.93 119.31 1687.24 119.78 1687.24 120.26C1687.24 121.05 1686.45 121.52 1684.72 121.52C1676.04 121.52 1666.1 121.05 1665.31 121.05C1664.52 121.05 1654.58 121.52 1649.84 121.52C1648.1 121.52 1647.31 121.2 1647.31 120.26C1647.31 119.79 1647.63 119.31 1648.57 119.31C1649.99 119.31 1651.88 118.99 1653.3 118.68C1656.46 118.05 1657.88 114.58 1658.19 110C1658.66 103.37 1658.66 96.74 1658.66 94.22V80.65H1658.69Z" fill="white"/>
</g>
</g>
<defs>
<clipPath id="clip0_2_454">
<rect width="1722.14" height="123.73" fill="white"/>
</clipPath>
</defs>
</svg>
