<svg width="342" height="141" viewBox="0 0 342 141" fill="none" xmlns="http://www.w3.org/2000/svg">
<path d="M65.7162 110.801C60.7262 110.801 54.8762 104.571 50.4062 92.4708C45.0762 98.7008 38.5362 104.811 30.4462 110.801L23.3962 105.061C33.8962 98.1008 41.6362 90.1508 47.3062 81.9708C43.8662 67.5508 41.2862 46.7808 40.0762 28.3308H18.3962C18.3962 33.5808 18.3962 38.3508 18.2262 42.9908H36.8062V80.5008C36.8062 86.8508 31.8162 91.1308 23.5562 91.1308H19.5962L17.8762 84.0408H22.5162C26.8162 84.0408 27.1662 82.3308 27.1662 79.2708V49.8308H18.2162C17.5262 75.9808 15.4662 92.8408 10.6462 110.801L0.836243 106.031C7.20624 83.0608 8.06624 69.7408 8.06624 21.4808H39.5462C39.2062 14.2708 39.0262 7.55081 39.0262 2.05081L49.0062 0.830811C49.0062 7.67081 49.1762 14.6408 49.5262 21.4808H62.7762C58.8162 14.6408 54.8662 9.14081 51.9362 5.84081L58.1262 0.95081C61.3962 4.37081 66.2162 10.3608 70.3362 16.8308L63.4562 21.4708H74.9862V28.3108H49.8662C50.8962 42.9708 52.6162 57.0208 54.8562 68.5108C59.8462 57.0308 62.2562 45.6608 63.8062 35.5208L73.2662 38.2108C71.2062 51.0408 68.1062 66.5508 57.9562 82.1908C63.2862 102.111 68.1062 106.631 65.0062 83.5308L75.1562 86.4608C76.0162 102.711 72.2362 110.771 65.6962 110.771L65.7162 110.801Z" fill="white" stroke="white" stroke-width="1.41" stroke-miterlimit="10"/>
<path d="M161.016 24.9108V31.7508H130.566C131.946 52.2808 139.166 80.3808 159.646 104.451L151.906 110.801C137.286 94.1808 129.886 75.2508 126.276 57.2908C121.806 76.2308 113.716 93.9408 99.2663 110.681L91.0063 104.331C110.446 80.6308 117.846 58.6408 119.736 31.7608H90.4863V24.9208H120.246C120.586 17.3408 120.416 9.40083 120.246 0.85083H130.566C130.736 9.04083 130.736 17.1008 130.396 24.9208H161.016V24.9108Z" fill="white" stroke="white" stroke-width="1.41" stroke-miterlimit="10"/>
<path d="M250.476 101.271L247.036 108.361H230.006C214.696 108.361 203.686 100.661 198.176 91.3808C192.496 98.8308 191.126 103.961 191.126 110.811H180.806C180.806 95.9008 187.346 86.5008 213.326 62.5508C223.136 53.5108 234.316 40.9308 233.626 24.3108V24.0708H182.356V17.2308H207.646V0.84082H217.626V17.2108H243.436V24.0508C243.436 40.5408 233.286 56.1808 220.896 67.9108C213.846 74.6308 208.336 80.0108 204.206 84.5308C208.846 95.2808 219.176 101.271 233.456 101.271H250.486H250.476Z" fill="white" stroke="white" stroke-width="1.41" stroke-miterlimit="10"/>
<path d="M275.936 61.6908H265.266V54.8508H279.026V43.9808H288.656V54.8508H299.836V61.6908H291.926C295.026 67.6808 300.186 78.6708 301.736 84.1708L295.026 92.3608C293.816 87.2308 290.726 76.8408 288.656 70.3708V110.811H279.026V76.7208C277.476 86.9808 275.066 98.4708 272.656 104.941L264.226 98.7108C268.016 89.9108 273.856 71.7108 275.926 61.6908H275.936ZM292.456 17.3408H266.136V10.5008H296.246V0.85083H306.226V10.5008H336.506V17.3408H310.016C316.386 25.0408 329.116 33.1008 338.746 38.3508L332.556 44.7008C324.986 40.7908 312.086 31.1408 306.236 23.4408V47.2708H296.256V24.3008C290.746 31.5108 281.976 38.2308 271.136 44.9508L264.596 38.7208C275.956 32.7308 286.786 24.3008 292.466 17.3408H292.456ZM312.926 61.6908H303.296V54.8508H314.476V43.9808H324.106V54.8508H337.866V61.6908H326.336C328.396 70.3608 333.046 86.2508 338.546 96.7508L330.976 104.201C328.056 97.6008 325.646 87.5808 324.096 78.5408V110.791H314.466V81.9608C312.226 89.4108 309.136 97.4808 305.346 104.201L298.806 96.6208C306.376 84.4008 310.336 74.2608 312.916 61.6808L312.926 61.6908Z" fill="white" stroke="white" stroke-width="1.41" stroke-miterlimit="10"/>
<path d="M3.62623 135.431C3.62623 136.891 3.62623 138.031 3.70623 138.661C3.75623 139.101 3.84623 139.431 4.29623 139.491C4.50623 139.521 4.84623 139.551 5.05623 139.551C5.25623 139.551 5.31623 139.591 5.31623 139.671C5.31623 139.781 5.20623 139.821 4.98623 139.821C4.02623 139.821 3.07623 139.771 2.67623 139.771C2.27623 139.771 1.32623 139.821 0.746228 139.821C0.536228 139.821 0.426229 139.791 0.426229 139.671C0.426229 139.591 0.486228 139.551 0.656228 139.551C0.886228 139.551 1.06623 139.521 1.20623 139.491C1.50623 139.431 1.58623 139.091 1.64623 138.661C1.72623 138.021 1.72623 136.881 1.72623 135.431V132.761C1.72623 130.451 1.72623 130.031 1.69623 129.541C1.66623 129.021 1.54623 128.781 1.04623 128.671C0.926228 128.641 0.666228 128.621 0.456228 128.621C0.306228 128.621 0.196228 128.591 0.196228 128.501C0.196228 128.381 0.316228 128.351 0.546228 128.351C0.936228 128.351 1.37623 128.371 1.77623 128.371C2.17623 128.381 2.51623 128.401 2.73623 128.401C3.31623 128.401 6.39623 128.401 6.74623 128.381C7.03623 128.371 7.21623 128.371 7.36623 128.321C7.45623 128.291 7.53623 128.231 7.60623 128.231C7.66623 128.231 7.71623 128.291 7.71623 128.371C7.71623 128.481 7.63623 128.661 7.59623 129.051C7.57623 129.201 7.54623 130.101 7.51623 130.281C7.50623 130.401 7.46623 130.491 7.36623 130.491C7.26623 130.491 7.22623 130.411 7.21623 130.251C7.21623 130.131 7.21623 129.881 7.12623 129.671C7.01623 129.461 6.70623 129.231 6.12623 129.211L3.78623 129.171C3.69623 129.171 3.64623 129.211 3.64623 129.381V133.181C3.64623 133.271 3.65623 133.321 3.75623 133.321L5.69623 133.301C5.95623 133.301 6.16623 133.301 6.37623 133.291C6.66623 133.271 6.87623 133.211 7.02623 133.021C7.10623 132.931 7.13623 132.871 7.22623 132.871C7.28623 132.871 7.31623 132.911 7.31623 133.011C7.31623 133.111 7.23623 133.481 7.19623 133.951C7.16623 134.251 7.13623 134.951 7.13623 135.061C7.13623 135.201 7.13623 135.351 6.98623 135.351C6.89623 135.351 6.86623 135.241 6.86623 135.141C6.86623 135.041 6.83623 134.851 6.77623 134.671C6.69623 134.461 6.47623 134.181 6.00623 134.121C5.62623 134.081 4.01623 134.081 3.75623 134.081C3.67623 134.081 3.64623 134.111 3.64623 134.221V135.451L3.62623 135.431Z" fill="white"/>
<path d="M16.0962 134.091C16.0962 131.491 17.8162 128.141 22.3662 128.141C26.1462 128.141 28.4962 130.341 28.4962 133.821C28.4962 137.301 26.0662 140.041 22.2062 140.041C17.8462 140.041 16.0862 136.781 16.0862 134.091H16.0962ZM26.3762 134.381C26.3762 130.981 24.4162 128.871 21.9262 128.871C20.1762 128.871 18.1962 129.841 18.1962 133.621C18.1962 136.781 19.9462 139.281 22.8562 139.281C23.9162 139.281 26.3762 138.761 26.3762 134.381Z" fill="white"/>
<path d="M38.2563 132.761C38.2563 130.451 38.2563 130.031 38.2263 129.541C38.1963 129.021 38.0763 128.781 37.5763 128.671C37.4563 128.641 37.1963 128.621 36.9863 128.621C36.8163 128.621 36.7263 128.591 36.7263 128.481C36.7263 128.371 36.8363 128.341 37.0563 128.341C37.8563 128.341 38.8163 128.391 39.1363 128.391C39.6563 128.391 40.8063 128.341 41.2763 128.341C42.2363 128.341 43.2463 128.431 44.0663 128.991C44.4863 129.281 45.0963 130.051 45.0963 131.071C45.0963 132.191 44.6263 133.231 43.0963 134.471C44.4463 136.171 45.4963 137.521 46.3963 138.461C47.2463 139.341 47.8663 139.451 48.0963 139.491C48.2663 139.521 48.3963 139.541 48.5163 139.541C48.6363 139.541 48.6963 139.581 48.6963 139.661C48.6963 139.781 48.5863 139.811 48.4063 139.811H46.9663C46.1163 139.811 45.7363 139.731 45.3463 139.521C44.6963 139.171 44.1163 138.461 43.2663 137.291C42.6563 136.461 41.9563 135.421 41.7663 135.191C41.6863 135.101 41.5963 135.081 41.4963 135.081L40.1763 135.051C40.0963 135.051 40.0563 135.081 40.0563 135.171V135.381C40.0563 136.791 40.0563 137.991 40.1363 138.631C40.1863 139.071 40.2763 139.401 40.7263 139.461C40.9563 139.491 41.2863 139.521 41.4663 139.521C41.5863 139.521 41.6463 139.561 41.6463 139.641C41.6463 139.751 41.5363 139.791 41.3463 139.791C40.4663 139.791 39.3463 139.741 39.1163 139.741C38.8263 139.741 37.8663 139.791 37.2663 139.791C37.0663 139.791 36.9663 139.741 36.9663 139.641C36.9663 139.561 37.0263 139.521 37.2063 139.521C37.4363 139.521 37.6163 139.491 37.7563 139.461C38.0563 139.401 38.1363 139.061 38.1963 138.631C38.2763 137.991 38.2763 136.791 38.2763 135.401V132.731L38.2563 132.761ZM40.0563 133.961C40.0563 134.131 40.0863 134.191 40.1963 134.231C40.5163 134.341 40.9663 134.381 41.3463 134.381C41.9563 134.381 42.1463 134.321 42.4263 134.121C42.8863 133.791 43.3263 133.091 43.3263 131.841C43.3263 129.681 41.8963 129.061 41.0063 129.061C40.6263 129.061 40.3563 129.071 40.2063 129.121C40.0963 129.151 40.0663 129.211 40.0663 129.331V133.951L40.0563 133.961Z" fill="white"/>
<path d="M56.3163 132.761C56.3163 130.451 56.3163 130.031 56.2863 129.541C56.2563 129.021 56.1363 128.781 55.6363 128.671C55.5163 128.641 55.2563 128.621 55.0463 128.621C54.8763 128.621 54.7863 128.591 54.7863 128.481C54.7863 128.371 54.8963 128.341 55.1163 128.341C55.5263 128.341 55.9663 128.361 56.3463 128.361C56.7363 128.371 57.0863 128.391 57.3063 128.391C57.7963 128.391 60.8163 128.391 61.1063 128.371C61.3963 128.341 61.6363 128.311 61.7563 128.281C61.8363 128.261 61.9263 128.221 61.9963 128.221C62.0663 128.221 62.0863 128.281 62.0863 128.361C62.0863 128.471 62.0063 128.651 61.9663 129.351C61.9563 129.501 61.9163 130.171 61.8863 130.351C61.8763 130.431 61.8463 130.521 61.7363 130.521C61.6263 130.521 61.5963 130.441 61.5963 130.311C61.5963 130.201 61.5763 129.951 61.5063 129.761C61.3963 129.491 61.2463 129.301 60.4863 129.211C60.2263 129.181 58.6363 129.151 58.3263 129.151C58.2463 129.151 58.2163 129.201 58.2163 129.301V133.141C58.2163 133.251 58.2263 133.311 58.3263 133.311C58.6563 133.311 60.4063 133.311 60.7563 133.281C61.1163 133.251 61.3463 133.201 61.4863 133.051C61.5963 132.931 61.6562 132.851 61.7262 132.851C61.7862 132.851 61.8363 132.881 61.8363 132.971C61.8363 133.061 61.7763 133.301 61.7163 134.081C61.7063 134.381 61.6562 134.991 61.6562 135.101C61.6562 135.221 61.6563 135.391 61.5163 135.391C61.4063 135.391 61.3763 135.331 61.3763 135.251C61.3663 135.101 61.3663 134.901 61.3163 134.701C61.2363 134.401 61.0263 134.171 60.4663 134.111C60.1763 134.081 58.6763 134.061 58.3063 134.061C58.2263 134.061 58.2163 134.121 58.2163 134.211V135.411C58.2163 135.931 58.1963 137.321 58.2163 137.761C58.2463 138.811 58.4863 139.041 60.0363 139.041C60.4263 139.041 61.0663 139.041 61.4663 138.861C61.8563 138.681 62.0463 138.361 62.1463 137.741C62.1763 137.571 62.2063 137.511 62.3163 137.511C62.4363 137.511 62.4363 137.631 62.4363 137.781C62.4363 138.131 62.3163 139.161 62.2363 139.471C62.1263 139.861 61.9963 139.861 61.4163 139.861C60.2763 139.861 59.4463 139.831 58.7863 139.821C58.1363 139.791 57.6663 139.771 57.2063 139.771C57.0363 139.771 56.7063 139.771 56.3363 139.791C55.9863 139.791 55.5963 139.821 55.2863 139.821C55.0863 139.821 54.9863 139.771 54.9863 139.671C54.9863 139.591 55.0463 139.551 55.2263 139.551C55.4563 139.551 55.6363 139.521 55.7763 139.491C56.0763 139.431 56.1563 139.091 56.2163 138.661C56.2963 138.021 56.2962 136.821 56.2962 135.431V132.761H56.3163Z" fill="white"/>
<path d="M71.6662 139.651C71.4262 139.541 71.3762 139.471 71.3762 139.131C71.3762 138.301 71.4362 137.381 71.4562 137.141C71.4762 136.911 71.5162 136.751 71.6362 136.751C71.7762 136.751 71.7862 136.891 71.7862 137.011C71.7862 137.211 71.8462 137.531 71.9262 137.781C72.2562 138.901 73.1562 139.311 74.0962 139.311C75.4662 139.311 76.1262 138.381 76.1262 137.581C76.1262 136.841 75.8962 136.141 74.6362 135.151L73.9362 134.601C72.2662 133.291 71.6862 132.231 71.6862 131.001C71.6862 129.331 73.0862 128.131 75.1962 128.131C76.1862 128.131 76.8162 128.281 77.2162 128.391C77.3562 128.421 77.4262 128.471 77.4262 128.571C77.4262 128.771 77.3662 129.211 77.3662 130.391C77.3662 130.721 77.3262 130.851 77.1962 130.851C77.0862 130.851 77.0462 130.761 77.0462 130.581C77.0462 130.441 76.9662 129.971 76.6562 129.581C76.4262 129.291 75.9862 128.841 74.9962 128.841C73.8762 128.841 73.1862 129.491 73.1862 130.401C73.1862 131.101 73.5362 131.631 74.7962 132.591L75.2162 132.911C77.0562 134.291 77.7062 135.341 77.7062 136.781C77.7062 137.661 77.3762 138.711 76.2762 139.421C75.5162 139.911 74.6662 140.041 73.8662 140.041C72.9862 140.041 72.3062 139.931 71.6462 139.651H71.6662Z" fill="white"/>
<path d="M89.9362 129.201L87.6762 129.261C86.7962 129.291 86.4262 129.371 86.2062 129.701C86.0562 129.931 85.9762 130.111 85.9462 130.231C85.9162 130.351 85.8662 130.411 85.7762 130.411C85.6662 130.411 85.6362 130.331 85.6362 130.171C85.6362 129.931 85.9262 128.551 85.9562 128.421C86.0062 128.221 86.0462 128.131 86.1362 128.131C86.2562 128.131 86.4062 128.281 86.7862 128.311C87.2262 128.361 87.8062 128.391 88.3062 128.391H94.3162C94.8062 128.391 95.1362 128.341 95.3662 128.311C95.5962 128.261 95.7162 128.231 95.7762 128.231C95.8862 128.231 95.8962 128.321 95.8962 128.551C95.8962 128.871 95.8562 129.921 95.8562 130.311C95.8362 130.461 95.8062 130.551 95.7162 130.551C95.5962 130.551 95.5662 130.471 95.5462 130.251L95.5262 130.081C95.4962 129.691 95.0862 129.261 93.7362 129.231L91.8262 129.191V135.411C91.8262 136.811 91.8262 138.011 91.9062 138.661C91.9462 139.081 92.0462 139.421 92.4962 139.481C92.7062 139.511 93.0462 139.541 93.2662 139.541C93.4362 139.541 93.5062 139.581 93.5062 139.661C93.5062 139.771 93.3862 139.811 93.2162 139.811C92.2162 139.811 91.2562 139.761 90.8362 139.761C90.4862 139.761 89.5262 139.811 88.9262 139.811C88.7262 139.811 88.6262 139.761 88.6262 139.661C88.6262 139.581 88.6862 139.541 88.8662 139.541C89.0962 139.541 89.2762 139.511 89.4162 139.481C89.7162 139.421 89.8062 139.081 89.8562 138.651C89.9362 138.011 89.9362 136.811 89.9362 135.421V129.201Z" fill="white"/>
<path d="M114.776 134.091C114.776 131.491 116.496 128.141 121.046 128.141C124.826 128.141 127.176 130.341 127.176 133.821C127.176 137.301 124.746 140.041 120.886 140.041C116.526 140.041 114.766 136.781 114.766 134.091H114.776ZM125.056 134.381C125.056 130.981 123.096 128.871 120.606 128.871C118.856 128.871 116.876 129.841 116.876 133.621C116.876 136.781 118.626 139.281 121.536 139.281C122.596 139.281 125.056 138.761 125.056 134.381Z" fill="white"/>
<path d="M138.856 135.431C138.856 136.891 138.856 138.031 138.936 138.661C138.986 139.101 139.076 139.431 139.526 139.491C139.736 139.521 140.076 139.551 140.286 139.551C140.486 139.551 140.546 139.591 140.546 139.671C140.546 139.781 140.436 139.821 140.216 139.821C139.256 139.821 138.306 139.771 137.906 139.771C137.506 139.771 136.556 139.821 135.976 139.821C135.766 139.821 135.656 139.791 135.656 139.671C135.656 139.591 135.716 139.551 135.886 139.551C136.116 139.551 136.296 139.521 136.436 139.491C136.736 139.431 136.816 139.091 136.876 138.661C136.956 138.021 136.956 136.881 136.956 135.431V132.761C136.956 130.451 136.956 130.031 136.926 129.541C136.896 129.021 136.776 128.781 136.276 128.671C136.156 128.641 135.896 128.621 135.686 128.621C135.536 128.621 135.426 128.591 135.426 128.501C135.426 128.381 135.546 128.351 135.776 128.351C136.166 128.351 136.606 128.371 137.006 128.371C137.406 128.381 137.746 128.401 137.966 128.401C138.546 128.401 141.626 128.401 141.976 128.381C142.266 128.371 142.446 128.371 142.596 128.321C142.686 128.291 142.766 128.231 142.836 128.231C142.896 128.231 142.946 128.291 142.946 128.371C142.946 128.481 142.866 128.661 142.826 129.051C142.806 129.201 142.776 130.101 142.746 130.281C142.736 130.401 142.696 130.491 142.596 130.491C142.496 130.491 142.456 130.411 142.446 130.251C142.446 130.131 142.446 129.881 142.356 129.671C142.246 129.461 141.936 129.231 141.356 129.211L139.016 129.171C138.926 129.171 138.876 129.211 138.876 129.381V133.181C138.876 133.271 138.886 133.321 138.986 133.321L140.926 133.301C141.186 133.301 141.396 133.301 141.606 133.291C141.896 133.271 142.106 133.211 142.256 133.021C142.336 132.931 142.366 132.871 142.456 132.871C142.516 132.871 142.546 132.911 142.546 133.011C142.546 133.111 142.466 133.481 142.426 133.951C142.396 134.251 142.366 134.951 142.366 135.061C142.366 135.201 142.366 135.351 142.216 135.351C142.126 135.351 142.096 135.241 142.096 135.141C142.096 135.041 142.066 134.851 142.006 134.671C141.926 134.461 141.706 134.181 141.236 134.121C140.856 134.081 139.246 134.081 138.986 134.081C138.906 134.081 138.876 134.111 138.876 134.221V135.451L138.856 135.431Z" fill="white"/>
<path d="M164.346 138.391C162.856 137.081 162.466 135.381 162.466 133.911C162.466 132.881 162.786 131.091 164.246 129.751C165.336 128.751 166.786 128.141 169.046 128.141C169.986 128.141 170.546 128.201 171.246 128.291C171.826 128.371 172.306 128.501 172.766 128.551C172.936 128.571 172.996 128.641 172.996 128.731C172.996 128.851 172.946 129.031 172.916 129.561C172.886 130.061 172.906 130.901 172.866 131.201C172.846 131.431 172.816 131.551 172.686 131.551C172.566 131.551 172.536 131.431 172.536 131.221C172.516 130.751 172.326 130.221 171.946 129.821C171.446 129.291 170.266 128.881 168.866 128.881C167.546 128.881 166.676 129.211 166.016 129.821C164.906 130.841 164.616 132.281 164.616 133.751C164.616 137.361 167.366 139.161 169.396 139.161C170.746 139.161 171.566 139.011 172.176 138.311C172.436 138.021 172.636 137.581 172.696 137.311C172.746 137.071 172.776 137.011 172.896 137.011C173.006 137.011 173.036 137.121 173.036 137.241C173.036 137.421 172.856 138.741 172.706 139.261C172.626 139.521 172.566 139.591 172.316 139.701C171.706 139.941 170.556 140.051 169.586 140.051C167.506 140.051 165.756 139.601 164.376 138.401L164.346 138.391Z" fill="white"/>
<path d="M190.646 133.181C190.646 133.181 190.736 133.151 190.736 133.071V132.751C190.736 130.441 190.736 130.021 190.706 129.531C190.676 129.011 190.556 128.771 190.056 128.661C189.936 128.631 189.676 128.611 189.466 128.611C189.296 128.611 189.206 128.581 189.206 128.471C189.206 128.361 189.316 128.331 189.526 128.331C190.346 128.331 191.306 128.381 191.716 128.381C192.076 128.381 193.036 128.331 193.626 128.331C193.836 128.331 193.946 128.361 193.946 128.471C193.946 128.581 193.856 128.611 193.676 128.611C193.556 128.611 193.416 128.631 193.236 128.661C192.826 128.741 192.706 128.991 192.676 129.531C192.646 130.021 192.646 130.441 192.646 132.751V135.421C192.646 136.821 192.646 138.021 192.726 138.671C192.766 139.091 192.866 139.431 193.316 139.491C193.526 139.521 193.866 139.551 194.086 139.551C194.256 139.551 194.326 139.591 194.326 139.671C194.326 139.781 194.206 139.821 194.026 139.821C193.036 139.821 192.086 139.771 191.656 139.771C191.306 139.771 190.346 139.821 189.756 139.821C189.546 139.821 189.436 139.771 189.436 139.671C189.436 139.591 189.496 139.551 189.676 139.551C189.906 139.551 190.086 139.521 190.226 139.491C190.526 139.431 190.606 139.091 190.666 138.661C190.746 138.021 190.746 136.821 190.746 135.431V134.091C190.746 134.031 190.696 134.001 190.656 134.001H184.856C184.856 134.001 184.766 134.011 184.766 134.091V135.431C184.766 136.831 184.766 138.031 184.846 138.681C184.886 139.101 184.986 139.441 185.436 139.501C185.646 139.531 185.986 139.561 186.206 139.561C186.376 139.561 186.446 139.601 186.446 139.681C186.446 139.791 186.326 139.831 186.146 139.831C185.156 139.831 184.206 139.781 183.776 139.781C183.426 139.781 182.466 139.831 181.866 139.831C181.666 139.831 181.566 139.781 181.566 139.681C181.566 139.601 181.626 139.561 181.806 139.561C182.036 139.561 182.216 139.531 182.356 139.501C182.656 139.441 182.736 139.101 182.796 138.671C182.876 138.031 182.876 136.831 182.876 135.441V132.771C182.876 130.461 182.876 130.041 182.846 129.551C182.816 129.031 182.696 128.791 182.196 128.681C182.076 128.651 181.816 128.631 181.606 128.631C181.436 128.631 181.346 128.601 181.346 128.491C181.346 128.381 181.456 128.351 181.666 128.351C182.486 128.351 183.446 128.401 183.856 128.401C184.216 128.401 185.176 128.351 185.766 128.351C185.976 128.351 186.086 128.381 186.086 128.491C186.086 128.601 185.996 128.631 185.816 128.631C185.696 128.631 185.556 128.651 185.376 128.681C184.966 128.761 184.846 129.011 184.816 129.551C184.786 130.041 184.786 130.461 184.786 132.771V133.091C184.786 133.171 184.836 133.201 184.876 133.201H190.676L190.646 133.181Z" fill="white"/>
<path d="M204.206 132.761C204.206 130.451 204.206 130.031 204.176 129.541C204.146 129.021 204.026 128.781 203.526 128.671C203.406 128.641 203.146 128.621 202.936 128.621C202.766 128.621 202.676 128.591 202.676 128.481C202.676 128.371 202.786 128.341 203.006 128.341C203.416 128.341 203.856 128.361 204.236 128.361C204.626 128.371 204.976 128.391 205.196 128.391C205.686 128.391 208.706 128.391 208.996 128.371C209.286 128.341 209.526 128.311 209.646 128.281C209.726 128.261 209.816 128.221 209.886 128.221C209.956 128.221 209.976 128.281 209.976 128.361C209.976 128.471 209.896 128.651 209.856 129.351C209.846 129.501 209.806 130.171 209.776 130.351C209.766 130.431 209.726 130.521 209.626 130.521C209.526 130.521 209.486 130.441 209.486 130.311C209.486 130.201 209.466 129.951 209.396 129.761C209.286 129.491 209.136 129.301 208.376 129.211C208.116 129.181 206.526 129.151 206.216 129.151C206.136 129.151 206.106 129.201 206.106 129.301V133.141C206.106 133.251 206.116 133.311 206.216 133.311C206.546 133.311 208.296 133.311 208.646 133.281C209.006 133.251 209.236 133.201 209.376 133.051C209.486 132.931 209.546 132.851 209.616 132.851C209.676 132.851 209.726 132.881 209.726 132.971C209.726 133.061 209.666 133.301 209.606 134.081C209.596 134.381 209.546 134.991 209.546 135.101C209.546 135.221 209.546 135.391 209.406 135.391C209.296 135.391 209.266 135.331 209.266 135.251C209.256 135.101 209.256 134.901 209.206 134.701C209.126 134.401 208.916 134.171 208.356 134.111C208.066 134.081 206.566 134.061 206.196 134.061C206.116 134.061 206.106 134.121 206.106 134.211V135.411C206.106 135.931 206.086 137.321 206.106 137.761C206.136 138.811 206.376 139.041 207.926 139.041C208.316 139.041 208.956 139.041 209.356 138.861C209.746 138.681 209.936 138.361 210.036 137.741C210.066 137.571 210.096 137.511 210.206 137.511C210.326 137.511 210.326 137.631 210.326 137.781C210.326 138.131 210.206 139.161 210.126 139.471C210.016 139.861 209.886 139.861 209.306 139.861C208.166 139.861 207.336 139.831 206.676 139.821C206.026 139.791 205.556 139.771 205.096 139.771C204.926 139.771 204.596 139.771 204.226 139.791C203.876 139.791 203.486 139.821 203.176 139.821C202.976 139.821 202.876 139.771 202.876 139.671C202.876 139.591 202.936 139.551 203.116 139.551C203.346 139.551 203.526 139.521 203.666 139.491C203.966 139.431 204.046 139.091 204.106 138.661C204.186 138.021 204.186 136.821 204.186 135.431V132.761H204.206Z" fill="white"/>
<path d="M221.236 137.771C221.266 138.951 221.466 139.351 221.766 139.461C222.026 139.551 222.316 139.571 222.556 139.571C222.726 139.571 222.816 139.601 222.816 139.691C222.816 139.811 222.676 139.841 222.466 139.841C221.476 139.841 220.876 139.791 220.586 139.791C220.446 139.791 219.736 139.841 218.946 139.841C218.746 139.841 218.616 139.821 218.616 139.691C218.616 139.601 218.706 139.571 218.856 139.571C219.056 139.571 219.326 139.551 219.536 139.491C219.926 139.371 219.996 138.931 220.006 137.611L220.146 128.621C220.146 128.321 220.196 128.101 220.346 128.101C220.516 128.101 220.646 128.301 220.906 128.571C221.086 128.771 223.396 131.241 225.616 133.441C226.646 134.471 228.696 136.661 228.956 136.901H229.036L228.886 130.081C228.876 129.151 228.736 128.871 228.366 128.711C228.136 128.621 227.776 128.621 227.566 128.621C227.386 128.621 227.326 128.571 227.326 128.481C227.326 128.361 227.496 128.341 227.716 128.341C228.506 128.341 229.236 128.391 229.556 128.391C229.726 128.391 230.296 128.341 231.046 128.341C231.246 128.341 231.396 128.361 231.396 128.481C231.396 128.571 231.306 128.621 231.126 128.621C230.976 128.621 230.856 128.621 230.666 128.671C230.246 128.791 230.116 129.111 230.106 129.961L229.936 139.541C229.936 139.871 229.876 140.011 229.736 140.011C229.566 140.011 229.386 139.841 229.216 139.681C228.256 138.771 226.316 136.781 224.736 135.221C223.076 133.581 221.396 131.681 221.126 131.391H221.076L221.246 137.771H221.236Z" fill="white"/>
<path d="M250.416 138.811C250.416 139.221 250.396 139.251 250.216 139.361C249.226 139.881 247.736 140.041 246.556 140.041C242.836 140.041 239.546 138.281 239.546 134.091C239.546 131.661 240.806 129.961 242.186 129.131C243.646 128.251 244.996 128.141 246.266 128.141C247.316 128.141 248.646 128.321 248.956 128.381C249.276 128.441 249.806 128.531 250.156 128.551C250.336 128.571 250.366 128.631 250.366 128.731C250.366 128.901 250.256 129.321 250.256 131.221C250.256 131.461 250.206 131.541 250.086 131.541C249.976 131.541 249.946 131.461 249.936 131.341C249.886 130.991 249.816 130.511 249.416 130.081C248.956 129.591 247.746 128.901 246.026 128.901C245.186 128.901 244.086 128.961 243.016 129.841C242.166 130.551 241.616 131.691 241.616 133.561C241.616 136.821 243.696 139.271 246.896 139.271C247.286 139.271 247.826 139.271 248.186 139.101C248.416 138.991 248.476 138.801 248.476 138.541V137.111C248.476 136.351 248.476 135.771 248.456 135.321C248.446 134.801 248.306 134.561 247.806 134.451C247.686 134.421 247.426 134.401 247.216 134.401C247.076 134.401 246.986 134.371 246.986 134.281C246.986 134.161 247.096 134.131 247.306 134.131C248.096 134.131 249.056 134.171 249.506 134.171C249.956 134.171 250.786 134.131 251.286 134.131C251.486 134.131 251.586 134.161 251.586 134.281C251.586 134.371 251.496 134.401 251.386 134.401C251.266 134.401 251.156 134.421 250.976 134.451C250.566 134.531 250.416 134.781 250.396 135.321C250.386 135.781 250.386 136.381 250.386 137.141V138.811H250.416Z" fill="white"/>
<path d="M274.236 133.421H274.316C274.836 132.861 277.046 130.601 277.486 130.081C277.916 129.581 278.246 129.201 278.246 128.941C278.246 128.771 278.186 128.671 278.036 128.641C277.896 128.611 277.836 128.581 277.836 128.491C277.836 128.381 277.916 128.351 278.076 128.351C278.396 128.351 279.226 128.401 279.636 128.401C280.106 128.401 280.946 128.351 281.416 128.351C281.566 128.351 281.676 128.381 281.676 128.491C281.676 128.601 281.596 128.631 281.446 128.631C281.236 128.631 280.856 128.691 280.566 128.801C280.096 128.981 279.576 129.301 278.926 129.941C278.456 130.401 276.166 132.671 275.646 133.221C276.196 133.931 279.166 137.141 279.756 137.701C280.426 138.341 281.106 139.021 281.926 139.341C282.376 139.521 282.686 139.571 282.866 139.571C282.976 139.571 283.066 139.601 283.066 139.691C283.066 139.801 282.986 139.841 282.706 139.841H281.386C280.926 139.841 280.656 139.841 280.336 139.811C279.516 139.731 279.106 139.401 278.456 138.821C277.786 138.231 274.796 134.721 274.476 134.281L274.306 134.051H274.226V135.431C274.226 136.831 274.226 138.031 274.276 138.681C274.306 139.101 274.446 139.441 274.826 139.501C275.036 139.531 275.376 139.561 275.566 139.561C275.686 139.561 275.766 139.601 275.766 139.681C275.766 139.791 275.646 139.831 275.476 139.831C274.626 139.831 273.666 139.781 273.286 139.781C272.936 139.781 271.976 139.831 271.376 139.831C271.176 139.831 271.076 139.781 271.076 139.681C271.076 139.601 271.136 139.561 271.316 139.561C271.546 139.561 271.726 139.531 271.866 139.501C272.166 139.441 272.246 139.101 272.306 138.671C272.386 138.031 272.386 136.831 272.386 135.441V132.771C272.386 130.461 272.386 130.041 272.356 129.551C272.326 129.031 272.206 128.791 271.706 128.681C271.586 128.651 271.326 128.631 271.116 128.631C270.946 128.631 270.856 128.601 270.856 128.491C270.856 128.381 270.966 128.351 271.186 128.351C271.986 128.351 272.946 128.401 273.316 128.401C273.686 128.401 274.636 128.351 275.156 128.351C275.366 128.351 275.476 128.381 275.476 128.491C275.476 128.601 275.386 128.631 275.266 128.631C275.116 128.631 275.026 128.651 274.846 128.681C274.436 128.761 274.316 129.011 274.286 129.551C274.256 130.041 274.256 130.461 274.256 132.771V133.441L274.236 133.421Z" fill="white"/>
<path d="M289.986 132.761C289.986 130.451 289.986 130.031 289.956 129.541C289.926 129.021 289.806 128.781 289.306 128.671C289.186 128.641 288.926 128.621 288.716 128.621C288.546 128.621 288.456 128.591 288.456 128.481C288.456 128.371 288.566 128.341 288.786 128.341C289.586 128.341 290.546 128.391 291.006 128.391C291.366 128.391 292.326 128.341 292.876 128.341C293.106 128.341 293.206 128.371 293.206 128.481C293.206 128.591 293.116 128.621 292.966 128.621C292.796 128.621 292.706 128.641 292.526 128.671C292.116 128.751 291.996 129.001 291.966 129.541C291.936 130.031 291.936 130.451 291.936 132.761V134.881C291.936 137.081 292.376 138.011 293.116 138.621C293.796 139.181 294.496 139.241 295.016 139.241C295.686 139.241 296.506 139.031 297.116 138.421C297.946 137.591 297.996 136.221 297.996 134.651V132.751C297.996 130.441 297.996 130.021 297.966 129.531C297.936 129.011 297.816 128.771 297.316 128.661C297.196 128.631 296.936 128.611 296.766 128.611C296.596 128.611 296.506 128.581 296.506 128.471C296.506 128.361 296.616 128.331 296.826 128.331C297.596 128.331 298.556 128.381 298.576 128.381C298.756 128.381 299.716 128.331 300.306 128.331C300.516 128.331 300.626 128.361 300.626 128.471C300.626 128.581 300.536 128.611 300.356 128.611C300.186 128.611 300.096 128.631 299.916 128.661C299.506 128.741 299.386 128.991 299.356 129.531C299.326 130.021 299.326 130.441 299.326 132.751V134.371C299.326 136.061 299.156 137.851 297.886 138.941C296.806 139.871 295.716 140.031 294.726 140.031C293.926 140.031 292.466 139.991 291.356 138.981C290.586 138.281 290.006 137.161 290.006 134.961V132.741L289.986 132.761Z" fill="white"/>
<path d="M311.006 137.771C311.036 138.951 311.236 139.351 311.536 139.461C311.796 139.551 312.086 139.571 312.326 139.571C312.496 139.571 312.586 139.601 312.586 139.691C312.586 139.811 312.446 139.841 312.236 139.841C311.246 139.841 310.646 139.791 310.356 139.791C310.216 139.791 309.506 139.841 308.716 139.841C308.516 139.841 308.386 139.821 308.386 139.691C308.386 139.601 308.476 139.571 308.626 139.571C308.826 139.571 309.096 139.551 309.306 139.491C309.696 139.371 309.766 138.931 309.776 137.611L309.916 128.621C309.916 128.321 309.966 128.101 310.116 128.101C310.286 128.101 310.416 128.301 310.676 128.571C310.856 128.771 313.166 131.241 315.386 133.441C316.416 134.471 318.466 136.661 318.726 136.901H318.806L318.656 130.081C318.646 129.151 318.506 128.871 318.136 128.711C317.906 128.621 317.546 128.621 317.336 128.621C317.156 128.621 317.096 128.571 317.096 128.481C317.096 128.361 317.266 128.341 317.486 128.341C318.276 128.341 319.006 128.391 319.326 128.391C319.496 128.391 320.066 128.341 320.816 128.341C321.016 128.341 321.166 128.361 321.166 128.481C321.166 128.571 321.076 128.621 320.896 128.621C320.746 128.621 320.626 128.621 320.436 128.671C320.016 128.791 319.886 129.111 319.876 129.961L319.706 139.541C319.706 139.871 319.646 140.011 319.506 140.011C319.336 140.011 319.156 139.841 318.986 139.681C318.026 138.771 316.086 136.781 314.506 135.221C312.846 133.581 311.166 131.681 310.896 131.391H310.846L311.016 137.771H311.006Z" fill="white"/>
<path d="M340.186 138.811C340.186 139.221 340.166 139.251 339.986 139.361C338.996 139.881 337.506 140.041 336.326 140.041C332.606 140.041 329.316 138.281 329.316 134.091C329.316 131.661 330.576 129.961 331.956 129.131C333.416 128.251 334.766 128.141 336.036 128.141C337.086 128.141 338.416 128.321 338.726 128.381C339.046 128.441 339.576 128.531 339.926 128.551C340.106 128.571 340.136 128.631 340.136 128.731C340.136 128.901 340.026 129.321 340.026 131.221C340.026 131.461 339.986 131.541 339.856 131.541C339.746 131.541 339.716 131.461 339.706 131.341C339.656 130.991 339.586 130.511 339.186 130.081C338.736 129.591 337.516 128.901 335.796 128.901C334.956 128.901 333.856 128.961 332.786 129.841C331.936 130.551 331.386 131.691 331.386 133.561C331.386 136.821 333.466 139.271 336.666 139.271C337.056 139.271 337.596 139.271 337.956 139.101C338.186 138.991 338.246 138.801 338.246 138.541V137.111C338.246 136.351 338.246 135.771 338.226 135.321C338.216 134.801 338.076 134.561 337.576 134.451C337.456 134.421 337.196 134.401 336.986 134.401C336.846 134.401 336.756 134.371 336.756 134.281C336.756 134.161 336.866 134.131 337.076 134.131C337.866 134.131 338.826 134.171 339.276 134.171C339.726 134.171 340.556 134.131 341.056 134.131C341.256 134.131 341.356 134.161 341.356 134.281C341.356 134.371 341.266 134.401 341.156 134.401C341.036 134.401 340.926 134.421 340.746 134.451C340.336 134.531 340.186 134.781 340.166 135.321C340.156 135.781 340.156 136.381 340.156 137.141V138.811H340.186Z" fill="white"/>
</svg>
