<svg width="368" height="88" viewBox="0 0 368 88" fill="none" xmlns="http://www.w3.org/2000/svg">
<path d="M211.716 78.7508L214.846 77.724C216.892 82.0267 220.34 85.1091 226.922 85.1091C237.529 85.1091 239.382 78.3026 239.382 71.5614V70.3411C239.382 69.3774 239.445 67.3871 239.509 66.4234H239.319C237.401 70.9176 232.801 74.4502 226.732 74.4502C217.275 74.4502 210.822 67.1304 210.822 57.4982C210.822 47.8661 217.467 40.6115 226.732 40.6115C233.057 40.6115 237.273 43.8222 239.319 47.9313H239.509C239.447 46.5827 239.447 45.619 239.447 44.9142V41.512H242.514C242.451 42.5388 242.451 43.3088 242.451 44.3377V71.6266C242.451 84.339 235.36 88 226.862 88C218.363 88 213.636 83.7625 211.718 78.7529L211.716 78.7508ZM239.572 57.3699C239.572 49.4715 234.589 43.4372 226.73 43.4372C218.87 43.4372 214.08 49.4715 214.08 57.4351C214.08 65.3988 219.063 71.4331 226.73 71.4331C234.397 71.4331 239.572 65.7186 239.572 57.372V57.3699ZM250.172 45.7474C250.172 43.757 250.11 42.5367 250.11 41.5099H253.24V44.7837C253.24 46.0041 253.177 47.2244 253.177 48.1859H253.305C254.647 44.1399 258.162 41.3795 262.762 41.3795C263.21 41.3795 263.783 41.3795 264.359 41.4426L264.232 44.5881C263.528 44.5249 263.082 44.5249 262.634 44.5249C255.798 44.5249 253.37 50.2394 253.37 58.1379V75.2813H250.175V45.7453L250.172 45.7474ZM264.497 58.3967C264.497 48.1228 270.376 40.6115 280.79 40.6115C291.204 40.6115 297.018 48.1228 297.018 58.3967C297.018 68.6705 291.204 76.0535 280.725 76.0535C270.247 76.0535 264.497 68.5401 264.497 58.3967ZM293.57 58.3335C293.57 49.8586 289.289 43.4372 280.792 43.4372C272.296 43.4372 267.822 49.8586 267.822 58.3335C267.822 66.8085 272.104 73.2299 280.792 73.2299C289.481 73.2299 293.57 66.8737 293.57 58.3335ZM302.395 62.0576V41.5099H305.59V61.6726C305.59 69.186 308.337 73.1668 314.664 73.1668C320.991 73.1668 325.27 68.094 325.27 60.5175V41.512H328.465V70.8566C328.465 72.3336 328.528 74.0673 328.528 75.2876H325.333V68.9945H325.205C323.736 72.3336 320.478 76.1208 314.281 76.1208C305.272 76.1208 302.397 70.2127 302.397 62.0597L302.395 62.0576ZM336.245 45.1709C336.245 43.4372 336.245 42.6019 336.182 41.5099H339.44V43.6939C339.44 44.6575 339.313 47.4832 339.313 48.3816H339.44C341.421 44.0158 346.021 40.6136 352.155 40.6136C361.868 40.6136 368 48.1901 368 58.464C368 68.7378 361.61 76.0577 352.09 76.0577C346.211 76.0577 341.676 73.0405 339.44 68.4159H339.313C339.313 71.048 339.44 74.2587 339.44 77.8545V87.3562H336.245V45.1709ZM364.677 58.3967C364.677 49.8565 360.268 43.5003 352.09 43.5003C343.912 43.5003 339.055 49.8565 339.055 58.3967C339.055 66.9368 344.038 73.2278 352.09 73.2278C360.142 73.2278 364.677 67.063 364.677 58.3967ZM8.62592 70.9807H8.4982C8.56101 71.9443 8.62592 72.8428 8.62592 73.8064V75.2834H0C0.0628101 73.9347 0.0628101 72.1379 0.0628101 70.4673V28.4062H8.94415V38.7452C8.94415 40.9292 8.88134 43.1763 8.88134 45.5517C10.9269 42.8544 14.2495 40.5442 19.4251 40.5442C28.4341 40.5442 34.6963 48.0576 34.6963 58.3967C34.6963 68.7357 28.3064 76.0556 19.2324 76.0556C14.3123 76.0556 10.862 74.1935 8.62592 70.9828V70.9807ZM25.6872 58.4598C25.6872 52.2319 22.4295 47.9923 17.2518 47.9923C12.0742 47.9923 8.75363 52.2298 8.75363 58.3946C8.75363 64.5593 12.0135 68.862 17.2518 68.862C22.4902 68.862 25.6872 64.6245 25.6872 58.4598ZM36.9658 65.7796C36.9658 59.5518 40.7365 56.9828 50.001 55.2491L55.4969 54.2223C58.1161 53.7089 58.8844 53.6437 58.8844 51.9752C58.8844 49.1496 56.6484 47.3527 52.8777 47.3527C48.7888 47.3527 46.7432 49.5367 46.4878 52.8105L38.0524 52.2971C38.5633 45.4907 44.0592 40.803 53.0054 40.803C62.4625 40.803 67.4475 44.849 67.4475 53.9025V73.6801C67.4475 74.4502 67.5104 75.0288 67.5104 75.2855H59.9062C59.8433 74.7721 59.8433 74.1304 59.8433 73.5518V72.2684H59.7805C57.4796 74.5154 54.0941 75.9293 49.2368 75.9293C41.7603 75.9293 36.9679 72.14 36.9679 65.7838L36.9658 65.7796ZM59.075 62.1839V60.9635C59.075 60.5785 59.075 59.9999 59.2027 59.6149C57.6052 59.9999 56.6463 60.1283 54.538 60.5785C48.7867 61.7336 45.9121 62.1839 45.9121 65.6513C45.9121 68.4117 47.9576 69.9539 51.4708 69.9539C56.2004 69.9539 59.075 67.1935 59.075 62.1839ZM107.987 87.3562L107.156 80.5497C108.05 80.6149 108.881 80.6149 109.648 80.6149C113.353 80.6149 115.717 79.9732 117.187 75.4138L104.279 41.5078H113.992L117.698 53.0672C119.04 57.3047 120.445 61.8009 121.724 66.232H121.979C123.512 60.9025 124.215 58.14 125.813 53.1324L129.456 41.5099H138.913L125.367 77.663C122.362 85.6898 117.89 87.4887 110.669 87.4887C109.838 87.4887 108.944 87.4235 107.985 87.3604L107.987 87.3562ZM137.939 65.7796C137.939 59.5518 141.71 56.9828 150.974 55.2491L156.47 54.2223C159.09 53.7089 159.858 53.6437 159.858 51.9752C159.858 49.1496 157.622 47.3527 153.851 47.3527C149.762 47.3527 147.717 49.5367 147.461 52.8105L139.026 52.2971C139.537 45.4907 145.033 40.803 153.979 40.803C163.436 40.803 168.421 44.849 168.421 53.9025V73.6801C168.421 74.4502 168.484 75.0288 168.484 75.2855H160.88C160.817 74.7721 160.817 74.1304 160.817 73.5518V72.2684H160.754C158.453 74.5154 155.068 75.9293 150.21 75.9293C142.734 75.9293 137.941 72.14 137.941 65.7838L137.939 65.7796ZM160.048 62.1839V60.9635C160.048 60.5785 160.048 59.9999 160.176 59.6149C158.579 59.9999 157.62 60.1283 155.511 60.5785C149.76 61.7336 146.886 62.1839 146.886 65.6513C146.886 68.4117 148.931 69.9539 152.444 69.9539C157.174 69.9539 160.048 67.1935 160.048 62.1839ZM199.29 75.2834H209.961V73.7412C206.576 72.3925 204.658 70.4652 204.658 61.9251V54.54C204.658 45.1646 199.994 40.6052 192.452 40.6052C187.595 40.6052 183.889 42.5956 181.908 45.5496H181.781C181.844 44.7143 181.844 43.6876 181.844 42.8523V41.5036H173.28C173.343 43.3025 173.343 46.1913 173.343 47.925V64.6203C173.343 70.9765 174.174 73.6738 176.921 75.2813H187.593V73.7391C184.207 72.3904 182.289 70.4631 182.289 61.923V58.3924C182.289 51.3924 184.398 48.1186 189.446 48.1186C194.493 48.1186 195.708 51.5229 195.708 58.971V64.6224C195.708 70.9786 196.539 73.6759 199.286 75.2834H199.29ZM98.3313 75.2834H109.003V73.7412C105.617 72.3925 103.699 70.4652 103.699 61.9251V54.54C103.699 45.1646 99.0347 40.6052 91.4933 40.6052C86.636 40.6052 82.9302 42.5956 80.9496 45.5496H80.8219C80.8847 44.7143 80.8847 43.6876 80.8847 42.8523V41.5036H72.3216C72.3844 43.3025 72.3844 46.1913 72.3844 47.925V64.6203C72.3844 70.9765 73.2156 73.6738 75.9625 75.2813H86.6339V73.7391C83.2485 72.3904 81.3307 70.4631 81.3307 61.923V58.3924C81.3307 51.3924 83.439 48.1186 88.4868 48.1186C93.5347 48.1186 94.749 51.5229 94.749 58.971V64.6224C94.749 70.9786 95.5802 73.6759 98.3271 75.2834H98.3313ZM0.0628101 0.0925762H7.64398C13.2906 0.0925762 15.7151 2.19027 15.7151 6.44667C15.7151 11.3195 12.1244 12.8618 7.42834 12.8618H2.61081V22.6075H0.0628101V0.0925762ZM7.45974 10.7325C10.7133 10.7325 13.1378 9.86989 13.1378 6.50769C13.1378 3.14549 10.8368 2.21973 7.55186 2.21973H2.61081V10.7325H7.45974ZM15.6837 18.166C15.6837 15.3592 17.7083 14.0947 21.6381 13.3247L25.2894 12.6156C26.3949 12.3989 26.7927 12.462 26.7927 11.3195C26.7927 9.1924 25.4109 7.92789 22.9257 7.92789C20.4405 7.92789 18.9058 9.1924 18.5373 11.3511L16.205 11.1344C16.6656 7.86477 19.3664 6.01535 22.9257 6.01535C27.0083 6.01535 29.1857 7.98891 29.1857 12.1843V22.1468C29.1857 22.2709 29.1857 22.4245 29.2171 22.6096H26.9455V21.9932C26.9455 21.3451 26.9769 20.9454 26.9769 20.5435H26.9162C25.7814 22.1173 23.9704 22.9189 21.4224 22.9189C17.9553 22.9189 15.6837 21.099 15.6837 18.1681V18.166ZM26.8848 16.1924V15.1741C26.8848 14.8353 26.8848 14.5892 26.9455 14.2189C26.7927 14.2504 26.4242 14.343 25.5951 14.4966C23.5705 14.8985 22.8021 15.0815 22.2808 15.1741C19.1508 15.7906 18.2903 16.4386 18.2903 18.166C18.2903 20.047 19.7642 21.0969 21.8809 21.0969C24.7974 21.0969 26.8827 19.1233 26.8827 16.1924H26.8848ZM31.2417 9.09772C31.2417 7.74063 31.2417 7.30931 31.2103 6.38355H33.6348V7.12416C33.6348 7.49446 33.6034 8.72741 33.6034 9.15873H33.6641C34.4011 7.49236 36.1807 6.04481 38.4816 6.04481C38.7894 6.04481 39.003 6.04481 39.34 6.10582L39.2793 8.41812C38.9108 8.35711 38.6031 8.35711 38.3288 8.35711C35.4437 8.35711 33.6641 10.3307 33.6641 13.7854V22.6054H31.2396V9.09772H31.2417ZM42.7632 18.0124V8.29609H40.0309V6.38355H42.7632V1.9441H45.1877V6.38565H48.4705V8.29819H45.1877V18.0755C45.1877 21.0043 46.3538 21.808 47.9806 22.0226V22.6075H44.7899C43.1631 21.93 42.7653 20.5098 42.7653 18.0124H42.7632ZM56.7259 14.5576C56.7259 9.40701 59.9794 5.98379 64.8598 5.98379C69.7401 5.98379 72.9937 9.40701 72.9937 14.5576C72.9937 19.7082 69.7715 22.9778 64.8598 22.9778C59.948 22.9778 56.7259 19.6788 56.7259 14.5576ZM70.3829 14.5576C70.3829 10.8567 68.4797 7.95735 64.8577 7.95735C61.2356 7.95735 59.3032 10.8567 59.3032 14.5576C59.3032 18.2586 61.2063 21.0022 64.8577 21.0022C68.509 21.0022 70.3829 18.2565 70.3829 14.5576ZM75.9143 8.29609H73.2449V6.38355H75.9143V4.59515C75.9143 1.26451 77.2648 0 80.3948 0C81.2239 0 81.6845 0.0315601 82.1137 0.0925762L81.9609 2.06613C81.6238 2.00512 81.2239 1.97356 80.7947 1.97356C78.8622 1.97356 78.3388 2.77518 78.3388 4.37843V6.38355H81.8373V8.29609H78.3388V22.6075H75.9143V8.29609Z" fill="#162783"/>
</svg>
