<svg width="191" height="75" viewBox="0 0 191 75" fill="none" xmlns="http://www.w3.org/2000/svg">
<path d="M43.1 51.58V55.06H46.62V51.58H43.1ZM40.84 49.48H49.04V57.14H40.84V49.48ZM36.42 44.68H53.6V62.78H50.98V47.14H38.92V62.78H36.42V44.68ZM37.84 59.46H52.46V61.7H37.84V59.46ZM66.14 47.72H74.38V50H66.14V47.72ZM66.5 44L68.98 44.4C68.7533 45.7333 68.46 47.0267 68.1 48.28C67.74 49.5333 67.3 50.7 66.78 51.78C66.2733 52.8467 65.68 53.78 65 54.58C64.8933 54.4067 64.74 54.1867 64.54 53.92C64.3533 53.6533 64.1467 53.3867 63.92 53.12C63.7067 52.8533 63.5133 52.6467 63.34 52.5C63.9 51.8467 64.3867 51.0733 64.8 50.18C65.2133 49.2867 65.56 48.3133 65.84 47.26C66.12 46.2067 66.34 45.12 66.5 44ZM70.96 48.96L73.32 49.28C72.9733 51.4667 72.4733 53.4267 71.82 55.16C71.1667 56.88 70.3133 58.38 69.26 59.66C68.2067 60.9267 66.8933 61.9933 65.32 62.86C65.2267 62.7 65.0867 62.4933 64.9 62.24C64.7267 62 64.54 61.7533 64.34 61.5C64.14 61.2467 63.9533 61.0467 63.78 60.9C65.2467 60.1933 66.46 59.2867 67.42 58.18C68.3933 57.06 69.16 55.7333 69.72 54.2C70.28 52.6667 70.6933 50.92 70.96 48.96ZM67.12 49.7C67.5067 51.3133 68.0267 52.84 68.68 54.28C69.3467 55.7067 70.16 56.98 71.12 58.1C72.0933 59.2067 73.2333 60.0867 74.54 60.74C74.3667 60.8867 74.1733 61.0733 73.96 61.3C73.7467 61.5267 73.5467 61.7667 73.36 62.02C73.1733 62.2733 73.02 62.5067 72.9 62.72C71.5267 61.92 70.3467 60.9 69.36 59.66C68.3867 58.4067 67.56 56.9733 66.88 55.36C66.2 53.7467 65.6333 52.0067 65.18 50.14L67.12 49.7ZM61.18 44.3H63.56V62.82H61.18V44.3ZM56.86 59.5L56.58 57.24L57.5 56.44L62.28 55.02C62.36 55.34 62.46 55.7 62.58 56.1C62.7133 56.4867 62.8333 56.8067 62.94 57.06C61.7533 57.4467 60.7933 57.7733 60.06 58.04C59.3267 58.3067 58.7467 58.5333 58.32 58.72C57.9067 58.8933 57.5933 59.04 57.38 59.16C57.1667 59.28 56.9933 59.3933 56.86 59.5ZM56.86 59.5C56.82 59.2867 56.7467 59.0467 56.64 58.78C56.5467 58.5 56.44 58.2267 56.32 57.96C56.2 57.6933 56.08 57.4733 55.96 57.3C56.1467 57.1933 56.3133 57.0333 56.46 56.82C56.62 56.5933 56.7 56.2733 56.7 55.86V46.16H59.06V57.62C59.06 57.62 58.9467 57.68 58.72 57.8C58.5067 57.9067 58.2533 58.06 57.96 58.26C57.6667 58.4467 57.4067 58.6533 57.18 58.88C56.9667 59.0933 56.86 59.3 56.86 59.5ZM75.52 54.16C76.3733 53.9867 77.3733 53.76 78.52 53.48C79.6667 53.2 80.82 52.92 81.98 52.64L82.3 54.82C81.2467 55.1133 80.18 55.4067 79.1 55.7C78.02 55.98 77.0333 56.2333 76.14 56.46L75.52 54.16ZM75.78 47.82H82.64V50.04H75.78V47.82ZM78.18 44H80.52V60.1C80.52 60.6733 80.4533 61.12 80.32 61.44C80.2 61.7733 79.9667 62.0267 79.62 62.2C79.2867 62.3733 78.8733 62.4867 78.38 62.54C77.8867 62.6067 77.28 62.64 76.56 62.64C76.5333 62.3333 76.4533 61.9667 76.32 61.54C76.1867 61.1267 76.0467 60.7667 75.9 60.46C76.3 60.4733 76.68 60.48 77.04 60.48C77.4133 60.48 77.66 60.48 77.78 60.48C77.9267 60.48 78.0267 60.4533 78.08 60.4C78.1467 60.3333 78.18 60.2333 78.18 60.1V44ZM84.76 44.66H90.18V46.88H84.76V44.66ZM82.54 52.7H91.62V54.92H82.54V52.7ZM90.82 52.7H91.28L91.7 52.6L93.26 53.24C92.8333 54.6533 92.2667 55.8867 91.56 56.94C90.8667 57.9933 90.0467 58.9 89.1 59.66C88.1667 60.4067 87.1267 61.0333 85.98 61.54C84.8333 62.06 83.5933 62.48 82.26 62.8C82.1933 62.5733 82.0933 62.32 81.96 62.04C81.8267 61.7733 81.68 61.5133 81.52 61.26C81.3733 61.0067 81.2267 60.7867 81.08 60.6C82.28 60.3867 83.4 60.08 84.44 59.68C85.4933 59.2667 86.44 58.7467 87.28 58.12C88.12 57.4933 88.84 56.76 89.44 55.92C90.0533 55.08 90.5133 54.12 90.82 53.04V52.7ZM85.04 54.48C85.5867 55.52 86.3 56.4533 87.18 57.28C88.0733 58.0933 89.1267 58.78 90.34 59.34C91.5667 59.9 92.9333 60.32 94.44 60.6C94.2667 60.7733 94.08 60.9933 93.88 61.26C93.6933 61.5267 93.5133 61.8 93.34 62.08C93.18 62.36 93.04 62.6067 92.92 62.82C90.5467 62.2733 88.54 61.36 86.9 60.08C85.2733 58.8 83.96 57.1733 82.96 55.2L85.04 54.48ZM84.26 44.66H86.5V46.9C86.5 47.5533 86.4133 48.2267 86.24 48.92C86.08 49.6 85.76 50.2467 85.28 50.86C84.8 51.4733 84.1067 52 83.2 52.44C83.1067 52.2933 82.96 52.1067 82.76 51.88C82.56 51.64 82.3533 51.4133 82.14 51.2C81.94 50.9733 81.76 50.8067 81.6 50.7C82.4 50.34 82.9867 49.9467 83.36 49.52C83.7467 49.0933 83.9933 48.6533 84.1 48.2C84.2067 47.7333 84.26 47.2733 84.26 46.82V44.66ZM89.08 44.66H91.36V49.04C91.36 49.3333 91.38 49.54 91.42 49.66C91.46 49.78 91.5533 49.84 91.7 49.84C91.78 49.84 91.8867 49.84 92.02 49.84C92.1667 49.84 92.3133 49.84 92.46 49.84C92.6067 49.84 92.72 49.84 92.8 49.84C92.96 49.84 93.1467 49.8333 93.36 49.82C93.5867 49.7933 93.7667 49.76 93.9 49.72C93.9267 50.0133 93.9533 50.3467 93.98 50.72C94.0067 51.0933 94.04 51.42 94.08 51.7C93.92 51.7667 93.7267 51.8133 93.5 51.84C93.2867 51.8533 93.06 51.86 92.82 51.86C92.7267 51.86 92.5933 51.86 92.42 51.86C92.2467 51.86 92.0733 51.86 91.9 51.86C91.7267 51.86 91.5867 51.86 91.48 51.86C90.8133 51.86 90.3067 51.76 89.96 51.56C89.6133 51.36 89.38 51.0533 89.26 50.64C89.14 50.2133 89.08 49.6667 89.08 49V44.66ZM100.74 54.9V55.74H109.44V54.9H100.74ZM100.74 57.1V57.98H109.44V57.1H100.74ZM100.74 52.68V53.54H109.44V52.68H100.74ZM98.42 51.26H111.86V59.4H98.42V51.26ZM106.58 60.38L108.18 59.12C108.86 59.36 109.553 59.62 110.26 59.9C110.98 60.18 111.66 60.46 112.3 60.74C112.94 61.0067 113.487 61.2533 113.94 61.48L111.78 62.76C111.407 62.5467 110.933 62.3 110.36 62.02C109.8 61.7533 109.193 61.4733 108.54 61.18C107.9 60.9 107.247 60.6333 106.58 60.38ZM101.7 59.22L103.88 60.2C103.347 60.56 102.72 60.9067 102 61.24C101.28 61.5733 100.54 61.8733 99.78 62.14C99.02 62.4067 98.3 62.64 97.62 62.84C97.4733 62.6667 97.2933 62.4667 97.08 62.24C96.88 62.0267 96.6667 61.8133 96.44 61.6C96.2133 61.3867 96.0133 61.2133 95.84 61.08C96.5467 60.9467 97.26 60.7867 97.98 60.6C98.7133 60.4 99.4 60.1867 100.04 59.96C100.693 59.72 101.247 59.4733 101.7 59.22ZM104 45.22H112.1V46.96H104V45.22ZM104.18 43.88L106.26 44.36C105.993 45.2 105.62 46 105.14 46.76C104.66 47.52 104.147 48.16 103.6 48.68C103.467 48.56 103.293 48.4267 103.08 48.28C102.867 48.12 102.647 47.9667 102.42 47.82C102.193 47.6733 101.993 47.5533 101.82 47.46C102.353 47.02 102.82 46.4867 103.22 45.86C103.633 45.22 103.953 44.56 104.18 43.88ZM106.2 46.58H108.4V47.38C108.4 47.74 108.32 48.1133 108.16 48.5C108.013 48.8867 107.72 49.26 107.28 49.62C106.84 49.9667 106.193 50.2867 105.34 50.58C104.487 50.86 103.347 51.0733 101.92 51.22C101.813 50.9533 101.633 50.64 101.38 50.28C101.14 49.92 100.907 49.6333 100.68 49.42C101.907 49.3267 102.887 49.2 103.62 49.04C104.367 48.88 104.92 48.7067 105.28 48.52C105.653 48.32 105.9 48.1133 106.02 47.9C106.14 47.6867 106.2 47.4733 106.2 47.26V46.58ZM108.2 47.38C108.547 47.7667 109.013 48.1 109.6 48.38C110.187 48.6467 110.88 48.8533 111.68 49C112.48 49.1467 113.36 49.2467 114.32 49.3C114.08 49.5133 113.833 49.8133 113.58 50.2C113.327 50.5733 113.133 50.9133 113 51.22C111.973 51.0867 111.04 50.8733 110.2 50.58C109.373 50.2867 108.653 49.9067 108.04 49.44C107.427 48.96 106.913 48.38 106.5 47.7L108.2 47.38ZM96.24 45H101.38V46.76H96.24V45ZM95.8 48.08H101.86V49.92H95.8V48.08ZM111.26 45.22H111.62L111.98 45.12L113.62 45.62C113.367 46.18 113.073 46.7533 112.74 47.34C112.42 47.9133 112.1 48.4 111.78 48.8L109.92 48.12C110.147 47.7733 110.387 47.36 110.64 46.88C110.907 46.3867 111.113 45.9267 111.26 45.5V45.22ZM121.36 44.9H134.22V46.64H121.36V44.9ZM123.78 48.88V50.24H131.42V48.88H123.78ZM121.72 47.5H133.6V51.62H121.72V47.5ZM125.02 45.54H126.92V50.84H125.02V45.54ZM128.22 45.54H130.16V50.84H128.22V45.54ZM124.24 55.68V56.44H131.08V55.68H124.24ZM124.24 57.7V58.48H131.08V57.7H124.24ZM124.24 53.68V54.42H131.08V53.68H124.24ZM122.02 52.32H133.4V59.8H122.02V52.32ZM128.3 60.94L129.82 59.62C130.393 59.7933 130.98 59.9933 131.58 60.22C132.18 60.4467 132.747 60.6733 133.28 60.9C133.827 61.1133 134.293 61.3133 134.68 61.5L132.62 62.86C132.14 62.5667 131.5 62.24 130.7 61.88C129.913 61.52 129.113 61.2067 128.3 60.94ZM125.3 59.58L126.98 60.76C126.313 61.2267 125.513 61.6333 124.58 61.98C123.66 62.34 122.753 62.62 121.86 62.82C121.727 62.5667 121.533 62.28 121.28 61.96C121.04 61.6533 120.813 61.3933 120.6 61.18C121.187 61.0733 121.767 60.94 122.34 60.78C122.927 60.6067 123.473 60.42 123.98 60.22C124.5 60.0067 124.94 59.7933 125.3 59.58ZM119.2 44.04L121.42 44.7C121.047 45.86 120.593 47.0333 120.06 48.22C119.54 49.4067 118.967 50.5333 118.34 51.6C117.713 52.6533 117.06 53.58 116.38 54.38C116.327 54.1933 116.233 53.9333 116.1 53.6C115.967 53.2667 115.82 52.9333 115.66 52.6C115.5 52.2667 115.36 51.9933 115.24 51.78C115.773 51.1533 116.287 50.4267 116.78 49.6C117.287 48.7733 117.747 47.8867 118.16 46.94C118.573 45.98 118.92 45.0133 119.2 44.04ZM117.6 49.54L119.82 47.32L119.88 47.36V62.78H117.6V49.54ZM141.7 45.84H153.9V47.88H141.7V45.84ZM140.82 60.4H154.36V62.42H140.82V60.4ZM142.56 49.26H152.82V60.78H150.62V51.02H144.66V60.78H142.56V49.26ZM144.14 52.1H151V53.76H144.14V52.1ZM144.08 54.88H151.54V56.5H144.08V54.88ZM144.04 57.62H151.04V59.26H144.04V57.62ZM146.7 44.04L149.24 44.12C149.133 44.8267 149.007 45.5467 148.86 46.28C148.713 47 148.567 47.6867 148.42 48.34C148.273 48.9933 148.127 49.5667 147.98 50.06L145.9 49.9C146.02 49.3667 146.133 48.76 146.24 48.08C146.347 47.4 146.44 46.7067 146.52 46C146.613 45.2933 146.673 44.64 146.7 44.04ZM139.72 44.06L141.94 44.78C141.527 45.9 141.04 47.0333 140.48 48.18C139.92 49.3133 139.313 50.3867 138.66 51.4C138.02 52.4133 137.353 53.3067 136.66 54.08C136.593 53.88 136.48 53.6267 136.32 53.32C136.173 53 136.02 52.68 135.86 52.36C135.7 52.04 135.547 51.78 135.4 51.58C135.973 50.98 136.527 50.28 137.06 49.48C137.607 48.6667 138.107 47.8 138.56 46.88C139.013 45.96 139.4 45.02 139.72 44.06ZM137.76 49.62L139.96 47.36L139.98 47.38V62.78H137.76V49.62Z" fill="white"/>
<path d="M77.8398 34H57.4551V28.668H63.8945V12.5283H57.4551V7.54492C58.4395 7.54492 59.3828 7.49023 60.2852 7.38086C61.1875 7.25781 61.9395 7.05273 62.541 6.76562C63.252 6.42383 63.7852 5.97949 64.1406 5.43262C64.4961 4.88574 64.7012 4.20215 64.7559 3.38184H71.5439V28.668H77.8398V34ZM109.422 18.7217C109.422 21.292 109.189 23.5957 108.725 25.6328C108.26 27.6562 107.535 29.3174 106.551 30.6162C105.539 31.9424 104.24 32.9473 102.654 33.6309C101.068 34.3008 99.1133 34.6357 96.7891 34.6357C94.5059 34.6357 92.5576 34.2939 90.9443 33.6104C89.3311 32.9268 88.0254 31.915 87.0273 30.5752C86.0156 29.2354 85.2842 27.5742 84.833 25.5918C84.3818 23.5957 84.1562 21.3125 84.1562 18.7422C84.1562 16.0898 84.3887 13.7861 84.8535 11.8311C85.3184 9.87598 86.0566 8.22168 87.0684 6.86816C88.0801 5.52832 89.3926 4.52344 91.0059 3.85352C92.6191 3.18359 94.5469 2.84863 96.7891 2.84863C99.127 2.84863 101.089 3.19727 102.675 3.89453C104.261 4.57812 105.56 5.60352 106.571 6.9707C107.569 8.31055 108.294 9.96484 108.745 11.9336C109.196 13.8887 109.422 16.1514 109.422 18.7217ZM101.485 18.7217C101.485 15.0303 101.123 12.4053 100.398 10.8467C99.6738 9.27441 98.4707 8.48828 96.7891 8.48828C95.1074 8.48828 93.9043 9.27441 93.1797 10.8467C92.4551 12.4053 92.0928 15.0439 92.0928 18.7627C92.0928 22.3857 92.4619 24.9971 93.2002 26.5967C93.9385 28.1963 95.1348 28.9961 96.7891 28.9961C98.4434 28.9961 99.6396 28.1963 100.378 26.5967C101.116 24.9971 101.485 22.3721 101.485 18.7217Z" fill="white"/>
<path d="M119.952 9.504L122.904 10.272C122.472 11.456 121.96 12.616 121.368 13.752C120.792 14.888 120.16 15.944 119.472 16.92C118.8 17.88 118.104 18.72 117.384 19.44C117.192 19.28 116.944 19.08 116.64 18.84C116.336 18.584 116.024 18.344 115.704 18.12C115.4 17.896 115.128 17.712 114.888 17.568C115.624 16.944 116.312 16.208 116.952 15.36C117.592 14.496 118.168 13.568 118.68 12.576C119.192 11.568 119.616 10.544 119.952 9.504ZM120.48 12.24H135.744V15.024H119.088L120.48 12.24ZM118.776 17.928H135.168V20.616H121.656V25.656H118.776V17.928ZM114.96 24.24H137.04V27H114.96V24.24ZM125.832 13.68H128.808V32.16H125.832V13.68Z" fill="white"/>
<line x1="190.5" x2="190.5" y2="75" stroke="white"/>
<line x1="0.5" x2="0.5" y2="75" stroke="white"/>
</svg>
