<svg width="191" height="75" viewBox="0 0 191 75" fill="none" xmlns="http://www.w3.org/2000/svg">
<path d="M56.56 46.16H73.5V50.66H70.94V48.4H58.98V50.66H56.56V46.16ZM68.06 50.16L71.02 50.34C70.7133 52.4467 70.24 54.2333 69.6 55.7C68.96 57.1533 68.1067 58.36 67.04 59.32C65.9867 60.2667 64.6867 61.0133 63.14 61.56C61.6067 62.12 59.78 62.5467 57.66 62.84C57.5933 62.6267 57.4733 62.3667 57.3 62.06C57.1267 61.7667 56.94 61.4667 56.74 61.16C56.54 60.8667 56.36 60.62 56.2 60.42C58.2 60.2333 59.9133 59.9333 61.34 59.52C62.78 59.0933 63.9667 58.4933 64.9 57.72C65.8333 56.9467 66.5533 55.9467 67.06 54.72C67.5667 53.48 67.9 51.96 68.06 50.16ZM56.18 51.98H73.88V54.24H56.18V51.98ZM62.98 44.42L65.7 43.8C65.9133 44.24 66.14 44.7333 66.38 45.28C66.62 45.8133 66.8 46.2667 66.92 46.64L64.06 47.36C63.9667 46.9733 63.8133 46.5067 63.6 45.96C63.4 45.4 63.1933 44.8867 62.98 44.42ZM58.46 56.78L60.02 55C61.1267 55.3333 62.3067 55.72 63.56 56.16C64.8267 56.6 66.0933 57.08 67.36 57.6C68.6267 58.12 69.8133 58.6467 70.92 59.18C72.04 59.7 73 60.2067 73.8 60.7L72.02 62.82C71.3 62.3267 70.4067 61.8067 69.34 61.26C68.2733 60.7133 67.12 60.1667 65.88 59.62C64.64 59.06 63.38 58.54 62.1 58.06C60.8333 57.5667 59.62 57.14 58.46 56.78ZM58.46 56.78C58.82 56.26 59.1933 55.6867 59.58 55.06C59.98 54.42 60.3667 53.7533 60.74 53.06C61.1267 52.3533 61.48 51.6467 61.8 50.94C62.12 50.2333 62.4 49.5467 62.64 48.88L65.42 49.4C65.18 50.0667 64.8933 50.7467 64.56 51.44C64.24 52.1333 63.9 52.82 63.54 53.5C63.18 54.1667 62.8267 54.8 62.48 55.4C62.1333 55.9867 61.8067 56.5133 61.5 56.98L58.46 56.78ZM80.88 49.74H83.4V59.04C83.4 59.5333 83.4667 59.8467 83.6 59.98C83.7333 60.1 84.04 60.16 84.52 60.16C84.64 60.16 84.8267 60.16 85.08 60.16C85.3467 60.16 85.6267 60.16 85.92 60.16C86.2267 60.16 86.5133 60.16 86.78 60.16C87.0467 60.16 87.2467 60.16 87.38 60.16C87.7267 60.16 87.9867 60.0667 88.16 59.88C88.3333 59.68 88.46 59.3133 88.54 58.78C88.62 58.2333 88.68 57.4333 88.72 56.38C88.9067 56.5133 89.1333 56.6533 89.4 56.8C89.6667 56.9333 89.94 57.0533 90.22 57.16C90.5133 57.2667 90.7667 57.3467 90.98 57.4C90.8867 58.6667 90.7267 59.6667 90.5 60.4C90.2867 61.12 89.9533 61.6333 89.5 61.94C89.0467 62.2467 88.4067 62.4 87.58 62.4C87.46 62.4 87.2867 62.4 87.06 62.4C86.8333 62.4 86.58 62.4 86.3 62.4C86.02 62.4 85.74 62.4 85.46 62.4C85.1933 62.4 84.9467 62.4 84.72 62.4C84.4933 62.4 84.3267 62.4 84.22 62.4C83.3533 62.4 82.6733 62.2933 82.18 62.08C81.7 61.88 81.36 61.5333 81.16 61.04C80.9733 60.56 80.88 59.8933 80.88 59.04V49.74ZM77.26 50.9L79.62 51.36C79.5267 52.2267 79.4067 53.1667 79.26 54.18C79.1267 55.18 78.9667 56.1667 78.78 57.14C78.5933 58.1 78.3867 58.96 78.16 59.72L75.72 58.72C75.96 58.0133 76.18 57.2267 76.38 56.36C76.5933 55.4933 76.7733 54.5933 76.92 53.66C77.08 52.7133 77.1933 51.7933 77.26 50.9ZM89.74 51.18L91.98 50.26C92.3533 51.0467 92.7133 51.8933 93.06 52.8C93.4067 53.6933 93.7133 54.5733 93.98 55.44C94.2467 56.2933 94.4467 57.0667 94.58 57.76L92.14 58.76C92.0333 58.08 91.8533 57.3 91.6 56.42C91.36 55.54 91.08 54.6467 90.76 53.74C90.44 52.82 90.1 51.9667 89.74 51.18ZM81.58 45.94L83.2 44.32C83.8133 44.6933 84.4733 45.1267 85.18 45.62C85.8867 46.1133 86.56 46.6133 87.2 47.12C87.8533 47.6133 88.38 48.0667 88.78 48.48L87.02 50.36C86.6467 49.9467 86.1533 49.48 85.54 48.96C84.9267 48.4267 84.2667 47.8933 83.56 47.36C82.8667 46.8267 82.2067 46.3533 81.58 45.94ZM96.56 46.16H113.5V50.66H110.94V48.4H98.98V50.66H96.56V46.16ZM108.06 50.16L111.02 50.34C110.713 52.4467 110.24 54.2333 109.6 55.7C108.96 57.1533 108.107 58.36 107.04 59.32C105.987 60.2667 104.687 61.0133 103.14 61.56C101.607 62.12 99.78 62.5467 97.66 62.84C97.5933 62.6267 97.4733 62.3667 97.3 62.06C97.1267 61.7667 96.94 61.4667 96.74 61.16C96.54 60.8667 96.36 60.62 96.2 60.42C98.2 60.2333 99.9133 59.9333 101.34 59.52C102.78 59.0933 103.967 58.4933 104.9 57.72C105.833 56.9467 106.553 55.9467 107.06 54.72C107.567 53.48 107.9 51.96 108.06 50.16ZM96.18 51.98H113.88V54.24H96.18V51.98ZM102.98 44.42L105.7 43.8C105.913 44.24 106.14 44.7333 106.38 45.28C106.62 45.8133 106.8 46.2667 106.92 46.64L104.06 47.36C103.967 46.9733 103.813 46.5067 103.6 45.96C103.4 45.4 103.193 44.8867 102.98 44.42ZM98.46 56.78L100.02 55C101.127 55.3333 102.307 55.72 103.56 56.16C104.827 56.6 106.093 57.08 107.36 57.6C108.627 58.12 109.813 58.6467 110.92 59.18C112.04 59.7 113 60.2067 113.8 60.7L112.02 62.82C111.3 62.3267 110.407 61.8067 109.34 61.26C108.273 60.7133 107.12 60.1667 105.88 59.62C104.64 59.06 103.38 58.54 102.1 58.06C100.833 57.5667 99.62 57.14 98.46 56.78ZM98.46 56.78C98.82 56.26 99.1933 55.6867 99.58 55.06C99.98 54.42 100.367 53.7533 100.74 53.06C101.127 52.3533 101.48 51.6467 101.8 50.94C102.12 50.2333 102.4 49.5467 102.64 48.88L105.42 49.4C105.18 50.0667 104.893 50.7467 104.56 51.44C104.24 52.1333 103.9 52.82 103.54 53.5C103.18 54.1667 102.827 54.8 102.48 55.4C102.133 55.9867 101.807 56.5133 101.5 56.98L98.46 56.78ZM118.82 44.46L120.96 43.94C121.147 44.3533 121.327 44.8133 121.5 45.32C121.687 45.8133 121.827 46.24 121.92 46.6L119.7 47.22C119.633 46.8467 119.513 46.4 119.34 45.88C119.167 45.3467 118.993 44.8733 118.82 44.46ZM115.78 47.06H124.64V49.28H115.78V47.06ZM119.14 51.24H122.5V53.42H119.14V51.24ZM121.72 51.24H123.98C123.98 51.24 123.98 51.3 123.98 51.42C123.98 51.54 123.98 51.68 123.98 51.84C123.98 51.9867 123.973 52.1067 123.96 52.2C123.947 53.8 123.92 55.1667 123.88 56.3C123.853 57.42 123.813 58.3467 123.76 59.08C123.707 59.8133 123.64 60.3933 123.56 60.82C123.48 61.2333 123.373 61.5333 123.24 61.72C123.04 62 122.84 62.2 122.64 62.32C122.44 62.4533 122.193 62.5467 121.9 62.6C121.647 62.64 121.327 62.6667 120.94 62.68C120.567 62.6933 120.167 62.6933 119.74 62.68C119.713 62.3467 119.647 61.9733 119.54 61.56C119.433 61.1467 119.293 60.7933 119.12 60.5C119.44 60.5133 119.733 60.5267 120 60.54C120.28 60.5533 120.493 60.56 120.64 60.56C120.773 60.56 120.88 60.54 120.96 60.5C121.053 60.46 121.14 60.38 121.22 60.26C121.3 60.14 121.367 59.9133 121.42 59.58C121.473 59.2333 121.52 58.7333 121.56 58.08C121.6 57.4133 121.633 56.56 121.66 55.52C121.687 54.48 121.707 53.2067 121.72 51.7V51.24ZM126.62 47.64H134.44V49.86H126.62V47.64ZM126.82 43.98L129.28 44.38C129.053 45.74 128.76 47.0667 128.4 48.36C128.04 49.6533 127.607 50.8533 127.1 51.96C126.593 53.0533 126.013 54.0067 125.36 54.82C125.24 54.66 125.073 54.46 124.86 54.22C124.647 53.98 124.42 53.74 124.18 53.5C123.953 53.2467 123.747 53.0467 123.56 52.9C124.133 52.22 124.633 51.4133 125.06 50.48C125.487 49.5333 125.847 48.5133 126.14 47.42C126.433 46.3133 126.66 45.1667 126.82 43.98ZM130.68 48.98L133.04 49.22C132.72 51.4733 132.247 53.4667 131.62 55.2C131.007 56.92 130.16 58.4133 129.08 59.68C128.013 60.9333 126.66 61.9867 125.02 62.84C124.953 62.6667 124.833 62.4467 124.66 62.18C124.5 61.9133 124.333 61.6467 124.16 61.38C123.987 61.1133 123.827 60.9 123.68 60.74C125.173 60.06 126.393 59.18 127.34 58.1C128.287 57.0067 129.02 55.7067 129.54 54.2C130.073 52.68 130.453 50.94 130.68 48.98ZM127.8 49.44C128.107 51.1467 128.533 52.7333 129.08 54.2C129.64 55.6667 130.373 56.9533 131.28 58.06C132.2 59.1533 133.327 60.0067 134.66 60.62C134.487 60.7667 134.293 60.96 134.08 61.2C133.867 61.4533 133.667 61.7067 133.48 61.96C133.293 62.2267 133.14 62.4667 133.02 62.68C131.58 61.92 130.38 60.92 129.42 59.68C128.473 58.4267 127.707 56.9667 127.12 55.3C126.547 53.6333 126.073 51.7933 125.7 49.78L127.8 49.44ZM117.74 48.24H120.02V53.2C120.02 54.28 119.947 55.3733 119.8 56.48C119.667 57.5867 119.387 58.6667 118.96 59.72C118.547 60.76 117.913 61.7533 117.06 62.7C116.86 62.4467 116.587 62.1667 116.24 61.86C115.893 61.5667 115.58 61.32 115.3 61.12C116.02 60.2933 116.553 59.4333 116.9 58.54C117.247 57.6333 117.473 56.7267 117.58 55.82C117.687 54.9 117.74 54.0133 117.74 53.16V48.24Z" fill="white"/>
<path d="M49.5625 18.7217C49.5625 21.292 49.3301 23.5957 48.8652 25.6328C48.4004 27.6562 47.6758 29.3174 46.6914 30.6162C45.6797 31.9424 44.3809 32.9473 42.7949 33.6309C41.209 34.3008 39.2539 34.6357 36.9297 34.6357C34.6465 34.6357 32.6982 34.2939 31.085 33.6104C29.4717 32.9268 28.166 31.915 27.168 30.5752C26.1562 29.2354 25.4248 27.5742 24.9736 25.5918C24.5225 23.5957 24.2969 21.3125 24.2969 18.7422C24.2969 16.0898 24.5293 13.7861 24.9941 11.8311C25.459 9.87598 26.1973 8.22168 27.209 6.86816C28.2207 5.52832 29.5332 4.52344 31.1465 3.85352C32.7598 3.18359 34.6875 2.84863 36.9297 2.84863C39.2676 2.84863 41.2295 3.19727 42.8154 3.89453C44.4014 4.57812 45.7002 5.60352 46.7119 6.9707C47.71 8.31055 48.4346 9.96484 48.8857 11.9336C49.3369 13.8887 49.5625 16.1514 49.5625 18.7217ZM41.626 18.7217C41.626 15.0303 41.2637 12.4053 40.5391 10.8467C39.8145 9.27441 38.6113 8.48828 36.9297 8.48828C35.248 8.48828 34.0449 9.27441 33.3203 10.8467C32.5957 12.4053 32.2334 15.0439 32.2334 18.7627C32.2334 22.3857 32.6025 24.9971 33.3408 26.5967C34.0791 28.1963 35.2754 28.9961 36.9297 28.9961C38.584 28.9961 39.7803 28.1963 40.5186 26.5967C41.2568 24.9971 41.626 22.3721 41.626 18.7217ZM78.5811 23.1719H54.9971V17.6758H78.5811V23.1719ZM108.83 17.0195C108.83 19.5762 108.502 21.9551 107.846 24.1562C107.189 26.3574 106.191 28.21 104.852 29.7139C103.402 31.3408 101.604 32.5645 99.458 33.3848C97.3115 34.1914 94.8096 34.5947 91.9521 34.5947C90.9404 34.5947 89.8467 34.5332 88.6709 34.4102C87.4951 34.2871 86.7227 34.1777 86.3535 34.082V28.0732H87.1738C87.584 28.2646 88.165 28.4697 88.917 28.6885C89.6826 28.9072 90.7217 29.0166 92.0342 29.0166C93.1006 29.0166 94.1465 28.8867 95.1719 28.627C96.1973 28.3535 97.0791 27.9297 97.8174 27.3555C98.624 26.7402 99.2871 25.9746 99.8066 25.0586C100.326 24.1289 100.675 23.0146 100.853 21.7158C99.6631 22.3994 98.5557 22.9258 97.5303 23.2949C96.5186 23.6504 95.2539 23.8281 93.7363 23.8281C92.5879 23.8281 91.4873 23.6914 90.4346 23.418C89.3955 23.1309 88.4453 22.6934 87.584 22.1055C86.4492 21.2988 85.54 20.2393 84.8564 18.9268C84.1865 17.6006 83.8516 15.9326 83.8516 13.9229C83.8516 10.6553 84.9863 7.99609 87.2559 5.94531C89.5391 3.88086 92.5264 2.84863 96.2178 2.84863C98.1182 2.84863 99.7998 3.10156 101.263 3.60742C102.739 4.09961 104.011 4.8584 105.077 5.88379C106.321 7.05957 107.258 8.55664 107.887 10.375C108.516 12.1934 108.83 14.4082 108.83 17.0195ZM100.976 15.8711C100.976 14.2031 100.812 12.8359 100.483 11.7695C100.169 10.6895 99.7314 9.85547 99.1709 9.26758C98.7744 8.83008 98.3164 8.51562 97.7969 8.32422C97.2773 8.13281 96.7305 8.03711 96.1562 8.03711C95.623 8.03711 95.1104 8.13281 94.6182 8.32422C94.1396 8.50195 93.6748 8.81641 93.2236 9.26758C92.7998 9.70508 92.4512 10.2793 92.1777 10.9902C91.918 11.7012 91.7881 12.5488 91.7881 13.5332C91.7881 14.4902 91.9316 15.2969 92.2188 15.9531C92.5059 16.5957 92.9023 17.1084 93.4082 17.4912C93.8867 17.8604 94.4473 18.1201 95.0898 18.2705C95.7461 18.4209 96.457 18.4961 97.2227 18.4961C97.8379 18.4961 98.5078 18.4209 99.2324 18.2705C99.957 18.1064 100.518 17.9424 100.914 17.7783C100.914 17.6279 100.921 17.416 100.935 17.1426C100.962 16.8555 100.976 16.4316 100.976 15.8711ZM138.689 17.0195C138.689 19.5762 138.361 21.9551 137.705 24.1562C137.049 26.3574 136.051 28.21 134.711 29.7139C133.262 31.3408 131.464 32.5645 129.317 33.3848C127.171 34.1914 124.669 34.5947 121.812 34.5947C120.8 34.5947 119.706 34.5332 118.53 34.4102C117.354 34.2871 116.582 34.1777 116.213 34.082V28.0732H117.033C117.443 28.2646 118.024 28.4697 118.776 28.6885C119.542 28.9072 120.581 29.0166 121.894 29.0166C122.96 29.0166 124.006 28.8867 125.031 28.627C126.057 28.3535 126.938 27.9297 127.677 27.3555C128.483 26.7402 129.146 25.9746 129.666 25.0586C130.186 24.1289 130.534 23.0146 130.712 21.7158C129.522 22.3994 128.415 22.9258 127.39 23.2949C126.378 23.6504 125.113 23.8281 123.596 23.8281C122.447 23.8281 121.347 23.6914 120.294 23.418C119.255 23.1309 118.305 22.6934 117.443 22.1055C116.309 21.2988 115.399 20.2393 114.716 18.9268C114.046 17.6006 113.711 15.9326 113.711 13.9229C113.711 10.6553 114.846 7.99609 117.115 5.94531C119.398 3.88086 122.386 2.84863 126.077 2.84863C127.978 2.84863 129.659 3.10156 131.122 3.60742C132.599 4.09961 133.87 4.8584 134.937 5.88379C136.181 7.05957 137.117 8.55664 137.746 10.375C138.375 12.1934 138.689 14.4082 138.689 17.0195ZM130.835 15.8711C130.835 14.2031 130.671 12.8359 130.343 11.7695C130.028 10.6895 129.591 9.85547 129.03 9.26758C128.634 8.83008 128.176 8.51562 127.656 8.32422C127.137 8.13281 126.59 8.03711 126.016 8.03711C125.482 8.03711 124.97 8.13281 124.478 8.32422C123.999 8.50195 123.534 8.81641 123.083 9.26758C122.659 9.70508 122.311 10.2793 122.037 10.9902C121.777 11.7012 121.647 12.5488 121.647 13.5332C121.647 14.4902 121.791 15.2969 122.078 15.9531C122.365 16.5957 122.762 17.1084 123.268 17.4912C123.746 17.8604 124.307 18.1201 124.949 18.2705C125.605 18.4209 126.316 18.4961 127.082 18.4961C127.697 18.4961 128.367 18.4209 129.092 18.2705C129.816 18.1064 130.377 17.9424 130.773 17.7783C130.773 17.6279 130.78 17.416 130.794 17.1426C130.821 16.8555 130.835 16.4316 130.835 15.8711Z" fill="white"/>
<path d="M157.608 16.368H160.2C160.216 18.128 160.336 19.808 160.56 21.408C160.8 22.992 161.112 24.4 161.496 25.632C161.88 26.848 162.304 27.808 162.768 28.512C163.248 29.2 163.736 29.544 164.232 29.544C164.472 29.544 164.648 29.304 164.76 28.824C164.888 28.344 164.984 27.568 165.048 26.496C165.32 26.752 165.648 27 166.032 27.24C166.432 27.48 166.8 27.648 167.136 27.744C167.024 28.896 166.84 29.776 166.584 30.384C166.344 31.008 166.016 31.44 165.6 31.68C165.2 31.92 164.688 32.04 164.064 32.04C163.248 32.04 162.512 31.768 161.856 31.224C161.2 30.68 160.616 29.92 160.104 28.944C159.608 27.952 159.176 26.8 158.808 25.488C158.456 24.16 158.176 22.728 157.968 21.192C157.776 19.64 157.656 18.032 157.608 16.368ZM160.92 17.4L162.336 16.104C162.784 16.312 163.264 16.568 163.776 16.872C164.288 17.176 164.688 17.456 164.976 17.712L163.488 19.128C163.216 18.872 162.832 18.584 162.336 18.264C161.84 17.928 161.368 17.64 160.92 17.4ZM162.72 21.432L165.312 22.008C164.528 24.296 163.44 26.304 162.048 28.032C160.672 29.744 159.08 31.136 157.272 32.208C157.144 32.032 156.96 31.816 156.72 31.56C156.496 31.32 156.256 31.072 156 30.816C155.744 30.576 155.52 30.384 155.328 30.24C157.088 29.36 158.6 28.168 159.864 26.664C161.144 25.144 162.096 23.4 162.72 21.432ZM150.336 24.288L152.328 24.72C152.12 25.472 151.816 26.208 151.416 26.928C151.032 27.632 150.616 28.216 150.168 28.68C149.976 28.536 149.704 28.352 149.352 28.128C149 27.888 148.696 27.696 148.44 27.552C148.904 27.136 149.296 26.64 149.616 26.064C149.936 25.488 150.176 24.896 150.336 24.288ZM147.912 18.48H166.464V20.808H147.912V18.48ZM149.952 21.72H157.224V23.664H149.952V21.72ZM145.248 14.616H166.752V16.968H145.248V14.616ZM156.576 11.28H164.736V13.416H156.576V11.28ZM146.448 18.48H149.088V22.656C149.088 23.376 149.056 24.16 148.992 25.008C148.944 25.84 148.848 26.688 148.704 27.552C148.56 28.4 148.344 29.224 148.056 30.024C147.768 30.84 147.4 31.576 146.952 32.232C146.792 32.088 146.56 31.928 146.256 31.752C145.968 31.576 145.672 31.4 145.368 31.224C145.064 31.064 144.792 30.944 144.552 30.864C145.128 30.048 145.544 29.16 145.8 28.2C146.072 27.24 146.248 26.272 146.328 25.296C146.408 24.32 146.448 23.432 146.448 22.632V18.48ZM154.992 9.6H157.776V15.816H154.992V9.6ZM148.848 10.68H151.512V15.84H148.848V10.68ZM155.952 24.456L158.184 24.792C157.608 26.52 156.632 28.024 155.256 29.304C153.896 30.584 152.192 31.528 150.144 32.136C150.016 31.896 149.824 31.608 149.568 31.272C149.328 30.952 149.112 30.696 148.92 30.504C150.792 29.992 152.336 29.208 153.552 28.152C154.784 27.096 155.584 25.864 155.952 24.456ZM152.52 23.088H154.824V28.128H152.52V23.088Z" fill="white"/>
<line x1="190.5" x2="190.5" y2="75" stroke="white"/>
<line x1="0.5" x2="0.5" y2="75" stroke="white"/>
</svg>
