<svg width="191" height="75" viewBox="0 0 191 75" fill="none" xmlns="http://www.w3.org/2000/svg">
<path d="M44.24 9.06H61.82V11.24H44.24V9.06ZM43.9 23.78H62.12V25.96H43.9V23.78ZM46.66 18.92H51.88V25.04H49.58V20.96H46.66V18.92ZM45.24 13.68H51.88V15.72H47.6V20.96H45.24V13.68ZM51.88 10.06V14.62H49.58V10.06H51.88ZM53.96 10.14H56.28V14.7H53.96V10.14ZM53.96 13.68H60.76V20.96H58.32V15.7H53.96V13.68ZM53.96 18.92H59.6V20.96H56.28V25.1H53.96V18.92ZM64.08 18.54H81.98V20.72H64.08V18.54ZM71.78 9.74H74.32V26.8H71.78V9.74ZM71.12 19.6L73.1 20.46C72.4733 21.2867 71.7267 22.0733 70.86 22.82C70.0067 23.5667 69.0867 24.2333 68.1 24.82C67.1133 25.4067 66.1133 25.8867 65.1 26.26C64.98 26.06 64.82 25.8333 64.62 25.58C64.4333 25.34 64.24 25.1067 64.04 24.88C63.84 24.64 63.6467 24.4333 63.46 24.26C64.2067 24.0333 64.9467 23.76 65.68 23.44C66.4133 23.12 67.12 22.7533 67.8 22.34C68.48 21.9267 69.1 21.4933 69.66 21.04C70.2333 20.5733 70.72 20.0933 71.12 19.6ZM74.76 19.46C75.1733 19.94 75.6733 20.4133 76.26 20.88C76.8467 21.3333 77.4867 21.7667 78.18 22.18C78.8733 22.58 79.5933 22.9467 80.34 23.28C81.0867 23.6133 81.8267 23.8867 82.56 24.1C82.3867 24.26 82.1933 24.46 81.98 24.7C81.78 24.94 81.5867 25.1867 81.4 25.44C81.2133 25.6933 81.06 25.9267 80.94 26.14C80.1933 25.8467 79.4467 25.4933 78.7 25.08C77.9533 24.6667 77.2267 24.2067 76.52 23.7C75.8133 23.1933 75.1533 22.6533 74.54 22.08C73.9267 21.5067 73.38 20.9133 72.9 20.3L74.76 19.46ZM68.54 14.06V15.34H77.5V14.06H68.54ZM68.54 10.94V12.2H77.5V10.94H68.54ZM66.04 8.94H80.12V17.34H66.04V8.94ZM88.76 10.6H95.48V12.56H88.76V10.6ZM91.42 14.1H94.14V16.04H91.42V14.1ZM93.4 14.1H95.42C95.42 14.1 95.4133 14.2067 95.4 14.42C95.4 14.6333 95.4 14.8 95.4 14.92C95.36 16.2533 95.3133 17.3933 95.26 18.34C95.22 19.2867 95.1667 20.0667 95.1 20.68C95.0467 21.2933 94.98 21.78 94.9 22.14C94.82 22.4867 94.72 22.74 94.6 22.9C94.4267 23.14 94.2467 23.3133 94.06 23.42C93.8733 23.5133 93.6533 23.5867 93.4 23.64C93.2 23.68 92.9467 23.7067 92.64 23.72C92.3467 23.72 92.0267 23.72 91.68 23.72C91.6667 23.4267 91.6133 23.1 91.52 22.74C91.4267 22.3667 91.3133 22.0533 91.18 21.8C91.4333 21.8133 91.6533 21.8267 91.84 21.84C92.04 21.84 92.2067 21.84 92.34 21.84C92.4467 21.8533 92.54 21.84 92.62 21.8C92.7 21.76 92.7733 21.6867 92.84 21.58C92.9333 21.4467 93.0133 21.14 93.08 20.66C93.1467 20.18 93.2067 19.4467 93.26 18.46C93.3133 17.46 93.36 16.1267 93.4 14.46V14.1ZM96.44 10.02H102.36V12H96.44V10.02ZM95.72 17.08H102.32V18.98H95.72V17.08ZM96.28 13.18H100.68V14.92H96.28V13.18ZM97.1 7.9L99.08 8.46C98.88 9.11333 98.64 9.77333 98.36 10.44C98.0933 11.1067 97.8 11.7467 97.48 12.36C97.1733 12.96 96.86 13.4867 96.54 13.94C96.42 13.82 96.2533 13.68 96.04 13.52C95.84 13.36 95.6333 13.2 95.42 13.04C95.22 12.88 95.0467 12.7533 94.9 12.66C95.3533 12.06 95.7733 11.3333 96.16 10.48C96.56 9.62667 96.8733 8.76667 97.1 7.9ZM97.96 15.94H100V21.42C100 21.8733 99.9467 22.2533 99.84 22.56C99.7467 22.8533 99.5333 23.08 99.2 23.24C98.9067 23.4 98.5467 23.5 98.12 23.54C97.6933 23.5667 97.2 23.58 96.64 23.58C96.6 23.3 96.5133 22.9733 96.38 22.6C96.26 22.2267 96.1267 21.9 95.98 21.62C96.34 21.6333 96.68 21.64 97 21.64C97.3333 21.64 97.5533 21.6333 97.66 21.62C97.86 21.62 97.96 21.54 97.96 21.38V15.94ZM100.08 13.18H100.56L100.94 13.06L102.22 14.02C101.78 14.58 101.28 15.1467 100.72 15.72C100.16 16.2933 99.6133 16.78 99.08 17.18C98.9467 16.9933 98.7667 16.78 98.54 16.54C98.3133 16.2867 98.12 16.0867 97.96 15.94C98.3733 15.6333 98.7733 15.2467 99.16 14.78C99.56 14.3 99.8667 13.8867 100.08 13.54V13.18ZM90.32 11.52H92.22V14.3C92.22 14.94 92.1933 15.6467 92.14 16.42C92.0867 17.18 91.98 17.9667 91.82 18.78C91.6733 19.5933 91.44 20.38 91.12 21.14C90.8133 21.9 90.4067 22.6 89.9 23.24C89.7933 23.1067 89.6533 22.96 89.48 22.8C89.32 22.6267 89.1467 22.46 88.96 22.3C88.7733 22.1267 88.6067 21.9933 88.46 21.9C88.8733 21.34 89.2067 20.7333 89.46 20.08C89.7133 19.4133 89.9 18.74 90.02 18.06C90.14 17.3667 90.22 16.7 90.26 16.06C90.3 15.4067 90.32 14.8133 90.32 14.28V11.52ZM90.82 8.36L92.9 7.98C93.06 8.39333 93.22 8.84 93.38 9.32C93.54 9.8 93.6533 10.22 93.72 10.58L91.56 11.02C91.4933 10.6733 91.3867 10.2467 91.24 9.74C91.1067 9.23333 90.9667 8.77333 90.82 8.36ZM84.28 9.04L86.12 8.04C86.5333 8.52 86.9533 9.04667 87.38 9.62C87.8067 10.1933 88.1467 10.6867 88.4 11.1L86.48 12.28C86.3333 11.9867 86.1333 11.6533 85.88 11.28C85.64 10.9067 85.38 10.5267 85.1 10.14C84.82 9.74 84.5467 9.37333 84.28 9.04ZM83.84 12.68H88.06V14.58H83.84V12.68ZM87.9 21.36C88.2733 22.2533 88.7733 22.92 89.4 23.36C90.04 23.7867 90.82 24.0667 91.74 24.2C92.6733 24.32 93.7467 24.3867 94.96 24.4C95.6667 24.4 96.4733 24.3867 97.38 24.36C98.2867 24.3333 99.2 24.3 100.12 24.26C101.053 24.2067 101.9 24.14 102.66 24.06C102.553 24.22 102.447 24.4333 102.34 24.7C102.247 24.9667 102.16 25.24 102.08 25.52C102 25.8 101.94 26.0533 101.9 26.28C101.207 26.3067 100.467 26.3333 99.68 26.36C98.9067 26.4 98.1133 26.4267 97.3 26.44C96.5 26.4533 95.7067 26.46 94.92 26.46C93.7467 26.46 92.7067 26.4 91.8 26.28C90.8933 26.1733 90.0933 25.9667 89.4 25.66C88.72 25.3667 88.1267 24.9267 87.62 24.34C87.1133 23.7533 86.6733 22.9733 86.3 22L87.9 21.36ZM86.94 17.54H87.66L88.04 17.48L89.04 17.88C88.76 20.0667 88.2667 21.9133 87.56 23.42C86.8533 24.9133 85.98 26.06 84.94 26.86C84.8467 26.7 84.7 26.5133 84.5 26.3C84.3133 26.0867 84.12 25.88 83.92 25.68C83.72 25.4933 83.54 25.3533 83.38 25.26C84.34 24.58 85.12 23.6133 85.72 22.36C86.32 21.1067 86.7267 19.62 86.94 17.9V17.54ZM84.32 19.7V17.98L85.18 17.54H88.14L88.12 19.4H85.54C85.3133 19.4 85.0733 19.4267 84.82 19.48C84.5667 19.5333 84.4 19.6067 84.32 19.7ZM84.32 19.7C84.28 19.5267 84.2067 19.3133 84.1 19.06C84.0067 18.8067 83.9067 18.56 83.8 18.32C83.7067 18.0667 83.62 17.8733 83.54 17.74C83.7133 17.7 83.88 17.6333 84.04 17.54C84.2133 17.4467 84.3867 17.3 84.56 17.1C84.6933 16.9667 84.88 16.7267 85.12 16.38C85.3733 16.02 85.6467 15.62 85.94 15.18C86.2333 14.74 86.5067 14.3133 86.76 13.9C87.0133 13.4867 87.22 13.14 87.38 12.86V12.8L88 12.54L89.48 13.16C89.2667 13.5067 89.0067 13.9133 88.7 14.38C88.4067 14.8333 88.0933 15.3067 87.76 15.8C87.44 16.2933 87.12 16.7667 86.8 17.22C86.48 17.6733 86.1867 18.06 85.92 18.38C85.92 18.38 85.84 18.4267 85.68 18.52C85.52 18.6 85.3333 18.7067 85.12 18.84C84.9067 18.9733 84.72 19.12 84.56 19.28C84.4 19.4267 84.32 19.5667 84.32 19.7ZM105.42 10.42H109.14V12.28H105.42V10.42ZM108.76 10.42H110.46V24.38C110.46 24.86 110.413 25.2467 110.32 25.54C110.227 25.8333 110.047 26.06 109.78 26.22C109.513 26.3667 109.18 26.46 108.78 26.5C108.393 26.5533 107.92 26.58 107.36 26.58C107.333 26.3133 107.267 25.9933 107.16 25.62C107.053 25.2467 106.933 24.94 106.8 24.7C107.16 24.7133 107.5 24.72 107.82 24.72C108.14 24.72 108.36 24.72 108.48 24.72C108.667 24.7067 108.76 24.5867 108.76 24.36V10.42ZM104.66 10.42H106.32V17.96C106.32 18.6533 106.3 19.3933 106.26 20.18C106.233 20.9667 106.173 21.76 106.08 22.56C106 23.3467 105.867 24.1067 105.68 24.84C105.493 25.56 105.247 26.2133 104.94 26.8C104.767 26.64 104.52 26.4667 104.2 26.28C103.88 26.0933 103.607 25.9533 103.38 25.86C103.78 25.1267 104.067 24.3067 104.24 23.4C104.413 22.4933 104.527 21.5667 104.58 20.62C104.633 19.6733 104.66 18.78 104.66 17.94V10.42ZM106.72 7.96L108.96 8.36C108.76 8.94667 108.56 9.52 108.36 10.08C108.16 10.64 107.973 11.12 107.8 11.52L106.14 11.08C106.26 10.6267 106.373 10.1067 106.48 9.52C106.587 8.93333 106.667 8.41333 106.72 7.96ZM106.32 13.36L107.68 12.86C107.88 13.2867 108.067 13.7533 108.24 14.26C108.413 14.7667 108.547 15.2 108.64 15.56L107.2 16.12C107.133 15.76 107.013 15.32 106.84 14.8C106.667 14.28 106.493 13.8 106.32 13.36ZM106.26 19.52L107.62 19.04C107.82 19.4933 108.013 19.9933 108.2 20.54C108.4 21.0733 108.553 21.5333 108.66 21.92L107.24 22.5C107.147 22.1 107.007 21.62 106.82 21.06C106.633 20.5 106.447 19.9867 106.26 19.52ZM103.48 17.14C104.12 17.06 104.853 16.9667 105.68 16.86C106.52 16.7533 107.4 16.6333 108.32 16.5C109.24 16.3667 110.167 16.24 111.1 16.12L111.26 17.98C109.953 18.18 108.64 18.3867 107.32 18.6C106 18.8 104.813 18.9867 103.76 19.16L103.48 17.14ZM111 9.02H114.08V11.08H111V9.02ZM115.66 20.76H122.22V22.86H115.66V20.76ZM115.96 14.58H121.9V16.72H115.96V14.58ZM111.92 14.58H114.52V16.4H111.92V14.58ZM117.88 10.2H119.98V22.28H117.88V10.2ZM113.78 14.58H114.14L114.46 14.54L115.6 14.68C115.507 16.7733 115.313 18.6 115.02 20.16C114.727 21.7067 114.3 23.0267 113.74 24.12C113.193 25.2 112.473 26.1 111.58 26.82C111.447 26.5667 111.267 26.2867 111.04 25.98C110.827 25.6733 110.613 25.4267 110.4 25.24C111.133 24.7067 111.733 23.96 112.2 23C112.667 22.0267 113.027 20.86 113.28 19.5C113.547 18.1267 113.713 16.6 113.78 14.92V14.58ZM112.66 17.72C112.927 19.1333 113.267 20.28 113.68 21.16C114.107 22.0267 114.593 22.6933 115.14 23.16C115.687 23.6133 116.287 23.92 116.94 24.08C117.593 24.24 118.28 24.32 119 24.32C119.173 24.32 119.413 24.32 119.72 24.32C120.04 24.32 120.38 24.32 120.74 24.32C121.113 24.32 121.467 24.32 121.8 24.32C122.147 24.32 122.413 24.32 122.6 24.32C122.507 24.4667 122.413 24.6733 122.32 24.94C122.227 25.1933 122.147 25.4467 122.08 25.7C122.013 25.9667 121.967 26.2 121.94 26.4H121.28H118.88C117.933 26.4 117.053 26.2933 116.24 26.08C115.44 25.8667 114.713 25.4733 114.06 24.9C113.407 24.3133 112.827 23.48 112.32 22.4C111.827 21.32 111.42 19.92 111.1 18.2L112.66 17.72ZM120.6 8.32L122.16 9.9C121.587 10.14 120.947 10.36 120.24 10.56C119.547 10.7467 118.84 10.9067 118.12 11.04C117.4 11.1733 116.7 11.2867 116.02 11.38C115.98 11.14 115.893 10.86 115.76 10.54C115.64 10.22 115.52 9.94667 115.4 9.72C116.027 9.61333 116.66 9.48667 117.3 9.34C117.94 9.19333 118.547 9.03333 119.12 8.86C119.693 8.68667 120.187 8.50667 120.6 8.32ZM111.62 16.98C111.553 16.8467 111.46 16.6867 111.34 16.5C111.233 16.3 111.113 16.1 110.98 15.9C110.86 15.7 110.747 15.5467 110.64 15.44C110.827 15.3733 111.047 15.2133 111.3 14.96C111.553 14.6933 111.747 14.4067 111.88 14.1C111.987 13.9 112.14 13.5467 112.34 13.04C112.553 12.5333 112.773 11.94 113 11.26C113.227 10.58 113.407 9.89333 113.54 9.2V9.12L114.26 8.82L115.52 9.66C115.2 10.8067 114.813 11.9333 114.36 13.04C113.92 14.1467 113.48 15.1 113.04 15.9V15.94C113.04 15.94 112.967 15.9733 112.82 16.04C112.687 16.1067 112.52 16.1933 112.32 16.3C112.133 16.4067 111.967 16.52 111.82 16.64C111.687 16.76 111.62 16.8733 111.62 16.98ZM44.768 34.758H51.008V38.112H48.044V58.366H44.768V34.758ZM50.358 34.758H50.956L51.476 34.628L53.946 36.006C53.634 37.1153 53.296 38.294 52.932 39.542C52.568 40.7727 52.2127 41.882 51.866 42.87C52.5767 43.8753 53.0273 44.8287 53.218 45.73C53.426 46.614 53.53 47.4287 53.53 48.174C53.53 49.0927 53.4347 49.8467 53.244 50.436C53.0533 51.0253 52.7327 51.4933 52.282 51.84C52.0567 52.0133 51.814 52.152 51.554 52.256C51.294 52.3427 51.0167 52.412 50.722 52.464C50.4967 52.4987 50.2367 52.5247 49.942 52.542C49.6647 52.542 49.37 52.542 49.058 52.542C49.058 52.0913 48.9887 51.554 48.85 50.93C48.7113 50.306 48.5207 49.7687 48.278 49.318C48.4687 49.3353 48.6333 49.3527 48.772 49.37C48.928 49.37 49.0667 49.3613 49.188 49.344C49.448 49.344 49.6647 49.2833 49.838 49.162C49.9767 49.058 50.072 48.8847 50.124 48.642C50.1933 48.3993 50.228 48.096 50.228 47.732C50.228 47.16 50.1327 46.484 49.942 45.704C49.7687 44.924 49.3613 44.1093 48.72 43.26C48.876 42.688 49.032 42.0553 49.188 41.362C49.3613 40.6687 49.5173 39.9753 49.656 39.282C49.812 38.5713 49.9507 37.9127 50.072 37.306C50.1933 36.6993 50.2887 36.2053 50.358 35.824V34.758ZM56.104 34.758H66.426V47.056H56.104V43.832H62.76V37.982H56.104V34.758ZM56.39 39.36H64.84V42.376H56.39V39.36ZM61.85 45.158C62.1793 46.6313 62.6213 48.018 63.176 49.318C63.748 50.618 64.4673 51.7707 65.334 52.776C66.218 53.7813 67.2753 54.5787 68.506 55.168C68.2287 55.4107 67.9253 55.7227 67.596 56.104C67.284 56.4853 66.9807 56.8753 66.686 57.274C66.4087 57.69 66.1747 58.0713 65.984 58.418C64.6147 57.6033 63.4707 56.572 62.552 55.324C61.6333 54.076 60.8793 52.6373 60.29 51.008C59.7007 49.3787 59.2067 47.6107 58.808 45.704L61.85 45.158ZM65.49 46.978L67.934 49.656C67.466 50.0027 66.9893 50.3667 66.504 50.748C66.0187 51.112 65.542 51.4587 65.074 51.788C64.606 52.1 64.1727 52.3773 63.774 52.62L61.824 50.28C62.188 50.02 62.5953 49.708 63.046 49.344C63.4967 48.9627 63.9387 48.564 64.372 48.148C64.8053 47.732 65.178 47.342 65.49 46.978ZM54.622 58.574L54.284 55.324L55.74 54.18L61.2 53.088C61.1827 53.6253 61.1827 54.232 61.2 54.908C61.2347 55.5667 61.2867 56.104 61.356 56.52C60.108 56.8147 59.0853 57.066 58.288 57.274C57.4907 57.4993 56.8493 57.6813 56.364 57.82C55.896 57.976 55.532 58.1147 55.272 58.236C55.012 58.3573 54.7953 58.47 54.622 58.574ZM54.622 58.574C54.5353 58.2967 54.3967 57.9673 54.206 57.586C54.0327 57.222 53.842 56.858 53.634 56.494C53.426 56.1473 53.2267 55.87 53.036 55.662C53.348 55.4713 53.6513 55.168 53.946 54.752C54.2407 54.336 54.388 53.8073 54.388 53.166V34.758H58.08V55.246C58.08 55.246 57.9587 55.324 57.716 55.48C57.4907 55.6187 57.2047 55.8007 56.858 56.026C56.5287 56.2687 56.1907 56.5373 55.844 56.832C55.4973 57.1267 55.2027 57.4213 54.96 57.716C54.7347 58.028 54.622 58.314 54.622 58.574ZM74.98 41.752H88.916V45.34H74.98V41.752ZM82 47.81H90.788V51.346H82V47.81ZM80.024 43.728H83.976V55.948L80.024 55.48V43.728ZM73.914 46.068L77.762 46.432C77.4327 49.1013 76.852 51.4587 76.02 53.504C75.2053 55.5493 74.0527 57.2133 72.562 58.496C72.3713 58.2707 72.0853 57.9933 71.704 57.664C71.34 57.3347 70.9587 57.0053 70.56 56.676C70.1613 56.364 69.8147 56.1213 69.52 55.948C70.9067 54.96 71.938 53.608 72.614 51.892C73.29 50.176 73.7233 48.2347 73.914 46.068ZM77.164 49.214C77.5453 50.3233 78.0393 51.2247 78.646 51.918C79.2527 52.594 79.9547 53.1053 80.752 53.452C81.5493 53.7987 82.416 54.0327 83.352 54.154C84.3053 54.2753 85.3107 54.336 86.368 54.336C86.6973 54.336 87.1133 54.336 87.616 54.336C88.1187 54.336 88.6647 54.336 89.254 54.336C89.8607 54.336 90.4673 54.336 91.074 54.336C91.698 54.3187 92.2873 54.31 92.842 54.31C93.3967 54.2927 93.8733 54.2753 94.272 54.258C94.0987 54.5527 93.9167 54.934 93.726 55.402C93.5527 55.8527 93.3967 56.3207 93.258 56.806C93.1193 57.2913 93.0153 57.7247 92.946 58.106H91.594H86.16C84.6867 58.106 83.326 58.002 82.078 57.794C80.8473 57.586 79.7293 57.2047 78.724 56.65C77.736 56.0953 76.852 55.298 76.072 54.258C75.292 53.218 74.6247 51.866 74.07 50.202L77.164 49.214ZM70.664 36.422H93.362V43.442H89.462V39.984H74.382V43.442H70.664V36.422ZM79.374 34.498L83.17 33.432C83.482 34.0213 83.7767 34.6627 84.054 35.356C84.3487 36.0493 84.5567 36.6647 84.678 37.202L80.648 38.398C80.5787 37.8953 80.4227 37.28 80.18 36.552C79.9373 35.8067 79.6687 35.122 79.374 34.498ZM101.89 43.572V46.484H113.928V43.572H101.89ZM98.77 41.31H117.256V48.72H98.77V41.31ZM103.346 38.268H112.602V40.66H103.346V38.268ZM106.336 42.064H109.352V47.576H106.336V42.064ZM102.436 44.014L104.984 43.364C105.175 43.7973 105.339 44.2653 105.478 44.768C105.617 45.2707 105.703 45.704 105.738 46.068L103.034 46.822C103.017 46.4407 102.947 45.99 102.826 45.47C102.722 44.9327 102.592 44.4473 102.436 44.014ZM110.6 43.26L113.694 43.936C113.417 44.4907 113.165 45.0193 112.94 45.522C112.715 46.0247 112.507 46.4493 112.316 46.796L109.768 46.146C109.924 45.73 110.08 45.2533 110.236 44.716C110.409 44.1613 110.531 43.676 110.6 43.26ZM100.148 49.344H115.93V58.366H112.03V51.736H103.866V58.47H100.148V49.344ZM102.254 52.386H113.616V54.778H102.254V52.386ZM102.254 55.454H113.616V57.846H102.254V55.454ZM107.272 33.484L110.6 34.68C109.629 35.9107 108.442 37.0287 107.038 38.034C105.651 39.022 104.135 39.8973 102.488 40.66C100.841 41.4053 99.1513 42.0293 97.418 42.532C97.2967 42.272 97.1233 41.96 96.898 41.596C96.6727 41.232 96.43 40.868 96.17 40.504C95.91 40.14 95.676 39.8453 95.468 39.62C97.0973 39.256 98.666 38.788 100.174 38.216C101.682 37.6267 103.051 36.9333 104.282 36.136C105.513 35.3387 106.509 34.4547 107.272 33.484ZM109.846 34.836C110.418 35.356 111.103 35.85 111.9 36.318C112.715 36.786 113.607 37.2193 114.578 37.618C115.549 38.0167 116.571 38.372 117.646 38.684C118.721 38.9787 119.804 39.23 120.896 39.438C120.515 39.7673 120.09 40.218 119.622 40.79C119.154 41.362 118.79 41.8647 118.53 42.298C117.421 42.0207 116.32 41.674 115.228 41.258C114.153 40.8247 113.122 40.3393 112.134 39.802C111.146 39.2473 110.219 38.6493 109.352 38.008C108.503 37.3493 107.74 36.656 107.064 35.928L109.846 34.836ZM132.96 41.778H145.492V44.638H132.96V41.778ZM132.414 45.73H145.778V48.694H132.414V45.73ZM136.106 55.428H142.45V57.82H136.106V55.428ZM136.106 52.438H142.45V54.622H136.106V52.438ZM122.846 45.314H131.868V47.862H122.846V45.314ZM122.066 48.486H132.726V51.216H122.066V48.486ZM125.732 40.14H129.268V58.522H125.732V40.14ZM134.988 40.088H138.446V47.576H134.988V40.088ZM139.954 40.088H143.412V47.576H139.954V40.088ZM133.896 49.24H144.686V58.392H141.098V51.632H137.328V58.47H133.896V49.24ZM129.086 50.28C129.311 50.436 129.623 50.6787 130.022 51.008C130.421 51.32 130.845 51.6667 131.296 52.048C131.764 52.4293 132.18 52.7847 132.544 53.114C132.925 53.426 133.203 53.66 133.376 53.816L131.348 56.364C131.088 56.052 130.776 55.6967 130.412 55.298C130.065 54.882 129.684 54.466 129.268 54.05C128.869 53.6167 128.479 53.218 128.098 52.854C127.734 52.4727 127.413 52.152 127.136 51.892L129.086 50.28ZM126.096 49.24L128.41 50.618C128.029 51.4153 127.552 52.2473 126.98 53.114C126.425 53.9807 125.819 54.804 125.16 55.584C124.519 56.3467 123.877 57.014 123.236 57.586C123.063 57.1873 122.803 56.702 122.456 56.13C122.127 55.5753 121.806 55.1333 121.494 54.804C122.083 54.4053 122.664 53.9027 123.236 53.296C123.825 52.6893 124.371 52.0307 124.874 51.32C125.377 50.6093 125.784 49.916 126.096 49.24ZM130.906 41.336L132.804 43.754C131.885 43.9967 130.863 44.196 129.736 44.352C128.627 44.4907 127.483 44.5947 126.304 44.664C125.143 44.7333 124.033 44.768 122.976 44.768C122.941 44.4213 122.846 44.014 122.69 43.546C122.534 43.0607 122.378 42.6447 122.222 42.298C123.245 42.2633 124.285 42.2113 125.342 42.142C126.399 42.0553 127.413 41.9513 128.384 41.83C129.355 41.6913 130.195 41.5267 130.906 41.336ZM125.498 35.096H133.584V37.878H125.498V35.096ZM136.262 35.096H146.116V37.878H136.262V35.096ZM125.42 33.51L128.722 34.524C128.167 35.7373 127.457 36.9333 126.59 38.112C125.741 39.2733 124.874 40.2353 123.99 40.998C123.817 40.7727 123.583 40.4953 123.288 40.166C122.993 39.8367 122.69 39.5073 122.378 39.178C122.066 38.8487 121.789 38.5887 121.546 38.398C122.309 37.8087 123.037 37.0807 123.73 36.214C124.441 35.33 125.004 34.4287 125.42 33.51ZM136.21 33.51L139.642 34.394C139.209 35.538 138.645 36.656 137.952 37.748C137.259 38.8227 136.539 39.7153 135.794 40.426C135.586 40.218 135.309 39.9753 134.962 39.698C134.633 39.4033 134.286 39.126 133.922 38.866C133.575 38.5887 133.272 38.3633 133.012 38.19C133.705 37.6353 134.329 36.942 134.884 36.11C135.456 35.2607 135.898 34.394 136.21 33.51ZM127.24 38.424L129.606 36.604C130.005 36.9507 130.421 37.358 130.854 37.826C131.287 38.294 131.617 38.7013 131.842 39.048L129.346 41.05C129.155 40.686 128.852 40.2527 128.436 39.75C128.02 39.2473 127.621 38.8053 127.24 38.424ZM138.576 38.346L141.176 36.63C141.557 36.9593 141.947 37.3407 142.346 37.774C142.762 38.2073 143.083 38.5973 143.308 38.944L140.552 40.816C140.379 40.4693 140.093 40.062 139.694 39.594C139.313 39.126 138.94 38.71 138.576 38.346Z" fill="white"/>
<line x1="190.5" x2="190.5" y2="75" stroke="white"/>
<line x1="0.5" x2="0.5" y2="75" stroke="white"/>
</svg>
