<svg width="191" height="75" viewBox="0 0 191 75" fill="none" xmlns="http://www.w3.org/2000/svg">
<path d="M51.06 15.658V16.23H60.68V15.658H51.06ZM51.06 13.37V13.942H60.68V13.37H51.06ZM47.42 11.55H64.502V18.05H47.42V11.55ZM50.488 26.136V26.734H61.356V26.136H50.488ZM50.488 23.77V24.368H61.356V23.77H50.488ZM46.952 21.872H65.074V28.632H46.952V21.872ZM54.154 22.47H57.82V33.598H54.154V22.47ZM44.092 18.674H67.986V21.3H44.092V18.674ZM46.536 29.178H65.516V31.518H46.536V29.178ZM44.092 32.142H67.986V34.846H44.092V32.142ZM76.41 17.426H87.538V20.078H76.41V17.426ZM76.41 21.17H87.538V23.822H76.41V21.17ZM85.848 13.188H89.774V31.05C89.774 32.0553 89.6613 32.844 89.436 33.416C89.2107 34.0053 88.786 34.4647 88.162 34.794C87.538 35.106 86.7927 35.2967 85.926 35.366C85.0593 35.4527 84.0193 35.496 82.806 35.496C82.754 35.1147 82.6587 34.6813 82.52 34.196C82.3813 33.7107 82.2253 33.234 82.052 32.766C81.8787 32.2807 81.6967 31.8647 81.506 31.518C81.9567 31.5527 82.4333 31.5787 82.936 31.596C83.4387 31.596 83.8893 31.596 84.288 31.596C84.704 31.596 84.9987 31.596 85.172 31.596C85.4147 31.596 85.588 31.5527 85.692 31.466C85.796 31.3793 85.848 31.2233 85.848 30.998V13.188ZM70.222 25.33C71.6433 25.278 73.3073 25.2173 75.214 25.148C77.1207 25.0613 79.1487 24.966 81.298 24.862C83.4473 24.7407 85.5707 24.628 87.668 24.524L87.616 27.722C85.64 27.8953 83.638 28.0687 81.61 28.242C79.5993 28.398 77.658 28.5453 75.786 28.684C73.9313 28.8227 72.25 28.944 70.742 29.048L70.222 25.33ZM90.45 18.284L94.168 20.052C92.556 22.6 90.6233 24.8533 88.37 26.812C86.1167 28.7707 83.6293 30.452 80.908 31.856C78.204 33.2427 75.3527 34.3867 72.354 35.288C72.1807 34.976 71.938 34.6033 71.626 34.17C71.314 33.7367 70.9933 33.312 70.664 32.896C70.3347 32.4627 70.04 32.1073 69.78 31.83C72.8133 31.0847 75.6387 30.0967 78.256 28.866C80.8733 27.618 83.222 26.1187 85.302 24.368C87.382 22.6 89.098 20.572 90.45 18.284ZM80.102 10.692L84.782 11.134C84.3487 12.0007 83.8807 12.8413 83.378 13.656C82.8927 14.4533 82.4507 15.1293 82.052 15.684L78.672 15.06C78.9667 14.4013 79.244 13.6733 79.504 12.876C79.764 12.0787 79.9633 11.3507 80.102 10.692ZM73.966 13.188H87.096V16.412H77.762V27.124H73.966V13.188ZM95.78 23.666C96.6293 23.51 97.5913 23.3193 98.666 23.094C99.7407 22.8513 100.867 22.6 102.046 22.34C103.242 22.0627 104.421 21.794 105.582 21.534L106.05 25.148C104.473 25.5467 102.869 25.9453 101.24 26.344C99.6107 26.7427 98.12 27.1067 96.768 27.436L95.78 23.666ZM96.066 15.554H105.556V19.116H96.066V15.554ZM99.134 10.77H102.982V31.31C102.982 32.194 102.887 32.8873 102.696 33.39C102.505 33.8927 102.159 34.2913 101.656 34.586C101.153 34.8807 100.555 35.0713 99.862 35.158C99.1687 35.2447 98.3367 35.288 97.366 35.288C97.314 34.7853 97.184 34.1873 96.976 33.494C96.768 32.8007 96.5427 32.2113 96.3 31.726C96.7507 31.7433 97.21 31.7607 97.678 31.778C98.146 31.778 98.4667 31.778 98.64 31.778C98.9693 31.778 99.134 31.6133 99.134 31.284V10.77ZM106.128 12.616H120.298V16.412H106.128V12.616ZM112.29 13.994H116.398V30.738C116.398 31.7607 116.268 32.5667 116.008 33.156C115.748 33.7627 115.289 34.2307 114.63 34.56C113.971 34.8893 113.183 35.0973 112.264 35.184C111.363 35.2707 110.305 35.314 109.092 35.314C109.04 34.9153 108.927 34.4647 108.754 33.962C108.598 33.4593 108.416 32.9567 108.208 32.454C108 31.9513 107.792 31.5267 107.584 31.18C108.069 31.2147 108.581 31.2407 109.118 31.258C109.673 31.2753 110.175 31.284 110.626 31.284C111.077 31.284 111.389 31.284 111.562 31.284C111.822 31.284 112.004 31.2407 112.108 31.154C112.229 31.05 112.29 30.8853 112.29 30.66V13.994ZM132.83 13.526H144.66V16.698H132.83V13.526ZM129.814 18.232H145.752V21.378H129.814V18.232ZM132.31 10.978L135.69 11.732C135.291 13.032 134.763 14.2887 134.104 15.502C133.463 16.7153 132.787 17.7293 132.076 18.544C131.833 18.3707 131.521 18.18 131.14 17.972C130.776 17.7467 130.395 17.5387 129.996 17.348C129.615 17.14 129.285 16.9753 129.008 16.854C129.753 16.1433 130.412 15.268 130.984 14.228C131.556 13.1707 131.998 12.0873 132.31 10.978ZM135.95 10.77H139.694V20.364H135.95V10.77ZM122.534 12.486L125.316 10.744C125.749 11.1427 126.183 11.576 126.616 12.044C127.067 12.512 127.491 12.9713 127.89 13.422C128.289 13.8727 128.618 14.2713 128.878 14.618L126.018 16.724C125.775 16.3427 125.455 15.9093 125.056 15.424C124.675 14.9213 124.259 14.4187 123.808 13.916C123.375 13.396 122.95 12.9193 122.534 12.486ZM122.04 16.88H127.084V19.844H122.04V16.88ZM127.682 27.826C128.115 29.0047 128.713 29.88 129.476 30.452C130.256 31.0067 131.209 31.3707 132.336 31.544C133.48 31.7 134.789 31.7867 136.262 31.804C137.198 31.804 138.281 31.7867 139.512 31.752C140.743 31.7 141.991 31.6393 143.256 31.57C144.539 31.5007 145.7 31.414 146.74 31.31C146.567 31.5527 146.402 31.882 146.246 32.298C146.09 32.714 145.951 33.1387 145.83 33.572C145.709 34.0227 145.613 34.4213 145.544 34.768C144.591 34.82 143.594 34.8633 142.554 34.898C141.514 34.95 140.457 34.9847 139.382 35.002C138.307 35.0193 137.241 35.028 136.184 35.028C134.676 35.028 133.341 34.95 132.18 34.794C131.019 34.638 129.996 34.3433 129.112 33.91C128.245 33.494 127.483 32.8787 126.824 32.064C126.183 31.232 125.628 30.14 125.16 28.788L127.682 27.826ZM126.226 23.094H127.136L127.708 23.016L129.502 23.666C129.086 26.578 128.375 29.022 127.37 30.998C126.382 32.9567 125.143 34.4473 123.652 35.47C123.496 35.2273 123.271 34.9413 122.976 34.612C122.699 34.3 122.404 33.988 122.092 33.676C121.78 33.364 121.503 33.13 121.26 32.974C122.612 32.1247 123.704 30.9113 124.536 29.334C125.385 27.7567 125.949 25.8587 126.226 23.64V23.094ZM122.586 26.396V23.744L123.808 23.094H127.136V25.98H124.172C123.895 25.98 123.591 26.0233 123.262 26.11C122.933 26.1793 122.707 26.2747 122.586 26.396ZM122.586 26.396C122.534 26.136 122.43 25.824 122.274 25.46C122.135 25.0787 121.988 24.706 121.832 24.342C121.693 23.978 121.563 23.692 121.442 23.484C121.667 23.4147 121.884 23.3193 122.092 23.198C122.317 23.0767 122.543 22.8773 122.768 22.6C122.924 22.4267 123.149 22.1233 123.444 21.69C123.756 21.2393 124.085 20.7367 124.432 20.182C124.779 19.6273 125.108 19.09 125.42 18.57C125.732 18.0327 125.983 17.582 126.174 17.218L126.148 17.114L127.058 16.776L129.294 17.634C129.034 18.0847 128.722 18.6133 128.358 19.22C128.011 19.8093 127.639 20.4247 127.24 21.066C126.841 21.7073 126.443 22.3227 126.044 22.912C125.663 23.5013 125.307 24.004 124.978 24.42C124.978 24.42 124.857 24.4893 124.614 24.628C124.371 24.7493 124.094 24.914 123.782 25.122C123.47 25.33 123.193 25.5467 122.95 25.772C122.707 25.9973 122.586 26.2053 122.586 26.396ZM135.04 25.408V27.462H140.682V25.408H135.04ZM131.426 22.47H144.504V30.4H131.426V22.47ZM69.16 54.1L71.38 53.3C71.7 54.0333 72.0133 54.8067 72.32 55.62C72.64 56.4333 72.94 57.2533 73.22 58.08C73.5133 58.8933 73.7733 59.6733 74 60.42C74.2267 61.1667 74.4 61.84 74.52 62.44L72.06 63.44C71.9533 62.84 71.8 62.16 71.6 61.4C71.4 60.64 71.1667 59.84 70.9 59C70.6333 58.16 70.3467 57.3267 70.04 56.5C69.7467 55.66 69.4533 54.86 69.16 54.1ZM63.7 62.76C63.66 62.6 63.5933 62.38 63.5 62.1C63.4067 61.82 63.3 61.5267 63.18 61.22C63.0733 60.9133 62.9733 60.6467 62.88 60.42C63.1867 60.3 63.4467 60.0267 63.66 59.6C63.8867 59.1733 64.14 58.5667 64.42 57.78C64.54 57.4867 64.6867 57.04 64.86 56.44C65.0467 55.84 65.2533 55.1333 65.48 54.32C65.7067 53.4933 65.9333 52.6 66.16 51.64C66.4 50.68 66.62 49.6867 66.82 48.66C67.0333 47.62 67.22 46.5933 67.38 45.58L69.96 46.06C69.72 47.42 69.4467 48.7867 69.14 50.16C68.8467 51.52 68.52 52.8533 68.16 54.16C67.8 55.4667 67.4267 56.7267 67.04 57.94C66.6533 59.14 66.2733 60.26 65.9 61.3V61.34C65.9 61.34 65.82 61.3733 65.66 61.44C65.5133 61.5067 65.3333 61.6 65.12 61.72C64.9067 61.8267 64.6867 61.94 64.46 62.06C64.2467 62.1933 64.0667 62.32 63.92 62.44C63.7733 62.56 63.7 62.6667 63.7 62.76ZM63.7 62.76L63.58 60.66L64.82 59.88L72.42 58.84C72.4467 59.1733 72.5 59.5533 72.58 59.98C72.6733 60.4067 72.7533 60.7533 72.82 61.02C71.3667 61.2467 70.14 61.4467 69.14 61.62C68.14 61.78 67.32 61.9133 66.68 62.02C66.04 62.14 65.5267 62.24 65.14 62.32C64.7533 62.4 64.4533 62.4733 64.24 62.54C64.0267 62.6067 63.8467 62.68 63.7 62.76ZM59.24 46.88H61.56V63.78H59.24V46.88ZM56.02 50.64H64.54V52.86H56.02V50.64ZM59.36 51.54L60.82 52.22C60.5933 52.94 60.32 53.6933 60 54.48C59.6933 55.2533 59.3533 56.0133 58.98 56.76C58.62 57.5067 58.2333 58.2133 57.82 58.88C57.42 59.5467 57 60.12 56.56 60.6C56.44 60.2533 56.26 59.8533 56.02 59.4C55.78 58.9467 55.5667 58.5667 55.38 58.26C55.78 57.86 56.1733 57.3933 56.56 56.86C56.9467 56.3267 57.32 55.7533 57.68 55.14C58.04 54.5267 58.36 53.9133 58.64 53.3C58.9333 52.6733 59.1733 52.0867 59.36 51.54ZM63.34 45.18L64.6 47.18C63.84 47.4333 63 47.66 62.08 47.86C61.1733 48.06 60.2467 48.24 59.3 48.4C58.3667 48.5467 57.4533 48.6667 56.56 48.76C56.52 48.4933 56.4333 48.18 56.3 47.82C56.18 47.46 56.06 47.1533 55.94 46.9C56.8067 46.78 57.6867 46.6333 58.58 46.46C59.4733 46.2867 60.3333 46.0933 61.16 45.88C61.9867 45.6533 62.7133 45.42 63.34 45.18ZM61.54 52.96C61.6467 53.0533 61.8067 53.2 62.02 53.4C62.2333 53.6 62.46 53.8267 62.7 54.08C62.9533 54.32 63.2 54.56 63.44 54.8C63.68 55.04 63.8933 55.26 64.08 55.46C64.28 55.66 64.42 55.8133 64.5 55.92L63.12 57.9C62.9867 57.6467 62.8067 57.34 62.58 56.98C62.3533 56.62 62.1067 56.2533 61.84 55.88C61.5867 55.4933 61.34 55.1333 61.1 54.8C60.86 54.4667 60.6467 54.1867 60.46 53.96L61.54 52.96ZM84.9 54.14L87.3 53.7C87.5 54.02 87.68 54.3867 87.84 54.8C88.0133 55.2133 88.14 55.5733 88.22 55.88L85.72 56.42C85.68 56.1133 85.58 55.7467 85.42 55.32C85.26 54.88 85.0867 54.4867 84.9 54.14ZM78.9 55.14H94.1V57.02H78.9V55.14ZM84.44 58.08H90.4V59.9H84.44V58.08ZM89.78 58.08H92.16C92.16 58.08 92.1533 58.1867 92.14 58.4C92.14 58.6 92.1267 58.7667 92.1 58.9C92.0467 59.7267 91.9733 60.42 91.88 60.98C91.7867 61.54 91.68 61.9867 91.56 62.32C91.44 62.6533 91.2933 62.9133 91.12 63.1C90.8933 63.3133 90.6467 63.4667 90.38 63.56C90.1267 63.6533 89.8333 63.7067 89.5 63.72C89.2333 63.76 88.86 63.78 88.38 63.78C87.9133 63.78 87.4133 63.7733 86.88 63.76C86.8667 63.4533 86.8 63.1133 86.68 62.74C86.5733 62.3667 86.4267 62.0467 86.24 61.78C86.6933 61.82 87.12 61.8467 87.52 61.86C87.9333 61.8733 88.24 61.88 88.44 61.88C88.6 61.88 88.7333 61.8667 88.84 61.84C88.9467 61.8133 89.0467 61.7667 89.14 61.7C89.2867 61.5533 89.4067 61.2267 89.5 60.72C89.6067 60.2 89.7 59.4067 89.78 58.34V58.08ZM83.58 55.98H85.98C85.8867 56.9133 85.74 57.78 85.54 58.58C85.34 59.3667 85.0267 60.0867 84.6 60.74C84.1867 61.3933 83.6067 61.9733 82.86 62.48C82.1133 63 81.14 63.44 79.94 63.8C79.8733 63.6133 79.7667 63.4 79.62 63.16C79.4733 62.9333 79.3133 62.7067 79.14 62.48C78.9667 62.2533 78.7933 62.0667 78.62 61.92C79.66 61.6533 80.4933 61.3267 81.12 60.94C81.7467 60.5533 82.22 60.1133 82.54 59.62C82.8733 59.1133 83.1133 58.56 83.26 57.96C83.4067 57.3467 83.5133 56.6867 83.58 55.98ZM79.26 48.92H92.9V53.76H79.26V51.94H90.54V50.76H79.26V48.92ZM90.82 45.04L92.64 46.82C91.6533 47.0333 90.58 47.2267 89.42 47.4C88.2733 47.5733 87.08 47.7267 85.84 47.86C84.6133 47.9933 83.38 48.1067 82.14 48.2C80.9 48.28 79.6933 48.3467 78.52 48.4C78.48 48.1333 78.3933 47.8133 78.26 47.44C78.14 47.0667 78.0267 46.76 77.92 46.52C79.0667 46.4533 80.2333 46.3733 81.42 46.28C82.62 46.1867 83.7867 46.08 84.92 45.96C86.0667 45.8267 87.14 45.6867 88.14 45.54C89.1533 45.3933 90.0467 45.2267 90.82 45.04ZM77.9 46.52H80.28V53.08C80.28 53.88 80.24 54.7667 80.16 55.74C80.0933 56.7 79.9533 57.68 79.74 58.68C79.5267 59.68 79.22 60.64 78.82 61.56C78.4333 62.48 77.92 63.3 77.28 64.02C77.1733 63.86 77.0067 63.66 76.78 63.42C76.5667 63.1933 76.3467 62.9667 76.12 62.74C75.8933 62.5133 75.7067 62.3533 75.56 62.26C76.0933 61.62 76.52 60.92 76.84 60.16C77.16 59.3867 77.3933 58.5933 77.54 57.78C77.6867 56.9667 77.78 56.16 77.82 55.36C77.8733 54.5467 77.9 53.78 77.9 53.06V46.52ZM105.64 52.48H112.18V54.76H105.64V52.48ZM104.7 52.48H107.12V60.3C107.12 60.7267 107.187 61 107.32 61.12C107.453 61.24 107.76 61.3 108.24 61.3C108.36 61.3 108.54 61.3 108.78 61.3C109.033 61.3 109.307 61.3 109.6 61.3C109.907 61.3 110.187 61.3 110.44 61.3C110.707 61.3 110.913 61.3 111.06 61.3C111.367 61.3 111.593 61.2267 111.74 61.08C111.9 60.92 112.013 60.6267 112.08 60.2C112.147 59.7733 112.2 59.14 112.24 58.3C112.427 58.42 112.647 58.5467 112.9 58.68C113.153 58.8133 113.42 58.9333 113.7 59.04C113.98 59.1333 114.233 59.2067 114.46 59.26C114.367 60.3667 114.213 61.2333 114 61.86C113.787 62.4733 113.46 62.9067 113.02 63.16C112.593 63.4267 111.993 63.56 111.22 63.56C111.113 63.56 110.947 63.56 110.72 63.56C110.507 63.56 110.26 63.56 109.98 63.56C109.713 63.56 109.44 63.56 109.16 63.56C108.893 63.56 108.647 63.56 108.42 63.56C108.207 63.56 108.047 63.56 107.94 63.56C107.113 63.56 106.46 63.4667 105.98 63.28C105.513 63.0933 105.18 62.76 104.98 62.28C104.793 61.8133 104.7 61.16 104.7 60.32V52.48ZM104.64 46H113.32V55.76H110.92V48.28H104.64V46ZM96.62 50.98H103V52.76H96.62V50.98ZM96.22 53.86H103.32V55.68H96.22V53.86ZM95.62 48.02H103.98V49.9H95.62V48.02ZM97.68 56.7H102.98V62.86H97.68V60.94H100.86V58.6H97.68V56.7ZM96.52 56.7H98.6V63.64H96.52V56.7ZM97.8 45.8L99.7 44.86C100.033 45.22 100.34 45.6333 100.62 46.1C100.913 46.5667 101.127 46.9733 101.26 47.32L99.26 48.4C99.14 48.04 98.94 47.6133 98.66 47.12C98.38 46.6267 98.0933 46.1867 97.8 45.8ZM123.84 58.98H125.9V61.26C125.9 61.5 125.947 61.6533 126.04 61.72C126.147 61.7733 126.387 61.8 126.76 61.8C126.84 61.8 126.98 61.8 127.18 61.8C127.393 61.8 127.62 61.8 127.86 61.8C128.1 61.8 128.327 61.8 128.54 61.8C128.753 61.8 128.913 61.8 129.02 61.8C129.22 61.8 129.367 61.7667 129.46 61.7C129.567 61.62 129.647 61.4667 129.7 61.24C129.753 61.0133 129.787 60.6667 129.8 60.2C130.013 60.3467 130.293 60.4867 130.64 60.62C131 60.7533 131.32 60.8467 131.6 60.9C131.533 61.6067 131.413 62.1533 131.24 62.54C131.08 62.9267 130.84 63.1933 130.52 63.34C130.2 63.4867 129.773 63.56 129.24 63.56C129.16 63.56 129.027 63.56 128.84 63.56C128.653 63.56 128.447 63.56 128.22 63.56C127.993 63.56 127.76 63.56 127.52 63.56C127.293 63.56 127.087 63.56 126.9 63.56C126.713 63.56 126.58 63.56 126.5 63.56C125.793 63.56 125.247 63.4867 124.86 63.34C124.473 63.2067 124.207 62.9733 124.06 62.64C123.913 62.3067 123.84 61.8467 123.84 61.26V58.98ZM121.9 58.72L123.64 59.54C123.507 59.8867 123.353 60.28 123.18 60.72C123.02 61.1467 122.853 61.58 122.68 62.02C122.52 62.46 122.367 62.8667 122.22 63.24L120.36 62.32C120.547 61.9867 120.733 61.6133 120.92 61.2C121.107 60.7733 121.287 60.3467 121.46 59.92C121.633 59.48 121.78 59.08 121.9 58.72ZM125.86 58.56L127.3 57.48C127.607 57.72 127.92 57.9933 128.24 58.3C128.573 58.5933 128.887 58.88 129.18 59.16C129.473 59.44 129.713 59.6867 129.9 59.9L128.42 61.16C128.233 60.9333 127.993 60.6667 127.7 60.36C127.407 60.04 127.1 59.72 126.78 59.4C126.46 59.08 126.153 58.8 125.86 58.56ZM130.6 59.18L132.34 58.42C132.607 58.7933 132.873 59.2 133.14 59.64C133.407 60.0667 133.653 60.4867 133.88 60.9C134.12 61.3 134.313 61.6667 134.46 62L132.66 62.9C132.527 62.5667 132.34 62.1867 132.1 61.76C131.873 61.3333 131.627 60.8933 131.36 60.44C131.107 59.9867 130.853 59.5667 130.6 59.18ZM126.36 45.26L128.42 44.94C128.58 45.2733 128.74 45.64 128.9 46.04C129.06 46.4267 129.18 46.7533 129.26 47.02L127.08 47.4C127.027 47.1333 126.927 46.7933 126.78 46.38C126.647 45.9667 126.507 45.5933 126.36 45.26ZM117.82 45H119.88V63.78H117.82V45ZM116.18 48.96L117.8 49.18C117.787 49.7267 117.747 50.34 117.68 51.02C117.613 51.6867 117.527 52.3533 117.42 53.02C117.313 53.6733 117.187 54.26 117.04 54.78L115.36 54.22C115.493 53.7533 115.613 53.22 115.72 52.62C115.84 52.0067 115.94 51.38 116.02 50.74C116.1 50.1 116.153 49.5067 116.18 48.96ZM119.44 48.82L120.92 48.32C121.08 48.7467 121.24 49.2067 121.4 49.7C121.573 50.18 121.727 50.6467 121.86 51.1C121.993 51.5533 122.093 51.9533 122.16 52.3L120.56 52.92C120.507 52.5733 120.42 52.1667 120.3 51.7C120.18 51.2333 120.047 50.7467 119.9 50.24C119.753 49.7333 119.6 49.26 119.44 48.82ZM122.28 46.34H133.46V48.14H122.28V46.34ZM121.82 49.82H134.06V51.68H121.82V49.82ZM123.92 48.58L125.78 48.1C125.887 48.34 125.993 48.6 126.1 48.88C126.22 49.1467 126.307 49.3867 126.36 49.6L124.42 50.16C124.38 49.9467 124.307 49.6933 124.2 49.4C124.107 49.0933 124.013 48.82 123.92 48.58ZM129.66 48.02L131.78 48.5C131.54 48.94 131.313 49.36 131.1 49.76C130.887 50.1467 130.68 50.4867 130.48 50.78L128.68 50.3C128.853 49.98 129.033 49.6067 129.22 49.18C129.42 48.74 129.567 48.3533 129.66 48.02ZM124.82 55.92V56.68H130.68V55.92H124.82ZM124.82 53.84V54.56H130.68V53.84H124.82ZM122.64 52.4H132.94V58.12H122.64V52.4Z" fill="white"/>
<line x1="190.5" x2="190.5" y2="75" stroke="white"/>
<line x1="0.5" x2="0.5" y2="75" stroke="white"/>
</svg>
