<svg width="191" height="75" viewBox="0 0 191 75" fill="none" xmlns="http://www.w3.org/2000/svg">
<path d="M34.524 25.798H51.398V29.048H34.524V25.798ZM35.85 20.078H50.02V23.38H35.85V20.078ZM31.976 31.544H54.232V34.898H31.976V31.544ZM40.92 21.586H44.924V33.416H40.92V21.586ZM35.486 11.628H44.742V15.112H35.486V11.628ZM40.894 11.628H45.002C45.5393 12.408 46.1807 13.1793 46.926 13.942C47.6887 14.7047 48.5293 15.4327 49.448 16.126C50.384 16.8193 51.3807 17.452 52.438 18.024C53.5127 18.596 54.622 19.0813 55.766 19.48C55.506 19.74 55.2113 20.078 54.882 20.494C54.57 20.91 54.2667 21.3347 53.972 21.768C53.6773 22.2013 53.4347 22.6 53.244 22.964C51.6667 22.2187 50.1673 21.3433 48.746 20.338C47.3247 19.3153 46.0247 18.232 44.846 17.088C43.6847 15.9267 42.6707 14.7827 41.804 13.656H40.894V11.628ZM41.466 11.628L44.222 13.526C43.5807 14.4273 42.8093 15.3287 41.908 16.23C41.024 17.114 40.062 17.972 39.022 18.804C37.9993 19.6187 36.942 20.3813 35.85 21.092C34.7753 21.7853 33.7093 22.3833 32.652 22.886C32.392 22.418 32.0453 21.8893 31.612 21.3C31.1787 20.7107 30.754 20.2167 30.338 19.818C31.3953 19.4193 32.4613 18.9253 33.536 18.336C34.6107 17.7467 35.642 17.088 36.63 16.36C37.6353 15.6147 38.5453 14.8433 39.36 14.046C40.192 13.2313 40.894 12.4253 41.466 11.628ZM70.898 22.184C71.7127 24.5067 72.9953 26.4913 74.746 28.138C76.514 29.7673 78.8193 30.9373 81.662 31.648C81.3673 31.9253 81.0553 32.272 80.726 32.688C80.3967 33.104 80.0847 33.5287 79.79 33.962C79.4953 34.4127 79.2527 34.82 79.062 35.184C76.9993 34.5253 75.2227 33.6413 73.732 32.532C72.2587 31.4227 71.002 30.0793 69.962 28.502C68.9393 26.9073 68.064 25.096 67.336 23.068L70.898 22.184ZM58.626 12.356H79.348V16.256H58.626V12.356ZM57.612 20.104H80.336V24.004H57.612V20.104ZM66.764 13.682H70.768V18.7C70.768 19.7747 70.69 20.9187 70.534 22.132C70.378 23.3453 70.0747 24.576 69.624 25.824C69.1733 27.072 68.5147 28.2853 67.648 29.464C66.7813 30.6427 65.646 31.7347 64.242 32.74C62.8553 33.728 61.122 34.5773 59.042 35.288C58.886 34.976 58.6607 34.612 58.366 34.196C58.0887 33.78 57.7853 33.3727 57.456 32.974C57.144 32.5753 56.8493 32.2547 56.572 32.012C58.392 31.44 59.9087 30.7467 61.122 29.932C62.3527 29.1 63.3407 28.2073 64.086 27.254C64.8313 26.2833 65.3947 25.2953 65.776 24.29C66.1747 23.2847 66.4347 22.2967 66.556 21.326C66.6947 20.3553 66.764 19.4627 66.764 18.648V13.682ZM95.494 19.168L98.874 19.974C98.4927 21.1353 97.9987 22.2793 97.392 23.406C96.8027 24.5153 96.1787 25.4427 95.52 26.188C95.2947 25.9973 95 25.7807 94.636 25.538C94.2893 25.2953 93.934 25.0613 93.57 24.836C93.206 24.6107 92.8853 24.4287 92.608 24.29C93.232 23.666 93.7953 22.8947 94.298 21.976C94.818 21.0573 95.2167 20.1213 95.494 19.168ZM95.78 20.962H106.674V24.03H95.78V20.962ZM93.388 25.98H107.324V29.126H93.388V25.98ZM93.336 16.282H107.168V19.402H93.336V16.282ZM98.458 22.444H102.254V26.318C102.254 27.098 102.133 27.904 101.89 28.736C101.665 29.568 101.257 30.3913 100.668 31.206C100.079 32.0207 99.264 32.792 98.224 33.52C97.184 34.2653 95.8667 34.9327 94.272 35.522C94.012 35.1233 93.6393 34.6467 93.154 34.092C92.6687 33.5547 92.2093 33.1127 91.776 32.766C93.284 32.3327 94.48 31.8473 95.364 31.31C96.2653 30.7727 96.9327 30.218 97.366 29.646C97.8167 29.0567 98.1113 28.476 98.25 27.904C98.3887 27.3147 98.458 26.76 98.458 26.24V22.444ZM89.566 15.736H92.816V30.244H89.566V15.736ZM87.07 10.822L90.554 11.836C90.086 13.3613 89.5227 14.9213 88.864 16.516C88.2053 18.0933 87.4773 19.5927 86.68 21.014C85.8827 22.4353 85.042 23.6747 84.158 24.732C84.0713 24.42 83.924 24.004 83.716 23.484C83.508 22.9467 83.2827 22.418 83.04 21.898C82.7973 21.3607 82.572 20.9273 82.364 20.598C83.0227 19.7833 83.6467 18.856 84.236 17.816C84.8253 16.7587 85.3627 15.632 85.848 14.436C86.3333 13.24 86.7407 12.0353 87.07 10.822ZM85.068 18.336L88.552 14.852L88.656 14.904V35.444H85.068V18.336ZM94.402 11.784H102.852V14.852H94.402V11.784ZM102.02 11.784H102.41L102.982 11.654L105.608 11.94C105.504 13.0667 105.365 14.176 105.192 15.268C105.019 16.36 104.837 17.3653 104.646 18.284L101.162 17.92C101.283 17.2613 101.396 16.5767 101.5 15.866C101.621 15.1553 101.725 14.4793 101.812 13.838C101.899 13.1793 101.968 12.616 102.02 12.148V11.784ZM100.902 31.128L103.424 29.152C103.857 29.5507 104.343 29.9927 104.88 30.478C105.435 30.9633 105.972 31.44 106.492 31.908C107.012 32.376 107.437 32.792 107.766 33.156L105.088 35.392C104.793 35.028 104.403 34.5947 103.918 34.092C103.433 33.6067 102.921 33.104 102.384 32.584C101.847 32.0467 101.353 31.5613 100.902 31.128ZM122.248 26.994V28.112H128.176V26.994H122.248ZM119.18 24.836H131.374V30.296H119.18V24.836ZM121.364 17.764V18.674H129.06V17.764H121.364ZM121.364 14.852V15.762H129.06V14.852H121.364ZM118.374 12.72H132.18V20.832H118.374V12.72ZM117.516 21.534H132.986V24.16H117.516V21.534ZM117.334 32.35H133.272V35.08H117.334V32.35ZM121.858 10.77H124.718V14.046H121.858V10.77ZM125.732 10.77H128.618V14.046H125.732V10.77ZM122.404 13.37H124.718V20.156H122.404V13.37ZM125.732 13.37H128.046V20.156H125.732V13.37ZM127.162 29.88L130.516 30.79C130.117 31.362 129.736 31.9167 129.372 32.454C129.008 32.9913 128.687 33.442 128.41 33.806L126.018 32.974C126.226 32.5233 126.434 32.012 126.642 31.44C126.867 30.8507 127.041 30.3307 127.162 29.88ZM120.454 30.712L123.262 29.854C123.47 30.2873 123.669 30.7727 123.86 31.31C124.068 31.83 124.233 32.2807 124.354 32.662L121.416 33.65C121.347 33.2513 121.217 32.7747 121.026 32.22C120.835 31.6653 120.645 31.1627 120.454 30.712ZM109.118 15.06H115.774V18.44H109.118V15.06ZM111.614 24.55L115.02 20.39V35.444H111.614V24.55ZM114.864 21.326C115.055 21.482 115.332 21.742 115.696 22.106C116.06 22.4527 116.441 22.834 116.84 23.25C117.239 23.666 117.603 24.056 117.932 24.42C118.279 24.7667 118.521 25.018 118.66 25.174L116.372 28.32C116.147 27.9387 115.878 27.5227 115.566 27.072C115.271 26.604 114.959 26.136 114.63 25.668C114.301 25.1827 113.971 24.732 113.642 24.316C113.33 23.8827 113.053 23.51 112.81 23.198L114.864 21.326ZM114.734 15.06H115.462L116.086 14.93L118.01 16.308C117.49 17.9547 116.797 19.5493 115.93 21.092C115.081 22.6347 114.136 24.0387 113.096 25.304C112.056 26.552 110.99 27.592 109.898 28.424C109.829 28.0427 109.707 27.592 109.534 27.072C109.378 26.5347 109.205 26.0233 109.014 25.538C108.841 25.0353 108.685 24.6627 108.546 24.42C109.465 23.8307 110.331 23.068 111.146 22.132C111.978 21.196 112.706 20.1733 113.33 19.064C113.954 17.9547 114.422 16.8367 114.734 15.71V15.06ZM110.678 12.616L113.486 10.848C113.919 11.3333 114.335 11.888 114.734 12.512C115.133 13.1187 115.445 13.6647 115.67 14.15L112.758 16.152C112.567 15.6667 112.273 15.0947 111.874 14.436C111.475 13.76 111.077 13.1533 110.678 12.616ZM144.114 11.602L147.728 10.302C148.04 10.7873 148.361 11.342 148.69 11.966C149.037 12.5727 149.297 13.1013 149.47 13.552L145.622 15.008C145.501 14.5573 145.293 14.0113 144.998 13.37C144.703 12.7287 144.409 12.1393 144.114 11.602ZM136.054 12.408H158.076V17.764H154.514V15.424H139.434V17.764H136.054V12.408ZM139.98 16.022H153.916V18.57H139.98V16.022ZM145.284 16.854H148.586V20.52L145.284 21.82V16.854ZM141.072 18.076L144.166 18.986C143.577 19.7313 142.797 20.416 141.826 21.04C140.855 21.664 139.876 22.1667 138.888 22.548C138.732 22.34 138.515 22.0887 138.238 21.794C137.978 21.482 137.701 21.1787 137.406 20.884C137.129 20.5893 136.877 20.3553 136.652 20.182C137.536 19.9393 138.385 19.6447 139.2 19.298C140.015 18.934 140.639 18.5267 141.072 18.076ZM152.408 18.128L155.554 19.766C154.427 20.546 153.11 21.2133 151.602 21.768C150.111 22.3227 148.499 22.7907 146.766 23.172C145.05 23.536 143.291 23.8393 141.488 24.082C139.703 24.3073 137.961 24.4893 136.262 24.628C136.141 24.3507 135.976 24.0213 135.768 23.64C135.56 23.2587 135.335 22.8773 135.092 22.496C134.867 22.1147 134.659 21.8027 134.468 21.56C136.184 21.508 137.917 21.404 139.668 21.248C141.419 21.092 143.1 20.8753 144.712 20.598C146.324 20.3207 147.789 19.9827 149.106 19.584C150.441 19.168 151.541 18.6827 152.408 18.128ZM142.424 26.37V27.046H152.018V26.37H142.424ZM142.424 28.866V29.542H152.018V28.866H142.424ZM142.424 23.9V24.55H152.018V23.9H142.424ZM138.784 21.95H155.866V31.492H138.784V21.95ZM147.754 32.844L150.276 30.79C151.247 31.05 152.243 31.336 153.266 31.648C154.289 31.96 155.259 32.2633 156.178 32.558C157.114 32.8527 157.92 33.1213 158.596 33.364L155.216 35.496C154.661 35.2533 153.985 34.976 153.188 34.664C152.391 34.3693 151.524 34.0573 150.588 33.728C149.652 33.416 148.707 33.1213 147.754 32.844ZM143.49 30.738L146.454 32.818C145.726 33.2167 144.859 33.5893 143.854 33.936C142.866 34.3 141.826 34.612 140.734 34.872C139.642 35.132 138.585 35.34 137.562 35.496C137.285 35.1493 136.912 34.7247 136.444 34.222C135.993 33.7193 135.577 33.3033 135.196 32.974C136.219 32.8353 137.259 32.6533 138.316 32.428C139.373 32.1853 140.361 31.9167 141.28 31.622C142.199 31.3273 142.935 31.0327 143.49 30.738ZM39.42 48.5H50.48V49.82H39.42V48.5ZM39.14 56.84H50.74V58.14H39.14V56.84ZM41 58.74L42.52 58.02C42.7867 58.2733 43.0533 58.5667 43.32 58.9C43.6 59.22 43.8133 59.5067 43.96 59.76L42.36 60.56C42.24 60.3067 42.0467 60.0067 41.78 59.66C41.5267 59.3133 41.2667 59.0067 41 58.74ZM41.8 52.9V53.5H48.04V52.9H41.8ZM41.8 51.38V51.96H48.04V51.38H41.8ZM39.96 50.38H49.96V54.5H39.96V50.38ZM46.18 56.26H48.16V59.4C48.16 59.7867 48.1067 60.0667 48 60.24C47.9067 60.4 47.72 60.52 47.44 60.6C47.1733 60.68 46.8333 60.7333 46.42 60.76C46.02 60.7733 45.54 60.78 44.98 60.78C44.9267 60.5667 44.8533 60.3533 44.76 60.14C44.68 59.9267 44.5933 59.7333 44.5 59.56C44.78 59.5733 45.06 59.58 45.34 59.58C45.6333 59.58 45.8267 59.58 45.92 59.58C46.0267 59.58 46.0933 59.56 46.12 59.52C46.16 59.48 46.18 59.4133 46.18 59.32V56.26ZM39.48 55.14C40.2933 55.14 41.2267 55.1467 42.28 55.16C43.3467 55.16 44.4733 55.1533 45.66 55.14C46.8467 55.1267 48.0333 55.1133 49.22 55.1L49.18 56.16C48.02 56.2 46.86 56.24 45.7 56.28C44.5533 56.3067 43.4533 56.3333 42.4 56.36C41.36 56.3867 40.4067 56.4067 39.54 56.42L39.48 55.14ZM47.28 54.96L48.5 54.16C48.8867 54.4133 49.28 54.7267 49.68 55.1C50.08 55.46 50.3867 55.78 50.6 56.06L49.36 56.98C49.1333 56.6867 48.82 56.3467 48.42 55.96C48.02 55.56 47.64 55.2267 47.28 54.96ZM43.94 47.78H45.9V55.58L43.94 55.66V47.78ZM36.58 45.68H53.48V63.76H51.2V47.48H38.76V63.8H36.58V45.68ZM37.66 61H52.1V62.82H37.66V61ZM72.68 50.84L74.16 52.44C73.4267 52.9333 72.6267 53.4267 71.76 53.92C70.8933 54.4133 70.1067 54.8267 69.4 55.16L68.22 53.76C68.6733 53.5333 69.1733 53.2533 69.72 52.92C70.2667 52.5867 70.8 52.24 71.32 51.88C71.84 51.52 72.2933 51.1733 72.68 50.84ZM63.8 46.14L65.56 45.06C66.0267 45.4067 66.48 45.8067 66.92 46.26C67.36 46.7 67.7 47.1067 67.94 47.48L66.1 48.76C65.8733 48.3867 65.54 47.9533 65.1 47.46C64.6733 46.9533 64.24 46.5133 63.8 46.14ZM62.5 48.16H74.2V50.24H62.5V48.16ZM67.36 53.18L68.86 54.16C68.4733 54.5333 67.9933 54.9333 67.42 55.36C66.86 55.7733 66.2733 56.1667 65.66 56.54C65.06 56.9 64.4933 57.2133 63.96 57.48C63.8133 57.2267 63.62 56.9333 63.38 56.6C63.14 56.2667 62.9067 56 62.68 55.8C63.2 55.6133 63.7533 55.38 64.34 55.1C64.94 54.82 65.5067 54.5067 66.04 54.16C66.5733 53.8133 67.0133 53.4867 67.36 53.18ZM68.34 55.88L69.9 56.94C69.4067 57.4733 68.7867 58.0133 68.04 58.56C67.3067 59.0933 66.52 59.5933 65.68 60.06C64.8533 60.5133 64.06 60.8867 63.3 61.18C63.14 60.9133 62.9267 60.62 62.66 60.3C62.3933 59.98 62.1333 59.7133 61.88 59.5C62.6533 59.2867 63.4533 58.9867 64.28 58.6C65.1067 58.2133 65.8733 57.7867 66.58 57.32C67.3 56.84 67.8867 56.36 68.34 55.88ZM70.6 45.04L72.9 45.7C72.5267 46.2867 72.14 46.8667 71.74 47.44C71.34 48 70.98 48.4733 70.66 48.86L68.7 48.24C68.9267 47.9467 69.16 47.6133 69.4 47.24C69.64 46.8667 69.86 46.4867 70.06 46.1C70.2733 45.7133 70.4533 45.36 70.6 45.04ZM56.42 45.86H61.14V48.02H58.52V63.8H56.42V45.86ZM60.42 45.86H60.8L61.14 45.78L62.7 46.68C62.54 47.24 62.36 47.8467 62.16 48.5C61.96 49.1533 61.7533 49.7933 61.54 50.42C61.34 51.0467 61.1467 51.62 60.96 52.14C61.5733 52.9 61.9733 53.62 62.16 54.3C62.3467 54.98 62.44 55.6133 62.44 56.2C62.44 56.84 62.3667 57.3733 62.22 57.8C62.0867 58.2267 61.86 58.5533 61.54 58.78C61.38 58.8867 61.2 58.9733 61 59.04C60.8133 59.1067 60.6133 59.16 60.4 59.2C60.0267 59.24 59.5867 59.2533 59.08 59.24C59.0667 58.96 59.0133 58.62 58.92 58.22C58.84 57.82 58.72 57.48 58.56 57.2C58.7467 57.2133 58.9067 57.22 59.04 57.22C59.1867 57.22 59.32 57.22 59.44 57.22C59.68 57.2067 59.8667 57.1467 60 57.04C60.12 56.9467 60.2 56.8067 60.24 56.62C60.2933 56.42 60.32 56.18 60.32 55.9C60.32 55.4333 60.2267 54.9 60.04 54.3C59.8667 53.7 59.5 53.0667 58.94 52.4C59.0733 51.9467 59.2067 51.4533 59.34 50.92C59.4867 50.3733 59.6267 49.8267 59.76 49.28C59.9067 48.7333 60.0333 48.2267 60.14 47.76C60.26 47.28 60.3533 46.88 60.42 46.56V45.86ZM67.48 48.86L69.42 49.62C68.9267 50.22 68.3333 50.8067 67.64 51.38C66.96 51.94 66.24 52.4533 65.48 52.92C64.7333 53.3867 63.9933 53.7933 63.26 54.14C63.1667 54.0067 63.0333 53.8333 62.86 53.62C62.7 53.3933 62.5333 53.1733 62.36 52.96C62.1867 52.7467 62.0267 52.58 61.88 52.46C62.5867 52.1933 63.2867 51.88 63.98 51.52C64.6867 51.1467 65.34 50.7333 65.94 50.28C66.5533 49.8267 67.0667 49.3533 67.48 48.86ZM71.74 53.72C71.9533 54.4133 72.2267 55.12 72.56 55.84C72.8933 56.5467 73.2533 57.2133 73.64 57.84C74.04 58.4533 74.4333 58.98 74.82 59.42C74.58 59.6067 74.3067 59.8533 74 60.16C73.7067 60.4533 73.4733 60.7267 73.3 60.98C72.8733 60.4467 72.4467 59.82 72.02 59.1C71.6067 58.3667 71.22 57.5867 70.86 56.76C70.5 55.9333 70.2 55.1267 69.96 54.34L71.74 53.72ZM65.7 51.36L67.42 50.44C68.18 51.16 68.7933 51.98 69.26 52.9C69.7267 53.82 70.06 54.7733 70.26 55.76C70.4733 56.7467 70.5733 57.6933 70.56 58.6C70.56 59.4933 70.46 60.2867 70.26 60.98C70.06 61.6733 69.7933 62.1867 69.46 62.52C69.14 62.9067 68.7933 63.1733 68.42 63.32C68.0467 63.4667 67.6 63.5467 67.08 63.56C66.8667 63.56 66.6133 63.5533 66.32 63.54C66.0267 63.54 65.74 63.5333 65.46 63.52C65.4467 63.2133 65.3933 62.86 65.3 62.46C65.2067 62.06 65.0667 61.7 64.88 61.38C65.2133 61.42 65.54 61.4467 65.86 61.46C66.18 61.4733 66.4467 61.48 66.66 61.48C66.9 61.48 67.1 61.4467 67.26 61.38C67.4333 61.3 67.5933 61.1467 67.74 60.92C67.9267 60.7067 68.0733 60.34 68.18 59.82C68.3 59.3 68.3533 58.6867 68.34 57.98C68.3267 57.2733 68.2333 56.5267 68.06 55.74C67.8867 54.94 67.6067 54.16 67.22 53.4C66.8333 52.64 66.3267 51.96 65.7 51.36ZM85.12 46.32H94.2V47.86H85.12V46.32ZM88.04 48.66H93.58V49.98H88.04V48.66ZM86.72 51.08H94.04V52.4H86.72V51.08ZM89.44 49.64H91.5V51.8H89.44V49.64ZM88.18 44.92L89.96 45.18C89.6533 46.6333 89.1733 47.9267 88.52 49.06C87.8667 50.1933 87.04 51.1267 86.04 51.86C85.9733 51.74 85.8667 51.5933 85.72 51.42C85.5733 51.2333 85.42 51.0533 85.26 50.88C85.1133 50.7067 84.98 50.56 84.86 50.44C85.7267 49.8533 86.44 49.0867 87 48.14C87.56 47.18 87.9533 46.1067 88.18 44.92ZM91.64 53.02H93.42V59.36C93.42 59.76 93.3733 60.0667 93.28 60.28C93.2 60.4933 93.02 60.6667 92.74 60.8C92.4867 60.92 92.1667 60.9933 91.78 61.02C91.4067 61.0333 90.9533 61.04 90.42 61.04C90.3933 60.8133 90.3267 60.5667 90.22 60.3C90.1267 60.0333 90.0333 59.8 89.94 59.6C90.2467 59.6133 90.54 59.62 90.82 59.62C91.1 59.62 91.2867 59.62 91.38 59.62C91.5533 59.62 91.64 59.5333 91.64 59.36V53.02ZM87.32 53.02H92.58V54.38H87.32V53.02ZM86.52 53.02H88.26V55.72C88.26 56.2533 88.2267 56.8333 88.16 57.46C88.1067 58.0867 87.9867 58.7 87.8 59.3C87.6267 59.9 87.36 60.44 87 60.92C86.9067 60.8133 86.7667 60.6933 86.58 60.56C86.3933 60.4267 86.2 60.3 86 60.18C85.8133 60.06 85.6467 59.9733 85.5 59.92C85.8067 59.4933 86.0333 59.04 86.18 58.56C86.3267 58.0667 86.42 57.5733 86.46 57.08C86.5 56.5867 86.52 56.12 86.52 55.68V53.02ZM87.86 57.52C88.46 57.4267 89.1467 57.3067 89.92 57.16C90.7067 57.0133 91.5267 56.86 92.38 56.7L92.5 57.96C91.78 58.2 91.08 58.4267 90.4 58.64C89.72 58.84 89.0733 59.04 88.46 59.24L87.86 57.52ZM88.26 55.6L89.1 54.48C89.5267 54.68 89.96 54.8933 90.4 55.12C90.84 55.3467 91.1933 55.56 91.46 55.76L90.6 57.06C90.32 56.86 89.96 56.62 89.52 56.34C89.08 56.0467 88.66 55.8 88.26 55.6ZM76.3 45.8H80.68V47.94H78.2V63.74H76.3V45.8ZM80 45.8H80.34L80.62 45.72L81.96 46.48C81.7467 47.3067 81.5 48.2067 81.22 49.18C80.94 50.1533 80.6733 51.0333 80.42 51.82C80.9667 52.6467 81.32 53.4133 81.48 54.12C81.6533 54.8267 81.74 55.48 81.74 56.08C81.74 56.6933 81.68 57.22 81.56 57.66C81.44 58.0867 81.2333 58.4067 80.94 58.62C80.66 58.8333 80.3267 58.9733 79.94 59.04C79.7667 59.0533 79.58 59.0667 79.38 59.08C79.1933 59.08 78.9933 59.08 78.78 59.08C78.7667 58.8267 78.72 58.5333 78.64 58.2C78.5733 57.8533 78.4667 57.5533 78.32 57.3C78.48 57.3133 78.62 57.32 78.74 57.32C78.8733 57.32 79 57.32 79.12 57.32C79.3067 57.32 79.4667 57.2667 79.6 57.16C79.72 57.0533 79.8 56.8867 79.84 56.66C79.8933 56.42 79.92 56.1533 79.92 55.86C79.92 55.3533 79.84 54.78 79.68 54.14C79.52 53.4867 79.1867 52.7867 78.68 52.04C78.8533 51.4267 79.02 50.7667 79.18 50.06C79.3533 49.3533 79.5067 48.6733 79.64 48.02C79.7867 47.3533 79.9067 46.8067 80 46.38V45.8ZM81.88 45.9L83.66 45.36C83.9267 45.8533 84.1867 46.3933 84.44 46.98C84.7067 47.5533 84.9133 48.0533 85.06 48.48L83.2 49.1C83.08 48.66 82.8867 48.14 82.62 47.54C82.3667 46.94 82.12 46.3933 81.88 45.9ZM81.54 49.58H84.38V51.62H81.54V49.58ZM84.46 58.52C84.78 59.4 85.2 60.06 85.72 60.5C86.2533 60.9267 86.88 61.2067 87.6 61.34C88.32 61.4733 89.1133 61.54 89.98 61.54C90.42 61.54 90.9067 61.5333 91.44 61.52C91.9867 61.4933 92.5333 61.4667 93.08 61.44C93.6267 61.4133 94.1267 61.3733 94.58 61.32C94.4867 61.48 94.3933 61.6867 94.3 61.94C94.22 62.1933 94.1467 62.4467 94.08 62.7C94.0267 62.9533 93.98 63.18 93.94 63.38C93.3533 63.42 92.7 63.4467 91.98 63.46C91.2733 63.4867 90.58 63.5 89.9 63.5C88.7533 63.5 87.74 63.3867 86.86 63.16C85.98 62.9467 85.2267 62.5267 84.6 61.9C83.9733 61.26 83.4467 60.3267 83.02 59.1L84.46 58.52ZM83.8 54.32H84.58L84.92 54.26L85.72 54.62C85.44 56.8867 84.9533 58.7933 84.26 60.34C83.5667 61.8867 82.68 63.06 81.6 63.86C81.52 63.7133 81.3933 63.54 81.22 63.34C81.06 63.1533 80.8933 62.9667 80.72 62.78C80.5467 62.5933 80.3867 62.4533 80.24 62.36C81.2133 61.6667 82 60.6733 82.6 59.38C83.2 58.0867 83.6 56.5133 83.8 54.66V54.32ZM82.18 56.58V54.76L83.02 54.32H84.74V56.28H83.28C83.1067 56.28 82.9 56.3067 82.66 56.36C82.42 56.4133 82.26 56.4867 82.18 56.58ZM82.16 56.58C82.1333 56.42 82.0733 56.2333 81.98 56.02C81.9 55.8067 81.8133 55.5933 81.72 55.38C81.6267 55.1533 81.54 54.98 81.46 54.86C81.62 54.8067 81.76 54.7333 81.88 54.64C82 54.5467 82.12 54.4 82.24 54.2C82.32 54.0667 82.4267 53.8133 82.56 53.44C82.7067 53.0667 82.86 52.6467 83.02 52.18C83.18 51.7 83.3333 51.24 83.48 50.8C83.64 50.3467 83.76 49.98 83.84 49.7V49.64L84.34 49.44L85.68 49.78C85.56 50.14 85.4067 50.5667 85.22 51.06C85.0467 51.54 84.86 52.0533 84.66 52.6C84.46 53.1467 84.2667 53.6667 84.08 54.16C83.8933 54.64 83.72 55.0467 83.56 55.38C83.56 55.38 83.4867 55.42 83.34 55.5C83.2067 55.5667 83.0467 55.6667 82.86 55.8C82.6733 55.9333 82.5067 56.0667 82.36 56.2C82.2267 56.3333 82.16 56.46 82.16 56.58ZM103.54 51.14H113.78V53.22H103.54V51.14ZM102.9 47.14H114.34V49.24H102.9V47.14ZM102.94 54.78H114.24V56.88H102.94V54.78ZM107.42 44.98H109.8V52.34H107.42V44.98ZM109.96 52.98H112.32V61.26C112.32 61.8333 112.247 62.28 112.1 62.6C111.953 62.9333 111.687 63.1933 111.3 63.38C110.913 63.5533 110.44 63.66 109.88 63.7C109.333 63.7533 108.687 63.78 107.94 63.78C107.887 63.4467 107.787 63.06 107.64 62.62C107.493 62.1933 107.34 61.8267 107.18 61.52C107.673 61.5333 108.153 61.5467 108.62 61.56C109.087 61.56 109.4 61.56 109.56 61.56C109.707 61.56 109.807 61.54 109.86 61.5C109.927 61.4467 109.96 61.3467 109.96 61.2V52.98ZM103.74 58.24L105.72 57.14C105.987 57.46 106.273 57.82 106.58 58.22C106.9 58.6067 107.193 58.9933 107.46 59.38C107.74 59.7533 107.967 60.0867 108.14 60.38L106.02 61.62C105.873 61.3133 105.667 60.9667 105.4 60.58C105.147 60.1933 104.873 59.7933 104.58 59.38C104.287 58.9667 104.007 58.5867 103.74 58.24ZM97.4 46.24H102.54V59.92H97.4V57.78H100.32V48.38H97.4V46.24ZM97.52 51.92H101.4V54.02H97.52V51.92ZM96.26 46.24H98.48V61.7H96.26V46.24ZM120.2 49.42L122.28 50.3C121.8 51.1267 121.24 51.9533 120.6 52.78C119.96 53.6067 119.287 54.3933 118.58 55.14C117.873 55.8733 117.18 56.5133 116.5 57.06C116.447 56.8733 116.353 56.6267 116.22 56.32C116.087 56 115.94 55.68 115.78 55.36C115.62 55.04 115.487 54.7867 115.38 54.6C115.967 54.1733 116.553 53.6867 117.14 53.14C117.74 52.58 118.307 51.9867 118.84 51.36C119.373 50.72 119.827 50.0733 120.2 49.42ZM119.7 45.04L121.94 45.96C121.513 46.5733 121.013 47.1933 120.44 47.82C119.867 48.4333 119.26 49.0133 118.62 49.56C117.993 50.1067 117.367 50.5867 116.74 51C116.66 50.8133 116.547 50.5933 116.4 50.34C116.267 50.0867 116.127 49.8333 115.98 49.58C115.833 49.3267 115.7 49.12 115.58 48.96C116.1 48.64 116.62 48.26 117.14 47.82C117.673 47.38 118.167 46.92 118.62 46.44C119.073 45.9467 119.433 45.48 119.7 45.04ZM118.32 53.9L120.5 51.68L120.62 51.72V63.78H118.32V53.9ZM122.16 51.12H133.46V53.3H122.16V51.12ZM121.34 54.98H134.26V57.14H121.34V54.98ZM121.44 47.3H134.34V49.5H121.44V47.3ZM126.54 45.1H129V52.34H126.54V45.1ZM129.36 53.82H131.82V61.3C131.82 61.8867 131.74 62.34 131.58 62.66C131.433 62.9933 131.153 63.2467 130.74 63.42C130.34 63.5933 129.847 63.7 129.26 63.74C128.687 63.78 128.007 63.7933 127.22 63.78C127.167 63.46 127.067 63.0867 126.92 62.66C126.773 62.2333 126.62 61.86 126.46 61.54C126.793 61.5533 127.127 61.5667 127.46 61.58C127.807 61.5933 128.113 61.6 128.38 61.6C128.647 61.5867 128.827 61.58 128.92 61.58C129.093 61.58 129.207 61.56 129.26 61.52C129.327 61.4667 129.36 61.3733 129.36 61.24V53.82ZM122.5 58.4L124.5 57.36C124.767 57.6933 125.06 58.06 125.38 58.46C125.713 58.8467 126.02 59.2333 126.3 59.62C126.593 60.0067 126.827 60.3533 127 60.66L124.9 61.84C124.74 61.5333 124.527 61.1867 124.26 60.8C123.993 60.4 123.707 59.9867 123.4 59.56C123.093 59.1333 122.793 58.7467 122.5 58.4ZM140.62 50.2H149.22V52.36H140.62V50.2ZM138.3 53.52H143.9V60.74H138.3V58.66H141.64V55.6H138.3V53.52ZM145.44 53.54H151.24V55.66H147.8V63.82H145.44V53.54ZM150.56 53.54H152.88V59.02C152.88 59.5533 152.82 59.98 152.7 60.3C152.593 60.62 152.353 60.8733 151.98 61.06C151.647 61.2333 151.233 61.34 150.74 61.38C150.26 61.4067 149.687 61.42 149.02 61.42C148.993 61.1 148.913 60.74 148.78 60.34C148.66 59.9267 148.533 59.5667 148.4 59.26C148.787 59.2733 149.16 59.28 149.52 59.28C149.88 59.28 150.12 59.28 150.24 59.28C150.36 59.2667 150.44 59.24 150.48 59.2C150.533 59.16 150.56 59.0867 150.56 58.98V53.54ZM137.22 53.52H139.42V62.36H137.22V53.52ZM145.12 44.68L147.02 46.06C146.473 46.7667 145.813 47.4533 145.04 48.12C144.267 48.7733 143.42 49.3867 142.5 49.96C141.593 50.5333 140.653 51.0533 139.68 51.52C138.72 51.9733 137.753 52.3533 136.78 52.66C136.633 52.3 136.427 51.9067 136.16 51.48C135.907 51.04 135.647 50.6667 135.38 50.36C136.34 50.1467 137.293 49.8467 138.24 49.46C139.187 49.0733 140.093 48.6267 140.96 48.12C141.827 47.6133 142.613 47.0733 143.32 46.5C144.04 45.9133 144.64 45.3067 145.12 44.68ZM146.2 46.08C146.627 46.56 147.14 47.02 147.74 47.46C148.34 47.8867 149.007 48.2867 149.74 48.66C150.487 49.02 151.267 49.34 152.08 49.62C152.907 49.9 153.747 50.12 154.6 50.28C154.413 50.4667 154.207 50.6933 153.98 50.96C153.767 51.2267 153.56 51.5067 153.36 51.8C153.173 52.08 153.013 52.34 152.88 52.58C152 52.34 151.147 52.0333 150.32 51.66C149.493 51.2867 148.7 50.8533 147.94 50.36C147.193 49.8667 146.5 49.3333 145.86 48.76C145.22 48.1867 144.653 47.5733 144.16 46.92L146.2 46.08Z" fill="white"/>
<line x1="190.5" x2="190.5" y2="75" stroke="white"/>
<line x1="0.5" x2="0.5" y2="75" stroke="white"/>
</svg>
