<svg fill="#fff" xmlns="http://www.w3.org/2000/svg" version="1.1" xmlns:xlink="http://www.w3.org/1999/xlink" viewBox="0 0 567 385">
  <defs>  
<linearGradient id="gr1" x1="0" y1="0" x2="80" y2="30" gradientUnits="userSpaceOnUse">
<stop offset="0" stop-color="#fff0"/>
<stop offset=".5" stop-color="#fff"/>
<stop offset="1" stop-color="#fff0"/>
<animate attributeName="x1" values="-190;2000" dur="8s" repeatCount="indefinite"/>
<animate attributeName="x2" values="-100;2090" dur="8s" repeatCount="indefinite"/>
</linearGradient>
    <linearGradient id="r" x1="108.1" y1="142.5" x2="421" y2="30.2" gradientUnits="userSpaceOnUse">
      <stop offset="0" stop-color="#d3ad3d"/>
      <stop offset=".4" stop-color="#ce9f2f"/>
      <stop offset=".4" stop-color="#d2a840"/>
      <stop offset=".5" stop-color="#dec26e"/>
      <stop offset=".6" stop-color="#eee5ac"/>
      <stop offset=".8" stop-color="#c5a546"/>
      <stop offset="1" stop-color="#bc8c32"/>
    </linearGradient>
    <path id="logo" d="M221.7,124c0,.8,0,1.4,0,1.7,0,.2,0,.4.3.4.1,0,.3,0,.4,0s.1,0,.1,0c0,0,0,0-.2,0-.5,0-1,0-1.2,0s-.7,0-1,0-.2,0-.2,0,0,0,.1,0,.2,0,.3,0c.2,0,.2-.2.2-.4,0-.3,0-.9,0-1.7v-1.4c0-1.2,0-1.4,0-1.7,0-.3,0-.4-.4-.5,0,0-.2,0-.3,0s-.1,0-.1,0c0,0,0,0,.2,0h.6c.2,0,.4,0,.5,0h2.1c.1,0,.2,0,.3,0,0,0,0,0,.1,0s0,0,0,0c0,0,0,.2,0,.4,0,0,0,.6,0,.7,0,0,0,.1,0,.1s0,0,0-.1c0,0,0-.2,0-.3,0-.1-.2-.2-.5-.2h-1.2s0,0,0,0v2s0,0,0,0h1c.1,0,.2,0,.4,0,.2,0,.3,0,.4-.1,0,0,0,0,0,0s0,0,0,0,0,.2,0,.5c0,.2,0,.5,0,.6s0,.2,0,.2,0,0,0-.1,0-.2,0-.2c0-.1-.2-.3-.4-.3-.2,0-1.1,0-1.2,0s0,0,0,0v.7h0ZM225.6,123.3c0-1.4.9-3.2,3.3-3.2s3.2,1.2,3.2,3-1.3,3.3-3.3,3.3-3.2-1.7-3.2-3.2h0ZM231.1,123.4c0-1.8-1-2.9-2.4-2.9s-2,.5-2,2.5.9,3,2.5,3,1.9-.3,1.9-2.6ZM234.7,122.6c0-1.2,0-1.5,0-1.7,0-.3,0-.4-.4-.5,0,0-.2,0-.3,0s-.1,0-.1,0,0,0,.2,0c.4,0,.9,0,1.1,0,.3,0,.9,0,1.1,0,.5,0,1,0,1.5.3s.6.6.6,1.1-.2,1.1-1.1,1.8c.7.9,1.3,1.6,1.7,2.1.4.5.8.5.9.6,0,0,.2,0,.2,0s.1,0,.1,0c0,0,0,0-.2,0h-.8c-.4,0-.7,0-.9-.2-.4-.2-.7-.6-1.1-1.2-.3-.4-.7-1-.8-1.1,0,0,0,0-.1,0h-.7s0,0,0,0h0c0,.9,0,1.5,0,1.8,0,.2,0,.4.3.4.1,0,.3,0,.4,0s0,0,0,0c0,0,0,0-.2,0-.5,0-1.1,0-1.2,0s-.7,0-1,0-.2,0-.2,0,0,0,.1,0,.2,0,.3,0c.2,0,.2-.2.2-.4,0-.3,0-1,0-1.7v-1.4h0ZM235.6,123.2c0,0,0,.1,0,.1.2,0,.4,0,.6,0,.3,0,.4,0,.6-.1.2-.2.5-.5.5-1.2,0-1.1-.8-1.5-1.2-1.5s-.3,0-.4,0c0,0,0,0,0,.1v2.4h0ZM241.6,122.6c0-1.2,0-1.5,0-1.7,0-.3,0-.4-.4-.5,0,0-.2,0-.3,0s-.1,0-.1,0,0,0,.2,0h.6c.2,0,.4,0,.5,0h2c.1,0,.3,0,.3,0,0,0,0,0,.1,0s0,0,0,0c0,0,0,.2,0,.5,0,0,0,.4,0,.5,0,0,0,0,0,0s0,0,0-.1,0-.2,0-.3c0-.1-.1-.2-.5-.3-.1,0-1,0-1.1,0s0,0,0,0v2c0,0,0,0,0,0,.2,0,1.1,0,1.3,0,.2,0,.3,0,.4-.1s0,0,.1,0,0,0,0,0,0,.2,0,.6c0,.2,0,.5,0,.5s0,.2,0,.2,0,0,0,0c0,0,0-.2,0-.3,0-.2-.2-.3-.5-.3-.1,0-.9,0-1.1,0s0,0,0,0v1.9c0,.6.1.7,1,.7s.6,0,.8-.1c.2,0,.3-.3.4-.6,0,0,0-.1,0-.1s0,0,0,.1c0,.2,0,.7-.1.9,0,.2-.1.2-.4.2-.6,0-1,0-1.4,0-.3,0-.6,0-.8,0h-.5c-.2,0-.4,0-.6,0s-.2,0-.2,0,0,0,.1,0,.2,0,.3,0c.2,0,.2-.2.2-.4,0-.3,0-1,0-1.7v-1.4h0ZM247,126.2c-.1,0-.2,0-.2-.3,0-.4,0-.9,0-1.1,0-.1,0-.2,0-.2s0,0,0,.1c0,.1,0,.3,0,.4.2.6.6.8,1.1.8.7,0,1.1-.5,1.1-.9s-.1-.8-.8-1.3l-.4-.3c-.9-.7-1.2-1.2-1.2-1.9s.7-1.5,1.9-1.5.9,0,1.1.1c0,0,.1,0,.1,0,0,0,0,.3,0,1s0,.2,0,.2,0,0,0-.1,0-.3-.2-.5c-.1-.1-.4-.4-.9-.4s-1,.3-1,.8.2.7.8,1.2l.2.2c1,.7,1.3,1.3,1.3,2s-.2,1-.8,1.4c-.4.3-.9.3-1.3.3s-.8,0-1.2-.2h0ZM254,120.7h-1.2c-.5,0-.7,0-.8.3,0,.1-.1.2-.1.3,0,0,0,0,0,0s0,0,0-.1c0-.1.1-.9.2-.9,0,0,0-.2.1-.2s.1,0,.3,0c.2,0,.5,0,.8,0h3.2c.3,0,.4,0,.5,0,.1,0,.2,0,.2,0,0,0,0,0,0,.2,0,.2,0,.7,0,.9s0,.1,0,.1,0,0,0-.2h0c0-.3-.2-.5-1-.5h-1s0,3.3,0,3.3c0,.7,0,1.4,0,1.7,0,.2,0,.4.3.4.1,0,.3,0,.4,0s.1,0,.1,0c0,0,0,0-.1,0-.5,0-1,0-1.3,0s-.7,0-1,0-.2,0-.2,0,0,0,.1,0,.2,0,.3,0c.2,0,.2-.2.2-.4,0-.3,0-1,0-1.7v-3.3h0ZM261.8,123.3c0-1.4.9-3.2,3.3-3.2s3.2,1.2,3.2,3-1.3,3.3-3.3,3.3-3.2-1.7-3.2-3.2h0ZM267.2,123.4c0-1.8-1-2.9-2.4-2.9s-2,.5-2,2.5.9,3,2.5,3,1.9-.3,1.9-2.6ZM271.8,124c0,.8,0,1.4,0,1.7,0,.2,0,.4.3.4.1,0,.3,0,.4,0s.1,0,.1,0c0,0,0,0-.2,0-.5,0-1,0-1.2,0s-.7,0-1,0-.2,0-.2,0,0,0,.1,0,.2,0,.3,0c.2,0,.2-.2.2-.4,0-.3,0-.9,0-1.7v-1.4c0-1.2,0-1.4,0-1.7,0-.3,0-.4-.4-.5,0,0-.2,0-.3,0s-.1,0-.1,0c0,0,0,0,.2,0h.6c.2,0,.4,0,.5,0h2.1c.1,0,.2,0,.3,0,0,0,0,0,.1,0s0,0,0,0c0,0,0,.2,0,.4,0,0,0,.6,0,.7,0,0,0,.1,0,.1s0,0,0-.1c0,0,0-.2,0-.3,0-.1-.2-.2-.5-.2h-1.2s0,0,0,0v2s0,0,0,0h1c.1,0,.2,0,.4,0,.2,0,.3,0,.4-.1,0,0,0,0,.1,0s0,0,0,0,0,.2,0,.5c0,.2,0,.5,0,.6s0,.2,0,.2,0,0,0-.1,0-.2,0-.2c0-.1-.2-.3-.4-.3-.2,0-1,0-1.2,0s0,0,0,0v.7h0ZM279.9,125.5c-.8-.7-1-1.6-1-2.4s.2-1.5.9-2.2c.6-.5,1.3-.8,2.5-.8s.8,0,1.2,0c.3,0,.6.1.8.1,0,0,.1,0,.1,0s0,.2,0,.4c0,.3,0,.7,0,.9,0,.1,0,.2-.1.2s0,0,0-.2c0-.2-.1-.5-.3-.7-.3-.3-.9-.5-1.6-.5s-1.2.2-1.5.5c-.6.5-.7,1.3-.7,2.1,0,1.9,1.5,2.9,2.5,2.9s1.1,0,1.5-.5c.1-.2.2-.4.3-.5,0-.1,0-.2.1-.2s0,0,0,.1c0,0-.1.8-.2,1.1,0,.1,0,.2-.2.2-.3.1-.9.2-1.4.2-1.1,0-2-.2-2.8-.9h0ZM291.1,122.8s0,0,0,0v-.2c0-1.2,0-1.5,0-1.7,0-.3,0-.4-.4-.5,0,0-.2,0-.3,0s-.1,0-.1,0,0,0,.2,0c.4,0,.9,0,1.2,0s.7,0,1,0,.2,0,.2,0,0,0-.1,0-.1,0-.2,0c-.2,0-.3.2-.3.5,0,.3,0,.5,0,1.7v1.4c0,.7,0,1.4,0,1.7,0,.2,0,.4.3.4.1,0,.3,0,.4,0s.1,0,.1,0c0,0,0,0-.2,0-.5,0-1,0-1.2,0s-.7,0-1,0-.2,0-.2,0,0,0,.1,0,.2,0,.3,0c.2,0,.2-.2.2-.4,0-.3,0-1,0-1.7v-.7s0,0,0,0h-3.1s0,0,0,0v.7c0,.7,0,1.4,0,1.7,0,.2,0,.4.3.4.1,0,.3,0,.4,0s.1,0,.1,0c0,0,0,0-.2,0-.5,0-1,0-1.2,0s-.7,0-1,0-.2,0-.2,0,0,0,.1,0,.2,0,.3,0c.2,0,.2-.2.2-.4,0-.3,0-1,0-1.7v-1.4c0-1.2,0-1.5,0-1.7,0-.3,0-.4-.4-.5,0,0-.2,0-.3,0s-.1,0-.1,0,0,0,.2,0c.4,0,.9,0,1.2,0s.7,0,1,0,.2,0,.2,0,0,0-.1,0-.1,0-.2,0c-.2,0-.3.2-.3.5,0,.3,0,.5,0,1.7v.2s0,0,0,0h3.1ZM295.6,122.6c0-1.2,0-1.5,0-1.7,0-.3,0-.4-.3-.5,0,0-.2,0-.3,0s-.1,0-.1,0,0,0,.2,0h.7c.2,0,.4,0,.5,0h2c.1,0,.3,0,.4,0,0,0,0,0,.1,0s0,0,0,0c0,0,0,.2,0,.5,0,0,0,.4,0,.5,0,0,0,0,0,0s0,0,0-.1,0-.2,0-.3c0-.1-.1-.2-.5-.3-.1,0-1,0-1.1,0s0,0,0,0v2c0,0,0,0,0,0,.2,0,1.1,0,1.3,0,.2,0,.3,0,.4-.1,0,0,0,0,.1,0s0,0,0,0,0,.2,0,.6c0,.2,0,.5,0,.5s0,.2,0,.2,0,0,0,0c0,0,0-.2,0-.3,0-.2-.1-.3-.5-.3-.1,0-.9,0-1.1,0s0,0,0,0v1.9c0,.6.1.7,1,.7s.5,0,.8-.1c.2,0,.3-.3.4-.6,0,0,0-.1,0-.1s0,0,0,.1c0,.2,0,.7-.1.9,0,.2-.1.2-.4.2-.6,0-1,0-1.4,0-.3,0-.6,0-.8,0h-.5c-.2,0-.4,0-.5,0s-.2,0-.2,0,0,0,.1,0,.2,0,.3,0c.2,0,.2-.2.2-.4,0-.3,0-1,0-1.7v-1.4h0ZM302,125.2c0,.6.1.8.3.9.1,0,.3,0,.4,0s.1,0,.1,0c0,0,0,0-.2,0-.5,0-.8,0-1,0s-.4,0-.9,0-.2,0-.2,0,0,0,.1,0,.2,0,.4,0c.2,0,.2-.3.2-1v-4.8c0-.2,0-.3.2-.3s.2,0,.3.2c.1,0,1.3,1.4,2.5,2.6.6.5,1.6,1.7,1.8,1.8h0v-3.6c0-.5-.2-.6-.3-.7-.1,0-.3,0-.4,0s-.1,0-.1,0,0,0,.2,0c.4,0,.8,0,1,0s.4,0,.8,0,.2,0,.2,0,0,0-.1,0-.1,0-.2,0c-.2,0-.3.2-.3.7v5.1c0,.2-.1.2-.2.2s-.2,0-.3-.2c-.5-.5-1.5-1.5-2.4-2.4-.9-.9-1.8-1.9-1.9-2h0v3.4c0,0,0,0,0,0ZM314.7,125.8c0,.2,0,.2-.1.3-.5.3-1.3.4-1.9.4-2,0-3.7-.9-3.7-3.2s.7-2.2,1.4-2.6c.8-.5,1.5-.5,2.2-.5s1.3,0,1.4.1c.2,0,.4,0,.6,0,.1,0,.1,0,.1,0,0,0,0,.3,0,1.3s0,.2,0,.2,0,0,0,0c0-.2,0-.4-.3-.7-.2-.3-.9-.6-1.8-.6s-1,0-1.6.5c-.5.4-.7,1-.7,2,0,1.7,1.1,3,2.8,3s.5,0,.7,0c.1,0,.2-.2.2-.3v-1.7c0-.3,0-.4-.3-.5,0,0-.2,0-.3,0s-.1,0-.1,0c0,0,0,0,.2,0,.4,0,.9,0,1.2,0s.7,0,.9,0,.2,0,.2,0,0,0,0,0-.1,0-.2,0c-.2,0-.3.2-.3.5v1.8h0ZM322,122.9h0c.3-.3,1.5-1.5,1.7-1.8.2-.3.4-.5.4-.6s0-.1-.1-.2c0,0-.1,0-.1,0s0,0,.1,0c.2,0,.6,0,.8,0s.7,0,.9,0,.1,0,.1,0,0,0-.1,0-.3,0-.5,0c-.2.1-.5.3-.9.6-.2.2-1.5,1.4-1.7,1.7.3.4,1.9,2.1,2.2,2.4.4.3.7.7,1.1.9.2,0,.4.1.5.1s.1,0,.1,0c0,0,0,0-.2,0h-.7c-.2,0-.4,0-.5,0-.4,0-.6-.2-1-.5-.4-.3-1.9-2.2-2.1-2.4h0c0-.1,0-.1,0-.1v.7c0,.7,0,1.4,0,1.7,0,.2,0,.4.3.4.1,0,.3,0,.4,0s.1,0,.1,0c0,0,0,0-.1,0-.5,0-1,0-1.2,0s-.7,0-1,0-.2,0-.2,0,0,0,.1,0,.2,0,.3,0c.2,0,.2-.2.2-.4,0-.3,0-1,0-1.7v-1.4c0-1.2,0-1.5,0-1.7,0-.3,0-.4-.4-.5,0,0-.2,0-.3,0s-.1,0-.1,0,0,0,.2,0c.4,0,.9,0,1.1,0s.7,0,1,0,.2,0,.2,0,0,0-.1,0-.1,0-.2,0c-.2,0-.3.2-.3.5,0,.3,0,.5,0,1.7v.3h0ZM327.6,122.6c0-1.2,0-1.5,0-1.7,0-.3,0-.4-.4-.5,0,0-.2,0-.3,0s-.1,0-.1,0,0,0,.2,0c.4,0,.9,0,1.2,0s.7,0,1,0,.2,0,.2,0,0,0-.1,0-.1,0-.2,0c-.2,0-.3.2-.3.5,0,.3,0,.5,0,1.7v1.1c0,1.2.2,1.7.6,2,.4.3.7.3,1,.3s.8-.1,1.1-.4c.4-.4.5-1.2.5-2v-1c0-1.2,0-1.4,0-1.7,0-.3,0-.4-.3-.5,0,0-.2,0-.3,0s-.1,0-.1,0,0,0,.2,0c.4,0,.9,0,.9,0,.1,0,.6,0,.9,0s.2,0,.2,0,0,0-.1,0-.1,0-.2,0c-.2,0-.3.2-.3.5,0,.3,0,.5,0,1.7v.9c0,.9,0,1.8-.8,2.4-.6.5-1.1.6-1.7.6s-1.2,0-1.8-.5c-.4-.4-.7-1-.7-2.1v-1.2h0ZM336,125.2c0,.6.1.8.3.9.1,0,.3,0,.4,0s.1,0,.1,0c0,0,0,0-.2,0-.5,0-.8,0-1,0s-.5,0-.9,0-.2,0-.2,0,0,0,.1,0,.2,0,.4,0c.2,0,.2-.3.2-1v-4.8c0-.2,0-.3.2-.3s.2,0,.3.2c.1,0,1.3,1.4,2.5,2.6.6.5,1.6,1.7,1.8,1.8h0v-3.6c0-.5-.2-.6-.4-.7-.1,0-.3,0-.4,0s-.1,0-.1,0,0,0,.2,0c.4,0,.8,0,1,0s.4,0,.8,0,.2,0,.2,0,0,0-.1,0-.1,0-.2,0c-.2,0-.3.2-.3.7v5.1c0,.2-.1.2-.2.2s-.2,0-.3-.2c-.5-.5-1.5-1.5-2.4-2.4-.9-.9-1.8-1.9-1.9-2h0v3.4c0,0,0,0,0,0ZM348.8,125.8c0,.2,0,.2-.1.3-.5.3-1.3.4-1.9.4-2,0-3.7-.9-3.7-3.2s.7-2.2,1.4-2.6c.8-.5,1.5-.5,2.2-.5s1.3,0,1.4.1c.2,0,.5,0,.6,0,.1,0,.1,0,.1,0,0,0,0,.3,0,1.3s0,.2,0,.2,0,0,0,0c0-.2,0-.4-.3-.7-.2-.3-.9-.6-1.8-.6s-1,0-1.6.5c-.5.4-.7,1-.7,2,0,1.7,1.1,3,2.8,3s.5,0,.7,0c.1,0,.1-.2.1-.3v-1.7c0-.3,0-.4-.3-.5,0,0-.2,0-.3,0s-.1,0-.1,0c0,0,0,0,.2,0,.4,0,.9,0,1.2,0s.7,0,.9,0,.2,0,.2,0,0,0-.1,0-.1,0-.2,0c-.2,0-.3.2-.3.5v1.8h0ZM253.8,41.6h-31.6v1h31.6v-1ZM233.6,43.8h-6.6v1.6h6.6v-1.6ZM233.6,45h-14.2v1h14.2v-1ZM241.9,45.4h6.6v-1.6h-6.6v1.6ZM241.9,46h14.2v-1h-14.2v1ZM241.4,45h-7.2v1h7.2v-1ZM233.6,48.9h-6.6v1.6h6.6v-1.6ZM233.6,50.1h-14.2v1h14.2v-1ZM241.9,50.5h6.6v-1.6h-6.6v1.6ZM241.9,51.1h14.2v-1h-14.2v1ZM241.4,50.1h-7.2v1h7.2v-1ZM233.6,54h-6.6v1.6h6.6v-1.6ZM233.6,55.2h-14.2v1h14.2v-1ZM241.9,55.6h6.6v-1.6h-6.6v1.6ZM241.9,56.2h14.2v-1h-14.2v1ZM241.4,55.2h-7.2v1h7.2v-1ZM233.6,59.1h-6.6v1.6h6.6v-1.6ZM233.6,60.3h-14.2v1h14.2v-1ZM241.9,60.7h6.6v-1.6h-6.6v1.6ZM241.9,61.3h14.2v-1h-14.2v1ZM241.4,60.3h-7.2v1h7.2v-1ZM233.6,64.2h-6.6v1.6h6.6v-1.6ZM233.6,65.4h-14.2v1h14.2v-1ZM241.9,65.8h6.6v-1.6h-6.6v1.6ZM241.9,66.4h14.2v-1h-14.2v1ZM241.4,65.4h-7.2v1h7.2v-1ZM233.6,69.3h-6.6v1.6h6.6v-1.6ZM233.6,70.5h-14.2v1h14.2v-1ZM241.9,70.9h6.6v-1.6h-6.6v1.6ZM241.9,71.5h14.2v-1h-14.2v1ZM241.4,70.5h-7.2v1h7.2v-1ZM233.6,74.4h-6.6v1.6h6.6v-1.6ZM233.6,75.6h-14.2v1h14.2v-1ZM241.9,76h6.6v-1.6h-6.6v1.6ZM241.9,76.6h14.2v-1h-14.2v1ZM241.4,75.6h-7.2v1h7.2v-1ZM233.6,79.5h-6.6v1.6h6.6v-1.6ZM233.6,80.7h-14.2v1h14.2v-1ZM241.9,81.2h6.6v-1.6h-6.6v1.6ZM241.9,81.7h14.2v-1h-14.2v1ZM241.4,80.7h-7.2v1h7.2v-1ZM233.6,84.6h-6.6v1.6h6.6v-1.6ZM233.6,85.8h-14.2v1h14.2v-1ZM241.9,86.3h6.6v-1.6h-6.6v1.6ZM241.9,86.8h14.2v-1h-14.2v1ZM241.4,85.8h-7.2v1h7.2v-1ZM233.6,89.7h-6.6v1.6h6.6v-1.6ZM233.6,90.9h-14.2v1h14.2v-1ZM241.9,91.4h6.6v-1.6h-6.6v1.6ZM241.9,91.9h14.2v-1h-14.2v1ZM241.4,90.9h-7.2v1h7.2v-1ZM233.6,94.8h-6.6v1.6h6.6v-1.6ZM233.6,96.1h-14.2v1h14.2v-1ZM241.9,96.5h6.6v-1.6h-6.6v1.6ZM241.9,97h14.2v-1h-14.2v1ZM241.4,96.1h-7.2v1h7.2v-1ZM233.6,99.9h-6.6v1.6h6.6v-1.6ZM233.6,101.2h-14.2v1h14.2v-1ZM241.9,101.6h6.6v-1.6h-6.6v1.6ZM241.9,102.2h14.2v-1h-14.2v1ZM241.4,101.2h-7.2v1h7.2v-1ZM233.6,105.1h-6.6v1.6h6.6v-1.6ZM233.6,106.3h-14.2v1h14.2v-1ZM241.9,106.7h6.6v-1.6h-6.6v1.6ZM241.9,107.3h14.2v-1h-14.2v1ZM241.4,106.3h-7.2v1h7.2v-1ZM233.6,110.2h-6.6v1.6h6.6v-1.6ZM233.6,111.4h-14.2v1h14.2v-1ZM241.9,111.8h6.6v-1.6h-6.6v1.6ZM241.9,112.4h14.2v-1h-14.2v1ZM241.4,111.4h-7.2v1h7.2v-1ZM279.8,17.2h-6.5v1.6h6.5v-1.6ZM279.8,18.4h-14.2v1h14.2v-1ZM279.8,22.1h-6.5v1.6h6.5v-1.6ZM279.8,23.3h-14.2v1h14.2v-1ZM279.8,27h-6.5v1.6h6.5v-1.6ZM279.8,28.2h-14.2v1h14.2v-1ZM279.8,31.9h-6.5v1.6h6.5v-1.6ZM279.8,33.1h-14.2v1h14.2v-1ZM279.8,36.8h-6.5v1.6h6.5v-1.6ZM279.8,38h-14.2v1h14.2v-1ZM279.8,41.7h-6.5v1.6h6.5v-1.6ZM279.8,42.9h-14.2v1h14.2v-1ZM279.8,46.5h-6.5v1.6h6.5v-1.6ZM279.8,47.8h-14.2v1h14.2v-1ZM279.8,51.4h-6.5v1.6h6.5v-1.6ZM279.8,52.7h-14.2v1h14.2v-1ZM279.8,56.3h-6.5v1.6h6.5v-1.6ZM279.8,57.5h-14.2v1h14.2v-1ZM279.8,61.2h-6.5v1.6h6.5v-1.6ZM279.8,62.4h-14.2v1h14.2v-1ZM279.8,66.1h-6.5v1.6h6.5v-1.6ZM279.8,67.3h-14.2v1h14.2v-1ZM279.8,71h-6.5v1.6h6.5v-1.6ZM279.8,72.2h-14.2v1h14.2v-1ZM279.8,75.9h-6.5v1.6h6.5v-1.6ZM279.8,77.1h-14.2v1h14.2v-1ZM279.8,80.8h-6.5v1.6h6.5v-1.6ZM279.8,82h-14.2v1h14.2v-1ZM279.8,85.7h-6.5v1.6h6.5v-1.6ZM279.8,86.9h-14.2v1h14.2v-1ZM279.8,90.6h-6.5v1.6h6.5v-1.6ZM279.8,91.8h-14.2v1h14.2v-1ZM279.8,95.5h-6.5v1.6h6.5v-1.6ZM279.8,96.7h-14.2v1h14.2v-1ZM279.8,100.4h-6.5v1.6h6.5v-1.6ZM279.8,101.6h-14.2v1h14.2v-1ZM279.8,105.3h-6.5v1.6h6.5v-1.6ZM279.8,106.5h-14.2v1h14.2v-1ZM279.4,110.2h-6.5v1.6h6.5v-1.6ZM279.4,111.4h-14.2v1h14.2v-1ZM288.1,18.8h6.5v-1.6h-6.5v1.6ZM288,19.4h14.2v-1h-14.2v1ZM288.1,23.7h6.5v-1.6h-6.5v1.6ZM288,24.3h14.2v-1h-14.2v1ZM288.1,28.6h6.5v-1.6h-6.5v1.6ZM288,29.2h14.2v-1h-14.2v1ZM288.1,33.5h6.5v-1.6h-6.5v1.6ZM288,34.1h14.2v-1h-14.2v1ZM288.1,38.4h6.5v-1.6h-6.5v1.6ZM288,39h14.2v-1h-14.2v1ZM288.1,43.3h6.5v-1.6h-6.5v1.6ZM288,43.8h14.2v-1h-14.2v1ZM288.1,48.2h6.5v-1.6h-6.5v1.6ZM288,48.8h14.2v-1h-14.2v1ZM288.1,53.1h6.5v-1.6h-6.5v1.6ZM288,53.6h14.2v-1h-14.2v1ZM288.1,58h6.5v-1.6h-6.5v1.6ZM288,58.5h14.2v-1h-14.2v1ZM288.1,62.9h6.5v-1.6h-6.5v1.6ZM288,63.4h14.2v-1h-14.2v1ZM288.1,67.8h6.5v-1.6h-6.5v1.6ZM288,68.3h14.2v-1h-14.2v1ZM288.1,72.7h6.5v-1.6h-6.5v1.6ZM288,73.2h14.2v-1h-14.2v1ZM288.1,77.5h6.5v-1.6h-6.5v1.6ZM288,78.1h14.2v-1h-14.2v1ZM288.1,82.4h6.5v-1.6h-6.5v1.6ZM288,83h14.2v-1h-14.2v1ZM288.1,87.3h6.5v-1.6h-6.5v1.6ZM288,87.9h14.2v-1h-14.2v1ZM288.1,92.2h6.5v-1.6h-6.5v1.6ZM288,92.8h14.2v-1h-14.2v1ZM288.1,97.1h6.5v-1.6h-6.5v1.6ZM288,97.7h14.2v-1h-14.2v1ZM288.1,102h6.5v-1.6h-6.5v1.6ZM288,102.6h14.2v-1h-14.2v1ZM288.1,106.9h6.5v-1.6h-6.5v1.6ZM288,107.5h14.2v-1h-14.2v1ZM288.4,111.6h6.5v-1.6h-6.5v1.6ZM288.4,112.1h14.2v-1h-14.2v1ZM299.9,15.1h-31.6v1h31.6v-1ZM287.5,18.4h-7.2v1h7.2v-1ZM287.5,23.3h-7.2v1h7.2v-1ZM287.5,28.2h-7.2v1h7.2v-1ZM287.5,33.1h-7.2v1h7.2v-1ZM287.5,38h-7.2v1h7.2v-1ZM287.5,42.9h-7.2v1h7.2v-1ZM287.5,47.8h-7.2v1h7.2v-1ZM287.5,52.7h-7.2v1h7.2v-1ZM287.5,57.5h-7.2v1h7.2v-1ZM287.5,62.4h-7.2v1h7.2v-1ZM287.5,67.3h-7.2v1h7.2v-1ZM287.5,72.2h-7.2v1h7.2v-1ZM287.5,77.1h-7.2v1h7.2v-1ZM287.5,82h-7.2v1h7.2v-1ZM287.5,86.9h-7.2v1h7.2v-1ZM287.5,91.8h-7.2v1h7.2v-1ZM287.5,96.7h-7.2v1h7.2v-1ZM287.5,101.6h-7.2v1h7.2v-1ZM287.5,106.5h-7.2v1h7.2v-1ZM287.5,111.4h-7.2v1h7.2v-1ZM346.1,0h-31.6v1h31.6V0ZM325.9,2.1h-6.5v1.6h6.5v-1.6ZM325.9,3.3h-14.2v1h14.2v-1ZM334.2,3.7h6.5v-1.6h-6.5v1.6ZM334.2,4.3h14.2v-1h-14.2v1ZM333.6,3.3h-7.2v1h7.2v-1ZM325.9,7h-6.5v1.6h6.5v-1.6ZM325.9,8.2h-14.2v1h14.2v-1ZM334.2,8.7h6.5v-1.6h-6.5v1.6ZM334.2,9.2h14.2v-1h-14.2v1ZM333.6,8.2h-7.2v1h7.2v-1ZM325.9,11.9h-6.5v1.6h6.5v-1.6ZM325.9,13.1h-14.2v1h14.2v-1ZM334.2,13.6h6.5v-1.6h-6.5v1.6ZM334.2,14.1h14.2v-1h-14.2v1ZM333.6,13.1h-7.2v1h7.2v-1ZM325.9,16.8h-6.5v1.6h6.5v-1.6ZM325.9,18h-14.2v1h14.2v-1ZM334.2,18.5h6.5v-1.6h-6.5v1.6ZM334.2,19h14.2v-1h-14.2v1ZM333.6,18h-7.2v1h7.2v-1ZM325.9,21.8h-6.5v1.6h6.5v-1.6ZM325.9,23h-14.2v1h14.2v-1ZM334.2,23.4h6.5v-1.6h-6.5v1.6ZM334.2,24h14.2v-1h-14.2v1ZM333.6,23h-7.2v1h7.2v-1ZM325.9,26.7h-6.5v1.6h6.5v-1.6ZM325.9,27.9h-14.2v1h14.2v-1ZM334.2,28.3h6.5v-1.6h-6.5v1.6ZM334.2,28.9h14.2v-1h-14.2v1ZM333.6,27.9h-7.2v1h7.2v-1ZM325.9,31.6h-6.5v1.6h6.5v-1.6ZM325.9,32.8h-14.2v1h14.2v-1ZM334.2,33.2h6.5v-1.6h-6.5v1.6ZM334.2,33.8h14.2v-1h-14.2v1ZM333.6,32.8h-7.2v1h7.2v-1ZM325.9,36.5h-6.5v1.6h6.5v-1.6ZM325.9,37.7h-14.2v1h14.2v-1ZM334.2,38.1h6.5v-1.6h-6.5v1.6ZM334.2,38.7h14.2v-1h-14.2v1ZM333.6,37.7h-7.2v1h7.2v-1ZM325.9,41.4h-6.5v1.6h6.5v-1.6ZM325.9,42.6h-14.2v1h14.2v-1ZM334.2,43h6.5v-1.6h-6.5v1.6ZM334.2,43.6h14.2v-1h-14.2v1ZM333.6,42.6h-7.2v1h7.2v-1ZM325.9,46.3h-6.5v1.6h6.5v-1.6ZM325.9,47.5h-14.2v1h14.2v-1ZM334.2,48h6.5v-1.6h-6.5v1.6ZM334.2,48.5h14.2v-1h-14.2v1ZM333.6,47.5h-7.2v1h7.2v-1ZM325.9,51.2h-6.5v1.6h6.5v-1.6ZM325.9,52.4h-14.2v1h14.2v-1ZM334.2,52.8h6.5v-1.6h-6.5v1.6ZM334.2,53.4h14.2v-1h-14.2v1ZM333.6,52.4h-7.2v1h7.2v-1ZM325.9,56.1h-6.5v1.6h6.5v-1.6ZM325.9,57.3h-14.2v1h14.2v-1ZM334.2,57.8h6.5v-1.6h-6.5v1.6ZM334.2,58.3h14.2v-1h-14.2v1ZM333.6,57.3h-7.2v1h7.2v-1ZM325.9,61h-6.5v1.6h6.5v-1.6ZM325.9,62.3h-14.2v1h14.2v-1ZM334.2,62.7h6.5v-1.6h-6.5v1.6ZM334.2,63.2h14.2v-1h-14.2v1ZM333.6,62.3h-7.2v1h7.2v-1ZM325.9,66h-6.5v1.6h6.5v-1.6ZM325.9,67.2h-14.2v1h14.2v-1ZM334.2,67.6h6.5v-1.6h-6.5v1.6ZM334.2,68.2h14.2v-1h-14.2v1ZM333.6,67.2h-7.2v1h7.2v-1ZM325.9,70.9h-6.5v1.6h6.5v-1.6ZM325.9,72.1h-14.2v1h14.2v-1ZM334.2,72.5h6.5v-1.6h-6.5v1.6ZM334.2,73.1h14.2v-1h-14.2v1ZM333.6,72.1h-7.2v1h7.2v-1ZM325.9,75.8h-6.5v1.6h6.5v-1.6ZM325.9,77h-14.2v1h14.2v-1ZM334.2,77.4h6.5v-1.6h-6.5v1.6ZM334.2,78h14.2v-1h-14.2v1ZM333.6,77h-7.2v1h7.2v-1ZM325.9,80.7h-6.5v1.6h6.5v-1.6ZM325.9,81.9h-14.2v1h14.2v-1ZM334.2,82.3h6.5v-1.6h-6.5v1.6ZM334.2,82.9h14.2v-1h-14.2v1ZM333.6,81.9h-7.2v1h7.2v-1ZM325.9,85.6h-6.5v1.6h6.5v-1.6ZM325.9,86.8h-14.2v1h14.2v-1ZM334.2,87.2h6.5v-1.6h-6.5v1.6ZM334.2,87.8h14.2v-1h-14.2v1ZM333.6,86.8h-7.2v1h7.2v-1ZM325.9,90.5h-6.5v1.6h6.5v-1.6ZM325.9,91.7h-14.2v1h14.2v-1ZM334.2,92.2h6.5v-1.6h-6.5v1.6ZM334.2,92.7h14.2v-1h-14.2v1ZM333.6,91.7h-7.2v1h7.2v-1ZM325.9,95.4h-6.5v1.6h6.5v-1.6ZM325.9,96.6h-14.2v1h14.2v-1ZM334.2,97.1h6.5v-1.6h-6.5v1.6ZM334.2,97.6h14.2v-1h-14.2v1ZM333.6,96.6h-7.2v1h7.2v-1ZM325.9,100.3h-6.5v1.6h6.5v-1.6ZM325.9,101.6h-14.2v1h14.2v-1ZM334.2,102h6.5v-1.6h-6.5v1.6ZM334.2,102.6h14.2v-1h-14.2v1ZM333.6,101.6h-7.2v1h7.2v-1ZM325.9,105.3h-6.5v1.6h6.5v-1.6ZM325.9,106.5h-14.2v1h14.2v-1ZM334.2,106.9h6.5v-1.6h-6.5v1.6ZM334.2,107.4h14.2v-1h-14.2v1ZM333.6,106.5h-7.2v1h7.2v-1ZM325.9,110.2h-6.5v1.6h6.5v-1.6ZM325.9,111.4h-14.2v1h14.2v-1ZM334.2,111.8h6.5v-1.6h-6.5v1.6ZM334.2,112.4h14.2v-1h-14.2v1ZM333.6,111.4h-7.2v1h7.2v-1Z"/>

  </defs>
  <path stroke="url(#gr1)" stroke-width="2.3" d="M109.1,345.8c-8.3,0-18-10.3-25.4-30.4-8.8,10.3-19.7,20.5-33.1,30.4l-11.7-9.5c17.4-11.6,30.3-24.8,39.7-38.3-5.7-23.9-10-58.4-12-89H30.5c0,8.7,0,16.6-.3,24.3h30.9v62.3c-.3,14.6-13.5,18.6-28.6,17.6l-2.9-11.8h7.7c7.1,0,7.7-2.8,7.7-7.9v-48.9h-14.9c-1.1,43.4-4.6,71.4-12.6,101.2l-16.3-7.9c10.6-38.1,12-60.2,12-140.4h52.3c-.6-12-.9-23.1-.9-32.2l16.6-2c0,11.4.3,22.9.9,34.3h22c-6.6-11.4-13.1-20.5-18-26l10.3-8.1c5.4,5.7,13.4,15.6,20.3,26.4l-11.4,7.7h19.1v11.4h-41.7c1.7,24.3,4.6,47.7,8.3,66.7,8.3-19.1,12.3-37.9,14.8-54.8l15.7,4.5c-3.4,21.3-8.6,47.1-25.4,73,8.8,33.1,16.8,40.6,11.7,2.2l16.8,4.9c1.4,27-4.9,40.4-15.7,40.4h0ZM267.3,203.2v11.4h-50.6c2.3,34.1,14.3,80.7,48.3,120.7l-12.9,10.6c-24.3-27.6-36.6-59-42.6-88.8-7.4,31.4-20.9,60.8-44.8,88.6l-13.7-10.5c32.3-39.4,44.6-75.9,47.7-120.5h-48.6v-11.4h49.4c.6-12.6.3-25.8,0-40h17.1c.3,13.6.3,27-.3,40h50.8,0ZM415.8,330l-5.7,11.8c-34.8.8-62.9,1.3-81.1-28.2-9.4,12.4-11.7,20.9-11.7,32.2h-17.1c-4.7-53.3,89.7-82.3,87.7-144h-85.1v-11.4h42v-27.2h16.6v27.2h42.8c3.8,53.4-33.4,78.4-65.1,111.8,13.2,30.9,46.4,28.2,76.8,27.8ZM458.1,264.2h-17.7v-11.4h22.9v-18.1h16v18.1h18.6v11.4h-13.1c5.1,9.9,13.7,28.2,16.3,37.3l-11.1,13.6c-2-8.5-7.1-25.8-10.6-36.5v67.1h-16v-56.6c-2.6,17-6.6,36.1-10.6,46.9l-14-10.3c6.3-14.6,16-44.8,19.4-61.5h0ZM485.5,190.6h-43.7v-11.4h50v-16h16.6v16h50.3v11.4h-44c10.6,12.8,31.7,26.2,47.7,34.9l-10.3,10.6c-12.6-6.5-34-22.5-43.7-35.3v39.6h-16.6v-38.1c-9.1,12-23.7,23.1-41.7,34.3l-10.8-10.3c18.8-9.9,36.8-23.9,46.3-35.5h0ZM519.5,264.2h-16v-11.4h18.6v-18.1h16v18.1h22.8v11.4h-19.1c3.4,14.4,11.1,40.8,20.3,58.2l-12.6,12.4c-4.9-11-8.8-27.6-11.4-42.6v53.5h-16v-47.9c-3.7,12.4-8.9,25.8-15.1,36.9l-10.9-12.6c12.6-20.3,19.1-37.1,23.4-58h0Z"/>
  <path d="M6,377c0,2.4,0,4.3.1,5.4,0,1.4,1.1,1.5,2.2,1.5.7,0,.5.5-.1.5-3.2,0-4.2,0-7,0-.3,0-.5,0-.5-.3s.1-.2.4-.2c1.1,0,1.5-.2,1.6-1.5.2-1.7.1-7.3.1-9.8-.2-4.1.6-6.5-1.1-6.8-.2-.2-1.3.1-1.4-.3,0-.2.2-.3.6-.3,1.1,0,2.7,0,3.6,0,1.7,0,6.4,0,7.7-.1.2-.1.5-.3.6,0-.2.5-.3,2.4-.3,3.2,0,.5-.5.5-.5,0,0-1-.4-1.7-1.8-1.7,0,0-3.9,0-3.9,0-.2,0-.2,0-.2.4v6.3c0,.2,0,.2.2.2.8,0,3.6,0,4.4,0,.8,0,.9-.4,1.4-.7.4.2,0,.8,0,1.8,0,.5-.1,1.7-.1,1.8,0,.5-.4.7-.5.1,0-.8-.3-1.5-1.4-1.7-.6,0-3.3,0-3.7,0-.4-.2-.1,2.1-.2,2.3h0ZM26.7,374.8c0-4.3,2.8-9.9,10.4-9.9s10.2,3.7,10.2,9.4c0,14-20.8,13.4-20.6.4h0ZM43.8,375.2c0-5.6-3.2-9.1-7.4-9.1s-6.2,1.6-6.2,7.9,2.9,9.4,7.7,9.4,5.8-.9,5.8-8.1ZM63.5,372.5c-.2-4,.6-6.5-1.1-6.8-.2-.2-1.3.1-1.4-.3,0-.2.2-.2.6-.2,1.3,0,2.9,0,3.5,0,2.7,0,5.8-.6,8.2,1,2.8,2.3,2.1,6.3-1.6,9.1,3,3.4,5.1,7.5,8.3,8.3.4.1.9,0,1,.3,0,.2-.2.3-.5.3-1.4,0-4.2.2-5.1-.5-1.6-.6-4.9-5.9-5.9-7.2-.2-.4-2.3-.2-2.6-.2-.1,0-.2,0-.2.2,0,2.3,0,4.7.1,5.7,0,1.5,1.1,1.5,2.2,1.5.5,0,.3.5-.2.5-1.5,0-3.3,0-3.7,0s-2.1,0-3.1,0c-.6,0-.7-.5-.1-.5,1.1,0,1.5-.2,1.6-1.5.2-1.8.1-7.3.1-9.8h0ZM66.5,374.5c0,.3,0,.4.2.4,1,.3,3,.5,3.7-.2,3-2.4,1.3-8.7-2.4-8.4-.8,0-1.5-.2-1.6.4,0,0,0,7.7,0,7.7ZM93.5,372.5c0-3.8,0-4.5,0-5.3,0-1.3-.9-1.5-2.1-1.5-.3,0-.4,0-.4-.2.4-.5,1.9,0,2.6-.2,2.6,0,7.1.3,9.4-.2.1,0,.2,0,.2.2s-.1.5-.2,1.6c0,.2,0,1.4-.1,1.7,0,.4-.5.4-.5,0,0-1-.1-1.6-1.8-1.8-.4,0-3.1-.1-3.6-.1s-.2,0-.2.2v6.4c0,.2,0,.3.2.3,1.2-.1,4.3.3,5.2-.4.9-.9.5.1.4,1.7,0,.5,0,1.5,0,1.7s0,.5-.2.5-.2-.1-.2-.2c0-.9-.1-1.8-1.5-1.9-.5,0-3,0-3.6,0-.3,0,0,2.1-.2,2.2,0,.9,0,3.2,0,3.9,0,1.7.4,2.1,3,2.1,1.5,0,3.3,0,3.5-2.2,0-.6.6-.5.5,0,0,.6-.2,2.3-.3,2.8-.2.7-.4.7-1.4.7-3.6,0-5.3-.2-8.4-.1-.7-.1-1.9.4-2.2-.2,0-.1.1-.2.4-.2,1.1,0,1.5-.2,1.6-1.5.1-1.1.1-3,.1-5.4v-4.4h0ZM118.9,384c-.4-.2-.5-.3-.5-.9,0-1.4,0-2.9.1-3.3,0-.4,0-.7.3-.7s.2.2.2.4c0,.3,0,.9.2,1.3.9,3.8,7.1,3,7-.3.1-4.2-7.7-5.8-7.4-10.9,0-2.8,2.3-4.8,5.8-4.8s2.7.2,3.3.4c.2,0,.4.1.4.3,0,.3-.1,1.1-.1,3s0,.8-.3.8-.2-.1-.2-.4c-.2-1.3-1.1-2.9-3.4-2.9-4,.3-3.9,3.9-.3,6.2,3,2.1,5,4.5,4.8,7,.2,4.9-6.3,6.5-10.1,4.8h0ZM149.3,366.6c-1.3.2-5.6-.3-6.2.8-.4.5-.3,1-.7,1.2-.2,0-.2-.1-.2-.4,0-.4.5-2.7.5-2.9,0-.3.2-.5.3-.5,2.2.8,11.1.3,13.6.4,1.1,0,1.7-.1,2.4-.3.2,0,.2.2.2.5s0,2.3,0,2.9c0,.2,0,.4-.2.4-.3,0-.3-.5-.3-.8.1-1.7-4.6-1.4-6.1-1.5v10.3c.2,2.5-.6,6.4,1.1,6.8.4.2,1.5,0,1.7.3,0,.2-.2.3-.5.3-3.3,0-4.2,0-7.1,0-.3,0-.5,0-.5-.3,0-.4,1.1-.2,1.3-.3.5,0,.7-.7.7-1.4.3-2.7,0-12.5.1-15.7h0ZM190.5,374.8c0-4.3,2.9-9.9,10.4-9.9s10.2,3.7,10.2,9.4c0,14-20.8,13.4-20.6.4h0ZM207.6,375.2c0-5.6-3.2-9.1-7.4-9.1s-6.2,1.6-6.2,7.9,2.9,9.4,7.7,9.4,5.8-.9,5.8-8.1ZM230.5,377c0,2.4,0,4.3.1,5.4,0,1.4,1.1,1.5,2.2,1.5.7,0,.5.5-.1.5-3.2,0-4.2,0-7,0-.4,0-.5,0-.5-.3s0-.2.4-.2c1.1,0,1.5-.2,1.6-1.5.2-1.7.1-7.3.1-9.8-.2-4.1.6-6.5-1.1-6.8-.2-.2-1.3.1-1.4-.3,0-.2.2-.3.6-.3,1.1,0,2.7,0,3.6,0,1.7,0,6.4,0,7.7-.1.2-.1.5-.3.6,0-.2.5-.3,2.4-.3,3.2,0,.5-.5.5-.5,0,0-1-.4-1.7-1.8-1.7,0,0-3.9,0-3.9,0-.1,0-.2,0-.2.4v6.3c0,.2,0,.2.2.2.8,0,3.6,0,4.4,0,.8,0,.9-.4,1.4-.7.4.2,0,.8,0,1.8,0,.5-.1,1.7-.1,1.8,0,.5-.4.7-.5.1,0-.8-.3-1.5-1.4-1.7-.6,0-3.3,0-3.7,0-.4-.2-.1,2.1-.2,2.3h0ZM272.8,381.9c-4.1-4-4.4-10-.2-14.4,2.1-2.4,7.9-3.1,11.6-2.4,1,.1,1.8.3,2.5.4.3,0,.4.1.4.3-.1.7-.2,3.4-.2,4.1,0,.7-.6.8-.6,0-.3-2.9-2.7-3.8-6.1-3.9-5-.2-7.2,3.8-7.1,8.1,0,6,4.6,9,7.9,9,2.9,0,4.8-.7,5.5-3.1,0-.7.6-.7.6-.1,0,.3-.3,2.5-.6,3.3-.1.4-.2.6-.7.7-4,1.2-10.1.7-13.2-2.2ZM316.5,373.3c.3,0,.1-.6.2-.7,0-3.8,0-4.5,0-5.3,0-1.3-.9-1.5-2.1-1.5-.3,0-.4,0-.4-.2s.2-.2.5-.2c2.9,0,4.1,0,6.8,0,.7,0,.7.5,0,.5-.9,0-1.7.3-1.7,1.5,0,.8,0,1.5,0,5.3,0,2.5,0,8,.1,9.8,0,1.4,1.2,1.5,2.3,1.5.3,0,.4,0,.4.2,0,.2-.2.2-.5.2-3.3,0-4.1,0-7.1,0-.3,0-.5,0-.5-.3,0-.4,1.1-.2,1.3-.3.5,0,.6-.7.7-1.4.2-1.3.1-5.4.1-7.6,0-.1,0-.2-.2-.2h-9.6c-.3-.2,0,2.3-.2,2.4.2,2.5-.6,6.4,1.1,6.8.4.2,1.5,0,1.7.3,0,.2-.2.3-.5.3-3.3,0-4.1,0-7.1,0-.3,0-.5,0-.5-.3,0-.4,1.1-.2,1.3-.3,1.4-.8.7-4.2.9-6.8,0-2,0-9.5,0-9.8,0-1.3-.9-1.5-2.1-1.5-.3,0-.4,0-.4-.2s.2-.2.5-.2c2.9,0,4.1,0,6.8,0,.7,0,.7.5,0,.5-.9,0-1.7.3-1.7,1.5,0,.8,0,1.5,0,5.3,0,.1-.1.7.2.7,0,0,9.6,0,9.6,0h0ZM339,372.5c0-3.8,0-4.5,0-5.3,0-1.3-.9-1.5-2.1-1.5-.3,0-.4,0-.4-.2.4-.5,1.9,0,2.6-.2,2.6,0,7.1.3,9.4-.2.1,0,.1,0,.1.2s-.1.5-.2,1.6c0,.2,0,1.4-.1,1.7,0,.4-.5.4-.5,0,0-1-.1-1.6-1.8-1.8-.4,0-3.1-.1-3.6-.1s-.2,0-.2.2v6.4c0,.2,0,.3.2.3,1.2-.1,4.3.3,5.2-.4.9-.9.5.1.4,1.7,0,.5,0,1.5,0,1.7s0,.5-.2.5-.2-.1-.2-.2c0-.9-.1-1.8-1.5-1.9-.5,0-3,0-3.6,0-.3,0,0,2.1-.2,2.2,0,.9,0,3.2,0,3.9,0,1.7.4,2.1,3,2.1,1.5,0,3.3,0,3.5-2.2,0-.6.6-.5.5,0,0,.6-.2,2.3-.3,2.8-.2.7-.4.7-1.4.7-3.6,0-5.3-.2-8.4-.1-.7-.1-1.9.4-2.2-.2,0-.1.1-.2.4-.2,1.1,0,1.5-.2,1.6-1.5.1-1.1.1-3,.1-5.4v-4.4h0ZM367.3,380.9c.1,2.8.5,2.9,2.2,3,.3,0,.4,0,.4.2s-.2.2-.6.2c-1.6,0-2.6,0-3.1,0s-1.4,0-2.7,0-.6,0-.6-.2.1-.2.4-.2c1.8,0,1.9-.3,1.9-3.3,0,0,.2-14.9.2-14.9,0-1.3.6-.9,1.3,0,.6.7,11.4,11.7,13.4,13.8h.1l-.2-11.3c0-2.3-.7-2.4-2.2-2.4-.3,0-.4,0-.4-.2s.3-.2.7-.2c1.3,0,2.5,0,3.1,0s1.2,0,2.5,0,.6,0,.6.2c0,.4-.8.1-1.2.3-.7.2-.9.7-.9,2.1l-.3,15.9c0,1.2-.7.8-1.2.2-2.5-2.4-11.6-11.6-13.4-13.8h0l.3,10.6h0ZM415.7,382.6c.3,1.8-5,2-6.4,2-6.2,0-11.7-2.9-11.7-9.9s2.1-6.9,4.4-8.2c3.4-2.2,8.3-1.7,11.2-1.2.5.1,1.4.3,2,.3.3,0,.3.1.3.3,0,.3-.2,1-.2,4.1,0,.6-.5.7-.5.2-.4-4.1-7.7-5.5-11.5-2.5-5.2,4.8-1.5,16.1,6.4,15.7,3.3.1,2.5-1,2.6-3.6-.2-1.8.7-4-1.1-4.4-.2-.2-1.3.1-1.4-.3,0-.2.2-.3.5-.3,2.6,0,4.2,0,6.6,0,.6,0,.7.5.2.5-.2,0-.4,0-.7,0-1.6.5-.8,2.7-1,4.5,0,0,0,2.8,0,2.8h0ZM455.2,373.7h.1c.9-.9,4.5-4.7,5.3-5.6.8-1,1.8-1.8.9-2.4-.2,0-.3,0-.3-.2s.1-.2.4-.2c1.6,0,3.9,0,5.5,0,.2,0,.4,0,.4.2s-.1.2-.4.2-1,0-1.5.3c-2.4.9-6.1,5.4-8.2,7.3.9,1.2,5.9,6.5,6.8,7.4,1.3,1.4,3.3,3.1,5.2,3.1.2,0,.3,0,.3.2s-.1.2-.6.2c-1,0-3,0-3.9,0-1.4-.1-2-.7-3.1-1.6-1.3-1.2-6.2-6.9-6.9-7.9h-.1c0,2.2,0,6.3,0,7.7,0,1.4,1.1,1.5,2.2,1.5,1.8.8-4.1.3-3.8.4-.6,0-2.2,0-3.2,0s-.5,0-.5-.2.1-.2.4-.2c1.1,0,1.5-.2,1.6-1.5.2-1.8.1-7.3.1-9.8,0-3.8,0-4.5,0-5.3,0-1.3-.9-1.5-2.1-1.5-.3,0-.4,0-.4-.2s.2-.2.5-.2c1.3,0,2.9,0,3.5,0s2.2,0,3.1,0,.5,0,.5.2-.1.2-.4.2c-.9,0-1.7.3-1.6,1.5,0,.1,0,3.8,0,6.4h0ZM481.4,372.5c-.2-4.1.6-6.5-1.1-6.8-.2-.2-1.3.1-1.4-.3,0-.2.2-.2.6-.2,1.3,0,2.9,0,3.7,0s2.2,0,3.1,0,.6,0,.6.2c0,.4-.8.2-1.1.3-1.5.3-.8,2.8-1,6.8,0,3.2-.2,8.6,2,9.7,2.3,1.6,4.5,1.4,6.6-.3,2-1.9,1.4-6.5,1.5-9.4-.2-4.1.6-6.5-1.1-6.8-.3-.2-1.3.1-1.3-.3,0-.2.2-.2.5-.2,1.3,0,2.9,0,2.9,0,.3,0,1.9,0,2.9,0s.5,0,.5.2-.1.2-.5.2c-1,0-1.7.3-1.7,1.5,0,.8,0,1.5,0,5.3,0,3.5.4,7.9-2.4,10.3-3,2.5-7.6,2.6-10.8,0-2.3-1.6-2.4-6.8-2.2-10.4h0ZM516.3,380.9c.1,2.8.5,2.9,2.2,3,.3,0,.4,0,.4.2s-.2.2-.6.2c-1.6,0-2.7,0-3.1,0s-1.4,0-2.7,0-.5,0-.5-.2.2-.2.4-.2c1.8,0,1.9-.3,1.9-3.3,0,0,.2-14.9.2-14.9,0-1.3.6-.9,1.3,0,.6.7,11.4,11.7,13.4,13.8h.1l-.2-11.3c0-2.3-.7-2.4-2.2-2.4-.3,0-.4,0-.4-.2s.3-.2.7-.2c1.3,0,2.5,0,3.1,0s1.2,0,2.5,0,.6,0,.6.2c0,.4-.8.1-1.2.3-.7.2-.9.7-.9,2.1l-.3,15.9c0,1.2-.7.8-1.2.2-2.5-2.4-11.6-11.6-13.4-13.8h0l.3,10.6h0ZM564.7,382.6c.3,1.8-5,2-6.4,2-6.2,0-11.7-2.9-11.7-9.9s2.1-6.9,4.4-8.2c3.4-2.2,8.3-1.7,11.2-1.2.5.1,1.4.3,2,.3.3,0,.4.1.4.3,0,.3-.2,1-.2,4.1,0,.6-.5.7-.5.2-.4-4.1-7.7-5.5-11.5-2.5-5.2,4.8-1.5,16.1,6.4,15.7,3.3.1,2.5-1,2.6-3.6-.2-2.2.8-4.7-2.1-4.5-.6,0-.5-.5.1-.5,2.6,0,4.2,0,6.6,0,.6,0,.7.5.2.5-.2,0-.4,0-.7,0-1.6.5-.8,2.7-1,4.5,0,0,0,2.8,0,2.8h0Z"/>
 <use xlink:href="#logo" fill="url(#r)"/>
<use xlink:href="#logo" fill="url(#gr1)"/>

</svg>