<?xml version="1.0" encoding="UTF-8"?>
<svg id="_圖層_1" data-name="圖層_1" xmlns="http://www.w3.org/2000/svg" version="1.1" viewBox="0 0 873 50">
  <!-- Generator: Adobe Illustrator 29.3.1, SVG Export Plug-In . SVG Version: 2.1.0 Build 151)  -->
  <defs>
    <style>
      .st0 {
        fill: #fff;
      }
    </style>
  </defs>
  <path class="st0" d="M43,23.1l-3.6,2.5c-1-1.9-2.5-4.3-4.1-6.9-8.6,1.8-23.2,3.7-34.2,4.4l-1.1-4.3c2.2,0,4.4,0,6.8,0C10.8,13.9,15.2,6.4,18,.4l4.1,1.9c-3.5,5.5-8.3,11.9-12.8,16.4,8.9-.3,18.5-1,25-1.7-1.9-2.9-4-5.9-6.1-8.6l1.3-1.1c4.7,4.3,10.9,11.7,13.4,15.7h0ZM6,27.7h30.8v21.5h-3.7v-4H9.7v4h-3.7v-21.5h0ZM9.7,43.1h23.3v-13.3H9.7v13.3ZM88,9.7v6.1h18v28.6c0,5.2-5.8,5.4-12.6,2.5l.4-1.6c6.8,1.1,8.7,1.1,8.7-1.9v-25.5h-32v31.3h-3.6V15.8h17.4v-6.1h-21.3v-2h21.3V.8h3.6v6.9h21.5v2h-21.5ZM100.3,36.8h-12.3v10.8h-3.4v-10.8h-11.8v-2h11.8v-5.4h-11.2v-2h7.7c-1.3-2.6-3.2-5.6-4.8-7.8l1.1-1c2.2,1.7,4.9,4.7,6.8,7.2l-2.2,1.6h6.3c1.3-2.1,3.2-5.9,4.2-8.8l3.5,1.8c-1.9,2.8-4.1,5.4-5.7,7h9.4v2h-11.6v5.4h12.3v2h0ZM145.9,31.2l.7,1.5c-4.7,3.4-12.4,7.4-17.7,9.6l-1.5-3.9c2-.5,4.9-1.6,8.1-2.8v-18.3h-7.4v-2h7.4V2.2h3.4v13.1h6.9v2h-6.9v17c2.5-1.1,4.9-2.1,7-3.1h0ZM169.1,47.5c-4.8.4-9.3.3-13.7,0-6.1-.5-7.1-2-7.1-7.1v-19.1c-1.9.7-3.8,1.4-5.7,2.1l-.6-2c2.1-.8,4.2-1.5,6.3-2.4V6h3.4v11.9c2.1-.8,4.2-1.6,6.3-2.5V.9h3.2v13.2c2-.8,4-1.6,5.9-2.4l.8-1.1,3.9,1.1c-.9,6.9-2.8,16.4-4.5,21.2l-1.6-.4c.9-4.9,1.8-13.9,2-18.7-2.1.9-4.3,1.8-6.5,2.6v20h-3.2v-18.7c-2.1.8-4.2,1.6-6.3,2.4v20c0,3.2,1.1,3.8,4.7,4,4.3.3,7.5.3,12.3,0,3-.2,3.4-1.4,3.4-13.1h1.6c1.6,14.1,1,16.1-4.6,16.5h0ZM192.8,43.6h21.3v-18.3h-16.3v-2.2h16.3V6.7h-18.8v-2.4h40.9v2.4h-18.3v16.3h16.3v2.2h-16.3v18.3h21.4v2.4h-46.4v-2.4ZM280.9,27.7c-1.8,0-3.2-1.5-3.2-3.2s1.5-3.1,3.2-3.2c1.8,0,3.2,1.4,3.2,3.2,0,1.7-1.5,3.2-3.2,3.2ZM363.5,48.6c-4.1-1.4-7.4-5.2-9.8-10.6-4.7,4.5-10.3,7.9-17,10l-.7-1.5c6.4-2.8,11.9-6.5,16.4-11.6-2.1-6.1-3.4-13.7-3.7-21.7h-17.7v7.9h13.8c-.2,7.8-.3,12.3-.6,15.2-.5,4.3-4.7,5.5-12.5,1.8l.4-1.6c7.4,1.5,8.4,1.1,8.6-1.4.2-2,.4-6.2.5-11.9h-10.2v.2c0,13.8-2.1,20.5-7.7,25.9l-1.2-1.1c4-5.5,5.2-9.7,5.2-24.5v-12.6h21.4c-.2-3.3-.2-7-.2-10.2h3.6c0,3.1,0,6.8.1,10.2h9.5c-1.8-2.9-4.2-6.3-6.4-8.7l1.1-1.1c3,2.1,6,5.1,8.2,7.5l-2.7,2.4h7.2v2.2h-16.8c.3,7,1.3,13.2,2.9,18.4,2.9-4,5.2-8.8,7.1-14.3l3.6,1.5c-2.2,6.3-5.2,11.9-9.3,16.5,2,4.9,4.7,8.4,7.8,9.7,1.9.9,2.6,0,2.4-11.5h1.6c2.2,12.2.9,17-4.6,15.1h0ZM434.9,44.5l-2.8,4.4c-5.9-2.8-17.7-12.9-20.2-31.6-2.1,16.1-11,27.2-23.8,31.9l-.8-1.5c10.8-5.3,18.5-14.8,20.6-30.4h-19v-2.5h19.3c.1-1.1.2-2.2.2-3.4.2-3.7.3-7.4.3-10.8h3.9c0,4.1-.1,7.9-.3,12l-.2,2.3h20.6v2.5h-19.2c3.2,14.5,12.6,23.2,21.2,27.1ZM477.4,12.8c-1,2.2-2.1,4.5-3.4,6.4h17.6v30h-3.8v-3.8h-23.7v3.9h-3.7v-30.1h11.5c.6-2.1,1-4.3,1.4-6.4h-20.7v-2.4h15.8c-1.6-3.2-3.7-6.6-5.4-9.3l1.2-1.1c2.4,1.9,5.8,5.6,7.8,8.5l-2.7,1.8h10.4c1.6-2.7,3.2-6.1,4.7-10.1l4,1.7c-2.2,3.5-4.7,6.4-6.5,8.4h16.8v2.4h-21.2ZM487.9,21.2h-23.7v5.7h23.7v-5.7ZM487.9,29h-23.7v6.1h23.7v-6.1ZM487.9,37.2h-23.7v6.2h23.7v-6.2ZM527.9,29.1v15.4c0,3.9-2.7,6.4-11.2,2.8l.3-1.6c6.5,1.1,7.4.6,7.4-2v-13c-2.2.9-4.3,1.7-6.2,2.4l-1.3-3.7c2.4-.5,5-1.2,7.5-2v-12.2h-7v-2h7V.7h3.4v12.3h6v2h-6v11.2c2.2-.8,4.4-1.5,6.2-2.2l.6,1.5c-1.9,1.2-4.3,2.5-6.8,3.6h0ZM541.7.7h3.4v22.1c0,14.2-3.2,21.6-12.5,26.7l-.9-1.4c5.6-4.2,8.4-8.6,9.4-16.5-2.9,1.7-6.5,3.3-9.5,4.3l-1.2-3.2c3.7-.8,7.6-2,11-3.2.2-2.1.3-4.5.3-7.3h-8.2v-2.1h8.2v-8.4h-8.3v-2h8.3V.7h0ZM564.1,32.5v2.1h-10.4v14.5h-3.4V.6h3.4v9.2h9.5v2.1h-9.5v8.4h8.9v2.1h-8.9v10h10.4ZM634,15.8c0,7-5.4,14-15.1,22.8l-4.8,4.4v.3h20.9v3h-26.7v-2.4l4.3-3.9c11.2-9.9,16.7-17.6,16.8-24,0-6.1-3.4-9.3-9.2-9.3s-7.7,1.8-10.6,4.2v-3.9c3-1.8,7-3.1,11.4-3.1,7.8,0,13,4.4,13,11.9h0ZM680.6,15.8c0,7-5.4,14-15.1,22.8l-4.8,4.4v.3h20.9v3h-26.7v-2.4l4.3-3.9c11.1-9.9,16.7-17.6,16.8-24,0-6.1-3.4-9.3-9.2-9.3s-7.7,1.8-10.6,4.2v-3.9c3-1.8,7-3.1,11.4-3.1,7.8,0,13,4.4,13,11.9h0ZM716.1,29.8v3.3h-14.8v-3.3h14.8ZM742.9,25.3c-.7,0-1.5.1-2.3.2v-3.2c6.8-.6,12.1-4.4,12.1-9.2s-3.4-6.5-7.5-6.5-7.1,1.5-10,3.6v-3.8c1.9-1.1,5.2-2.6,10.4-2.6,7.8,0,11.5,3.6,11.5,9.3s-6.8,9.1-10.3,10v.3c5.5.1,12.1,3.4,12.2,10.6,0,8.7-6,12.7-15.1,12.9-3,0-6.3-.2-9.3-1l-.2-2.5c3.3.8,6.3.9,8.7.8,8-.5,11.4-4,11.4-10,0-5.8-5.8-9-11.5-9h0ZM807.7,35.2h-6v11.2h-4v-11.2h-19.7v-2.8l18.7-27.7h5v27.5h6v3ZM797.6,32.2V14.9c0-2,0-4.8.1-6.3h-.3c-.5,1.2-1.7,3-3.6,5.9l-11.5,17.4v.3h15.4ZM843.9,31.6l.6,1.5c-4.8,2.8-12.5,6.1-17.7,7.8l-1.2-3.9c1.7-.3,4.6-1,7.7-1.9v-17.6h-7.2v-2.1h7.2V.9h3.4v14.3h7v2.1h-7v16.6c2.6-.8,5.1-1.6,7.2-2.4h0ZM872.4,27.4v2h-13.9v19.8h-3.5v-19.8h-14v-2h14V6.3h-12.3v-2h28v2h-12.1v21h13.9ZM852,22.8l-3.5,1.3c-1.2-4.4-3-9.8-4.7-13.8l1.4-.7c2.3,3.3,5.1,8.5,6.8,13.3h0ZM860.7,23.7c1.8-3.8,4-9.7,5-14.5l3.7,1.5c-1.8,4.6-5.1,10.8-7.3,13.8l-1.4-.7h0Z"/>
</svg>